<svg width="112" height="146" viewBox="0 0 112 146" fill="none" xmlns="http://www.w3.org/2000/svg">
<path d="M90.3669 21.6674C71.3503 21.6674 55.9621 12.8914 55.9621 2.01312C55.9621 12.8914 40.5867 21.6674 21.5572 21.6674C14.2877 21.6674 7.54569 20.4216 2.01312 18.1303V89.284C2.01312 116.268 55.9621 143.987 55.9621 143.987C55.9621 143.987 109.924 116.268 109.924 89.284V18.1303C104.391 20.4216 97.6493 21.6674 90.3669 21.6674Z" stroke="#2A9E66" stroke-width="4" stroke-linecap="round" stroke-linejoin="round"/>
<path d="M67.8636 60.1196C67.8636 54.4247 62.4082 49.7085 55.8206 49.7085C49.2201 49.7085 43.7648 54.4247 43.7648 60.1196C43.7648 63.9904 46.2609 67.4608 49.8249 69.1626L44.6783 90.1294H66.8858L61.7263 69.1626C65.5219 67.3273 67.8636 63.9904 67.8636 60.1196Z" fill="#2A9E66"/>
</svg>
