<svg width="220" height="214" viewBox="0 0 220 214" fill="none" xmlns="http://www.w3.org/2000/svg">
<path d="M55.6221 124.837H35.296V130.756H55.6221V124.837Z" fill="#F4F4F4"/>
<path opacity="0.05" d="M40.6888 124.837H38.0256V130.756H40.6888V124.837Z" fill="#292A2E"/>
<path d="M53.025 126.124H41.9507V129.631H53.025V126.124Z" fill="white"/>
<path d="M71.8351 125.61L52.9487 117.355L50.5815 122.779L69.4679 131.033L71.8351 125.61Z" fill="#F4F4F4"/>
<path opacity="0.05" d="M71.8351 125.61L52.9487 117.355L50.5815 122.779L69.4679 131.033L71.8351 125.61Z" fill="#292A2E"/>
<path d="M69.2989 124.501L66.8242 123.419L64.457 128.843L66.9318 129.924L69.2989 124.501Z" fill="white"/>
<path d="M65.1372 124.086L54.8475 119.589L53.4447 122.803L63.7344 127.3L65.1372 124.086Z" fill="white"/>
<path d="M33.5326 62.886L72.9704 62.886V11.5191L33.5326 11.5191L33.5326 62.886Z" fill="#F4F4F4"/>
<path d="M33.5329 11.5191H32.2535V62.886H33.5329V11.5191Z" fill="#F4F4F4"/>
<path opacity="0.05" d="M33.5329 11.5191H32.2535V62.886H33.5329V11.5191Z" fill="#292A2E"/>
<path opacity="0.05" d="M40.7171 53.5288H65.7865V20.8761H40.7171L40.7171 53.5288Z" fill="#292A2E"/>
<path opacity="0.03" d="M40.7171 53.5288H42.0236L42.0236 20.8761H40.7171V53.5288Z" fill="#292A2E"/>
<path d="M1.27921 108.089H33.5328L33.5328 75.5178H1.27921L1.27921 108.089Z" fill="#F4F4F4"/>
<path opacity="0.05" d="M7.15459 102.156H27.6573L27.6573 81.4513L7.15459 81.4513L7.15459 102.156Z" fill="#292A2E"/>
<path d="M1.27939 75.518H0V108.089H1.27939V75.518Z" fill="#F4F4F4"/>
<path opacity="0.05" d="M1.27939 75.518H0V108.089H1.27939V75.518Z" fill="#292A2E"/>
<path opacity="0.03" d="M7.1545 102.156H8.46096L8.46096 81.4513H7.1545L7.1545 102.156Z" fill="#292A2E"/>
<path d="M183.845 107.761C171.245 107.761 161.031 111.2 161.031 115.443V124.59H206.659V115.443C206.659 111.2 196.444 107.761 183.845 107.761Z" fill="#168A52"/>
<path opacity="0.49" d="M183.845 107.761C171.245 107.761 161.031 111.2 161.031 115.443V124.59H206.659V115.443C206.659 111.2 196.444 107.761 183.845 107.761Z" fill="white"/>
<path opacity="0.49" d="M200.444 115.444V124.589H161.03V115.444C161.03 111.555 169.608 108.342 180.737 107.834C191.866 108.342 200.444 111.555 200.444 115.444Z" fill="white"/>
<path d="M206.658 213.461H207.424L206.658 123.778L205.899 124.545L206.44 187.19L179.412 187.65L178.867 124.538L178.108 124.545L178.653 187.663L162.337 187.94L161.789 124.538L161.03 123.785L161.796 213.461L162.548 213.454L162.343 188.7L178.659 188.422L178.867 213.461L179.626 213.454L179.419 188.41L206.447 187.95L206.658 213.461Z" fill="#292A2E"/>
<path d="M137.844 200.034C137.844 200.034 136.487 207.071 129.902 207.463C123.317 207.856 124.745 213.105 124.745 213.105H149.909V200.524L137.844 200.034Z" fill="#168A52"/>
<path d="M152.201 178.866C152.201 178.866 154.087 185.78 148.352 189.041C142.616 192.302 146.213 196.381 146.213 196.381L168.793 185.265L163.243 173.977L152.201 178.866Z" fill="#168A52"/>
<path d="M149.811 183.436L132.798 119.199C131.507 112.102 133.45 109.026 136.444 106.038C141.704 100.788 163.499 89.6144 163.499 89.6144L189.646 89.543C196.579 89.543 203.394 96.384 203.394 103.322C203.394 110.259 196.346 116.143 189.413 116.143L157.215 119.359L165.943 178.176L149.811 183.436Z" fill="#262626"/>
<path d="M165.943 178.176L162.507 155.02L145.1 165.646L149.811 183.436L165.943 178.176Z" fill="#0C0C0C"/>
<path d="M169.889 102.614C169.889 102.614 158.897 105.065 148.011 115.958C141.411 122.562 141.953 134.514 142.943 157.502L153.755 141.521L165.613 120.119L169.889 102.614Z" fill="#0C0C0C"/>
<path d="M207.946 89.5359L190.189 89.4521L190.182 89.686H184.805C184.805 89.686 171.336 102.087 160.493 109.902C152.606 115.586 147.794 121.006 147.378 126.912C146.363 141.31 134.916 202.715 134.916 202.715L152.144 205.326L167.262 131.942C167.262 131.942 190.902 121.036 196.37 117.241C201.519 113.668 205.156 112.286 206.86 108.386C209.802 101.65 207.946 89.5359 207.946 89.5359Z" fill="#262626"/>
<path d="M188.025 94.0114L159.218 94.3933L175.378 104.051L188.823 97.1029C189.147 96.9288 189.403 96.651 189.551 96.3139C189.698 95.9768 189.728 95.5999 189.636 95.2437C189.544 94.8874 189.336 94.5724 189.043 94.3489C188.751 94.1255 188.393 94.0067 188.025 94.0114Z" fill="#292A2E"/>
<path opacity="0.2" d="M188.025 94.0114L159.218 94.3933L175.378 104.051L188.823 97.1029C189.147 96.9288 189.403 96.651 189.551 96.3139C189.698 95.9768 189.728 95.5999 189.636 95.2437C189.544 94.8874 189.336 94.5724 189.043 94.3489C188.751 94.1255 188.393 94.0067 188.025 94.0114Z" fill="white"/>
<path d="M159.383 42.2979L151.235 68.7158L134.915 90.0975L144.449 101.048L163.864 79.3636C164.759 78.6562 165.459 77.7325 165.898 76.6796L166.2 75.947L177.415 48.794L159.383 42.2979Z" fill="#168A52"/>
<path d="M171.935 14.2558C171.935 14.2558 168.652 11.7744 167.838 6.06696C167.208 1.64764 171.282 4.51071 171.282 4.51071C171.282 4.51071 170.86 1.32404 173.18 1.6403C175.501 1.95656 176.799 5.30403 176.799 5.30403" fill="#0C0C0C"/>
<path d="M185.172 2.01328C185.172 2.01328 196.684 3.24819 192.522 18.8582L191.504 18.9266L189.436 19.0654" fill="#0C0C0C"/>
<path d="M173.863 35.1606C173.914 35.154 174.476 44.4788 185.301 43.6667C192.796 43.1049 195.469 35.1474 195.64 35.1474C194.832 34.9755 193.833 34.7147 193.437 34.6253C192.572 34.4244 191.788 33.9647 191.191 33.3074C190.593 32.6501 190.21 31.8263 190.091 30.9456C189.872 29.6238 190.243 22.861 190.13 21.5236L178.626 24.0932C178.787 26.918 179.912 33.4663 175.969 34.6253C175.312 34.8167 174.605 34.994 173.863 35.1606Z" fill="#E98862"/>
<path d="M178.465 31.949C178.645 31.3678 178.761 30.7686 178.811 30.1621C178.937 28.7782 178.912 27.3846 178.735 26.0062C181.073 25.6908 183.277 24.7254 185.094 23.2196C185.308 24.0091 186.483 27.4588 186.157 28.2078C185.542 29.6258 182.653 31.949 178.465 31.949Z" fill="#0C0C0C"/>
<path d="M180.839 30.1034C185.378 29.696 190.81 26.8263 190.889 20.6609L190.959 15.0978C191.038 8.93258 187.865 3.8934 182.064 3.81946C176.263 3.74578 171.863 8.68848 171.785 14.8539L171.754 17.3167C171.758 18.1625 171.819 19.0071 171.938 19.8445C172.236 22.0601 172.697 25.4286 174.2 27.7073C175.619 29.8586 177.939 30.3635 180.839 30.1034Z" fill="#E98862"/>
<path d="M178.733 24.4679C177.797 24.5104 176.863 24.332 176.008 23.947C175.973 23.9313 175.946 23.9024 175.932 23.8667C175.918 23.831 175.918 23.7912 175.933 23.756C175.948 23.7207 175.977 23.6927 176.012 23.678C176.047 23.6633 176.087 23.6631 176.123 23.6774C177.965 24.4636 179.638 24.3486 180.96 23.3446C180.987 23.3235 181.015 23.3038 181.043 23.2857C181.077 23.27 181.115 23.2674 181.15 23.2784C181.185 23.2895 181.214 23.3133 181.233 23.3451C181.251 23.377 181.257 23.4146 181.249 23.4505C181.241 23.4864 181.219 23.5179 181.189 23.5389C181.179 23.5454 181.161 23.5589 181.139 23.5771C180.443 24.107 179.606 24.4172 178.733 24.4679Z" fill="#0C0C0C"/>
<path d="M178.776 25.8568C178.607 25.8672 178.437 25.8631 178.268 25.8446C178.249 25.8426 178.231 25.8368 178.214 25.8276C178.197 25.8184 178.182 25.806 178.17 25.7911C178.158 25.7761 178.149 25.7589 178.144 25.7405C178.138 25.722 178.136 25.7027 178.138 25.6836C178.14 25.6645 178.146 25.6459 178.155 25.629C178.165 25.6121 178.177 25.5972 178.192 25.5851C178.207 25.5731 178.224 25.564 178.242 25.5586C178.261 25.5532 178.28 25.5514 178.299 25.5534C179.313 25.661 179.797 25.1964 179.818 25.1764C179.845 25.1489 179.882 25.1334 179.921 25.1334C179.96 25.1333 179.997 25.1487 180.025 25.1761C180.052 25.2036 180.068 25.2408 180.068 25.2797C180.068 25.3185 180.052 25.3558 180.025 25.3833C179.676 25.6807 179.235 25.848 178.776 25.8568Z" fill="#0C0C0C"/>
<path d="M173.701 18.5022C174.095 18.5022 174.415 18.1821 174.415 17.7871C174.415 17.3922 174.095 17.0721 173.701 17.0721C173.306 17.0721 172.986 17.3922 172.986 17.7871C172.986 18.1821 173.306 18.5022 173.701 18.5022Z" fill="#0C0C0C"/>
<path d="M180.682 18.0639C181.077 18.0639 181.397 17.7437 181.397 17.3488C181.397 16.9539 181.077 16.6337 180.682 16.6337C180.288 16.6337 179.968 16.9539 179.968 17.3488C179.968 17.7437 180.288 18.0639 180.682 18.0639Z" fill="#0C0C0C"/>
<path d="M190.505 22.5359C192.268 22.5584 193.721 20.6892 193.744 18.9251C193.767 17.161 192.349 16.1699 190.586 16.1476L189.663 17.318L188.99 22.5167L190.505 22.5359Z" fill="#E98862"/>
<path d="M188.751 19.6999C188.751 19.6999 188.156 10.976 185.512 10.4372C183.751 10.0784 179.481 12.5776 175.527 11.8227C173.797 11.4936 172.154 11.921 171.987 12.7389C171.921 13.0627 170.843 8.40893 173.552 4.87813C175.71 2.06747 182.769 1.27239 185.98 2.19408C194.873 4.74697 190.949 16.5302 190.949 16.5302L190.553 19.5379L188.751 19.6999Z" fill="#0C0C0C"/>
<path d="M177.667 22.4093C177.664 22.4095 177.66 22.4095 177.656 22.4093C177.088 22.4037 176.136 22.3305 176.14 21.9054C176.144 21.5529 177.146 17.759 177.26 17.3275C177.27 17.2904 177.294 17.2587 177.327 17.2394C177.36 17.2201 177.4 17.2148 177.437 17.2246C177.474 17.2345 177.506 17.2586 177.525 17.2919C177.544 17.3251 177.55 17.3646 177.54 17.4017C177.095 19.0821 176.432 21.6689 176.429 21.9089C176.484 22.0102 177.071 22.1145 177.659 22.1206C177.696 22.1214 177.731 22.1364 177.758 22.1626C177.784 22.1887 177.799 22.224 177.8 22.2611C177.802 22.2982 177.788 22.3343 177.764 22.362C177.739 22.3897 177.704 22.4068 177.667 22.4098V22.4093Z" fill="#0C0C0C"/>
<path d="M175.729 13.9099C175.132 13.7455 174.502 13.7455 173.905 13.9099C173.611 13.9889 173.332 14.1114 173.075 14.2736C172.821 14.4323 172.588 14.6225 172.382 14.8397C172.344 14.8784 172.322 14.9303 172.321 14.9846C172.32 15.0389 172.34 15.0914 172.377 15.1311C172.414 15.1709 172.465 15.195 172.519 15.1982C172.573 15.2015 172.627 15.1837 172.668 15.1487L172.681 15.1375C172.872 14.9605 173.084 14.8083 173.314 14.6845C173.538 14.5613 173.78 14.4729 174.031 14.4222C174.526 14.3185 175.039 14.3472 175.519 14.5055L175.539 14.5126C175.617 14.5379 175.702 14.5316 175.776 14.495C175.85 14.4584 175.907 14.3943 175.934 14.3165C175.962 14.2387 175.958 14.1532 175.923 14.0782C175.889 14.0032 175.827 13.9447 175.75 13.915L175.729 13.9099Z" fill="#0C0C0C"/>
<path d="M179.957 14.2688C180.411 14.0479 180.916 13.951 181.42 13.9879C181.676 14.0046 181.927 14.0599 182.166 14.152C182.409 14.2443 182.64 14.3668 182.853 14.5167L182.866 14.5258C182.912 14.5552 182.967 14.5659 183.021 14.5555C183.074 14.5452 183.121 14.5146 183.153 14.4702C183.184 14.4259 183.197 14.3711 183.189 14.3173C183.181 14.2635 183.152 14.2149 183.109 14.1817C182.876 13.9939 182.62 13.8364 182.347 13.713C182.071 13.5866 181.777 13.5024 181.476 13.4633C180.863 13.3796 180.238 13.4633 179.668 13.7056C179.63 13.7222 179.595 13.7462 179.566 13.7762C179.537 13.8062 179.514 13.8416 179.499 13.8804C179.484 13.9192 179.476 13.9607 179.477 14.0023C179.478 14.044 179.487 14.0852 179.503 14.1234C179.537 14.2006 179.6 14.2614 179.678 14.2922C179.717 14.3075 179.758 14.315 179.8 14.3143C179.842 14.3136 179.883 14.3046 179.921 14.288L179.939 14.2796L179.957 14.2688Z" fill="#0C0C0C"/>
<path d="M179.667 4.91791C180.069 2.99598 179.336 1.21677 178.031 0.943955C176.726 0.671138 175.343 2.00802 174.942 3.92995C174.541 5.85188 175.273 7.63106 176.578 7.90388C177.883 8.1767 179.266 6.83983 179.667 4.91791Z" fill="#0C0C0C"/>
<path d="M160.412 55.6561C160.753 59.6649 163.17 84.6768 163.499 89.6149H207.927C208.182 85.1612 209.328 65.6863 210.296 56.9758C211.22 48.6649 212.515 44.8829 211.451 42.3004C209.574 37.7451 203.599 35.7111 199.553 35.1628C197.083 34.8281 193.367 34.5883 193.367 34.5883C193.367 34.5883 193.052 40.9574 185.55 41.3119C175.337 41.793 176.019 34.5883 175.969 34.5883C174.314 34.5883 165.308 35.7923 163.056 37.261C159.876 39.3353 158.936 42.1624 158.898 44.7596C158.856 47.7508 160.025 51.1086 160.412 55.6561Z" fill="#168A52"/>
<path d="M162.664 79.7584C162.633 79.7585 162.602 79.7467 162.579 79.7253C162.555 79.7039 162.541 79.6745 162.538 79.6429L160.855 60.3785C160.852 60.3451 160.862 60.3118 160.884 60.2861C160.905 60.2603 160.936 60.2442 160.97 60.2413C160.986 60.2396 161.003 60.2412 161.019 60.2461C161.035 60.251 161.05 60.2591 161.062 60.2698C161.075 60.2806 161.086 60.2938 161.093 60.3087C161.101 60.3235 161.106 60.3398 161.107 60.3565L162.79 79.6209C162.793 79.6543 162.782 79.6875 162.761 79.7131C162.739 79.7388 162.708 79.7549 162.675 79.7579C162.672 79.7582 162.668 79.7584 162.664 79.7584Z" fill="#0C0C0C"/>
<path d="M165.886 90.9483L171.986 85.9957L170.96 86.2862C170.627 86.3733 170.273 86.3305 169.97 86.1666C169.667 86.0026 169.437 85.7297 169.328 85.403C169.277 85.2324 169.261 85.0532 169.282 84.8765C169.303 84.6997 169.36 84.529 169.448 84.3748C169.537 84.2207 169.657 84.0862 169.799 83.9797C169.942 83.8732 170.104 83.7968 170.277 83.7553L183.093 80.6362L184.196 84.7211C184.538 85.9897 184.495 87.3318 184.07 88.5753C183.645 89.8189 182.859 90.9072 181.813 91.7009L177.064 95.2869C176.821 95.4777 176.519 95.5787 176.21 95.5728C175.902 95.5669 175.604 95.4544 175.369 95.2545C175.159 95.0691 175.015 94.8217 174.956 94.5483C174.898 94.275 174.928 93.99 175.043 93.7352C175.022 93.7291 175.004 93.7176 174.989 93.7018C174.976 93.6864 174.968 93.6681 174.964 93.6486C174.96 93.629 174.96 93.6087 174.966 93.5896L174.091 94.2525C173.821 94.4661 173.48 94.5691 173.137 94.5406C172.793 94.512 172.474 94.3541 172.242 94.0988C172.044 93.8634 171.934 93.5654 171.933 93.2572C171.932 92.949 172.04 92.6504 172.238 92.4139C172.224 92.4118 172.211 92.4073 172.198 92.4005L171.839 92.673C171.596 92.8638 171.295 92.9648 170.986 92.9589C170.677 92.953 170.379 92.8405 170.144 92.6405C169.89 92.4158 169.733 92.1014 169.706 91.7634C169.679 91.4255 169.784 91.0902 169.998 90.8278C169.993 90.8204 169.989 90.8126 169.986 90.8042L167.445 92.8667C167.319 92.9689 167.174 93.0453 167.019 93.0915C166.864 93.1378 166.7 93.1529 166.539 93.1361C166.378 93.1192 166.222 93.0708 166.079 92.9935C165.936 92.9162 165.81 92.8115 165.708 92.6855C165.606 92.5595 165.53 92.4145 165.483 92.259C165.437 92.1034 165.422 91.9403 165.439 91.7789C165.456 91.6175 165.504 91.461 165.581 91.3183C165.659 91.1756 165.763 91.0495 165.889 90.9473L165.886 90.9483Z" fill="#E98862"/>
<path opacity="0.2" d="M170.138 90.8779C170.151 90.8732 170.163 90.8661 170.174 90.8569L172.619 88.8249C172.631 88.8146 172.642 88.8019 172.649 88.7876C172.657 88.7733 172.661 88.7576 172.663 88.7415C172.664 88.7254 172.662 88.7092 172.658 88.6938C172.653 88.6783 172.645 88.664 172.635 88.6516C172.624 88.6392 172.612 88.6289 172.597 88.6214C172.583 88.6139 172.567 88.6092 172.551 88.6078C172.535 88.6063 172.519 88.608 172.504 88.6128C172.488 88.6176 172.474 88.6254 172.461 88.6357L170.017 90.6675C169.995 90.686 169.98 90.7118 169.975 90.7402C169.97 90.7687 169.975 90.7981 169.989 90.8232C170.004 90.8483 170.026 90.8675 170.053 90.8776C170.081 90.8876 170.11 90.8877 170.138 90.8779Z" fill="#0A0A0A"/>
<path opacity="0.2" d="M172.292 92.4127C172.305 92.408 172.317 92.401 172.328 92.3921L174.262 90.8101C174.287 90.7894 174.303 90.7596 174.306 90.7271C174.309 90.6946 174.3 90.6622 174.279 90.6369C174.258 90.6116 174.229 90.5956 174.196 90.5923C174.164 90.589 174.131 90.5988 174.106 90.6194L172.172 92.2015C172.15 92.2198 172.135 92.2456 172.129 92.2741C172.124 92.3027 172.129 92.3322 172.143 92.3575C172.157 92.3828 172.18 92.4022 172.207 92.4123C172.235 92.4224 172.265 92.4225 172.292 92.4127Z" fill="#0A0A0A"/>
<path opacity="0.2" d="M175.122 93.7393C175.136 93.7341 175.149 93.7264 175.161 93.7167L176.056 92.9482C176.068 92.9377 176.078 92.9249 176.086 92.9105C176.093 92.8961 176.097 92.8804 176.099 92.8643C176.1 92.8482 176.098 92.832 176.093 92.8167C176.088 92.8013 176.08 92.7871 176.069 92.7749C176.059 92.7626 176.046 92.7526 176.032 92.7453C176.017 92.738 176.002 92.7336 175.986 92.7323C175.97 92.7311 175.953 92.7331 175.938 92.7381C175.923 92.7431 175.909 92.7511 175.896 92.7616L175 93.5301C174.979 93.5488 174.964 93.5746 174.96 93.6029C174.955 93.6312 174.96 93.6603 174.974 93.6851C174.989 93.7099 175.012 93.7289 175.038 93.7388C175.065 93.7487 175.095 93.7488 175.122 93.7393Z" fill="#0A0A0A"/>
<path d="M219.803 78.8177L219.756 78.6098L211.646 42.719L195.603 46.348L201.933 74.3632L176.578 80.5975L179.699 94.9136L213.487 88.4648C213.563 88.4499 213.675 88.4271 213.752 88.4096C214.779 88.1774 215.75 87.745 216.609 87.1373C217.469 86.5296 218.201 85.7583 218.763 84.8676C219.324 83.9769 219.706 82.9842 219.884 81.9461C220.062 80.9081 220.035 79.845 219.803 78.8177Z" fill="#168A52"/>
<path d="M176.454 80.6246C176.448 80.5925 176.454 80.559 176.471 80.5312C176.488 80.5035 176.516 80.4836 176.548 80.4757L201.79 74.272L197.685 56.1329C197.681 56.1164 197.68 56.0991 197.682 56.0821C197.684 56.0651 197.69 56.0487 197.699 56.0339C197.707 56.0192 197.719 56.0064 197.733 55.9963C197.747 55.9862 197.763 55.9791 197.779 55.9753C197.796 55.9715 197.813 55.9711 197.83 55.9742C197.847 55.9773 197.863 55.9839 197.877 55.9934C197.892 56.0029 197.904 56.0152 197.913 56.0295C197.923 56.0439 197.929 56.06 197.932 56.0769L202.064 74.3373C202.071 74.3698 202.066 74.404 202.048 74.4325C202.031 74.4609 202.003 74.4813 201.971 74.4893L176.727 80.693C176.727 80.693 176.896 81.4313 176.944 81.6805C176.948 81.7129 176.938 81.7455 176.918 81.7711C176.898 81.7967 176.868 81.8132 176.836 81.817C176.803 81.8207 176.771 81.8115 176.745 81.7912C176.72 81.7709 176.703 81.7413 176.699 81.7089C176.641 81.4356 176.454 80.6246 176.454 80.6246Z" fill="#0C0C0C"/>
<path d="M177.444 100.616L167.695 70.6296C167.524 70.1026 167.19 69.6434 166.742 69.3177C166.294 68.9921 165.755 68.8168 165.201 68.8168H125.485C125.071 68.8168 124.663 68.9148 124.294 69.1029C123.925 69.291 123.606 69.5639 123.363 69.8991C123.119 70.2343 122.959 70.6223 122.894 71.0315C122.829 71.4407 122.863 71.8595 122.991 72.2534L132.739 102.24C132.911 102.767 133.244 103.226 133.692 103.551C134.14 103.877 134.68 104.052 135.234 104.052H174.95C175.364 104.052 175.772 103.954 176.14 103.766C176.509 103.578 176.828 103.305 177.072 102.97C177.315 102.635 177.476 102.247 177.54 101.838C177.605 101.428 177.572 101.01 177.444 100.616Z" fill="#292A2E"/>
<path opacity="0.2" d="M177.444 100.616L167.695 70.6296C167.524 70.1026 167.19 69.6434 166.742 69.3177C166.294 68.9921 165.755 68.8168 165.201 68.8168H125.485C125.071 68.8168 124.663 68.9148 124.294 69.1029C123.925 69.291 123.606 69.5639 123.363 69.8991C123.119 70.2343 122.959 70.6223 122.894 71.0315C122.829 71.4407 122.863 71.8595 122.991 72.2534L132.739 102.24C132.911 102.767 133.244 103.226 133.692 103.551C134.14 103.877 134.68 104.052 135.234 104.052H174.95C175.364 104.052 175.772 103.954 176.14 103.766C176.509 103.578 176.828 103.305 177.072 102.97C177.315 102.635 177.476 102.247 177.54 101.838C177.605 101.428 177.572 101.01 177.444 100.616Z" fill="white"/>
<path d="M149.073 90.6027C151.374 90.6027 153.239 88.7366 153.239 86.4346C153.239 84.1326 151.374 82.2664 149.073 82.2664C146.773 82.2664 144.908 84.1326 144.908 86.4346C144.908 88.7366 146.773 90.6027 149.073 90.6027Z" fill="white"/>
<path d="M109.861 3.1687H31.0341C27.3822 3.1687 24.4218 6.1311 24.4218 9.7854V105.543C24.4218 109.197 27.3822 112.159 31.0341 112.159H109.861C113.513 112.159 116.473 109.197 116.473 105.543V9.7854C116.473 6.1311 113.513 3.1687 109.861 3.1687Z" fill="#292A2E"/>
<path d="M112.774 0.25324H33.9478C30.2959 0.25324 27.3354 3.21563 27.3354 6.86993V102.627C27.3354 106.282 30.2959 109.244 33.9478 109.244H112.774C116.426 109.244 119.387 106.282 119.387 102.627V6.86993C119.387 3.21563 116.426 0.25324 112.774 0.25324Z" fill="white"/>
<path d="M112.774 109.497H33.9477C32.1274 109.495 30.3823 108.771 29.0953 107.483C27.8082 106.195 27.0843 104.448 27.0823 102.627V6.86991C27.0843 5.04851 27.8083 3.30229 29.0954 2.01437C30.3824 0.726448 32.1275 0.00201067 33.9477 0L112.774 0C114.595 0.00207768 116.34 0.726545 117.627 2.01446C118.914 3.30237 119.637 5.04855 119.639 6.86991V102.627C119.638 104.448 118.914 106.195 117.627 107.483C116.34 108.771 114.595 109.495 112.774 109.497ZM33.9477 0.506425C32.2617 0.508301 30.6453 1.17934 29.4531 2.37232C28.2609 3.5653 27.5903 5.18278 27.5884 6.86991V102.627C27.5903 104.314 28.2609 105.932 29.4531 107.125C30.6453 108.318 32.2617 108.989 33.9477 108.99H112.774C114.46 108.989 116.077 108.318 117.269 107.125C118.461 105.932 119.132 104.314 119.133 102.627V6.86991C119.132 5.18281 118.461 3.56532 117.269 2.37233C116.077 1.17935 114.46 0.508302 112.774 0.506425H33.9477Z" fill="#292A2E"/>
<path d="M26.2737 122.946C35.3404 122.946 42.6905 115.591 42.6905 106.518C42.6905 97.4453 35.3404 90.0904 26.2737 90.0904C17.2069 90.0904 9.8569 97.4453 9.8569 106.518C9.8569 115.591 17.2069 122.946 26.2737 122.946Z" fill="#292A2E"/>
<path d="M22.8656 104.374C22.6495 104.374 22.4422 104.288 22.2894 104.135C22.1365 103.982 22.0506 103.775 22.0506 103.559V99.611C22.0506 97.428 23.9451 95.6518 26.2736 95.6518C28.6021 95.6518 30.4967 97.428 30.4967 99.611V103.288C30.4986 103.396 30.4789 103.504 30.4388 103.604C30.3987 103.705 30.339 103.797 30.2631 103.874C30.1873 103.951 30.0968 104.012 29.997 104.054C29.8971 104.096 29.79 104.118 29.6817 104.118C29.5735 104.118 29.4663 104.096 29.3665 104.054C29.2667 104.012 29.1762 103.951 29.1004 103.874C29.0245 103.797 28.9648 103.705 28.9247 103.604C28.8846 103.504 28.8649 103.396 28.8668 103.288V99.611C28.8668 98.3272 27.7028 97.2827 26.2736 97.2827C24.8444 97.2827 23.6804 98.3272 23.6804 99.611V103.559C23.6803 103.775 23.5944 103.983 23.4416 104.136C23.2888 104.288 23.0816 104.374 22.8656 104.374Z" fill="white"/>
<path d="M31.4728 102.876H21.0747C20.4683 102.876 19.9767 103.368 19.9767 103.975V113.776C19.9767 114.383 20.4683 114.875 21.0747 114.875H31.4728C32.0792 114.875 32.5707 114.383 32.5707 113.776V103.975C32.5707 103.368 32.0792 102.876 31.4728 102.876Z" fill="white"/>
<path d="M25.2384 107.905C25.2383 108.1 25.2928 108.29 25.3957 108.455C25.4986 108.62 25.6458 108.752 25.8204 108.838V110.429C25.8204 110.549 25.868 110.664 25.9528 110.749C26.0375 110.834 26.1525 110.881 26.2723 110.881C26.3922 110.881 26.5072 110.834 26.5919 110.749C26.6767 110.664 26.7243 110.549 26.7243 110.429V108.838C26.8906 108.757 27.0323 108.633 27.1346 108.479C27.2369 108.325 27.2961 108.146 27.306 107.961C27.316 107.777 27.2764 107.593 27.1912 107.429C27.1061 107.264 26.9786 107.126 26.822 107.028C26.6653 106.93 26.4852 106.875 26.3004 106.87C26.1157 106.865 25.9329 106.91 25.7712 106.999C25.6094 107.089 25.4746 107.22 25.3807 107.379C25.2868 107.539 25.2372 107.72 25.2371 107.905H25.2384Z" fill="#292A2E"/>
<path d="M105.891 54.6364H40.8313C39.2782 54.6364 38.0192 55.8962 38.0192 57.4503V66.5771C38.0192 68.1312 39.2782 69.391 40.8313 69.391H105.891C107.444 69.391 108.703 68.1312 108.703 66.5771V57.4503C108.703 55.8962 107.444 54.6364 105.891 54.6364Z" fill="white"/>
<path d="M105.89 69.644H40.8312C40.0186 69.6431 39.2395 69.3196 38.6649 68.7446C38.0902 68.1696 37.767 67.39 37.7661 66.5768V57.4503C37.767 56.6371 38.0902 55.8575 38.6649 55.2825C39.2395 54.7074 40.0185 54.3839 40.8312 54.3829H105.89C106.703 54.3838 107.482 54.7073 108.057 55.2824C108.632 55.8574 108.955 56.6371 108.956 57.4503V66.5768C108.955 67.3901 108.632 68.1697 108.057 68.7447C107.482 69.3197 106.703 69.6431 105.89 69.644ZM40.8312 54.8893C40.1527 54.8901 39.5022 55.1601 39.0224 55.6403C38.5427 56.1204 38.2728 56.7714 38.2722 57.4503V66.5768C38.2729 67.2558 38.5428 67.9067 39.0225 68.3868C39.5023 68.8668 40.1527 69.1368 40.8312 69.1376H105.89C106.569 69.1368 107.219 68.8668 107.699 68.3868C108.179 67.9067 108.449 67.2558 108.45 66.5768V57.4503C108.449 56.7713 108.179 56.1204 107.699 55.6402C107.22 55.1601 106.569 54.8901 105.89 54.8893H40.8312Z" fill="#292A2E"/>
<path d="M105.891 75.7224H40.8313C39.2782 75.7224 38.0192 76.9822 38.0192 78.5363V87.6631C38.0192 89.2172 39.2782 90.4771 40.8313 90.4771H105.891C107.444 90.4771 108.703 89.2172 108.703 87.6631V78.5363C108.703 76.9822 107.444 75.7224 105.891 75.7224Z" fill="white"/>
<path d="M105.89 90.73H40.8312C40.0184 90.7291 39.2392 90.4055 38.6646 89.8304C38.09 89.2552 37.7668 88.4754 37.7661 87.6621V78.5363C37.767 77.7232 38.0902 76.9436 38.6649 76.3686C39.2395 75.7936 40.0186 75.4701 40.8312 75.4692H105.89C106.703 75.47 107.482 75.7935 108.057 76.3685C108.632 76.9435 108.955 77.7231 108.956 78.5363V87.6621C108.955 88.4755 108.632 89.2553 108.057 89.8305C107.483 90.4056 106.703 90.7292 105.89 90.73ZM40.8312 75.9756C40.1527 75.9763 39.5023 76.2464 39.0225 76.7264C38.5428 77.2065 38.2729 77.8574 38.2722 78.5363V87.6621C38.2729 88.341 38.5428 88.9919 39.0225 89.472C39.5023 89.9521 40.1527 90.2221 40.8312 90.2228H105.89C106.569 90.2222 107.22 89.9522 107.699 89.4721C108.179 88.992 108.449 88.3411 108.45 87.6621V78.5363C108.449 77.8574 108.179 77.2064 107.699 76.7263C107.22 76.2463 106.569 75.9763 105.89 75.9756H40.8312Z" fill="#292A2E"/>
<path d="M73.3609 43.6614C81.7033 43.6614 88.4661 36.894 88.4661 28.5461C88.4661 20.1982 81.7033 13.4309 73.3609 13.4309C65.0185 13.4309 58.2556 20.1982 58.2556 28.5461C58.2556 36.894 65.0185 43.6614 73.3609 43.6614Z" fill="white"/>
<path d="M73.3608 43.9146C70.3232 43.9146 67.3538 43.0133 64.8282 41.3246C62.3025 39.6358 60.334 37.2356 59.1716 34.4274C58.0091 31.6192 57.705 28.5291 58.2976 25.5479C58.8902 22.5667 60.3529 19.8283 62.5008 17.679C64.6487 15.5297 67.3853 14.066 70.3645 13.473C73.3438 12.88 76.4318 13.1843 79.2382 14.3475C82.0445 15.5107 84.4431 17.4805 86.1307 20.0079C87.8183 22.5352 88.7191 25.5065 88.7191 28.5461C88.7145 32.6207 87.095 36.5271 84.2157 39.4083C81.3365 42.2894 77.4327 43.91 73.3608 43.9146ZM73.3608 13.6841C70.4233 13.6841 67.5518 14.5557 65.1093 16.1888C62.6669 17.8219 60.7633 20.143 59.6391 22.8587C58.515 25.5744 58.2209 28.5626 58.794 31.4456C59.367 34.3285 60.7816 36.9767 62.8587 39.0552C64.9358 41.1337 67.5822 42.5492 70.4633 43.1226C73.3443 43.6961 76.3306 43.4018 79.0445 42.2769C81.7584 41.152 84.078 39.2471 85.7099 36.803C87.3419 34.359 88.213 31.4856 88.213 28.5461C88.2086 24.6058 86.6424 20.8282 83.858 18.042C81.0736 15.2558 77.2985 13.6885 73.3608 13.6841Z" fill="#292A2E"/>
<path opacity="0.5" d="M88.1306 28.5461C88.135 32.0447 86.8943 35.4305 84.631 38.097C83.237 36.4708 81.508 35.1655 79.5625 34.2708C77.617 33.376 75.5011 32.9129 73.36 32.9133C71.2189 32.9137 69.1031 33.3775 67.158 34.273C65.2128 35.1684 63.4842 36.4743 62.0908 38.1011C60.5539 36.2859 59.4776 34.1264 58.9533 31.8059C58.429 29.4854 58.4723 27.0726 59.0793 24.7724C59.6864 22.4722 60.8394 20.3526 62.4404 18.5938C64.0413 16.835 66.0429 15.4889 68.275 14.6698C70.5072 13.8507 72.9039 13.583 75.2616 13.8892C77.6193 14.1955 79.8683 15.0667 81.8174 16.4289C83.7666 17.7911 85.3584 19.604 86.4575 21.7136C87.5566 23.8232 88.1306 26.167 88.1306 28.5461Z" fill="#168A52"/>
<path d="M84.631 38.097C83.2447 39.7351 81.5185 41.0514 79.5724 41.9544C77.6263 42.8573 75.5069 43.3253 73.3618 43.3257C71.2167 43.326 69.0972 42.8589 67.1508 41.9566C65.2043 41.0544 63.4776 39.7387 62.0908 38.1011C63.4842 36.4743 65.2128 35.1685 67.1579 34.273C69.1031 33.3775 71.2188 32.9137 73.3599 32.9133C75.5011 32.9129 77.6169 33.376 79.5624 34.2708C81.5079 35.1655 83.237 36.4708 84.631 38.097Z" fill="white"/>
<path d="M73.3609 30.1558C76.6581 30.1558 79.331 27.4811 79.331 24.1817C79.331 20.8824 76.6581 18.2077 73.3609 18.2077C70.0637 18.2077 67.3908 20.8824 67.3908 24.1817C67.3908 27.4811 70.0637 30.1558 73.3609 30.1558Z" fill="white"/>
<g opacity="0.4">
<path d="M43.4954 84.8965C44.4871 84.8965 45.291 84.0921 45.291 83.0997C45.291 82.1074 44.4871 81.3029 43.4954 81.3029C42.5037 81.3029 41.6998 82.1074 41.6998 83.0997C41.6998 84.0921 42.5037 84.8965 43.4954 84.8965Z" fill="#292A2E"/>
<path d="M49.1124 84.8965C50.1041 84.8965 50.908 84.0921 50.908 83.0997C50.908 82.1074 50.1041 81.3029 49.1124 81.3029C48.1207 81.3029 47.3168 82.1074 47.3168 83.0997C47.3168 84.0921 48.1207 84.8965 49.1124 84.8965Z" fill="#292A2E"/>
<path d="M54.7292 84.8965C55.7208 84.8965 56.5248 84.0921 56.5248 83.0997C56.5248 82.1074 55.7208 81.3029 54.7292 81.3029C53.7375 81.3029 52.9335 82.1074 52.9335 83.0997C52.9335 84.0921 53.7375 84.8965 54.7292 84.8965Z" fill="#292A2E"/>
<path d="M60.3459 84.8965C61.3376 84.8965 62.1415 84.0921 62.1415 83.0997C62.1415 82.1074 61.3376 81.3029 60.3459 81.3029C59.3542 81.3029 58.5503 82.1074 58.5503 83.0997C58.5503 84.0921 59.3542 84.8965 60.3459 84.8965Z" fill="#292A2E"/>
<path d="M65.9627 84.8965C66.9544 84.8965 67.7583 84.0921 67.7583 83.0997C67.7583 82.1074 66.9544 81.3029 65.9627 81.3029C64.971 81.3029 64.1671 82.1074 64.1671 83.0997C64.1671 84.0921 64.971 84.8965 65.9627 84.8965Z" fill="#292A2E"/>
<path d="M71.5794 84.8965C72.5711 84.8965 73.375 84.0921 73.375 83.0997C73.375 82.1074 72.5711 81.3029 71.5794 81.3029C70.5877 81.3029 69.7838 82.1074 69.7838 83.0997C69.7838 84.0921 70.5877 84.8965 71.5794 84.8965Z" fill="#292A2E"/>
<path d="M77.1962 84.8965C78.1879 84.8965 78.9918 84.0921 78.9918 83.0997C78.9918 82.1074 78.1879 81.3029 77.1962 81.3029C76.2045 81.3029 75.4006 82.1074 75.4006 83.0997C75.4006 84.0921 76.2045 84.8965 77.1962 84.8965Z" fill="#292A2E"/>
</g>
<g opacity="0.3">
<path d="M45.2765 61.9053V62.513H42.9705V61.9053H45.2765Z" fill="black"/>
<path d="M48.1422 61.9053V62.513H45.8362V61.9053H48.1422Z" fill="black"/>
<path d="M51.0077 61.9053V62.513H48.7017V61.9053H51.0077Z" fill="black"/>
<path d="M53.8732 61.9053V62.513H51.5672V61.9053H53.8732Z" fill="black"/>
<path d="M56.7392 61.9053V62.513H54.4329V61.9053H56.7392Z" fill="black"/>
<path d="M61.9107 65.3341C61.3978 65.5978 60.8263 65.7266 60.25 65.7086C58.7188 65.7086 57.4209 64.5874 57.4209 62.7936C57.4209 60.8692 58.7563 59.2061 60.8287 59.2061C62.4532 59.2061 63.5456 60.3455 63.5456 61.9061C63.5456 63.3076 62.7612 64.1295 61.8836 64.1295C61.5104 64.1295 61.165 63.8763 61.1928 63.3076H61.1554C61.0346 63.5539 60.8474 63.7615 60.6148 63.9067C60.3823 64.052 60.1137 64.1292 59.8395 64.1295C59.298 64.1295 58.8312 63.6905 58.8312 62.9526C58.8301 62.6615 58.8867 62.3731 58.9975 62.104C59.1083 61.8349 59.2713 61.5904 59.477 61.3845C59.6827 61.1787 59.927 61.0156 60.196 60.9047C60.4649 60.7938 60.7531 60.7372 61.044 60.7383C61.3871 60.7333 61.7274 60.8001 62.0431 60.9345L61.7255 62.6255C61.5855 63.3345 61.6976 63.6636 62.0056 63.672C62.4818 63.6811 63.014 63.0458 63.014 61.9623C63.014 60.6076 62.2017 59.636 60.7545 59.636C59.2327 59.636 57.9536 60.8411 57.9536 62.7376C57.9536 64.2979 58.9713 65.2601 60.3532 65.2601C60.8431 65.2715 61.328 65.1591 61.7629 64.9332L61.9107 65.3341ZM61.3973 61.2981C61.2457 61.2536 61.0884 61.2316 60.9304 61.2328C60.1088 61.2328 59.4461 62.0081 59.4461 62.9144C59.4461 63.3253 59.6515 63.6234 60.0622 63.6234C60.6037 63.6234 61.0984 62.9321 61.2009 62.3528L61.3973 61.2981Z" fill="black"/>
<path d="M66.4841 61.9053V62.513H64.1781V61.9053H66.4841Z" fill="black"/>
<path d="M69.3498 61.9053V62.513H67.0436V61.9053H69.3498Z" fill="black"/>
<path d="M72.2155 61.9053V62.513H69.9095V61.9053H72.2155Z" fill="black"/>
</g>
</svg>
