<svg width="30" height="30" viewBox="0 0 30 30" fill="none" xmlns="http://www.w3.org/2000/svg">
<path d="M15 28.4375H11.25C4.4625 28.4375 1.5625 25.5375 1.5625 18.75V11.25C1.5625 4.4625 4.4625 1.5625 11.25 1.5625H18.75C25.5375 1.5625 28.4375 4.4625 28.4375 11.25V15C28.4375 15.5125 28.0125 15.9375 27.5 15.9375C26.9875 15.9375 26.5625 15.5125 26.5625 15V11.25C26.5625 5.4875 24.5125 3.4375 18.75 3.4375H11.25C5.4875 3.4375 3.4375 5.4875 3.4375 11.25V18.75C3.4375 24.5125 5.4875 26.5625 11.25 26.5625H15C15.5125 26.5625 15.9375 26.9875 15.9375 27.5C15.9375 28.0125 15.5125 28.4375 15 28.4375Z" fill="#F9FAFB"/>
<path d="M20.4628 28.4623C20.4503 28.4623 20.4503 28.4623 20.4378 28.4623C19.1753 28.4498 18.1253 27.6749 17.7503 26.4624L15.4378 19.0248C15.1253 17.9998 15.3878 16.8998 16.1503 16.1623C16.9003 15.4248 17.9878 15.1498 18.9878 15.4623L26.4378 17.7748C27.6378 18.1498 28.4253 19.1998 28.4378 20.4623C28.4503 21.7123 27.6878 22.7748 26.4878 23.1748L24.4503 23.8623C24.1628 23.9623 23.9378 24.1748 23.8503 24.4623L23.1503 26.5123C22.7628 27.6998 21.7128 28.4623 20.4628 28.4623ZM18.1378 17.2123C17.8003 17.2123 17.5753 17.3998 17.4753 17.4873C17.2128 17.7498 17.1253 18.1123 17.2378 18.4748L19.5503 25.9124C19.7503 26.5499 20.2753 26.5748 20.4753 26.5873C20.6503 26.5873 21.1878 26.5373 21.3878 25.9248L22.0878 23.8748C22.3628 23.0373 23.0378 22.3749 23.8753 22.0874L25.9128 21.3998C26.5378 21.1998 26.5753 20.6499 26.5753 20.4874C26.5753 20.3249 26.5253 19.7748 25.9003 19.5748L18.4503 17.2623C18.3253 17.2248 18.2253 17.2123 18.1378 17.2123Z" fill="#F9FAFB"/>
</svg>
