<svg width="166" height="166" viewBox="0 0 166 166" fill="none" xmlns="http://www.w3.org/2000/svg">
<g filter="url(#filter0_d_1_2843)">
<g filter="url(#filter1_d_1_2843)">
<path d="M147.256 40.7392L78.0891 109.906C77.4493 110.547 76.6892 111.056 75.8525 111.403C75.0157 111.75 74.1188 111.929 73.2129 111.929C72.307 111.929 71.4101 111.75 70.5733 111.403C69.7366 111.056 68.9765 110.547 68.3366 109.906L48.7625 90.3317C48.1221 89.6913 47.6142 88.9311 47.2676 88.0944C46.921 87.2578 46.7427 86.361 46.7427 85.4554C46.7427 84.5498 46.921 83.6531 47.2676 82.8164C47.6142 81.9797 48.1221 81.2195 48.7625 80.5792C49.4028 79.9388 50.1631 79.4308 50.9997 79.0843C51.8364 78.7377 52.7331 78.5594 53.6387 78.5594C54.5443 78.5594 55.4411 78.7377 56.2777 79.0843C57.1144 79.4308 57.8746 79.9388 58.515 80.5792L73.1783 95.2425L137.434 30.9867C138.074 30.3455 138.834 29.8368 139.671 29.4897C140.508 29.1426 141.405 28.9639 142.31 28.9639C143.216 28.9639 144.113 29.1426 144.95 29.4897C145.787 29.8368 146.547 30.3455 147.187 30.9867C149.953 33.6842 149.953 38.0417 147.256 40.7392ZM109.076 18.9517C97.3867 14.1792 84.1066 12.5192 70.2733 15.0092C42.1225 20.0583 19.6433 42.745 14.8708 70.8958C12.9772 81.6212 13.6408 92.642 16.8077 103.063C19.9747 113.483 25.5555 123.01 33.0968 130.868C40.638 138.726 49.9269 144.693 60.2084 148.286C70.49 151.879 81.4742 152.995 92.2683 151.544C119.658 148.017 142.622 127.613 149.815 100.983C152.582 90.8158 152.858 80.9942 151.267 71.795C150.368 66.2617 143.521 64.1175 139.509 68.06C137.918 69.6508 137.227 72.0025 137.642 74.2158C139.163 83.415 138.472 93.2367 134.045 103.681C126.022 122.425 108.592 136.189 88.3258 138.057C53.0508 141.307 23.7933 111.427 28.1508 75.945C31.125 51.46 50.8375 31.54 75.2533 28.1508C87.2191 26.4908 98.5625 28.7733 108.246 33.7533C109.878 34.6063 111.783 34.7758 113.541 34.2246C115.298 33.6733 116.765 32.4464 117.618 30.8137C118.471 29.1811 118.64 27.2765 118.089 25.5189C117.538 23.7613 116.311 22.2947 114.678 21.4417C112.811 20.6117 110.943 19.7125 109.076 18.9517Z" fill="#2D9017"/>
</g>
</g>
<defs>
<filter id="filter0_d_1_2843" x="-4" y="-2" width="174" height="174" filterUnits="userSpaceOnUse" color-interpolation-filters="sRGB">
<feFlood flood-opacity="0" result="BackgroundImageFix"/>
<feColorMatrix in="SourceAlpha" type="matrix" values="0 0 0 0 0 0 0 0 0 0 0 0 0 0 0 0 0 0 127 0" result="hardAlpha"/>
<feOffset dy="2"/>
<feGaussianBlur stdDeviation="2"/>
<feComposite in2="hardAlpha" operator="out"/>
<feColorMatrix type="matrix" values="0 0 0 0 0 0 0 0 0 0 0 0 0 0 0 0 0 0 0.14 0"/>
<feBlend mode="normal" in2="BackgroundImageFix" result="effect1_dropShadow_1_2843"/>
<feBlend mode="normal" in="SourceGraphic" in2="effect1_dropShadow_1_2843" result="shape"/>
</filter>
<filter id="filter1_d_1_2843" x="9.81641" y="11.8589" width="146.424" height="146.302" filterUnits="userSpaceOnUse" color-interpolation-filters="sRGB">
<feFlood flood-opacity="0" result="BackgroundImageFix"/>
<feColorMatrix in="SourceAlpha" type="matrix" values="0 0 0 0 0 0 0 0 0 0 0 0 0 0 0 0 0 0 127 0" result="hardAlpha"/>
<feOffset dy="2"/>
<feGaussianBlur stdDeviation="2"/>
<feComposite in2="hardAlpha" operator="out"/>
<feColorMatrix type="matrix" values="0 0 0 0 0 0 0 0 0 0 0 0 0 0 0 0 0 0 0.14 0"/>
<feBlend mode="normal" in2="BackgroundImageFix" result="effect1_dropShadow_1_2843"/>
<feBlend mode="normal" in="SourceGraphic" in2="effect1_dropShadow_1_2843" result="shape"/>
</filter>
</defs>
</svg>
