<svg width="18" height="18" viewBox="0 0 18 18" fill="none" xmlns="http://www.w3.org/2000/svg">
<path d="M9.88505 14.025C9.00755 14.025 8.26505 13.485 7.98755 12.6525L7.46255 11.1C7.38005 10.83 7.17005 10.6275 6.91505 10.545L5.35505 10.02C4.51505 9.73501 3.97505 8.9775 3.99005 8.0925C4.00505 7.2075 4.56005 6.46501 5.40755 6.20251L11.0551 4.4475C11.7676 4.23 12.54 4.41751 13.0651 4.95001C13.59 5.48251 13.7776 6.24751 13.5601 6.96001L11.8051 12.615C11.5426 13.4625 10.8001 14.0175 9.90755 14.0325C9.90005 14.025 9.89255 14.025 9.88505 14.025ZM11.6401 5.47501C11.5501 5.47501 11.4675 5.49001 11.3775 5.51251L5.72255 7.27501C5.26505 7.41751 5.10005 7.79251 5.10005 8.10751C5.09255 8.41501 5.25005 8.80501 5.70005 8.95501L7.26005 9.47251C7.86005 9.66751 8.33255 10.14 8.52755 10.7475L9.04505 12.2925C9.19505 12.7425 9.54755 12.885 9.89255 12.9C10.2 12.9 10.5826 12.735 10.7251 12.2775L12.4801 6.62251C12.5776 6.30751 12.495 5.97751 12.2626 5.74501C12.09 5.56501 11.8726 5.47501 11.6401 5.47501Z" fill="#2A9E66"/>
<path d="M11.25 17.0625H6.75C2.6775 17.0625 0.9375 15.3225 0.9375 11.25V6.75C0.9375 2.6775 2.6775 0.9375 6.75 0.9375H11.25C15.3225 0.9375 17.0625 2.6775 17.0625 6.75V11.25C17.0625 15.3225 15.3225 17.0625 11.25 17.0625ZM6.75 2.0625C3.2925 2.0625 2.0625 3.2925 2.0625 6.75V11.25C2.0625 14.7075 3.2925 15.9375 6.75 15.9375H11.25C14.7075 15.9375 15.9375 14.7075 15.9375 11.25V6.75C15.9375 3.2925 14.7075 2.0625 11.25 2.0625H6.75Z" fill="#2A9E66"/>
</svg>
