<svg width="30" height="30" viewBox="0 0 30 30" fill="none" xmlns="http://www.w3.org/2000/svg">
<path d="M15 28.4375C7.5875 28.4375 1.5625 22.4125 1.5625 15C1.5625 7.5875 7.5875 1.5625 15 1.5625C22.4125 1.5625 28.4375 7.5875 28.4375 15C28.4375 22.4125 22.4125 28.4375 15 28.4375ZM15 3.4375C8.625 3.4375 3.4375 8.625 3.4375 15C3.4375 21.375 8.625 26.5625 15 26.5625C21.375 26.5625 26.5625 21.375 26.5625 15C26.5625 8.625 21.375 3.4375 15 3.4375Z" fill="white"/>
<path d="M19.375 15.9375H11.875C11.3625 15.9375 10.9375 15.5125 10.9375 15C10.9375 14.4875 11.3625 14.0625 11.875 14.0625H19.375C19.8875 14.0625 20.3125 14.4875 20.3125 15C20.3125 15.5125 19.8875 15.9375 19.375 15.9375Z" fill="white"/>
<path d="M14.375 19.6875C14.1375 19.6875 13.9 19.6 13.7125 19.4125L9.96255 15.6625C9.60005 15.3 9.60005 14.7 9.96255 14.3375L13.7125 10.5875C14.075 10.225 14.675 10.225 15.0375 10.5875C15.4 10.95 15.4 11.55 15.0375 11.9125L11.95 15L15.0375 18.0875C15.4 18.45 15.4 19.05 15.0375 19.4125C14.85 19.6 14.6125 19.6875 14.375 19.6875Z" fill="white"/>
</svg>
