<svg width="297" height="192" viewBox="0 0 297 192" fill="none" xmlns="http://www.w3.org/2000/svg">
<g opacity="0.2">
<path d="M260.426 166.697V166.656C260.426 163.1 263.312 160.191 266.864 160.191C270.417 160.191 273.321 163.1 273.321 166.656V166.697H260.426Z" fill="#EFDCD7"/>
<path d="M6.50436 152.704V152.661C6.50436 149.128 9.38801 146.219 12.9406 146.199C16.4932 146.199 19.3972 149.106 19.3972 152.661V152.704H6.50436Z" fill="#EFDCD7"/>
<path d="M167.85 173.996V173.955C167.85 170.922 170.316 168.454 173.347 168.454C176.377 168.454 178.843 170.922 178.843 173.955V173.996H167.85Z" fill="#EFDCD7"/>
<path d="M260.017 33.0556V33.033C259.795 32.4336 259.682 31.7889 259.682 31.1013C259.682 27.9256 262.279 25.3289 265.452 25.3289C266.161 25.3289 266.828 25.4601 267.47 25.684C269.156 21.443 273.327 18.6224 277.854 18.6224C281.935 18.6224 285.685 20.8436 287.66 24.44C288.435 24.1731 289.212 24.0396 289.945 24.0396C293.827 24.0396 297 27.2154 297 31.1013C297 31.7686 296.91 32.4336 296.733 33.033V33.0556H260.017Z" fill="white"/>
<path d="M0.0451976 19.9771L0.0226005 19.9545C1.37901e-06 19.9092 0 19.8437 0 19.7758C0 15.157 3.7492 11.4045 8.36395 11.4045C9.1617 11.4045 9.93911 11.5153 10.6487 11.7392C12.6239 8.87337 15.8398 7.16336 19.3019 7.16336C25.0692 7.16336 29.7721 11.8727 29.7721 17.6451C29.7721 18.4006 29.684 19.1764 29.5281 19.9319V19.9771H0.0451976Z" fill="white"/>
<path d="M207.53 133.023V90.4359H275.362L277.438 120.338H257.275L234.532 133.023H207.53Z" fill="#221E29"/>
<path d="M128.915 90.4879H67.1466V120.39H128.915V90.4879Z" fill="#221E29"/>
<path d="M280.313 99.3499C284.681 99.3499 288.223 95.8055 288.223 91.4332C288.223 87.0609 284.681 83.5165 280.313 83.5165C275.944 83.5165 272.403 87.0609 272.403 91.4332C272.403 95.8055 275.944 99.3499 280.313 99.3499Z" fill="white"/>
<path d="M23.7156 97.4593C28.084 97.4593 31.6253 93.9149 31.6253 89.5426C31.6253 85.1703 28.084 81.6259 23.7156 81.6259C19.3472 81.6259 15.8059 85.1703 15.8059 89.5426C15.8059 93.9149 19.3472 97.4593 23.7156 97.4593Z" fill="white"/>
<path d="M281.488 86.1836C281.509 79.5042 276.747 73.8358 270.157 72.7003L228.134 65.4577L222.111 27.1951L31.6887 27.1748L23.5892 65.8354V120.413H72.3084V120.37C73.5672 114.679 76.756 109.536 81.2871 105.84C85.8815 102.101 91.694 100.042 97.6534 100.042C103.59 100.042 109.403 102.101 114.017 105.84C118.549 109.536 121.74 114.679 122.998 120.37V120.413H152.434L165.695 133.096H221.063V126.041C221.063 111.698 232.708 100.042 247.038 100.042C252.975 100.042 258.788 102.101 263.402 105.84C264.955 107.099 266.34 108.547 267.556 110.124H281.488V86.1836Z" fill="white"/>
<path d="M281.488 99.2662V86.1833C281.488 85.2808 281.404 84.376 281.235 83.5165" stroke="#838383" stroke-width="4" stroke-linecap="round" stroke-linejoin="round"/>
<path d="M272.383 120.414V120.371C270.891 114.365 267.472 108.821 262.394 105.062L262.29 104.978H284.132C286.397 104.978 288.223 106.826 288.223 109.095V116.297C288.223 118.566 286.397 120.391 284.132 120.391H272.383V120.414Z" fill="#221E29"/>
<path d="M19.8963 120.391C17.6319 120.391 15.8059 118.565 15.8059 116.297V109.095C15.8059 106.826 17.6319 104.999 19.8963 104.999H35.3383C36.4502 104.999 37.4785 105.44 38.2559 106.218C39.0107 106.994 39.431 108.002 39.431 109.072V120.391H19.8963Z" fill="#221E29"/>
<path d="M79.6078 10.5835C77.8677 10.5835 76.462 9.17658 76.462 7.43491V3.15084C76.462 1.40691 77.8677 0 79.6078 0H103.4C105.143 0 106.548 1.40691 106.548 3.15084V7.43491C106.548 9.17658 105.143 10.5835 103.4 10.5835H79.6078Z" fill="#221E29"/>
<path d="M167.288 10.5835C165.548 10.5835 164.143 9.17658 164.143 7.43491V3.15084C164.143 1.40691 165.548 0 167.288 0H191.081C192.823 0 194.229 1.40691 194.229 3.15084V7.43491C194.229 9.17658 192.823 10.5835 191.081 10.5835H167.288Z" fill="#221E29"/>
<path d="M234.658 62.7478C232.916 62.7478 231.51 61.3409 231.51 59.5969V43.3428C231.51 41.6012 232.916 40.1942 234.658 40.1942H238.939C240.679 40.1942 242.084 41.6012 242.084 43.3428V59.5969C242.084 61.3409 240.679 62.7478 238.939 62.7478H234.658Z" fill="#221E29"/>
<path d="M247.059 145.821C257.974 145.821 266.822 136.966 266.822 126.041C266.822 115.116 257.974 106.258 247.059 106.258C236.143 106.258 227.293 115.116 227.293 126.041C227.293 136.966 236.143 145.821 247.059 145.821Z" fill="#CECDCE"/>
<path d="M247.059 131.752C250.209 131.752 252.765 129.194 252.765 126.041C252.765 122.886 250.209 120.33 247.059 120.33C243.906 120.33 241.352 122.886 241.352 126.041C241.352 129.194 243.906 131.752 247.059 131.752Z" fill="#221E29"/>
<path d="M97.6735 145.821C108.589 145.821 117.436 136.966 117.436 126.041C117.436 115.116 108.589 106.258 97.6735 106.258C86.7581 106.258 77.9082 115.116 77.9082 126.041C77.9082 136.966 86.7581 145.821 97.6735 145.821Z" fill="#CECDCE"/>
<path d="M97.6734 131.752C100.824 131.752 103.38 129.194 103.38 126.041C103.38 122.886 100.824 120.33 97.6734 120.33C94.5208 120.33 91.9671 122.886 91.9671 126.041C91.9671 129.194 94.5208 131.752 97.6734 131.752Z" fill="#221E29"/>
<path d="M170.877 125.409V40.6759C170.877 36.8126 174.002 33.664 177.862 33.664H207.363C211.223 33.664 214.369 36.8126 214.369 40.6759V125.409H170.877Z" fill="#CECDCE"/>
<path opacity="0.2" d="M214.285 44.0371C214.285 40.2145 211.18 37.1066 207.363 37.1066H177.862C174.066 37.1066 170.961 40.2145 170.961 44.0371H170.877V40.6759C170.877 36.8126 174.002 33.664 177.862 33.664H207.363C211.223 33.664 214.369 36.8126 214.369 40.6759V44.0371H214.285Z" fill="#868686"/>
<path d="M134.054 59.0721C130.194 59.0721 127.046 55.9235 127.046 52.0579V40.6759C127.046 36.8126 130.194 33.664 134.054 33.664H157.218C161.078 33.664 164.226 36.8126 164.226 40.6759V52.0579C164.226 55.9235 161.078 59.0721 157.218 59.0721H134.054Z" fill="#CECDCE"/>
<path opacity="0.2" d="M164.142 44.0371C164.142 40.2145 161.037 37.1066 157.218 37.1066H134.054C130.237 37.1066 127.131 40.2145 127.131 44.0371H127.046V40.6759C127.046 36.8126 130.194 33.664 134.054 33.664H157.218C161.078 33.664 164.226 36.8126 164.226 40.6759V44.0371H164.142Z" fill="#868686"/>
<path d="M90.2044 59.0721C86.3445 59.0721 83.1964 55.9235 83.1964 52.0579V40.6759C83.2167 36.8126 86.3648 33.664 90.2044 33.664H113.366C117.228 33.664 120.374 36.8126 120.374 40.6759V52.0579C120.374 55.9235 117.228 59.0721 113.366 59.0721H90.2044Z" fill="#CECDCE"/>
<path d="M46.3757 59.0721C42.5135 59.0721 39.3677 55.9235 39.3677 52.0579V40.6759C39.3677 36.8126 42.5135 33.664 46.3757 33.664H69.5376C73.3975 33.664 76.5456 36.8126 76.5456 40.6759V52.0579C76.5456 55.9235 73.3975 59.0721 69.5376 59.0721H46.3757Z" fill="#CECDCE"/>
<path d="M214.369 75.9144H170.877V83.1389H214.369V75.9144Z" fill="#221E29"/>
<path d="M214.369 120.33H170.877V133.096H214.369V120.33Z" fill="#221E29"/>
<path d="M170.918 85.8261H23.5892V93.0506H170.918V85.8261Z" fill="#221E29"/>
<path opacity="0.2" d="M259.583 93.7C257.589 93.7 255.974 92.085 255.974 90.09C255.974 88.095 257.589 86.4777 259.583 86.4777H267.031C269.025 86.4777 270.64 88.095 270.64 90.09C270.64 91.0332 270.283 91.938 269.612 92.6302C268.921 93.3223 268.017 93.7 267.031 93.7H259.583Z" fill="#838383"/>
<path d="M170.918 65.8356H23.5892V73.0579H170.918V65.8356Z" fill="#221E29"/>
<path d="M31.7087 27.238L33.3878 19.258C35.0037 11.5086 41.9054 5.881 49.8355 5.881H226.224C228.468 5.881 230.545 6.88981 231.973 8.63148C233.379 10.3754 233.924 12.6419 233.463 14.8269L230.776 27.2787L31.7087 27.238Z" fill="white"/>
<path opacity="0.2" d="M31.7087 27.2383L33.3878 19.195L33.4285 19.2153C33.4714 19.2357 36.7438 20.2875 47.1937 21.337C56.8435 22.3028 74.7624 23.4587 105.289 23.4587C129.669 23.4587 166.156 22.7009 201.424 19.1113C222.511 16.9692 233.295 14.7842 233.399 14.7639L233.463 14.7435L230.755 27.2587L31.7087 27.2383Z" fill="#838383"/>
<path d="M36.8275 102.037C34.8569 102.291 33.1778 100.61 33.4286 98.6355C33.5981 97.2919 34.6874 96.1994 36.0321 96.0321C38.0027 95.781 39.6818 97.4593 39.431 99.434C39.2615 100.778 38.1722 101.87 36.8275 102.037Z" fill="white"/>
<path d="M31.7519 27.2158L222.091 27.2384" stroke="#838383" stroke-width="4" stroke-linecap="round" stroke-linejoin="round"/>
<path d="M220.055 32.4881H231.427C234.385 32.4881 236.798 34.9016 236.798 37.8624V65.1004C236.798 68.0612 234.385 70.4747 231.427 70.4747H220.055" stroke="#221E29" stroke-width="4" stroke-linecap="round" stroke-linejoin="round"/>
<path d="M192.613 33.7048V132.949" stroke="#868686" stroke-width="4" stroke-linecap="round" stroke-linejoin="round"/>
<path opacity="0.2" d="M120.291 44.0371C120.291 40.2145 117.186 37.1066 113.366 37.1066H90.2044C86.3851 37.1066 83.28 40.2145 83.28 44.0371H83.1964V40.6759C83.1964 36.8126 86.3445 33.664 90.2044 33.664H113.366C117.228 33.664 120.374 36.8126 120.374 40.6759V44.0371H120.291Z" fill="#868686"/>
<path opacity="0.2" d="M76.462 44.0371C76.462 40.2145 73.3569 37.1066 69.5376 37.1066H46.3757C42.5565 37.1066 39.4513 40.2145 39.4513 44.0371H39.3677V40.6759C39.3677 36.8126 42.5135 33.664 46.3757 33.664H69.5376C73.3975 33.664 76.5456 36.8126 76.5456 40.6759V44.0371H76.462Z" fill="#868686"/>
<path d="M259.583 90.7388C257.696 90.7388 256.143 89.2708 255.996 87.4228C255.829 85.2808 257.569 83.5165 259.71 83.5165H267.032C269.025 83.5165 270.641 85.1338 270.641 87.1288C270.641 88.072 270.284 88.9767 269.612 89.6689C268.921 90.361 268.017 90.7388 267.032 90.7388H259.583Z" fill="white"/>
<path d="M23.5484 81.6259V97.4593" stroke="#838383" stroke-width="4" stroke-linecap="round" stroke-linejoin="round"/>
<path d="M221.474 102.768H216.457V189.834H221.474V102.768Z" fill="#475139"/>
<path opacity="0.2" d="M218.965 110.255C218.136 110.255 217.307 110.209 216.502 110.119H216.457V102.992H221.474V110.119H221.429C220.622 110.209 219.793 110.255 218.965 110.255Z" fill="black"/>
<path d="M236.016 98.9231C245.438 89.4932 245.438 74.2072 236.016 64.7795C226.597 55.3519 211.324 55.3519 201.905 64.7795C192.486 74.2072 192.486 89.4932 201.905 98.9231C211.324 108.351 226.597 108.351 236.016 98.9231Z" fill="white"/>
<path d="M221.429 106.265C220.622 106.353 219.793 106.398 218.966 106.398C218.136 106.398 217.307 106.353 216.502 106.265" stroke="black" stroke-width="4" stroke-linecap="round" stroke-linejoin="round"/>
<path d="M212.001 95.1C210.812 95.1 209.849 94.1364 209.849 92.9489V85.7967C209.849 84.6092 210.812 83.6457 212.001 83.6457C213.187 83.6457 214.15 84.6092 214.15 85.7967V92.9489C214.15 94.1364 213.187 95.1 212.001 95.1Z" fill="#AFC2CB"/>
<path d="M226.177 95.1C224.99 95.1 224.025 94.1364 224.025 92.9489V85.7967C224.025 84.6092 224.99 83.6457 226.177 83.6457C227.363 83.6457 228.326 84.6092 228.326 85.7967V92.9489C228.326 94.1364 227.363 95.1 226.177 95.1Z" fill="#AFC2CB"/>
<path d="M209.826 81.2481V74.8582C209.826 71.6078 212.47 68.9637 215.718 68.9637H222.437C225.684 68.9637 228.326 71.6078 228.326 74.8582V81.2481H209.826Z" fill="#475139"/>
<path d="M228.326 81.1351H209.826V90.8207H228.326V81.1351Z" fill="#AFC2CB"/>
<path d="M214.529 87.7944C213.433 87.7944 212.536 86.8964 212.536 85.7994C212.536 84.7001 213.433 83.8044 214.529 83.8044C215.627 83.8044 216.522 84.7001 216.522 85.7994C216.522 86.8964 215.627 87.7944 214.529 87.7944Z" fill="#0F445D"/>
<path d="M223.445 87.7944C222.346 87.7944 221.451 86.8964 221.451 85.7994C221.451 84.7001 222.346 83.8044 223.445 83.8044C224.541 83.8044 225.438 84.7001 225.438 85.7994C225.438 86.8964 224.541 87.7944 223.445 87.7944Z" fill="#0F445D"/>
<path d="M209.872 81.1803H228.281" stroke="#0F445D" stroke-width="4" stroke-linecap="round" stroke-linejoin="round"/>
<path d="M209.872 90.7753H214.105" stroke="#0F445D" stroke-width="4" stroke-linecap="round" stroke-linejoin="round"/>
<path d="M224.048 90.7753H228.281" stroke="#0F445D" stroke-width="4" stroke-linecap="round" stroke-linejoin="round"/>
<path d="M232.258 189.854V189.809C232.258 183.407 237.479 178.205 243.874 178.205C250.27 178.205 255.468 183.407 255.468 189.809V189.854H232.258Z" fill="#221E29"/>
<path opacity="0.2" d="M232.258 189.854V189.808C232.258 185.013 235.151 180.783 239.603 179.019L239.648 178.996L239.671 179.042C240.756 182.593 242.925 183.633 244.846 184.538C245.479 184.832 246.067 185.126 246.609 185.488C249.547 187.479 249.321 189.786 249.321 189.808V189.854H232.258Z" fill="black"/>
<path d="M230.767 181.801C232.123 180.625 233.66 179.404 235.58 177.888C244.959 170.582 253.954 165.267 256.982 165.267C257.434 165.267 257.728 165.38 257.908 165.606C258.044 165.787 258.089 166.036 258.067 166.33C257.728 169.089 250.36 176.621 240.552 184.267C238.993 185.488 237.388 186.71 235.761 187.863L235.716 187.886L230.767 181.801Z" fill="#AFC2CB"/>
<path opacity="0.2" d="M230.767 181.802C232.123 180.625 233.66 179.404 235.58 177.888C235.784 177.73 235.987 177.572 236.191 177.413C236.643 177.052 237.117 176.69 237.592 176.35L237.614 176.328H237.637C238.835 176.712 240.281 176.893 241.795 176.893C244.801 176.893 248.168 176.124 251.535 174.654L251.603 174.722C248.53 177.73 244.711 181.033 240.552 184.244C238.993 185.466 237.388 186.687 235.761 187.841L235.716 187.863L230.767 181.802Z" fill="#757575"/>
<path d="M224.281 178.838V178.793C224.281 178.725 224.281 178.68 224.303 178.612C224.303 178.567 224.303 178.499 224.303 178.454C225.252 168.524 227.58 160.743 229.614 160.743C229.637 160.743 229.659 160.743 229.682 160.743C231.693 160.924 232.552 168.863 231.67 178.793V178.838H224.281Z" fill="#AFC2CB"/>
<path opacity="0.2" d="M224.281 178.839V178.793C224.281 178.726 224.281 178.68 224.303 178.612C224.303 178.567 224.303 178.499 224.303 178.454C224.687 174.111 225.433 169.791 226.382 166.443H226.473C227.331 170.198 229.953 171.94 231.987 172.754H232.009V172.777C231.964 174.677 231.851 176.69 231.67 178.771V178.816L224.281 178.839Z" fill="#757575"/>
<path d="M207.625 189.854V189.809C207.625 180.603 215.128 173.116 224.326 173.116C233.524 173.116 241.004 180.603 241.004 189.809V189.854H207.625Z" fill="#221E29"/>
<path opacity="0.2" d="M207.625 189.854V189.809C207.625 185.918 208.981 182.141 211.467 179.178L211.535 179.087V179.223C211.603 183.204 213.569 185.014 218.563 185.67C223.558 186.326 223.897 189.764 223.897 189.809V189.854H207.625Z" fill="black"/>
<path d="M240.959 189.763C240.959 187.976 240.665 186.257 240.146 184.651" stroke="black" stroke-width="4" stroke-linecap="round" stroke-linejoin="round"/>
<path d="M238.111 164.362C235.851 169.067 232.665 178.997 231.987 183.295" stroke="#636363" stroke-width="4" stroke-linecap="round" stroke-linejoin="round"/>
<path d="M242.406 166.058C240.869 166.058 239.287 165.674 237.796 164.927C235.807 163.955 234.225 162.439 233.344 160.72C232.462 158.979 232.372 157.214 233.095 155.744C233.999 153.912 236.078 152.826 238.654 152.826C240.191 152.826 241.773 153.211 243.265 153.957C245.253 154.93 246.835 156.445 247.717 158.164C248.598 159.906 248.688 161.67 247.965 163.14C247.039 164.973 244.982 166.058 242.406 166.058Z" fill="white"/>
<path d="M240.733 160.246C240.552 160.246 240.372 160.2 240.191 160.11C239.965 159.997 239.761 159.816 239.671 159.612C239.558 159.409 239.558 159.183 239.648 159.002C239.761 158.775 240.01 158.64 240.326 158.64C240.507 158.64 240.688 158.685 240.869 158.775C241.366 159.024 241.615 159.522 241.434 159.884C241.298 160.11 241.05 160.246 240.733 160.246Z" fill="#636363"/>
<path d="M110.591 180.928C110.842 177.882 111.181 175.789 111.886 173.242C111.886 173.22 111.909 173.197 111.931 173.197C112.363 173.061 116.316 171.946 120.542 171.969C121.837 171.992 126.677 173.084 127.335 173.22C127.38 173.22 127.403 173.265 127.38 173.31C126.835 174.699 126.539 175.563 126.2 176.472C126.2 176.495 126.176 176.518 126.13 176.518L122.519 176.563C121.201 176.563 120.679 177.791 120.27 179.087L119.407 181.521C119.407 181.544 119.362 181.566 119.337 181.566L110.591 180.928Z" fill="#CF5934"/>
<path d="M131.674 180.838C131.335 178.587 131.084 176.153 130.949 173.31C130.949 173.288 130.949 173.265 130.971 173.242C131.358 173.016 135.127 170.924 138.831 170.901C142.468 170.901 146.056 172.926 146.42 173.152C146.443 173.152 146.443 173.175 146.443 173.197C146.465 174.606 146.601 175.425 146.694 176.289C146.694 176.312 146.694 176.312 146.671 176.337L142.352 182.362C142.33 182.385 142.307 182.385 142.285 182.385C141.627 182.247 132.811 180.951 132.156 180.944C131.697 180.883 131.674 180.861 131.758 181.34L131.674 180.838Z" fill="#CF5934"/>
<path d="M124.04 106.957C124.017 106.957 124.017 106.935 124.017 106.912V96.8375C124.017 93.7454 125.744 89.6061 130.063 87.1293C131.403 86.3558 131.403 85.7179 133.265 85.7179C137.968 85.7179 140.603 87.2424 141.511 89.5156C141.649 89.8798 141.807 90.4023 142.036 91.2438C142.422 92.723 142.854 94.7927 142.944 95.7698C142.944 95.7925 142.967 95.8151 142.989 95.8151C144.648 96.5887 144.693 97.4979 143.08 98.362V98.4751C143.489 103.024 142.081 106.274 136.673 105.571C136.628 105.571 136.605 105.593 136.605 105.639C136.605 105.89 136.605 106.729 136.605 106.889C136.605 106.912 136.605 106.935 136.583 106.935C136.286 107.163 133.401 109.208 130.449 109.185C127.448 109.185 124.381 107.138 124.04 106.957Z" fill="#CF5934"/>
<path opacity="0.2" d="M133.378 104.319C134.992 105.229 136.264 105.525 136.56 105.548C136.583 105.548 136.605 105.57 136.605 105.615C136.605 105.912 136.605 107.253 136.605 107.73C136.605 107.798 136.537 107.821 136.492 107.776L133.288 104.432C133.242 104.365 133.31 104.297 133.378 104.319Z" fill="#030202"/>
<path d="M146.375 167.352C146.352 164.557 146.33 161.397 146.192 157.689C145.715 144.726 142.468 133.813 142.239 133.039C142.239 133.016 142.217 132.994 142.171 132.994C138.196 132.926 123.792 132.994 120.065 132.971C120.042 132.971 120.02 132.994 119.997 133.016C116.112 142.317 117.703 151.413 116.18 160.304C115.339 164.737 113.068 168.945 111.909 173.152C111.909 173.197 111.932 173.242 111.977 173.242C113.181 173.242 126.517 173.288 127.358 173.288C127.38 173.288 127.403 173.265 127.426 173.242C128.585 170.218 129.835 166.785 130.63 163.534C130.653 163.464 130.743 163.464 130.766 163.557C130.856 164.898 130.904 166.307 130.856 167.877C130.811 169.969 130.881 172.014 130.949 173.242C130.949 173.288 130.971 173.31 131.017 173.31C132.061 173.31 145.374 173.22 146.398 173.22C146.443 173.22 146.465 173.197 146.465 173.152C146.42 171.424 146.398 169.582 146.375 167.352Z" fill="#475139"/>
<path opacity="0.2" d="M130.743 163.238L130.357 160.124L128.54 152.3L126.45 145.091C126.45 145.091 126.678 143.704 127.79 143.546C127.95 143.523 128.108 143.523 128.244 143.523C128.972 143.523 129.584 143.795 130.086 144.32C131.971 146.297 131.971 151.436 131.812 155.143C131.584 161.123 131.993 159.737 130.743 163.238Z" fill="black"/>
<path d="M126.472 145.274C127.834 150.935 130.063 156.12 130.698 163.464" stroke="black" stroke-width="4" stroke-linecap="round" stroke-linejoin="round"/>
<path d="M154.167 114.621C154.144 114.598 154.144 114.575 154.144 114.53C157.053 109.072 160.483 102.682 160.187 107.57C160.187 107.663 160.3 107.708 160.348 107.618C161.256 106.116 163.051 103.727 164.21 103.727C164.459 103.727 164.642 103.843 164.8 104.023C164.822 104.069 164.868 104.069 164.913 104.046C165.618 103.659 166.413 103.546 166.617 104.955C166.617 105.001 166.639 105.023 166.685 105.023C167.525 105.229 167.641 106.116 167.299 107.138C167.299 107.163 167.299 107.186 167.299 107.208C168.685 108.844 164.8 116.894 163.482 120.327C163.482 120.35 163.46 120.373 163.415 120.373C161.118 120.305 154.757 115.075 154.167 114.621Z" fill="#CF5934"/>
<path d="M114.705 135.222C112.795 135.222 111.342 134.496 110.363 133.039C106.388 127.126 114.363 114.962 117.317 112.073C120.748 108.73 123.405 108.298 123.95 108.253C123.973 108.253 123.995 108.23 123.995 108.185V106.889C123.995 106.844 124.018 106.821 124.065 106.821H136.538C136.583 106.821 136.605 106.844 136.605 106.889V108.185C136.605 108.208 136.628 108.253 136.651 108.253C137.401 108.344 142.4 109.072 145.329 112.347C148.124 115.507 150.782 118.714 151.327 119.373C151.351 119.418 151.419 119.395 151.442 119.373C151.736 118.827 152.963 116.507 154.258 114.324C154.28 114.301 154.325 114.279 154.35 114.301C155.076 114.779 162.755 119.918 163.415 120.35C163.437 120.372 163.46 120.395 163.437 120.42C161.573 124.602 158.78 129.879 155.803 131.334C150.328 134.177 145.557 129.741 144.079 127.445C144.056 127.4 143.989 127.4 143.966 127.468C143.717 128.264 142.4 132.449 142.239 132.926C142.239 132.949 142.217 132.971 142.172 132.971L121.428 133.062C121.405 133.062 121.405 133.062 121.405 133.062C121.089 133.268 117.817 135.222 114.705 135.222Z" fill="#AFC2CB"/>
<path d="M124.087 103.456C124.04 103.456 124.017 103.433 124.017 103.388C123.995 103.001 123.995 101.18 123.995 99.5675C124.761 98.2782 124.835 97.2694 124.973 96.8758C126.092 93.7408 127.425 91.5151 129.335 87.5839C130.675 86.8103 131.38 85.6952 133.242 85.6952C138.605 85.8083 141.034 87.3328 141.853 90.6533C141.853 90.6759 141.853 90.6759 141.853 90.6986C141.717 91.1758 139.398 91.7662 137.99 91.4043C137.855 91.4269 137.514 91.1758 137.491 91.3568C137.491 93.8811 135.923 95.2925 135.629 95.5413C135.606 95.5639 135.559 95.5639 135.536 95.5413C135.265 95.2246 133.606 93.3133 131.403 93.3133C129.925 93.2907 128.449 94.6999 128.472 96.2244C128.336 97.8168 130.311 100.409 130.765 100.841C130.788 100.864 130.788 100.909 130.765 100.931C129.129 103.137 124.542 103.411 124.087 103.456Z" fill="#010005"/>
<path d="M110.591 180.996C110.591 180.973 110.614 180.928 110.659 180.928L118.838 180.906C118.861 180.906 118.883 180.883 118.906 180.86L119.566 178.7C119.975 177.359 121.202 176.472 122.587 176.472L126.108 176.54C126.153 176.54 126.176 176.585 126.153 176.653C124.381 181.498 125.019 181.815 127.857 184.862C128.427 185.477 128.926 185.954 129.245 186.637C129.267 186.683 129.245 186.728 129.2 186.728C128.289 186.863 120.406 188.092 120.088 188.137H120.065L110.478 186.705C110.456 186.705 110.433 186.683 110.433 186.637C110.411 186.16 110.433 182.998 110.591 180.996Z" fill="#221E29"/>
<path d="M110.479 189.571C110.456 189.298 110.411 188.228 110.411 186.728C110.411 186.683 110.433 186.66 110.479 186.66C111.613 186.66 128.266 186.592 129.2 186.592C129.222 186.592 129.245 186.615 129.267 186.638C129.654 187.341 129.767 188.25 129.744 189.524C129.744 189.571 129.722 189.594 129.677 189.594C128.221 189.594 111.683 189.639 110.546 189.639C110.501 189.639 110.479 189.617 110.479 189.571Z" fill="black"/>
<path d="M132.788 186.567C132.379 184.932 131.97 182.975 131.674 180.951C131.674 180.906 131.696 180.883 131.744 180.883C132.56 180.883 140.035 180.883 140.854 180.883C140.899 180.883 140.921 180.838 140.921 180.815L140.648 179.042C140.444 177.723 141.559 176.427 142.899 176.472C142.899 176.472 146.146 176.359 146.623 176.337C146.671 176.337 146.693 176.359 146.693 176.405C146.964 179.906 148.465 181.521 150.623 183.362C153.03 184.932 153.213 186.273 153.213 186.545C153.213 186.567 153.19 186.615 153.168 186.615C152.646 186.705 148.851 187.866 143.147 187.911C140.081 187.934 133.378 186.728 132.81 186.615C132.81 186.615 132.788 186.592 132.788 186.567Z" fill="#221E29"/>
<path d="M133.697 189.617C133.493 189.185 133.039 187.457 132.811 186.706C132.788 186.66 132.833 186.615 132.879 186.615C134.311 186.615 152.214 186.615 153.191 186.615C153.213 186.615 153.236 186.638 153.258 186.66C153.6 187.457 153.735 188.411 153.826 189.547C153.826 189.594 153.803 189.617 153.758 189.617C152.19 189.617 134.743 189.639 133.764 189.639C133.742 189.639 133.719 189.617 133.697 189.617Z" fill="black"/>
<path d="M136.946 130.834L143.331 126.446C143.353 126.423 143.398 126.423 143.421 126.468L143.988 127.332C143.988 127.355 144.011 127.378 143.988 127.378L142.262 132.881C142.262 132.903 142.239 132.903 142.239 132.903L136.901 136.882C136.856 136.905 136.786 136.882 136.786 136.837L136.901 130.856C136.924 130.879 136.924 130.856 136.946 130.834Z" fill="white"/>
<path d="M131.789 122.51L137.855 108.504C137.877 108.481 137.9 108.459 137.922 108.459C138.853 108.617 141.012 109.14 143.08 110.458C143.102 110.481 143.125 110.504 143.102 110.526C142.716 111.413 137.378 123.806 136.969 124.74C136.946 124.763 136.924 124.785 136.878 124.763L131.812 122.557C131.789 122.603 131.789 122.557 131.789 122.51Z" fill="white"/>
<path d="M117.475 111.915C119.043 110.413 120.951 109.117 122.361 108.662C122.383 108.662 122.429 108.662 122.429 108.707C122.815 109.662 127.541 121.442 127.927 122.397C127.95 122.419 127.927 122.464 127.88 122.487C127.29 122.738 122.496 124.74 122.722 124.647C122.632 124.398 117.771 112.779 117.452 112.005C117.452 111.96 117.475 111.937 117.475 111.915Z" fill="white"/>
<path d="M140.264 99.3839C140.718 99.8386 141.217 99.9087 141.717 99.7933" stroke="#030202" stroke-width="4" stroke-linecap="round" stroke-linejoin="round"/>
<path d="M140.831 96.4506C141.145 96.4506 141.398 96.1973 141.398 95.8829C141.398 95.5685 141.145 95.3151 140.831 95.3151C140.517 95.3151 140.264 95.5685 140.264 95.8829C140.264 96.1973 140.517 96.4506 140.831 96.4506Z" fill="#010005"/>
<path d="M123.972 96.8144C123.972 93.7223 123.995 88.4928 128.289 86.0137C129.631 85.2402 131.38 84.8081 133.243 84.8081C141.218 84.8081 141.968 90.6077 142.036 91.1754C142.036 91.198 142.013 91.2207 141.991 91.2433L134.651 94.6543C134.628 94.6543 134.605 94.6543 134.583 94.6543C133.742 93.9282 131.697 92.9488 130.244 93.6319C128.404 94.4959 128.427 96.2919 128.608 97.3369C128.608 97.3618 128.608 97.3844 128.562 97.407L124.065 99.5219C124.018 99.5445 123.972 99.5219 123.972 99.4518V96.8144Z" fill="#475139"/>
<path d="M151.396 119.441L149.783 117.486" stroke="black" stroke-width="4" stroke-linecap="round" stroke-linejoin="round"/>
<path d="M120.27 140.725C117.793 140.77 115.929 139.11 116.453 136.656L119.088 122.738C119.475 120.578 121.45 119.418 123.608 119.418L130.517 118.895H135.152C137.333 118.895 139.014 120.556 139.059 122.738L139.263 136.656C139.285 137.837 138.786 139.042 137.922 139.929C137.037 140.838 135.832 141.34 134.628 141.34H129.812L121.791 140.815L120.27 140.725Z" fill="black"/>
<path d="M115.453 141.363C112.978 141.408 111.114 139.11 111.636 136.656L114.273 122.738C114.635 120.578 116.612 118.895 118.793 118.895H130.334C132.515 118.895 134.196 120.556 134.242 122.738L134.447 136.656C134.47 137.837 133.97 139.042 133.107 139.929C132.221 140.838 131.017 141.34 129.812 141.34L115.453 141.363Z" fill="#221E29"/>
<path d="M147.738 180.27L145.557 181.589" stroke="black" stroke-width="4" stroke-linecap="round" stroke-linejoin="round"/>
<path d="M148.965 181.815L147.351 183.658" stroke="black" stroke-width="4" stroke-linecap="round" stroke-linejoin="round"/>
<path d="M125.131 181.405L122.905 182.224" stroke="black" stroke-width="4" stroke-linecap="round" stroke-linejoin="round"/>
<path d="M125.995 183.021L124.359 184.249" stroke="black" stroke-width="4" stroke-linecap="round" stroke-linejoin="round"/>
<path d="M144.011 127.332L142.761 125.398" stroke="black" stroke-width="4" stroke-linecap="round" stroke-linejoin="round"/>
<path d="M113.181 128.674H134.264" stroke="black" stroke-width="4" stroke-linecap="round" stroke-linejoin="round"/>
<path d="M123.747 88.4478C121.112 88.4478 118.953 86.2876 118.953 83.648C118.953 81.0106 121.112 78.8505 123.747 78.8505C126.382 78.8505 128.54 81.0106 128.54 83.648C128.54 86.2876 126.382 88.4478 123.747 88.4478Z" fill="#475139"/>
<path d="M164.867 104.069C164.867 104.069 162.232 107.889 160.802 110.255" stroke="#030202" stroke-width="4" stroke-linecap="round" stroke-linejoin="round"/>
<path d="M166.594 105.048L162.8 111.573" stroke="#030202" stroke-width="4" stroke-linecap="round" stroke-linejoin="round"/>
<path d="M167.254 107.231L164.526 112.709" stroke="#030202" stroke-width="4" stroke-linecap="round" stroke-linejoin="round"/>
<path d="M131.857 97.0206L133.039 98.3167" stroke="#030202" stroke-width="4" stroke-linecap="round" stroke-linejoin="round"/>
<path d="M136.605 105.571C135.31 105.433 132.969 104.091 132.969 104.091" stroke="#030202" stroke-width="4" stroke-linecap="round" stroke-linejoin="round"/>
<path d="M74.7692 58.5135C74.1364 55.279 73.2325 50.2349 72.9613 48.5611L72.9839 49.6016C72.4415 46.7968 71.4471 41.5469 74.4754 38.8326C76.3963 37.1136 79.1082 34.9874 82.0009 34.9874C83.5377 34.9874 85.097 36.4124 86.453 36.9552C88.4214 37.6791 89.5965 38.6064 90.5005 39.9862C91.3141 41.2076 91.9016 42.7684 92.557 44.8064C92.557 44.829 92.5796 44.8516 92.6022 44.8516C92.9186 44.8968 94.2971 45.1004 94.4327 45.7337C94.6135 46.4349 93.7774 47.5433 93.5966 47.7921C93.574 47.8147 93.574 47.8373 93.5966 47.8599C94.7943 51.6147 94.7491 53.673 93.4836 55.46C92.4892 57.0207 89.0993 57.6314 87.1106 56.9076C87.0654 56.885 87.0202 56.9302 87.0202 56.9754C87.0654 57.2695 87.201 58.129 87.2462 58.3778C87.2462 58.4231 87.2236 58.5135 87.1784 58.5135H74.7692Z" fill="#E59763"/>
<path d="M70.7692 157.19C70.7466 157.167 70.7466 157.144 70.7466 157.122C71.6505 150.019 73.2777 146.287 73.6845 138.843C73.7975 136.717 73.7749 134.614 73.6393 132.374C73.6393 132.352 73.6619 132.306 73.6845 132.306C74.3398 132.171 80.8936 130.429 86.1592 130.429C87.992 130.429 92.3536 132.239 92.8508 132.397C92.8734 132.397 92.896 132.442 92.896 132.465C92.218 140.7 90.5005 151.015 89.4383 157.144C89.4157 157.235 82.8597 159.951 77.3229 159.929C74.5884 159.884 71.1534 157.438 70.7692 157.19Z" fill="#E59763"/>
<path opacity="0.2" d="M73.7525 136.195C73.7525 134.657 73.7073 133.503 73.6395 132.372C73.6395 132.327 73.6621 132.304 73.7073 132.304H84.1029L84.1255 132.395C84.1029 132.349 74.9502 135.788 73.8429 136.24C73.7977 136.263 73.7525 136.24 73.7525 136.195Z" fill="#030202"/>
<path d="M41.2954 148.233C45.0468 142.42 48.7102 138.979 51.8288 132.397C51.8288 132.374 51.8514 132.352 51.874 132.352C52.8232 132.307 59.8967 130.904 61.2753 130.904C66.5635 130.882 72.1477 132.329 72.1703 132.307L72.1477 132.374C68.7805 139.952 62.3375 149.703 58.3374 155.81C58.3374 155.833 58.3148 155.833 58.2922 155.833C57.8854 155.923 52.8458 156.33 48.0073 154.159C45.6344 153.096 41.7248 148.73 41.318 148.301C41.2728 148.278 41.2728 148.255 41.2954 148.233Z" fill="#E59763"/>
<path opacity="0.2" d="M56.4841 132.397C59.083 132.374 70.9046 132.284 72.0346 132.351C72.0798 132.351 72.1024 132.397 72.0798 132.442C71.447 133.754 70.8594 135.066 70.1589 136.378C70.1363 136.4 70.1137 136.423 70.0911 136.4C69.3001 136.174 58.7214 133.166 56.4615 132.51C56.3937 132.51 56.4163 132.397 56.4841 132.397Z" fill="#030202"/>
<path d="M121.486 118.416C119.882 118.416 118.097 116.131 117.26 114.933C117.215 114.865 117.102 114.91 117.125 115C117.351 116.018 117.984 118.054 116.989 118.212C115.859 118.393 114.368 115.815 112.447 112.965C111.068 110.884 109.441 108.554 107.769 106.631C107.746 106.609 107.746 106.564 107.791 106.541C108.537 106.021 115.904 100.092 116.831 99.6172C116.854 99.5946 116.899 99.6172 116.899 99.6398C119.52 102.696 121.419 105.229 122.503 106.925V106.948C122.616 107.333 127.523 114.548 125.012 116.742C124.989 116.742 124.989 116.765 124.989 116.787C124.922 117.466 124.56 118.303 123.498 118.303C123.204 118.303 122.865 118.235 122.526 118.122C122.503 118.122 122.503 118.122 122.481 118.122C122.187 118.258 121.848 118.439 121.486 118.416Z" fill="#E59763"/>
<path d="M106.164 109.436C98.0936 102.356 92.8732 92.2885 91.9014 90.3433C91.8788 90.2754 91.7884 90.298 91.7884 90.3659L91.4042 93.7361C91.4042 93.7588 91.3816 93.804 91.3364 93.804L71.6277 93.8492C71.6051 93.8492 71.6051 93.8492 71.5825 93.8718C71.2435 94.2111 66.7214 99.1873 66.6989 99.0742C64.9587 98.4409 63.6028 97.6266 62.518 96.6766C56.3258 91.2028 60.0999 81.0672 63.1282 72.8564C64.8005 68.6266 66.5859 65.1885 67.7859 63.8766C70.3848 61.0017 74.3622 60.2327 75.0854 60.1196C75.1306 60.1196 75.1532 60.0743 75.1306 60.0517C75.0402 59.5541 74.9046 59.0565 74.8142 58.5362C74.8142 58.491 74.8368 58.4684 74.8594 58.4684C75.786 58.3553 86.3624 58.4684 87.2234 58.4684C87.246 58.4684 87.2912 58.491 87.2912 58.5136C87.3364 58.8303 87.6528 60.5267 87.698 60.8208C87.698 60.8434 87.7206 60.866 87.7432 60.866C88.6019 60.9791 96.1275 62.3815 99.7433 72.3588L105.393 87.0409C105.393 87.0409 105.393 87.0635 105.416 87.0635C105.687 87.3349 111.836 93.7135 116.831 99.5492C116.853 99.5719 116.853 99.6171 116.831 99.6397C116.13 100.318 106.977 108.938 106.232 109.459C106.209 109.459 106.186 109.459 106.164 109.436Z" fill="#AFC2CB"/>
<path opacity="0.2" d="M66.6086 99.0291C64.8232 98.3731 63.6029 97.6041 62.5633 96.7219C62.5181 96.6993 62.5407 96.6315 62.5859 96.6088C66.9475 94.3469 67.4447 89.416 67.8312 85.8647C68.0798 83.5802 68.2605 81.7458 69.3905 81.497C69.4357 81.497 69.4583 81.5196 69.4583 81.5422L71.1758 93.691C71.1758 93.7136 71.1758 93.7362 71.1532 93.7362C70.8369 94.0981 66.6763 99.1648 66.6086 99.0291Z" fill="#959595"/>
<path opacity="0.2" d="M84.7358 56.0254C85.7527 56.5683 86.7471 56.7944 86.9753 56.8397C86.9979 56.8397 87.0205 56.8623 87.0205 56.8849L87.2691 58.423L87.4273 59.3957C87.4273 59.4635 87.3595 59.5087 87.3143 59.4409L84.6454 56.1159C84.6228 56.0706 84.6906 55.9802 84.7358 56.0254Z" fill="#030202"/>
<path d="M60.5295 80.3181C52.3486 80.1824 50.1113 70.6371 56.891 66.9502C56.9136 66.9276 56.9362 66.8823 56.9136 66.8597C54.3373 63.0823 53.9532 58.5788 55.9419 54.7788C57.8854 51.0467 61.7951 48.8074 66.3827 48.8074C67.7409 48.8074 69.1646 49.011 70.5884 49.3502C70.6336 49.3502 70.6788 49.3276 70.6562 49.2824C70.5884 46.2514 70.2042 40.3229 74.2947 37.2015C77.5489 34.736 82.4755 34.0801 86.3174 35.5955C88.105 36.2967 89.5513 37.9479 90.4779 39.9384C90.5005 39.961 90.4779 39.9837 90.4553 40.0063C90.2519 40.2098 89.1446 41.2277 87.1332 41.2277C86.679 41.2277 86.2044 41.1825 85.7298 41.0467C85.6846 41.0241 85.6394 41.092 85.662 41.1372C86.6564 43.1277 86.227 46.2288 84.7129 47.5859C84.6903 47.6086 84.6677 47.6086 84.6451 47.5859C84.3287 47.405 82.2948 46.0478 80.4416 46.0252C79.3117 46.0252 78.5207 46.5455 78.0687 47.5859C76.7354 50.7752 81.7298 53.4443 82.1366 53.6705C82.1592 53.6705 82.1592 53.6931 82.1592 53.7157C83.3343 63.3764 78.0913 72.0847 65.4561 67.7645C65.4335 67.7645 65.3883 67.7645 65.3883 67.7871C65.0493 68.3978 62.699 73.2383 60.5973 80.2503C60.5747 80.2955 60.5521 80.3181 60.5295 80.3181Z" fill="#010005"/>
<path d="M90.4552 49.6015C90.7942 50.2801 91.8112 50.3932 92.331 50.2122" stroke="#030202" stroke-width="4" stroke-linecap="round" stroke-linejoin="round"/>
<path d="M90.2064 46.0733C90.5183 46.0733 90.7714 45.8199 90.7714 45.5078C90.7714 45.1956 90.5183 44.9423 90.2064 44.9423C89.8945 44.9423 89.6414 45.1956 89.6414 45.5078C89.6414 45.8199 89.8945 46.0733 90.2064 46.0733Z" fill="#171314"/>
<path d="M84.4643 55.8646C84.4643 55.8646 86.1593 56.4979 87.0203 56.8372" stroke="#030202" stroke-width="4" stroke-linecap="round" stroke-linejoin="round"/>
<path d="M81.2558 49.1923L82.9507 50.2101" stroke="#030202" stroke-width="4" stroke-linecap="round" stroke-linejoin="round"/>
<path d="M81.7296 56.7039C83.0019 56.7039 84.0347 55.6702 84.0347 54.3967C84.0347 53.1232 83.0019 52.0896 81.7296 52.0896C80.4573 52.0896 79.4245 53.1232 79.4245 54.3967C79.4245 55.6702 80.4573 56.7039 81.7296 56.7039Z" fill="#A3A3A3"/>
<path d="M51.9192 132.351C51.874 132.351 51.8514 132.306 51.874 132.261C55.7159 123.869 56.4617 115.43 60.5747 106.88C63.3996 100.861 67.8539 96.0655 71.176 93.7584C71.176 93.7584 71.1986 93.7358 71.2212 93.7358C71.8991 93.7358 90.3197 93.6679 91.3367 93.781C91.3593 93.781 91.3819 93.8036 91.3819 93.8262C91.5853 94.6858 94.6813 110.883 92.9186 132.329C92.9186 132.374 92.896 132.396 92.8508 132.396C91.1559 132.351 54.2017 132.351 51.9192 132.351Z" fill="#AFC2CB"/>
<path opacity="0.2" d="M91.3142 93.7815C90.7944 93.7815 86.3627 93.8041 85.4135 93.8041C85.3457 93.8041 85.3231 93.872 85.3683 93.9172C87.7887 95.8851 89.3028 99.1196 90.7492 101.836C91.5176 103.239 92.3763 104.121 92.6701 104.415C92.7153 104.46 92.7831 104.415 92.7831 104.37C92.6927 103.261 92.0147 96.8803 91.3594 93.8267C91.382 93.8041 91.3594 93.7815 91.3142 93.7815Z" fill="#959595"/>
<path d="M70.0236 44.9421C66.3603 44.9648 65.3886 42.1577 67.1513 38.9006C69.2101 34.7613 75.8994 30.2601 80.2837 30.3505C83.9447 30.3279 84.9165 33.1327 83.1537 36.3898C81.0972 40.5291 74.4531 45.0552 70.0236 44.9421Z" fill="#475139"/>
<path d="M69.7294 86.8145L67.6051 87.7871" stroke="#959595" stroke-width="4" stroke-linecap="round" stroke-linejoin="round"/>
<path d="M71.1982 93.7361L70.5202 88.8503H91.1781L91.7883 90.1396L91.3815 93.7813L71.1982 93.7361Z" fill="white"/>
<path opacity="0.2" d="M85.2557 93.804C86.4082 90.773 86.2953 87.6063 86.2049 85.0956C86.1145 82.517 86.0241 80.479 87.2693 79.4838C87.2919 79.4612 87.3597 79.4612 87.3597 79.5064C88.9416 83.4218 91.0885 88.4659 91.7665 90.1171V90.1397C91.7439 90.3659 91.4049 93.2837 91.3597 93.7135C91.3597 93.7361 91.3371 93.7587 91.2919 93.7587L85.2557 93.804Z" fill="#959595"/>
<path d="M69.4586 81.4743L71.1761 93.7361C71.1761 93.7361 67.8541 96.2016 65.9309 98.6671" stroke="#959595" stroke-width="4" stroke-linecap="round" stroke-linejoin="round"/>
<path d="M91.7887 90.1398L87.3367 79.4387" stroke="#959595" stroke-width="4" stroke-linecap="round" stroke-linejoin="round"/>
<path d="M85.097 189.765C84.6677 189.064 83.6507 187.684 82.9501 186.893C82.9275 186.87 82.9275 186.825 82.9501 186.802C84.3965 185.468 95.9017 186.531 95.9017 186.689C96.5571 187.39 97.2351 188.861 97.3254 189.698C97.3254 189.743 97.3029 189.765 97.2577 189.765C96.2633 189.765 85.097 189.765 85.097 189.765Z" fill="black"/>
<path d="M82.8826 186.825C82.0012 185.74 80.5097 184.224 79.1763 183.591C78.9277 183.523 71.8768 181.487 71.3118 181.329C71.2892 181.329 71.2666 181.306 71.2666 181.284C70.34 176.192 69.9332 171.238 70.0688 166.149C70.2044 163.005 70.4078 159.816 70.7468 157.235C70.7468 157.212 70.7694 157.19 70.8146 157.19C71.922 157.19 88.0374 157.144 89.3934 157.144C89.4386 157.144 89.4612 157.19 89.4612 157.212C89.416 157.416 89.3256 157.959 89.2578 158.366C88.738 161.309 88.3086 163.865 87.9244 166.33C87.1787 172.596 85.8431 178.205 89.6646 181.578C90.5911 182.347 91.4273 182.98 92.3313 183.681C93.981 184.925 94.7042 185.265 95.8341 186.622C95.8793 186.667 95.8341 186.735 95.7889 186.735C94.433 186.757 83.6057 186.871 82.9504 186.893C82.9052 186.848 82.9052 186.848 82.8826 186.825Z" fill="#475139"/>
<path d="M73.3681 189.721C72.7353 188.115 71.6054 183.636 71.2664 181.374C71.2664 181.329 71.289 181.306 71.3342 181.306C71.967 181.397 76.1026 182.053 79.1309 183.568C79.1535 183.568 79.1761 183.591 79.1761 183.636C79.1761 184.134 79.1535 189.087 79.1535 189.698C79.1535 189.743 79.1309 189.766 79.0857 189.766C78.4981 189.766 73.9105 189.766 73.4359 189.766C73.4133 189.766 73.3907 189.743 73.3681 189.721Z" fill="black"/>
<path d="M106.526 104.595C105.506 104.595 104.693 103.781 104.693 102.763C104.693 101.745 105.506 100.929 106.526 100.929C107.543 100.929 108.356 101.745 108.356 102.763C108.356 103.781 107.543 104.595 106.526 104.595Z" fill="white"/>
<path d="M87.6981 60.8412C87.6981 60.8412 88.5117 60.9091 89.506 61.2936" stroke="#959595" stroke-width="4" stroke-linecap="round" stroke-linejoin="round"/>
<path d="M78.4981 170.175C77.1873 170.198 76.0348 168.999 76.1252 167.687C76.1252 167.687 76.5998 158.072 76.645 157.212C76.645 157.167 76.6676 157.144 76.7128 157.144L83.0631 157.122C83.1083 157.122 83.1309 157.167 83.1309 157.19L80.8484 168.253C80.5998 169.406 79.628 170.175 78.4981 170.175Z" fill="black"/>
<path d="M40.3235 184.721C40.1879 183.952 39.7811 182.323 39.4421 181.283C39.4195 181.238 39.4647 181.192 39.5099 181.192C40.3461 181.396 45.3179 182.391 45.5665 182.459H45.5891C45.8603 182.617 51.3315 186.146 51.6931 186.372C51.7157 186.372 51.7157 186.395 51.7157 186.395C52.0547 187.367 52.0999 188.906 51.8513 189.697C51.8287 189.742 51.8061 189.743 51.7609 189.743C50.8569 189.335 40.9789 185.015 40.3461 184.744L40.3235 184.721Z" fill="black"/>
<path d="M39.3967 181.148C38.8317 179.406 38.1085 177.956 37.408 177.142C37.2498 176.984 31.7808 171.962 31.3514 171.578C31.3288 171.555 31.3288 171.532 31.3288 171.51C33.1593 163.525 36.8656 155.131 41.2272 148.3C41.2498 148.278 41.2724 148.255 41.295 148.278C42.2442 148.64 57.0715 155.312 58.224 155.81C58.2692 155.832 58.2692 155.878 58.2466 155.9C56.3483 158.863 54.111 162.191 52.4613 164.792C49.6364 169.632 45.8826 174.518 48.0974 179.157C48.642 180.243 49.1844 181.193 49.7042 182.166C50.5403 183.681 51.2861 184.97 51.6703 186.26C51.6929 186.305 51.6251 186.35 51.5799 186.328C50.3369 185.807 40.0069 181.419 39.4193 181.17C39.3967 181.17 39.3967 181.17 39.3967 181.148Z" fill="#475139"/>
<path d="M29.8604 180.107C29.9282 178.612 30.7643 173.658 31.3067 171.623C31.3293 171.577 31.3745 171.555 31.3971 171.6C35.352 174.36 37.1825 176.825 37.3859 177.119C37.4085 177.142 37.4085 177.164 37.3859 177.187C37.2051 177.594 35.352 181.871 35.126 182.414C35.1034 182.437 35.0808 182.46 35.0356 182.437L29.883 180.175C29.883 180.152 29.8604 180.13 29.8604 180.107Z" fill="black"/>
<path d="M43.4875 163.251C41.7925 163.296 40.527 161.351 41.3632 159.836C41.3632 159.836 45.6344 151.17 46.0186 150.401C46.0412 150.379 46.0638 150.356 46.109 150.379L51.8966 152.98C51.9418 153.003 51.9418 153.048 51.9192 153.07L45.431 162.256C44.979 162.867 44.2559 163.251 43.4875 163.251Z" fill="black"/>
<path d="M73.1423 34.9874L74.0915 36.2088" stroke="black" stroke-width="4" stroke-linecap="round" stroke-linejoin="round"/>
<path d="M124.989 116.74C124.989 116.74 122.436 111.356 120.402 108.235" stroke="#030202" stroke-width="4" stroke-linecap="round" stroke-linejoin="round"/>
<path d="M122.503 118.099C122.503 118.099 119.023 111.743 117.915 109.979" stroke="#030202" stroke-width="4" stroke-linecap="round" stroke-linejoin="round"/>
<path d="M117.147 114.907C117.147 114.907 116.74 113.505 115.633 111.741" stroke="#030202" stroke-width="4" stroke-linecap="round" stroke-linejoin="round"/>
</g>
</svg>
