<svg width="30" height="30" viewBox="0 0 30 30" fill="none" xmlns="http://www.w3.org/2000/svg">
<path d="M21.25 26.5625H8.75C4.1875 26.5625 1.5625 23.9375 1.5625 19.375V10.625C1.5625 6.0625 4.1875 3.4375 8.75 3.4375H21.25C25.8125 3.4375 28.4375 6.0625 28.4375 10.625V19.375C28.4375 23.9375 25.8125 26.5625 21.25 26.5625ZM8.75 5.3125C5.175 5.3125 3.4375 7.05 3.4375 10.625V19.375C3.4375 22.95 5.175 24.6875 8.75 24.6875H21.25C24.825 24.6875 26.5625 22.95 26.5625 19.375V10.625C26.5625 7.05 24.825 5.3125 21.25 5.3125H8.75Z" fill="#2A9E66"/>
<path d="M15 19.6875C12.4125 19.6875 10.3125 17.5875 10.3125 15C10.3125 12.4125 12.4125 10.3125 15 10.3125C17.5875 10.3125 19.6875 12.4125 19.6875 15C19.6875 17.5875 17.5875 19.6875 15 19.6875ZM15 12.1875C13.45 12.1875 12.1875 13.45 12.1875 15C12.1875 16.55 13.45 17.8125 15 17.8125C16.55 17.8125 17.8125 16.55 17.8125 15C17.8125 13.45 16.55 12.1875 15 12.1875Z" fill="#2A9E66"/>
<path d="M5.625 13.4375C5.1125 13.4375 4.6875 13.0125 4.6875 12.5V10.625C4.6875 8.3875 6.5125 6.5625 8.75 6.5625H10.625C11.1375 6.5625 11.5625 6.9875 11.5625 7.5C11.5625 8.0125 11.1375 8.4375 10.625 8.4375H8.75C7.55 8.4375 6.5625 9.425 6.5625 10.625V12.5C6.5625 13.0125 6.1375 13.4375 5.625 13.4375Z" fill="#2A9E66"/>
<path d="M24.375 13.4375C23.8625 13.4375 23.4375 13.0125 23.4375 12.5V10.625C23.4375 9.425 22.45 8.4375 21.25 8.4375H19.375C18.8625 8.4375 18.4375 8.0125 18.4375 7.5C18.4375 6.9875 18.8625 6.5625 19.375 6.5625H21.25C23.4875 6.5625 25.3125 8.3875 25.3125 10.625V12.5C25.3125 13.0125 24.8875 13.4375 24.375 13.4375Z" fill="#2A9E66"/>
<path d="M10.625 23.4375H8.75C6.5125 23.4375 4.6875 21.6125 4.6875 19.375V17.5C4.6875 16.9875 5.1125 16.5625 5.625 16.5625C6.1375 16.5625 6.5625 16.9875 6.5625 17.5V19.375C6.5625 20.575 7.55 21.5625 8.75 21.5625H10.625C11.1375 21.5625 11.5625 21.9875 11.5625 22.5C11.5625 23.0125 11.1375 23.4375 10.625 23.4375Z" fill="#2A9E66"/>
<path d="M21.25 23.4375H19.375C18.8625 23.4375 18.4375 23.0125 18.4375 22.5C18.4375 21.9875 18.8625 21.5625 19.375 21.5625H21.25C22.45 21.5625 23.4375 20.575 23.4375 19.375V17.5C23.4375 16.9875 23.8625 16.5625 24.375 16.5625C24.8875 16.5625 25.3125 16.9875 25.3125 17.5V19.375C25.3125 21.6125 23.4875 23.4375 21.25 23.4375Z" fill="#2A9E66"/>
</svg>
