<svg width="20" height="20" viewBox="0 0 20 20" fill="none" xmlns="http://www.w3.org/2000/svg">
<path d="M14.0834 18.9584H5.91671C4.15005 18.9584 2.70837 17.5167 2.70837 15.7501V4.25009C2.70837 2.48342 4.15005 1.04175 5.91671 1.04175H14.0834C15.85 1.04175 17.2917 2.48342 17.2917 4.25009V15.7501C17.2917 17.5167 15.85 18.9584 14.0834 18.9584ZM5.91671 2.29175C4.84171 2.29175 3.95837 3.16675 3.95837 4.25009V15.7501C3.95837 16.8251 4.83338 17.7084 5.91671 17.7084H14.0834C15.1584 17.7084 16.0417 16.8334 16.0417 15.7501V4.25009C16.0417 3.17509 15.1667 2.29175 14.0834 2.29175H5.91671Z" fill="#2A9E66"/>
<path d="M15.4167 11.4584H4.58337C3.55004 11.4584 2.70837 10.6167 2.70837 9.58341V7.91675C2.70837 6.88341 3.55004 6.04175 4.58337 6.04175H15.4167C16.45 6.04175 17.2917 6.88341 17.2917 7.91675V9.58341C17.2917 10.6167 16.45 11.4584 15.4167 11.4584ZM4.58337 7.29175C4.24171 7.29175 3.95837 7.57508 3.95837 7.91675V9.58341C3.95837 9.92508 4.24171 10.2084 4.58337 10.2084H15.4167C15.7584 10.2084 16.0417 9.92508 16.0417 9.58341V7.91675C16.0417 7.57508 15.7584 7.29175 15.4167 7.29175H4.58337Z" fill="#2A9E66"/>
<path d="M6.66667 15.6249C6.39167 15.6249 6.125 15.5166 5.93333 15.3166C5.88333 15.2749 5.84167 15.2166 5.80001 15.1582C5.76667 15.1082 5.73334 15.0416 5.70834 14.9832C5.67501 14.9166 5.65834 14.8499 5.64167 14.7832C5.63334 14.7166 5.625 14.6499 5.625 14.5832C5.625 14.5166 5.63334 14.4499 5.64167 14.3832C5.65834 14.3166 5.67501 14.2499 5.70834 14.1832C5.73334 14.1249 5.76667 14.0582 5.80001 14.0082C5.84167 13.9499 5.88333 13.8916 5.93333 13.8499C6.31666 13.4582 7.00834 13.4582 7.4 13.8499C7.45 13.8916 7.49166 13.9499 7.53333 14.0082C7.56666 14.0582 7.6 14.1249 7.62499 14.1832C7.65833 14.2499 7.675 14.3166 7.69166 14.3832C7.7 14.4499 7.70833 14.5166 7.70833 14.5832C7.70833 14.6499 7.7 14.7166 7.69166 14.7832C7.675 14.8499 7.65833 14.9166 7.62499 14.9832C7.6 15.0416 7.56666 15.1082 7.53333 15.1582C7.49166 15.2166 7.45 15.2749 7.4 15.3166C7.20834 15.5166 6.94167 15.6249 6.66667 15.6249Z" fill="#2A9E66"/>
<path d="M13.3333 15.6249C13.0583 15.6249 12.7916 15.5166 12.6 15.3166C12.4 15.1249 12.2916 14.8582 12.2916 14.5832C12.2916 14.3082 12.4 14.0416 12.6 13.8499C12.9833 13.4582 13.6833 13.4582 14.0666 13.8499C14.2666 14.0416 14.375 14.3082 14.375 14.5832C14.375 14.8582 14.2666 15.1249 14.0666 15.3166C13.875 15.5166 13.6083 15.6249 13.3333 15.6249Z" fill="#2A9E66"/>
<path d="M12.0833 4.79175H7.91663C7.57496 4.79175 7.29163 4.50841 7.29163 4.16675C7.29163 3.82508 7.57496 3.54175 7.91663 3.54175H12.0833C12.425 3.54175 12.7083 3.82508 12.7083 4.16675C12.7083 4.50841 12.425 4.79175 12.0833 4.79175Z" fill="#2A9E66"/>
</svg>
