<svg width="23" height="23" viewBox="0 0 23 23" fill="none" xmlns="http://www.w3.org/2000/svg">
<path d="M10.7123 23V21.0308C8.31431 20.7858 6.31887 19.8668 4.72603 18.274C3.13318 16.6811 2.21423 14.6857 1.96918 12.2877H0V10.7123H1.96918C2.21423 8.31431 3.13318 6.31887 4.72603 4.72603C6.31887 3.13318 8.31431 2.21423 10.7123 1.96918V0H12.2877V1.96918C14.6857 2.21423 16.6811 3.13318 18.274 4.72603C19.8668 6.31887 20.7858 8.31431 21.0308 10.7123H23V12.2877H21.0308C20.7858 14.6857 19.8668 16.6811 18.274 18.274C16.6811 19.8668 14.6857 20.7858 12.2877 21.0308V23H10.7123ZM11.5 19.4817C13.688 19.4817 15.5653 18.6984 17.1319 17.1319C18.6984 15.5653 19.4817 13.688 19.4817 11.5C19.4817 9.31202 18.6984 7.43474 17.1319 5.86815C15.5653 4.30156 13.688 3.51827 11.5 3.51827C9.31202 3.51827 7.43474 4.30156 5.86815 5.86815C4.30156 7.43474 3.51827 9.31202 3.51827 11.5C3.51827 13.688 4.30156 15.5653 5.86815 17.1319C7.43474 18.6984 9.31202 19.4817 11.5 19.4817ZM11.5 15.4384C10.3973 15.4384 9.46518 15.0577 8.70377 14.2962C7.94235 13.5348 7.56164 12.6027 7.56164 11.5C7.56164 10.3973 7.94235 9.46518 8.70377 8.70377C9.46518 7.94235 10.3973 7.56164 11.5 7.56164C12.6027 7.56164 13.5348 7.94235 14.2962 8.70377C15.0577 9.46518 15.4384 10.3973 15.4384 11.5C15.4384 12.6027 15.0577 13.5348 14.2962 14.2962C13.5348 15.0577 12.6027 15.4384 11.5 15.4384ZM11.5 13.863C12.1651 13.863 12.7253 13.6355 13.1804 13.1804C13.6355 12.7253 13.863 12.1651 13.863 11.5C13.863 10.8349 13.6355 10.2747 13.1804 9.81963C12.7253 9.36454 12.1651 9.13699 11.5 9.13699C10.8349 9.13699 10.2747 9.36454 9.81963 9.81963C9.36454 10.2747 9.13699 10.8349 9.13699 11.5C9.13699 12.1651 9.36454 12.7253 9.81963 13.1804C10.2747 13.6355 10.8349 13.863 11.5 13.863Z" fill="#2A9E66"/>
</svg>
