<svg width="30" height="30" viewBox="0 0 30 30" fill="none" xmlns="http://www.w3.org/2000/svg">
<path d="M15 28.4375C7.5875 28.4375 1.5625 22.4125 1.5625 15C1.5625 7.5875 7.5875 1.5625 15 1.5625C22.4125 1.5625 28.4375 7.5875 28.4375 15C28.4375 22.4125 22.4125 28.4375 15 28.4375ZM15 3.4375C8.625 3.4375 3.4375 8.625 3.4375 15C3.4375 21.375 8.625 26.5625 15 26.5625C21.375 26.5625 26.5625 21.375 26.5625 15C26.5625 8.625 21.375 3.4375 15 3.4375Z" fill="#2A9E66"/>
<path d="M19.375 15.9375H11.875C11.3625 15.9375 10.9375 15.5125 10.9375 15C10.9375 14.4875 11.3625 14.0625 11.875 14.0625H19.375C19.8875 14.0625 20.3125 14.4875 20.3125 15C20.3125 15.5125 19.8875 15.9375 19.375 15.9375Z" fill="#2A9E66"/>
<path d="M14.3748 19.6875C14.1373 19.6875 13.8998 19.6 13.7123 19.4125L9.9623 15.6625C9.5998 15.3 9.5998 14.7 9.9623 14.3375L13.7123 10.5875C14.0748 10.225 14.6748 10.225 15.0373 10.5875C15.3998 10.95 15.3998 11.55 15.0373 11.9125L11.9498 15L15.0373 18.0875C15.3998 18.45 15.3998 19.05 15.0373 19.4125C14.8498 19.6 14.6123 19.6875 14.3748 19.6875Z" fill="#2A9E66"/>
</svg>
