<svg width="24" height="24" viewBox="0 0 24 24" fill="none" xmlns="http://www.w3.org/2000/svg">
<path d="M12 2.25001C13.47 2.25001 14.81 3.06001 15.49 4.36001L21.59 15.95C22.41 17.5 22.14 19.3 20.92 20.55C19.7 21.8 17.9 22.1 16.34 21.32L13.1 19.7C12.42 19.36 11.6 19.36 10.91 19.7L7.67003 21.32C6.10003 22.1 4.30003 21.8 3.08003 20.55C1.86003 19.3 1.59003 17.5 2.41003 15.95L8.51003 4.36001C9.19003 3.06001 10.53 2.25001 12 2.25001ZM18.12 20.25C18.83 20.25 19.45 19.91 19.85 19.5C20.45 18.88 20.88 17.81 20.27 16.65L14.17 5.06001C13.74 4.24001 12.93 3.75001 12.01 3.75001C11.09 3.75001 10.28 4.24001 9.85003 5.06001L3.75003 16.65C3.14003 17.81 3.56003 18.89 4.17003 19.5C4.77003 20.11 5.83003 20.56 7.01003 19.98L10.25 18.36C11.36 17.81 12.67 17.81 13.78 18.36L17.01 19.98C17.39 20.17 17.77 20.25 18.12 20.25Z" fill="#2A9E66"/>
</svg>
