<svg width="16" height="16" viewBox="0 0 16 16" fill="none" xmlns="http://www.w3.org/2000/svg">
<path d="M7.39992 15.1668H4.59992C1.99325 15.1668 0.833252 14.0068 0.833252 11.4002V8.60016C0.833252 5.9935 1.99325 4.8335 4.59992 4.8335H7.39992C10.0066 4.8335 11.1666 5.9935 11.1666 8.60016V11.4002C11.1666 14.0068 10.0066 15.1668 7.39992 15.1668ZM4.59992 5.8335C2.53325 5.8335 1.83325 6.5335 1.83325 8.60016V11.4002C1.83325 13.4668 2.53325 14.1668 4.59992 14.1668H7.39992C9.46659 14.1668 10.1666 13.4668 10.1666 11.4002V8.60016C10.1666 6.5335 9.46659 5.8335 7.39992 5.8335H4.59992Z" fill="#2A9E66"/>
<path d="M11.3999 11.1668H10.6666C10.3933 11.1668 10.1666 10.9402 10.1666 10.6668V8.60016C10.1666 6.5335 9.46659 5.8335 7.39992 5.8335H5.33325C5.05992 5.8335 4.83325 5.60683 4.83325 5.3335V4.60016C4.83325 1.9935 5.99325 0.833496 8.59992 0.833496H11.3999C14.0066 0.833496 15.1666 1.9935 15.1666 4.60016V7.40016C15.1666 10.0068 14.0066 11.1668 11.3999 11.1668ZM11.1666 10.1668H11.3999C13.4666 10.1668 14.1666 9.46683 14.1666 7.40016V4.60016C14.1666 2.5335 13.4666 1.8335 11.3999 1.8335H8.59992C6.53325 1.8335 5.83325 2.5335 5.83325 4.60016V4.8335H7.39992C10.0066 4.8335 11.1666 5.9935 11.1666 8.60016V10.1668Z" fill="#2A9E66"/>
</svg>
