<svg width="24" height="24" viewBox="0 0 24 24" fill="none" xmlns="http://www.w3.org/2000/svg">
<path d="M8.0998 7.80039C8.3385 7.80039 8.56742 7.70557 8.7362 7.53679C8.90498 7.368 8.9998 7.13909 8.9998 6.90039C8.9998 6.6617 8.90498 6.43278 8.7362 6.26399C8.56742 6.09521 8.3385 6.00039 8.0998 6.00039C7.86111 6.00039 7.63219 6.09521 7.46341 6.26399C7.29463 6.43278 7.1998 6.6617 7.1998 6.90039C7.1998 7.13909 7.29463 7.368 7.46341 7.53679C7.63219 7.70557 7.86111 7.80039 8.0998 7.80039ZM8.9998 10.5004C8.9998 10.7391 8.90498 10.968 8.7362 11.1368C8.56742 11.3056 8.3385 11.4004 8.0998 11.4004C7.86111 11.4004 7.63219 11.3056 7.46341 11.1368C7.29463 10.968 7.1998 10.7391 7.1998 10.5004C7.1998 10.2617 7.29463 10.0328 7.46341 9.864C7.63219 9.69521 7.86111 9.60039 8.0998 9.60039C8.3385 9.60039 8.56742 9.69521 8.7362 9.864C8.90498 10.0328 8.9998 10.2617 8.9998 10.5004ZM8.0998 15.0004C8.21799 15.0004 8.33503 14.9771 8.44422 14.9319C8.55341 14.8867 8.65263 14.8204 8.7362 14.7368C8.81977 14.6532 8.88607 14.554 8.9313 14.4448C8.97653 14.3356 8.9998 14.2186 8.9998 14.1004C8.9998 13.9822 8.97653 13.8652 8.9313 13.756C8.88607 13.6468 8.81977 13.5476 8.7362 13.464C8.65263 13.3804 8.55341 13.3141 8.44422 13.2689C8.33503 13.2237 8.21799 13.2004 8.0998 13.2004C7.86111 13.2004 7.63219 13.2952 7.46341 13.464C7.29463 13.6328 7.1998 13.8617 7.1998 14.1004C7.1998 14.3391 7.29463 14.568 7.46341 14.7368C7.63219 14.9056 7.86111 15.0004 8.0998 15.0004ZM12.5998 6.90039C12.5998 7.13909 12.505 7.368 12.3362 7.53679C12.1674 7.70557 11.9385 7.80039 11.6998 7.80039C11.4611 7.80039 11.2322 7.70557 11.0634 7.53679C10.8946 7.368 10.7998 7.13909 10.7998 6.90039C10.7998 6.6617 10.8946 6.43278 11.0634 6.26399C11.2322 6.09521 11.4611 6.00039 11.6998 6.00039C11.9385 6.00039 12.1674 6.09521 12.3362 6.26399C12.505 6.43278 12.5998 6.6617 12.5998 6.90039ZM11.6998 11.4004C11.9385 11.4004 12.1674 11.3056 12.3362 11.1368C12.505 10.968 12.5998 10.7391 12.5998 10.5004C12.5998 10.2617 12.505 10.0328 12.3362 9.864C12.1674 9.69521 11.9385 9.60039 11.6998 9.60039C11.4611 9.60039 11.2322 9.69521 11.0634 9.864C10.8946 10.0328 10.7998 10.2617 10.7998 10.5004C10.7998 10.7391 10.8946 10.968 11.0634 11.1368C11.2322 11.3056 11.4611 11.4004 11.6998 11.4004ZM12.5998 14.1004C12.5998 14.3391 12.505 14.568 12.3362 14.7368C12.1674 14.9056 11.9385 15.0004 11.6998 15.0004C11.4611 15.0004 11.2322 14.9056 11.0634 14.7368C10.8946 14.568 10.7998 14.3391 10.7998 14.1004C10.7998 13.8617 10.8946 13.6328 11.0634 13.464C11.2322 13.2952 11.4611 13.2004 11.6998 13.2004C11.9385 13.2004 12.1674 13.2952 12.3362 13.464C12.505 13.6328 12.5998 13.8617 12.5998 14.1004ZM15.2998 15.0004C15.418 15.0004 15.535 14.9771 15.6442 14.9319C15.7534 14.8867 15.8526 14.8204 15.9362 14.7368C16.0198 14.6532 16.0861 14.554 16.1313 14.4448C16.1765 14.3356 16.1998 14.2186 16.1998 14.1004C16.1998 13.9822 16.1765 13.8652 16.1313 13.756C16.0861 13.6468 16.0198 13.5476 15.9362 13.464C15.8526 13.3804 15.7534 13.3141 15.6442 13.2689C15.535 13.2237 15.418 13.2004 15.2998 13.2004C15.0611 13.2004 14.8322 13.2952 14.6634 13.464C14.4946 13.6328 14.3998 13.8617 14.3998 14.1004C14.3998 14.3391 14.4946 14.568 14.6634 14.7368C14.8322 14.9056 15.0611 15.0004 15.2998 15.0004ZM5.3998 21.6004C5.24067 21.6004 5.08806 21.5372 4.97554 21.4247C4.86302 21.3121 4.7998 21.1595 4.7998 21.0004V4.20039C4.7998 3.723 4.98945 3.26516 5.32701 2.9276C5.66458 2.59003 6.12241 2.40039 6.5998 2.40039H13.7998C14.2772 2.40039 14.735 2.59003 15.0726 2.9276C15.4102 3.26516 15.5998 3.723 15.5998 4.20039V9.60039H17.3998C17.8772 9.60039 18.335 9.79003 18.6726 10.1276C19.0102 10.4652 19.1998 10.923 19.1998 11.4004V21.0004C19.1998 21.1595 19.1366 21.3121 19.0241 21.4247C18.9115 21.5372 18.7589 21.6004 18.5998 21.6004H5.3998ZM5.9998 4.20039V20.4004H8.3998V17.4004C8.3998 17.2413 8.46302 17.0886 8.57554 16.9761C8.68806 16.8636 8.84067 16.8004 8.9998 16.8004H14.9998C15.1589 16.8004 15.3115 16.8636 15.4241 16.9761C15.5366 17.0886 15.5998 17.2413 15.5998 17.4004V20.4004H17.9998V11.4004C17.9998 11.2413 17.9366 11.0886 17.8241 10.9761C17.7115 10.8636 17.5589 10.8004 17.3998 10.8004H14.9998C14.8407 10.8004 14.6881 10.7372 14.5755 10.6247C14.463 10.5121 14.3998 10.3595 14.3998 10.2004V4.20039C14.3998 4.04126 14.3366 3.88865 14.2241 3.77613C14.1115 3.6636 13.9589 3.60039 13.7998 3.60039H6.5998C6.44067 3.60039 6.28806 3.6636 6.17554 3.77613C6.06302 3.88865 5.9998 4.04126 5.9998 4.20039ZM14.3998 18.0004H12.5998V20.4004H14.3998V18.0004ZM11.3998 18.0004H9.5998V20.4004H11.3998V18.0004Z" fill="#2A9E66"/>
</svg>
