<svg width="84" height="58" viewBox="0 0 84 58" fill="none" xmlns="http://www.w3.org/2000/svg">
<path d="M8.03517 31.3173H75.9455" stroke="#2A9E66" stroke-width="4" stroke-linecap="round" stroke-linejoin="round"/>
<path d="M38.0727 14.169H33.6163C31.2577 14.169 29.34 16.0881 29.34 18.4468V49.4445C29.34 51.1332 30.1802 53.8897 34.4314 53.7208H40.4495" stroke="#2A9E66" stroke-width="4" stroke-linecap="round" stroke-linejoin="round"/>
<path d="M4.01709 6.97432V29.3985" stroke="#2A9E66" stroke-width="4" stroke-linecap="round" stroke-linejoin="round"/>
<path d="M42.8134 57.5903C45.034 57.5903 46.8302 55.7912 46.8302 53.5721C46.8302 51.3544 45.034 49.5554 42.8134 49.5554C40.5943 49.5554 38.7967 51.3544 38.7967 53.5721C38.7967 55.7912 40.5943 57.5903 42.8134 57.5903Z" fill="#3EB27A"/>
<path d="M4.01672 35.334C6.23583 35.334 8.03484 33.535 8.03484 31.3173C8.03484 29.0982 6.23583 27.2992 4.01672 27.2992C1.79901 27.2992 0 29.0982 0 31.3173C0 33.535 1.79901 35.334 4.01672 35.334Z" fill="#3EB27A"/>
<path d="M4.0171 33.0559C4.97732 33.0559 5.7561 32.2758 5.7561 31.3169C5.7561 30.3553 4.97732 29.5779 4.0171 29.5779C3.05688 29.5779 2.27949 30.3553 2.27949 31.3169C2.27949 32.2758 3.05688 33.0559 4.0171 33.0559Z" fill="#3C2C5B"/>
<path d="M29.3401 35.334C31.5578 35.334 33.3568 33.535 33.3568 31.3173C33.3568 29.0982 31.5578 27.2992 29.3401 27.2992C27.1209 27.2992 25.3219 29.0982 25.3219 31.3173C25.3219 33.535 27.1209 35.334 29.3401 35.334Z" fill="#3EB27A"/>
<path d="M42.0507 18.1868C44.2684 18.1868 46.0674 16.3878 46.0674 14.1687C46.0674 11.951 44.2684 10.1519 42.0507 10.1519C39.8316 10.1519 38.0339 11.951 38.0339 14.1687C38.0339 16.3878 39.8316 18.1868 42.0507 18.1868Z" fill="#3EB27A"/>
<path d="M54.6212 35.334C56.8403 35.334 58.6379 33.535 58.6379 31.3173C58.6379 29.0982 56.8403 27.2992 54.6212 27.2992C52.4034 27.2992 50.6044 29.0982 50.6044 31.3173C50.6044 33.535 52.4034 35.334 54.6212 35.334Z" fill="#3EB27A"/>
<path d="M79.983 35.334C82.2007 35.334 83.9998 33.535 83.9998 31.3173C83.9998 29.0982 82.2007 27.2992 79.983 27.2992C77.7639 27.2992 75.9663 29.0982 75.9663 31.3173C75.9663 33.535 77.7639 35.334 79.983 35.334Z" fill="#3EB27A"/>
<path d="M4.01672 8.03345C6.23583 8.03345 8.03484 6.23444 8.03484 4.01672C8.03484 1.79762 6.23583 0 4.01672 0C1.79901 0 0 1.79762 0 4.01672C0 6.23444 1.79901 8.03345 4.01672 8.03345Z" fill="#3EB27A"/>
<path d="M4.0171 5.67474C4.97732 5.67474 5.7561 4.89596 5.7561 3.93714C5.7561 2.97552 4.97732 2.19813 4.0171 2.19813C3.05688 2.19813 2.27949 2.97552 2.27949 3.93714C2.27949 4.89596 3.05688 5.67474 4.0171 5.67474Z" fill="#3C2C5B"/>
<path d="M29.3982 33.0559C30.3584 33.0559 31.1372 32.2758 31.1372 31.3169C31.1372 30.3553 30.3584 29.5779 29.3982 29.5779C28.438 29.5779 27.6606 30.3553 27.6606 31.3169C27.6606 32.2758 28.438 33.0559 29.3982 33.0559Z" fill="#3C2C5B"/>
<path d="M54.621 33.0559C55.5798 33.0559 56.3599 32.2758 56.3599 31.3169C56.3599 30.3553 55.5798 29.5779 54.621 29.5779C53.6593 29.5779 52.8819 30.3553 52.8819 31.3169C52.8819 32.2758 53.6593 33.0559 54.621 33.0559Z" fill="#3C2C5B"/>
<path d="M79.9828 33.0559C80.9416 33.0559 81.7218 32.2758 81.7218 31.3169C81.7218 30.3553 80.9416 29.5779 79.9828 29.5779C79.0212 29.5779 78.2438 30.3553 78.2438 31.3169C78.2438 32.2758 79.0212 33.0559 79.9828 33.0559Z" fill="#3C2C5B"/>
<path d="M42.0505 15.869C43.0121 15.869 43.7895 15.0888 43.7895 14.13C43.7895 13.1684 43.0121 12.391 42.0505 12.391C41.0916 12.391 40.3115 13.1684 40.3115 14.13C40.3115 15.0888 41.0916 15.869 42.0505 15.869Z" fill="#3C2C5B"/>
<path d="M42.8148 55.2713C43.775 55.2713 44.5538 54.4939 44.5538 53.5337C44.5538 52.5735 43.775 51.7947 42.8148 51.7947C41.8546 51.7947 41.0772 52.5735 41.0772 53.5337C41.0772 54.4939 41.8546 55.2713 42.8148 55.2713Z" fill="#3C2C5B"/>
</svg>
