<svg width="20" height="24" viewBox="0 0 20 24" fill="none" xmlns="http://www.w3.org/2000/svg">
<path d="M16.1954 4.4609L14.9734 3.2379L8.63135 9.5799V10.8139H9.86535L16.1954 4.4609ZM13.7154 1.9809L15.1894 0.506904C15.3475 0.346355 15.536 0.218861 15.7439 0.131838C15.9518 0.044815 16.175 0 16.4004 0C16.6257 0 16.8489 0.044815 17.0568 0.131838C17.2647 0.218861 17.4532 0.346355 17.6114 0.506904L18.9254 1.8209C19.0859 1.97908 19.2134 2.1676 19.3004 2.3755C19.3874 2.5834 19.4323 2.80653 19.4323 3.0319C19.4323 3.25728 19.3874 3.48041 19.3004 3.68831C19.2134 3.89621 19.0859 4.08473 18.9254 4.2429L18.1483 5.0199L18.1254 5.0429L17.4624 5.7059L10.6044 12.5619H6.86035V8.8369L13.7164 1.9809H13.7154ZM11.1104 1.3529L10.4824 1.9809L9.03135 3.4319C8.11884 3.43889 7.21708 3.62947 6.37978 3.99228C5.54247 4.3551 4.78676 4.88273 4.15765 5.54375C3.52855 6.20477 3.03892 6.98565 2.71795 7.83986C2.39697 8.69408 2.25121 9.60417 2.28935 10.5159C2.28935 13.1899 4.51735 16.7319 9.14535 20.9599C13.7733 16.7329 16.0044 13.2019 16.0044 10.5169V10.4029L18.0613 8.3459C18.2145 9.05939 18.2913 9.78716 18.2903 10.5169C18.2903 14.3102 15.2434 18.8046 9.14935 23.9999C3.05668 18.8012 0.00835048 14.3069 0.00435048 10.5169C-0.0334528 9.29549 0.175431 8.079 0.618511 6.94017C1.06159 5.80133 1.72977 4.76353 2.5831 3.88883C3.43642 3.01412 4.45737 2.32048 5.5849 1.84936C6.71243 1.37824 7.92338 1.13933 9.14535 1.1469C9.80577 1.1464 10.4644 1.21545 11.1104 1.3529Z" fill="#FF3236"/>
</svg>
