<svg width="307" height="118" viewBox="0 0 307 118" fill="none" xmlns="http://www.w3.org/2000/svg">
<g opacity="0.7">
<g opacity="0.15">
<path d="M135.624 102.742V102.717C135.624 100.525 137.127 98.7323 138.977 98.7323C140.827 98.7323 142.339 100.525 142.339 102.717V102.742H135.624Z" fill="#EFDCD7"/>
<path d="M3.3873 94.1174V94.0909C3.3873 91.9134 4.88904 90.1206 6.73914 90.108C8.58924 90.108 10.1016 91.8994 10.1016 94.0909V94.1174H3.3873Z" fill="#EFDCD7"/>
<path d="M87.4125 107.241V107.215C87.4125 105.346 88.6965 103.825 90.2747 103.825C91.853 103.825 93.137 105.346 93.137 107.215V107.241H87.4125Z" fill="#EFDCD7"/>
<path d="M135.41 20.3733V20.3594C135.295 19.9899 135.236 19.5926 135.236 19.1688C135.236 17.2115 136.588 15.6111 138.241 15.6111C138.61 15.6111 138.958 15.6919 139.292 15.8299C140.17 13.216 142.342 11.4776 144.7 11.4776C146.825 11.4776 148.778 12.8466 149.806 15.0632C150.21 14.8987 150.615 14.8164 150.996 14.8164C153.018 14.8164 154.67 16.7737 154.67 19.1688C154.67 19.5801 154.623 19.9899 154.532 20.3594V20.3733H135.41Z" fill="white"/>
<path d="M0.0235378 12.3127L0.0117698 12.2987C7.18154e-07 12.2708 0 12.2304 0 12.1886C0 9.34182 1.95249 7.02901 4.35574 7.02901C4.77119 7.02901 5.17605 7.09732 5.5456 7.23533C6.57422 5.46901 8.24897 4.41506 10.052 4.41506C13.0555 4.41506 15.5046 7.31758 15.5046 10.8753C15.5046 11.341 15.4587 11.8191 15.3775 12.2848V12.3127H0.0235378Z" fill="white"/>
<path d="M108.076 81.9872V55.7391H143.401L144.483 74.1691H133.982L122.138 81.9872H108.076Z" fill="#221E29" fill-opacity="0.68"/>
<path d="M67.1352 55.7711H34.9679V74.2011H67.1352V55.7711Z" fill="#221E29" fill-opacity="0.68"/>
<path d="M145.979 61.2331C148.254 61.2331 150.099 59.0486 150.099 56.3538C150.099 53.659 148.254 51.4744 145.979 51.4744C143.705 51.4744 141.86 53.659 141.86 56.3538C141.86 59.0486 143.705 61.2331 145.979 61.2331Z" fill="white"/>
<path d="M12.3501 60.0679C14.6251 60.0679 16.4693 57.8833 16.4693 55.1885C16.4693 52.4937 14.6251 50.3092 12.3501 50.3092C10.0751 50.3092 8.23091 52.4937 8.23091 55.1885C8.23091 57.8833 10.0751 60.0679 12.3501 60.0679Z" fill="white"/>
<path d="M146.592 53.1181C146.603 49.0013 144.123 45.5077 140.691 44.8078L118.806 40.3439L115.67 16.7613L16.5024 16.7487L12.2843 40.5767V74.215H37.6562V74.1885C38.3117 70.681 39.9723 67.5108 42.332 65.2328C44.7247 62.9283 47.7517 61.6597 50.8552 61.6597C53.947 61.6597 56.974 62.9283 59.3772 65.2328C61.7369 67.5108 63.3987 70.681 64.0543 74.1885V74.215H79.3835L86.2896 82.0317H115.124V77.6835C115.124 68.8435 121.189 61.6597 128.651 61.6597C131.743 61.6597 134.77 62.9283 137.173 65.2328C137.982 66.0093 138.703 66.9015 139.337 67.8732H146.592V53.1181Z" fill="white"/>
<path d="M146.592 61.1815V53.1181C146.592 52.5618 146.548 52.0042 146.46 51.4744" stroke="#838383" stroke-width="2.08297" stroke-linecap="round" stroke-linejoin="round"/>
<path d="M141.85 74.2154V74.1889C141.073 70.4876 139.292 67.0706 136.648 64.7536L136.594 64.702H147.969C149.148 64.702 150.099 65.841 150.099 67.2393V71.6781C150.099 73.0764 149.148 74.2014 147.969 74.2014H141.85V74.2154Z" fill="#221E29" fill-opacity="0.68"/>
<path d="M10.3611 74.2013C9.18185 74.2013 8.23091 73.0763 8.23091 71.678V67.2392C8.23091 65.8409 9.18185 64.7145 10.3611 64.7145H18.4029C18.982 64.7145 19.5175 64.9863 19.9223 65.4659C20.3154 65.9441 20.5343 66.5659 20.5343 67.2253V74.2013H10.3611Z" fill="#221E29" fill-opacity="0.68"/>
<path d="M41.4576 6.523C40.5514 6.523 39.8193 5.65587 39.8193 4.58241V1.94198C39.8193 0.86713 40.5514 0 41.4576 0H53.8481C54.7555 0 55.4875 0.86713 55.4875 1.94198V4.58241C55.4875 5.65587 54.7555 6.523 53.8481 6.523H41.4576Z" fill="#221E29" fill-opacity="0.68"/>
<path d="M87.1197 6.523C86.2135 6.523 85.4815 5.65587 85.4815 4.58241V1.94198C85.4815 0.86713 86.2135 0 87.1197 0H99.5102C100.418 0 101.15 0.86713 101.15 1.94198V4.58241C101.15 5.65587 100.418 6.523 99.5102 6.523H87.1197Z" fill="#221E29" fill-opacity="0.68"/>
<path d="M122.204 38.6739C121.297 38.6739 120.565 37.8068 120.565 36.7319V26.7139C120.565 25.6404 121.297 24.7733 122.204 24.7733H124.433C125.339 24.7733 126.071 25.6404 126.071 26.7139V36.7319C126.071 37.8068 125.339 38.6739 124.433 38.6739H122.204Z" fill="#221E29" fill-opacity="0.68"/>
<path d="M128.662 89.8752C134.347 89.8752 138.954 84.4173 138.954 77.6838C138.954 70.9503 134.347 65.491 128.662 65.491C122.978 65.491 118.369 70.9503 118.369 77.6838C118.369 84.4173 122.978 89.8752 128.662 89.8752Z" fill="#CECDCE"/>
<path d="M128.662 81.2038C130.303 81.2038 131.634 79.6271 131.634 77.6837C131.634 75.7389 130.303 74.1636 128.662 74.1636C127.02 74.1636 125.691 75.7389 125.691 77.6837C125.691 79.6271 127.02 81.2038 128.662 81.2038Z" fill="#221E29" fill-opacity="0.68"/>
<path d="M50.8657 89.8752C56.5501 89.8752 61.1577 84.4173 61.1577 77.6838C61.1577 70.9503 56.5501 65.491 50.8657 65.491C45.1812 65.491 40.5724 70.9503 40.5724 77.6838C40.5724 84.4173 45.1812 89.8752 50.8657 89.8752Z" fill="#CECDCE"/>
<path d="M50.8657 81.2038C52.5063 81.2038 53.8374 79.6271 53.8374 77.6837C53.8374 75.7389 52.5063 74.1636 50.8657 74.1636C49.2239 74.1636 47.894 75.7389 47.894 77.6837C47.894 79.6271 49.2239 81.2038 50.8657 81.2038Z" fill="#221E29" fill-opacity="0.68"/>
<path d="M88.9879 77.2946V25.0702C88.9879 22.689 90.6156 20.7484 92.6258 20.7484H107.989C109.999 20.7484 111.638 22.689 111.638 25.0702V77.2946H88.9879Z" fill="#CECDCE"/>
<path opacity="0.2" d="M111.594 27.1418C111.594 24.7858 109.977 22.8703 107.989 22.8703H92.6258C90.6486 22.8703 89.0315 24.7858 89.0315 27.1418H88.9879V25.0702C88.9879 22.689 90.6156 20.7484 92.6258 20.7484H107.989C109.999 20.7484 111.638 22.689 111.638 25.0702V27.1418H111.594Z" fill="#868686"/>
<path d="M69.8114 36.4084C67.8012 36.4084 66.1618 34.4678 66.1618 32.0853V25.0702C66.1618 22.689 67.8012 20.7484 69.8114 20.7484H81.8747C83.8848 20.7484 85.5243 22.689 85.5243 25.0702V32.0853C85.5243 34.4678 83.8848 36.4084 81.8747 36.4084H69.8114Z" fill="#CECDCE"/>
<path opacity="0.2" d="M85.4807 27.1418C85.4807 24.7858 83.8637 22.8703 81.8747 22.8703H69.8114C67.8236 22.8703 66.2065 24.7858 66.2065 27.1418H66.1618V25.0702C66.1618 22.689 67.8012 20.7484 69.8114 20.7484H81.8747C83.8848 20.7484 85.5243 22.689 85.5243 25.0702V27.1418H85.4807Z" fill="#868686"/>
<path d="M46.9764 36.4084C44.9662 36.4084 43.3268 34.4678 43.3268 32.0853V25.0702C43.3374 22.689 44.9768 20.7484 46.9764 20.7484H59.0385C61.0499 20.7484 62.6881 22.689 62.6881 25.0702V32.0853C62.6881 34.4678 61.0499 36.4084 59.0385 36.4084H46.9764Z" fill="#CECDCE"/>
<path d="M24.1512 36.4084C22.1398 36.4084 20.5016 34.4678 20.5016 32.0853V25.0702C20.5016 22.689 22.1398 20.7484 24.1512 20.7484H36.2133C38.2235 20.7484 39.8629 22.689 39.8629 25.0702V32.0853C39.8629 34.4678 38.2235 36.4084 36.2133 36.4084H24.1512Z" fill="#CECDCE"/>
<path d="M111.638 46.7888H88.9879V51.2416H111.638V46.7888Z" fill="#221E29" fill-opacity="0.68"/>
<path d="M111.638 74.1636H88.9879V82.0319H111.638V74.1636Z" fill="#221E29" fill-opacity="0.68"/>
<path d="M89.0095 52.8978H12.2843V57.3505H89.0095V52.8978Z" fill="#221E29" fill-opacity="0.68"/>
<path opacity="0.2" d="M135.184 57.7508C134.146 57.7508 133.304 56.7554 133.304 55.5258C133.304 54.2962 134.146 53.2994 135.184 53.2994H139.063C140.101 53.2994 140.942 54.2962 140.942 55.5258C140.942 56.1072 140.756 56.6648 140.407 57.0914C140.047 57.518 139.576 57.7508 139.063 57.7508H135.184Z" fill="#838383"/>
<path d="M89.0095 40.577H12.2843V45.0284H89.0095V40.577Z" fill="#221E29" fill-opacity="0.68"/>
<path d="M16.5126 16.7878L17.387 11.8694C18.2285 7.09317 21.8228 3.62465 25.9526 3.62465H117.812C118.98 3.62465 120.062 4.24641 120.806 5.31987C121.538 6.39473 121.821 7.79162 121.581 9.13832L120.182 16.8129L16.5126 16.7878Z" fill="white"/>
<path opacity="0.2" d="M16.5126 16.788L17.387 11.8306L17.4082 11.8431C17.4306 11.8557 19.1348 12.504 24.5768 13.1508C29.6022 13.7461 38.9339 14.4585 54.8316 14.4585C67.5281 14.4585 86.5294 13.9915 104.896 11.779C115.878 10.4588 121.494 9.1121 121.548 9.09956L121.581 9.08701L120.171 16.8006L16.5126 16.788Z" fill="#838383"/>
<path d="M19.1786 62.8895C18.1523 63.0456 17.2779 62.0098 17.4085 60.7928C17.4968 59.9647 18.0641 59.2913 18.7643 59.1882C19.7906 59.0334 20.6651 60.0678 20.5344 61.2849C20.4461 62.113 19.8789 62.7863 19.1786 62.8895Z" fill="white"/>
<path d="M16.5351 16.7741L115.659 16.788" stroke="#838383" stroke-width="2.08297" stroke-linecap="round" stroke-linejoin="round"/>
<path d="M114.599 20.0237H120.521C122.062 20.0237 123.319 21.5112 123.319 23.3361V40.1239C123.319 41.9487 122.062 43.4362 120.521 43.4362H114.599" stroke="#221E29" stroke-opacity="0.68" stroke-width="2.08297" stroke-linecap="round" stroke-linejoin="round"/>
<path d="M100.308 20.7736V81.9412" stroke="#868686" stroke-width="2.08297" stroke-linecap="round" stroke-linejoin="round"/>
<path opacity="0.2" d="M62.6446 27.1418C62.6446 24.7858 61.0275 22.8703 59.0385 22.8703H46.9764C44.9874 22.8703 43.3703 24.7858 43.3703 27.1418H43.3268V25.0702C43.3268 22.689 44.9662 20.7484 46.9764 20.7484H59.0385C61.0499 20.7484 62.6881 22.689 62.6881 25.0702V27.1418H62.6446Z" fill="#868686"/>
<path opacity="0.2" d="M39.8194 27.1418C39.8194 24.7858 38.2023 22.8703 36.2133 22.8703H24.1512C22.1622 22.8703 20.5451 24.7858 20.5451 27.1418H20.5016V25.0702C20.5016 22.689 22.1398 20.7484 24.1512 20.7484H36.2133C38.2235 20.7484 39.8629 22.689 39.8629 25.0702V27.1418H39.8194Z" fill="#868686"/>
<path d="M135.185 55.9258C134.202 55.9258 133.393 55.021 133.317 53.882C133.23 52.5618 134.136 51.4744 135.25 51.4744H139.064C140.102 51.4744 140.943 52.4712 140.943 53.7008C140.943 54.2821 140.757 54.8398 140.408 55.2664C140.048 55.693 139.577 55.9258 139.064 55.9258H135.185Z" fill="white"/>
<path d="M12.2628 50.3092V60.0679" stroke="#838383" stroke-width="2.08297" stroke-linecap="round" stroke-linejoin="round"/>
<path d="M115.338 63.34H112.725V117.002H115.338V63.34Z" fill="#475139"/>
<path opacity="0.2" d="M114.032 67.9542C113.6 67.9542 113.168 67.9263 112.749 67.8705H112.725V63.4777H115.338V67.8705H115.315C114.894 67.9263 114.463 67.9542 114.032 67.9542Z" fill="black"/>
<path d="M122.912 60.9701C127.818 55.158 127.818 45.7367 122.912 39.9261C118.007 34.1155 110.053 34.1155 105.148 39.9261C100.242 45.7367 100.242 55.158 105.148 60.9701C110.053 66.7807 118.007 66.7807 122.912 60.9701Z" fill="white"/>
<path d="M115.316 65.4951C114.895 65.5491 114.463 65.5767 114.033 65.5767C113.601 65.5767 113.169 65.5491 112.75 65.4951" stroke="black" stroke-width="2.08297" stroke-linecap="round" stroke-linejoin="round"/>
<path d="M110.405 58.6138C109.786 58.6138 109.284 58.0199 109.284 57.288V52.8798C109.284 52.1479 109.786 51.554 110.405 51.554C111.023 51.554 111.524 52.1479 111.524 52.8798V57.288C111.524 58.0199 111.023 58.6138 110.405 58.6138Z" fill="#AFC2CB"/>
<path d="M117.788 58.6138C117.17 58.6138 116.667 58.0199 116.667 57.288V52.8798C116.667 52.1479 117.17 51.554 117.788 51.554C118.406 51.554 118.907 52.1479 118.907 52.8798V57.288C118.907 58.0199 118.406 58.6138 117.788 58.6138Z" fill="#AFC2CB"/>
<path d="M109.273 50.0765V46.1381C109.273 44.1348 110.65 42.5051 112.341 42.5051H115.84C117.531 42.5051 118.907 44.1348 118.907 46.1381V50.0765H109.273Z" fill="#475139"/>
<path d="M118.907 50.0069H109.273V55.9764H118.907V50.0069Z" fill="#AFC2CB"/>
<path d="M111.722 54.1111C111.151 54.1111 110.684 53.5577 110.684 52.8815C110.684 52.204 111.151 51.6519 111.722 51.6519C112.294 51.6519 112.76 52.204 112.76 52.8815C112.76 53.5577 112.294 54.1111 111.722 54.1111Z" fill="#0F445D"/>
<path d="M116.364 54.1111C115.792 54.1111 115.326 53.5577 115.326 52.8815C115.326 52.204 115.792 51.6519 116.364 51.6519C116.935 51.6519 117.403 52.204 117.403 52.8815C117.403 53.5577 116.935 54.1111 116.364 54.1111Z" fill="#0F445D"/>
<path d="M109.296 50.0347H118.883" stroke="#0F445D" stroke-width="2.08297" stroke-linecap="round" stroke-linejoin="round"/>
<path d="M109.296 55.9483H111.5" stroke="#0F445D" stroke-width="2.08297" stroke-linecap="round" stroke-linejoin="round"/>
<path d="M116.679 55.9483H118.884" stroke="#0F445D" stroke-width="2.08297" stroke-linecap="round" stroke-linejoin="round"/>
<path d="M120.954 117.014V116.986C120.954 113.041 123.673 109.835 127.004 109.835C130.334 109.835 133.041 113.041 133.041 116.986V117.014H120.954Z" fill="#221E29" fill-opacity="0.68"/>
<path opacity="0.2" d="M120.954 117.014V116.986C120.954 114.03 122.461 111.424 124.779 110.336L124.803 110.322L124.815 110.35C125.38 112.539 126.509 113.18 127.51 113.738C127.839 113.919 128.145 114.1 128.428 114.323C129.958 115.55 129.84 116.972 129.84 116.986V117.014H120.954Z" fill="black"/>
<path d="M120.178 112.051C120.884 111.326 121.684 110.573 122.685 109.639C127.569 105.136 132.253 101.86 133.83 101.86C134.065 101.86 134.218 101.93 134.313 102.069C134.383 102.181 134.407 102.334 134.395 102.515C134.218 104.216 130.382 108.858 125.274 113.57C124.462 114.323 123.626 115.076 122.779 115.787L122.755 115.801L120.178 112.051Z" fill="#AFC2CB"/>
<path opacity="0.2" d="M120.178 112.051C120.884 111.326 121.684 110.574 122.685 109.639C122.791 109.542 122.897 109.444 123.002 109.347C123.238 109.124 123.485 108.901 123.732 108.692L123.744 108.678H123.756C124.379 108.915 125.133 109.026 125.921 109.026C127.486 109.026 129.24 108.552 130.994 107.646L131.029 107.688C129.428 109.542 127.439 111.577 125.274 113.557C124.462 114.31 123.626 115.063 122.779 115.774L122.755 115.787L120.178 112.051Z" fill="#757575"/>
<path d="M116.799 110.225V110.197C116.799 110.155 116.799 110.127 116.811 110.085C116.811 110.057 116.811 110.016 116.811 109.988C117.305 103.868 118.518 99.0719 119.577 99.0719C119.589 99.0719 119.6 99.0719 119.612 99.0719C120.66 99.1835 121.107 104.077 120.648 110.197V110.225H116.799Z" fill="#AFC2CB"/>
<path opacity="0.2" d="M116.799 110.225V110.197C116.799 110.155 116.799 110.127 116.811 110.086C116.811 110.058 116.811 110.016 116.811 109.988C117.011 107.311 117.4 104.649 117.894 102.585H117.941C118.388 104.899 119.753 105.973 120.813 106.475H120.824V106.489C120.801 107.66 120.742 108.901 120.648 110.183V110.211L116.799 110.225Z" fill="#757575"/>
<path d="M108.126 117.014V116.986C108.126 111.312 112.033 106.698 116.823 106.698C121.613 106.698 125.509 111.312 125.509 116.986V117.014H108.126Z" fill="#221E29" fill-opacity="0.68"/>
<path opacity="0.2" d="M108.126 117.014V116.986C108.126 114.589 108.832 112.26 110.127 110.434L110.162 110.378V110.462C110.197 112.916 111.221 114.031 113.822 114.435C116.423 114.839 116.6 116.958 116.6 116.986V117.014H108.126Z" fill="black"/>
<path d="M125.485 116.958C125.485 115.857 125.332 114.797 125.062 113.808" stroke="black" stroke-width="2.08297" stroke-linecap="round" stroke-linejoin="round"/>
<path d="M124.002 101.303C122.825 104.203 121.166 110.323 120.813 112.971" stroke="#636363" stroke-width="2.08297" stroke-linecap="round" stroke-linejoin="round"/>
<path d="M126.239 102.348C125.439 102.348 124.615 102.111 123.838 101.651C122.802 101.051 121.979 100.117 121.52 99.0579C121.061 97.9844 121.013 96.897 121.39 95.9908C121.861 94.8616 122.944 94.1924 124.285 94.1924C125.086 94.1924 125.909 94.4294 126.686 94.8895C127.722 95.489 128.546 96.423 129.005 97.4825C129.464 98.556 129.511 99.6434 129.134 100.55C128.652 101.679 127.581 102.348 126.239 102.348Z" fill="white"/>
<path d="M125.368 98.7654C125.274 98.7654 125.18 98.7375 125.086 98.6817C124.968 98.612 124.862 98.5005 124.815 98.375C124.756 98.2496 124.756 98.1102 124.803 97.9986C124.862 97.8592 124.992 97.7756 125.157 97.7756C125.251 97.7756 125.345 97.8035 125.439 97.8592C125.698 98.0126 125.827 98.3193 125.733 98.5423C125.663 98.6817 125.533 98.7654 125.368 98.7654Z" fill="#636363"/>
<path d="M57.5939 111.513C57.7245 109.635 57.9011 108.345 58.2682 106.776C58.2682 106.762 58.28 106.748 58.2918 106.748C58.5166 106.664 60.575 105.977 62.7758 105.991C63.4502 106.005 65.9711 106.678 66.3136 106.762C66.3371 106.762 66.3489 106.79 66.3371 106.818C66.0535 107.674 65.8993 108.206 65.7228 108.766C65.7228 108.78 65.7098 108.794 65.6863 108.794L63.8056 108.822C63.1195 108.822 62.8476 109.579 62.6346 110.378L62.185 111.878C62.185 111.892 62.1615 111.906 62.1485 111.906L57.5939 111.513Z" fill="#CF5934"/>
<path d="M68.5731 111.457C68.3966 110.07 68.2659 108.57 68.1953 106.818C68.1953 106.804 68.1953 106.79 68.2071 106.776C68.4083 106.636 70.3714 105.347 72.3004 105.333C74.194 105.333 76.063 106.581 76.2524 106.72C76.2642 106.72 76.2642 106.734 76.2642 106.748C76.276 107.616 76.3466 108.121 76.3948 108.654C76.3948 108.667 76.3948 108.667 76.3831 108.683L74.134 112.397C74.1222 112.411 74.1105 112.411 74.0987 112.411C73.7562 112.326 69.1651 111.527 68.8238 111.523C68.5849 111.485 68.5731 111.471 68.6166 111.767L68.5731 111.457Z" fill="#CF5934"/>
<path d="M64.5971 65.9217C64.5853 65.9217 64.5853 65.9078 64.5853 65.8938V59.6845C64.5853 57.7788 65.4845 55.2276 67.7335 53.701C68.4315 53.2242 68.4315 52.8311 69.4012 52.8311C71.8504 52.8311 73.2227 53.7707 73.6958 55.1718C73.7676 55.3962 73.8499 55.7183 73.9688 56.2369C74.1701 57.1486 74.3949 58.4242 74.4419 59.0265C74.4419 59.0404 74.4537 59.0544 74.4655 59.0544C75.3293 59.5312 75.3529 60.0916 74.5125 60.6241V60.6938C74.7256 63.4974 73.9924 65.5007 71.176 65.0671C71.1525 65.0671 71.1407 65.0811 71.1407 65.109C71.1407 65.2637 71.1407 65.7809 71.1407 65.8799C71.1407 65.8938 71.1407 65.9078 71.1289 65.9078C70.9748 66.0486 69.4718 67.3088 67.9348 67.2949C66.3719 67.2949 64.7748 66.0332 64.5971 65.9217Z" fill="#CF5934"/>
<path opacity="0.2" d="M69.4602 64.2958C70.3005 64.8562 70.9631 65.0388 71.1173 65.0528C71.129 65.0528 71.1408 65.0667 71.1408 65.0946C71.1408 65.2772 71.1408 66.1039 71.1408 66.3981C71.1408 66.4399 71.1055 66.4538 71.082 66.4259L69.4131 64.3655C69.3896 64.3236 69.4249 64.2818 69.4602 64.2958Z" fill="#030202"/>
<path d="M76.2286 103.145C76.2168 101.422 76.2051 99.4748 76.1333 97.1898C75.8849 89.2002 74.1937 82.4737 74.0749 81.9969C74.0749 81.983 74.0631 81.969 74.0395 81.969C71.9694 81.9272 64.4677 81.969 62.527 81.9551C62.5152 81.9551 62.5035 81.969 62.4917 81.983C60.4686 87.7155 61.2971 93.3212 60.5039 98.8014C60.0661 101.534 58.8833 104.127 58.2795 106.72C58.2795 106.748 58.2913 106.776 58.3148 106.776C58.9421 106.776 65.8871 106.804 66.3249 106.804C66.3367 106.804 66.3484 106.79 66.3602 106.776C66.964 104.912 67.6148 102.796 68.0291 100.792C68.0408 100.749 68.0879 100.749 68.0997 100.806C68.1468 101.633 68.1715 102.501 68.1468 103.469C68.1232 104.758 68.1597 106.019 68.195 106.776C68.195 106.804 68.2068 106.817 68.2303 106.817C68.774 106.817 75.7072 106.762 76.2404 106.762C76.2639 106.762 76.2757 106.748 76.2757 106.72C76.2521 105.655 76.2404 104.52 76.2286 103.145Z" fill="#475139"/>
<path opacity="0.2" d="M68.0883 100.61L67.887 98.6901L66.9408 93.8679L65.8521 89.4249C65.8521 89.4249 65.971 88.5703 66.55 88.4727C66.6336 88.4588 66.716 88.4588 66.7866 88.4588C67.1656 88.4588 67.4845 88.6261 67.7458 88.9495C68.7273 90.168 68.7273 93.3354 68.6449 95.6203C68.5261 99.3063 68.7391 98.4517 68.0883 100.61Z" fill="black"/>
<path d="M65.8638 89.5376C66.5735 93.027 67.734 96.2223 68.0647 100.749" stroke="black" stroke-width="2.08297" stroke-linecap="round" stroke-linejoin="round"/>
<path d="M80.2873 70.6449C80.2755 70.631 80.2755 70.617 80.2755 70.5891C81.7902 67.2252 83.5767 63.2868 83.4226 66.2995C83.4226 66.3566 83.4814 66.3845 83.5061 66.3288C83.9792 65.4031 84.9137 63.9309 85.5175 63.9309C85.6469 63.9309 85.7422 64.002 85.8246 64.1135C85.8364 64.1414 85.8599 64.1414 85.8835 64.1275C86.2507 63.8891 86.665 63.8194 86.7709 64.6879C86.7709 64.7158 86.7826 64.7297 86.8062 64.7297C87.244 64.8566 87.304 65.4031 87.1263 66.0332C87.1263 66.0485 87.1263 66.0625 87.1263 66.0764C87.8477 67.0844 85.8246 72.046 85.1385 74.1622C85.1385 74.1762 85.1267 74.1901 85.1032 74.1901C83.9074 74.1483 80.5944 70.9251 80.2873 70.6449Z" fill="#CF5934"/>
<path d="M59.7358 83.3423C58.7413 83.3423 57.9845 82.8948 57.4749 81.997C55.4047 78.3528 59.5581 70.8553 61.0963 69.0751C62.8828 67.0146 64.2669 66.7483 64.5505 66.7204C64.5623 66.7204 64.5741 66.7065 64.5741 66.6786V65.8798C64.5741 65.8519 64.5858 65.838 64.6105 65.838H71.1059C71.1294 65.838 71.1412 65.8519 71.1412 65.8798V66.6786C71.1412 66.6926 71.153 66.7204 71.1648 66.7204C71.5555 66.7762 74.1588 67.2251 75.6841 69.2438C77.1399 71.1913 78.524 73.1682 78.8076 73.5738C78.8206 73.6017 78.8559 73.5878 78.8676 73.5738C79.0206 73.2379 79.6597 71.8075 80.3341 70.4622C80.3458 70.4483 80.3694 70.4343 80.3823 70.4483C80.7601 70.7424 84.7592 73.9098 85.1029 74.1761C85.1147 74.19 85.1264 74.204 85.1147 74.2193C84.1437 76.797 82.6891 80.0494 81.1391 80.9459C78.2874 82.6982 75.803 79.9644 75.0333 78.5494C75.0215 78.5215 74.9862 78.5215 74.9744 78.5633C74.845 79.0541 74.1588 81.6331 74.0753 81.9273C74.0753 81.9412 74.0635 81.9552 74.0399 81.9552L63.2371 82.0109C63.2253 82.0109 63.2253 82.0109 63.2253 82.0109C63.0606 82.1378 61.3564 83.3423 59.7358 83.3423Z" fill="#AFC2CB"/>
<path d="M64.6218 63.7637C64.5971 63.7637 64.5854 63.7497 64.5854 63.7218C64.5736 63.4835 64.5736 62.3612 64.5736 61.3672C64.9726 60.5726 65.0114 59.9508 65.0832 59.7082C65.6658 57.776 66.3601 56.4042 67.3546 53.9813C68.0525 53.5045 68.4197 52.8172 69.3895 52.8172C72.1823 52.8869 73.4475 53.8265 73.8735 55.8731C73.8735 55.887 73.8735 55.887 73.8735 55.9009C73.8029 56.1951 72.5954 56.559 71.8622 56.3359C71.7916 56.3498 71.6139 56.1951 71.6021 56.3066C71.6021 57.8624 70.7853 58.7324 70.6323 58.8857C70.6206 58.8996 70.5958 58.8996 70.5841 58.8857C70.4428 58.6905 69.579 57.5125 68.4315 57.5125C67.6618 57.4986 66.8933 58.3671 66.905 59.3067C66.8344 60.2882 67.8631 61.8858 68.0996 62.1521C68.1114 62.166 68.1114 62.1939 68.0996 62.2079C67.2475 63.5671 64.8584 63.7358 64.6218 63.7637Z" fill="#010005"/>
<path d="M57.5942 111.555C57.5942 111.541 57.6059 111.513 57.6295 111.513L61.8887 111.499C61.9005 111.499 61.9123 111.485 61.924 111.471L62.2677 110.14C62.4807 109.313 63.1198 108.766 63.8412 108.766L65.6748 108.808C65.6984 108.808 65.7101 108.836 65.6984 108.878C64.7757 111.864 65.1076 112.059 66.5858 113.937C66.8824 114.316 67.1425 114.611 67.3084 115.032C67.3202 115.059 67.3084 115.087 67.2849 115.087C66.8106 115.171 62.7055 115.928 62.5396 115.956H62.5278L57.5353 115.073C57.5236 115.073 57.5118 115.059 57.5118 115.032C57.5 114.737 57.5118 112.788 57.5942 111.555Z" fill="#221E29" fill-opacity="0.68"/>
<path d="M57.5354 116.84C57.5236 116.671 57.5001 116.012 57.5001 115.088C57.5001 115.06 57.5119 115.046 57.5354 115.046C58.1262 115.046 66.7989 115.004 67.2849 115.004C67.2967 115.004 67.3085 115.018 67.3202 115.032C67.5215 115.465 67.5803 116.026 67.5686 116.811C67.5686 116.84 67.5568 116.854 67.5333 116.854C66.7753 116.854 58.1627 116.882 57.5707 116.882C57.5472 116.882 57.5354 116.868 57.5354 116.84Z" fill="black"/>
<path d="M69.1535 114.988C68.9405 113.98 68.7275 112.774 68.5733 111.527C68.5733 111.499 68.5851 111.485 68.6098 111.485C69.0346 111.485 72.9279 111.485 73.3539 111.485C73.3774 111.485 73.3892 111.457 73.3892 111.443L73.2468 110.35C73.1409 109.537 73.7211 108.738 74.419 108.766C74.419 108.766 76.1102 108.697 76.3586 108.683C76.3833 108.683 76.395 108.697 76.395 108.725C76.5363 110.883 77.3177 111.878 78.4417 113.013C79.6951 113.98 79.7904 114.807 79.7904 114.974C79.7904 114.988 79.7787 115.018 79.7669 115.018C79.495 115.073 77.519 115.788 74.5485 115.816C72.9514 115.83 69.4607 115.087 69.1653 115.018C69.1653 115.018 69.1535 115.004 69.1535 114.988Z" fill="#221E29" fill-opacity="0.68"/>
<path d="M69.6267 116.868C69.5208 116.602 69.2843 115.536 69.1654 115.074C69.1536 115.046 69.1772 115.018 69.2007 115.018C69.9469 115.018 79.2703 115.018 79.7788 115.018C79.7905 115.018 79.8023 115.032 79.8141 115.046C79.9918 115.536 80.0624 116.125 80.1095 116.825C80.1095 116.854 80.0977 116.868 80.0742 116.868C79.2574 116.868 70.1717 116.882 69.6621 116.882C69.6503 116.882 69.6385 116.868 69.6267 116.868Z" fill="black"/>
<path d="M71.3184 80.6377L74.6432 77.9332C74.655 77.9192 74.6785 77.9192 74.6903 77.9471L74.9857 78.4797C74.9857 78.4936 74.9975 78.5076 74.9857 78.5076L74.0865 81.8994C74.0865 81.9133 74.0748 81.9133 74.0748 81.9133L71.2949 84.3656C71.2714 84.3795 71.2349 84.3656 71.2349 84.3377L71.2949 80.6517C71.3067 80.6656 71.3067 80.6517 71.3184 80.6377Z" fill="white"/>
<path d="M68.6329 75.5073L71.7917 66.8751C71.8035 66.8611 71.8152 66.8472 71.827 66.8472C72.3119 66.9448 73.4359 67.2668 74.5127 68.0796C74.5245 68.0935 74.5363 68.1074 74.5245 68.1214C74.3232 68.6679 71.5434 76.3062 71.3304 76.8819C71.3186 76.8959 71.3068 76.9098 71.2833 76.8959L68.6447 75.5366C68.6329 75.5645 68.6329 75.5366 68.6329 75.5073Z" fill="white"/>
<path d="M61.1785 68.9772C61.9953 68.0515 62.9886 67.2527 63.723 66.9724C63.7348 66.9724 63.7583 66.9724 63.7583 67.0003C63.9596 67.5886 66.4205 74.8491 66.6217 75.4374C66.6335 75.4514 66.6217 75.4792 66.597 75.4932C66.2898 75.6479 63.7936 76.8817 63.9113 76.8246C63.8642 76.6712 61.3327 69.5097 61.1668 69.0329C61.1668 69.005 61.1785 68.9911 61.1785 68.9772Z" fill="white"/>
<path d="M73.0467 61.2539C73.2833 61.5341 73.5434 61.5774 73.8035 61.5063" stroke="#030202" stroke-width="2.08297" stroke-linecap="round" stroke-linejoin="round"/>
<path d="M73.3421 59.446C73.5057 59.446 73.6375 59.2899 73.6375 59.0961C73.6375 58.9023 73.5057 58.7462 73.3421 58.7462C73.1785 58.7462 73.0467 58.9023 73.0467 59.0961C73.0467 59.2899 73.1785 59.446 73.3421 59.446Z" fill="#010005"/>
<path d="M64.5619 59.6703C64.5619 57.7646 64.5736 54.5414 66.8098 53.0135C67.5088 52.5367 68.4198 52.2705 69.3896 52.2705C73.5429 52.2705 73.9336 55.8449 73.9689 56.1949C73.9689 56.2088 73.9571 56.2227 73.9454 56.2367L70.1228 58.339C70.111 58.339 70.0992 58.339 70.0875 58.339C69.6497 57.8915 68.5845 57.2878 67.8278 57.7088C66.8698 58.2414 66.8816 59.3483 66.9757 59.9924C66.9757 60.0077 66.9757 60.0217 66.9522 60.0356L64.6101 61.3391C64.5854 61.353 64.5619 61.3391 64.5619 61.2959V59.6703Z" fill="#475139"/>
<path d="M78.8439 73.6156L78.0036 72.4111" stroke="black" stroke-width="2.08297" stroke-linecap="round" stroke-linejoin="round"/>
<path d="M62.6343 86.7339C61.3444 86.7618 60.3735 85.7385 60.6465 84.2259L62.0188 75.648C62.22 74.3166 63.2487 73.6015 64.3726 73.6015L67.9704 73.2794H70.3843C71.52 73.2794 72.3956 74.3027 72.4191 75.648L72.5251 84.2259C72.5368 84.9536 72.2767 85.6967 71.8271 86.2432C71.3658 86.8036 70.7385 87.1131 70.1112 87.1131H67.6032L63.4264 86.7897L62.6343 86.7339Z" fill="black"/>
<path d="M60.1257 87.127C58.837 87.1549 57.866 85.7385 58.1379 84.2259L59.5114 75.648C59.6997 74.3166 60.7295 73.2794 61.8652 73.2794H67.8757C69.0114 73.2794 69.887 74.3027 69.9105 75.648L70.0176 84.2259C70.0294 84.9536 69.7693 85.6967 69.3197 86.2432C68.8584 86.8036 68.2311 87.1131 67.6038 87.1131L60.1257 87.127Z" fill="#221E29" fill-opacity="0.68"/>
<path d="M76.9388 111.107L75.8031 111.92" stroke="black" stroke-width="2.08297" stroke-linecap="round" stroke-linejoin="round"/>
<path d="M77.5781 112.059L76.7378 113.195" stroke="black" stroke-width="2.08297" stroke-linecap="round" stroke-linejoin="round"/>
<path d="M65.1663 111.807L64.0071 112.311" stroke="black" stroke-width="2.08297" stroke-linecap="round" stroke-linejoin="round"/>
<path d="M65.6152 112.802L64.7631 113.559" stroke="black" stroke-width="2.08297" stroke-linecap="round" stroke-linejoin="round"/>
<path d="M74.9976 78.4796L74.3468 77.2877" stroke="black" stroke-width="2.08297" stroke-linecap="round" stroke-linejoin="round"/>
<path d="M58.9427 79.3066H69.9221" stroke="black" stroke-width="2.08297" stroke-linecap="round" stroke-linejoin="round"/>
<path d="M64.4444 54.5136C63.0721 54.5136 61.9481 53.1822 61.9481 51.5553C61.9481 49.9298 63.0721 48.5984 64.4444 48.5984C65.8166 48.5984 66.9406 49.9298 66.9406 51.5553C66.9406 53.1822 65.8166 54.5136 64.4444 54.5136Z" fill="#475139"/>
<path d="M85.8592 64.1414C85.8592 64.1414 84.4869 66.496 83.7419 67.9543" stroke="#030202" stroke-width="2.08297" stroke-linecap="round" stroke-linejoin="round"/>
<path d="M86.7582 64.7448L84.7821 68.7668" stroke="#030202" stroke-width="2.08297" stroke-linecap="round" stroke-linejoin="round"/>
<path d="M87.1022 66.0902L85.6817 69.4667" stroke="#030202" stroke-width="2.08297" stroke-linecap="round" stroke-linejoin="round"/>
<path d="M68.669 59.7974L69.2845 60.5962" stroke="#030202" stroke-width="2.08297" stroke-linecap="round" stroke-linejoin="round"/>
<path d="M71.1409 65.0671C70.4665 64.982 69.2472 64.1553 69.2472 64.1553" stroke="#030202" stroke-width="2.08297" stroke-linecap="round" stroke-linejoin="round"/>
<path d="M38.9381 36.0641C38.6086 34.0705 38.1378 30.9616 37.9966 29.93L38.0084 30.5713C37.7259 28.8426 37.2081 25.6069 38.7851 23.934C39.7855 22.8745 41.1978 21.564 42.7042 21.564C43.5045 21.564 44.3166 22.4423 45.0227 22.7769C46.0478 23.223 46.6598 23.7946 47.1306 24.645C47.5543 25.3978 47.8603 26.3597 48.2016 27.6158C48.2016 27.6297 48.2133 27.6437 48.2251 27.6437C48.3899 27.6716 49.1078 27.797 49.1784 28.1874C49.2726 28.6196 48.8371 29.3027 48.7429 29.456C48.7312 29.47 48.7312 29.4839 48.7429 29.4978C49.3667 31.812 49.3432 33.0807 48.6841 34.182C48.1663 35.1439 46.4009 35.5204 45.3652 35.0742C45.3417 35.0603 45.3181 35.0882 45.3181 35.1161C45.3417 35.2973 45.4123 35.8271 45.4358 35.9804C45.4358 36.0083 45.4241 36.0641 45.4005 36.0641H38.9381Z" fill="#E59763"/>
<path d="M36.855 96.8817C36.8432 96.8678 36.8432 96.8538 36.8432 96.8399C37.314 92.4624 38.1614 90.1621 38.3732 85.5741C38.4321 84.2637 38.4203 82.9672 38.3497 81.587C38.3497 81.5731 38.3615 81.5452 38.3732 81.5452C38.7145 81.4615 42.1276 80.3881 44.8698 80.3881C45.8242 80.3881 48.0957 81.5034 48.3546 81.6009C48.3664 81.6009 48.3781 81.6288 48.3781 81.6428C48.0251 86.7187 47.1306 93.0758 46.5775 96.8538C46.5657 96.9096 43.1515 98.5839 40.2681 98.5699C38.844 98.5421 37.0551 97.035 36.855 96.8817Z" fill="#E59763"/>
<path opacity="0.2" d="M38.4082 83.9419C38.4082 82.9939 38.3847 82.2829 38.3494 81.5859C38.3494 81.558 38.3611 81.544 38.3847 81.544H43.7985L43.8102 81.5998C43.7985 81.5719 39.032 83.691 38.4553 83.9698C38.4317 83.9837 38.4082 83.9698 38.4082 83.9419Z" fill="#030202"/>
<path d="M21.5056 91.3612C23.4592 87.7784 25.367 85.6579 26.9911 81.6011C26.9911 81.5872 27.0029 81.5732 27.0147 81.5732C27.509 81.5453 31.1927 80.681 31.9106 80.681C34.6646 80.6671 37.5727 81.5593 37.5845 81.5453L37.5727 81.5872C35.8191 86.2574 32.4638 92.2674 30.3806 96.0315C30.3806 96.0454 30.3689 96.0454 30.3571 96.0454C30.1453 96.1012 27.5208 96.3521 25.001 95.0138C23.7652 94.3585 21.7292 91.6679 21.5173 91.403C21.4938 91.3891 21.4938 91.3752 21.5056 91.3612Z" fill="#E59763"/>
<path opacity="0.2" d="M29.4151 81.6009C30.7685 81.5869 36.925 81.5312 37.5134 81.573C37.5369 81.573 37.5487 81.6009 37.5369 81.6288C37.2074 82.4373 36.9014 83.2459 36.5366 84.0545C36.5248 84.0684 36.513 84.0824 36.5013 84.0684C36.0893 83.929 30.5802 82.0749 29.4033 81.6706C29.368 81.6706 29.3798 81.6009 29.4151 81.6009Z" fill="#030202"/>
<path d="M63.2677 72.984C62.4321 72.984 61.5023 71.576 61.0668 70.8371C61.0433 70.7953 60.9845 70.8232 60.9962 70.8789C61.1139 71.5063 61.4434 72.761 60.9256 72.8586C60.3372 72.9701 59.5604 71.3808 58.56 69.6243C57.8421 68.3417 56.9947 66.9058 56.1238 65.7208C56.112 65.7068 56.112 65.679 56.1356 65.665C56.524 65.3444 60.3607 61.6904 60.8432 61.3977C60.855 61.3837 60.8785 61.3977 60.8785 61.4116C62.2437 63.295 63.2324 64.8564 63.7973 65.902V65.9159C63.8561 66.1529 66.4112 70.6001 65.1036 71.9524C65.0919 71.9524 65.0919 71.9663 65.0919 71.9803C65.0566 72.3985 64.8683 72.9143 64.3151 72.9143C64.1621 72.9143 63.9856 72.8725 63.809 72.8028C63.7973 72.8028 63.7973 72.8028 63.7855 72.8028C63.6325 72.8865 63.456 72.998 63.2677 72.984Z" fill="#E59763"/>
<path d="M55.2871 67.4495C51.0844 63.0859 48.3657 56.8808 47.8596 55.6819C47.8478 55.64 47.8008 55.654 47.8008 55.6958L47.6007 57.773C47.6007 57.787 47.5889 57.8148 47.5654 57.8148L37.3016 57.8427C37.2898 57.8427 37.2898 57.8427 37.278 57.8567C37.1015 58.0658 34.7465 61.1328 34.7347 61.0631C33.8285 60.6728 33.1223 60.1709 32.5574 59.5854C29.3327 56.2116 31.2981 49.9647 32.8752 44.9041C33.7461 42.2971 34.6759 40.1781 35.3008 39.3695C36.6543 37.5976 38.7256 37.1236 39.1022 37.0539C39.1258 37.0539 39.1375 37.026 39.1258 37.0121C39.0787 36.7054 39.0081 36.3987 38.961 36.078C38.961 36.0501 38.9728 36.0362 38.9845 36.0362C39.4671 35.9665 44.975 36.0362 45.4234 36.0362C45.4352 36.0362 45.4587 36.0501 45.4587 36.0641C45.4823 36.2592 45.647 37.3048 45.6706 37.4861C45.6706 37.5 45.6823 37.5139 45.6941 37.5139C46.1413 37.5836 50.0604 38.448 51.9435 44.5974L54.8858 53.6465C54.8858 53.6465 54.8858 53.6604 54.8975 53.6604C55.0388 53.8277 58.2411 57.7591 60.8421 61.3559C60.8539 61.3698 60.8539 61.3977 60.8421 61.4116C60.4773 61.8299 55.7108 67.1428 55.3224 67.4634C55.3106 67.4634 55.2989 67.4634 55.2871 67.4495Z" fill="#AFC2CB"/>
<path opacity="0.2" d="M34.6886 61.0353C33.7588 60.631 33.1233 60.157 32.5819 59.6133C32.5584 59.5993 32.5701 59.5575 32.5937 59.5436C34.8651 58.1495 35.124 55.1103 35.3253 52.9216C35.4547 51.5135 35.5489 50.3829 36.1373 50.2296C36.1609 50.2296 36.1727 50.2435 36.1727 50.2575L37.0671 57.7452C37.0671 57.7591 37.0671 57.7731 37.0553 57.7731C36.8906 57.9961 34.7239 61.1189 34.6886 61.0353Z" fill="#959595"/>
<path opacity="0.2" d="M44.1283 34.5304C44.6579 34.865 45.1757 35.0044 45.2946 35.0323C45.3064 35.0323 45.3181 35.0462 45.3181 35.0601L45.4476 36.0081L45.53 36.6076C45.53 36.6494 45.4947 36.6773 45.4711 36.6355L44.0812 34.5861C44.0694 34.5583 44.1047 34.5025 44.1283 34.5304Z" fill="#030202"/>
<path d="M31.5221 49.503C27.2617 49.4193 26.0966 43.5362 29.6273 41.2638C29.6391 41.2499 29.6508 41.222 29.6391 41.2081C28.2974 38.8799 28.0973 36.1043 29.133 33.7622C30.1451 31.4619 32.1812 30.0817 34.5703 30.0817C35.2776 30.0817 36.0191 30.2072 36.7606 30.4163C36.7841 30.4163 36.8076 30.4024 36.7959 30.3745C36.7606 28.5064 36.5605 24.8525 38.6907 22.9286C40.3854 21.409 42.9511 21.0047 44.9519 21.9388C45.8828 22.371 46.636 23.3887 47.1185 24.6155C47.1303 24.6294 47.1185 24.6434 47.1068 24.6573C47.0009 24.7828 46.4242 25.4101 45.3767 25.4101C45.1402 25.4101 44.893 25.3822 44.6459 25.2986C44.6223 25.2846 44.5988 25.3265 44.6105 25.3543C45.1284 26.5812 44.9048 28.4925 44.1162 29.3289C44.1045 29.3429 44.0927 29.3429 44.0809 29.3289C43.9162 29.2174 42.857 28.3809 41.8919 28.367C41.3034 28.367 40.8915 28.6876 40.6561 29.3289C39.9618 31.2946 42.5627 32.9397 42.7746 33.0791C42.7863 33.0791 42.7863 33.093 42.7863 33.1069C43.3983 39.0612 40.6679 44.4285 34.0878 41.7657C34.076 41.7657 34.0525 41.7657 34.0525 41.7797C33.8759 42.1561 32.652 45.1394 31.5574 49.4612C31.5457 49.489 31.5339 49.503 31.5221 49.503Z" fill="#010005"/>
<path d="M47.1067 30.5712C47.2833 30.9894 47.8129 31.0591 48.0836 30.9476" stroke="#030202" stroke-width="2.08297" stroke-linecap="round" stroke-linejoin="round"/>
<path d="M46.977 28.3966C47.1395 28.3966 47.2713 28.2405 47.2713 28.0481C47.2713 27.8557 47.1395 27.6996 46.977 27.6996C46.8146 27.6996 46.6828 27.8557 46.6828 28.0481C46.6828 28.2405 46.8146 28.3966 46.977 28.3966Z" fill="#171314"/>
<path d="M43.987 34.4314C43.987 34.4314 44.8697 34.8218 45.3181 35.0309" stroke="#030202" stroke-width="2.08297" stroke-linecap="round" stroke-linejoin="round"/>
<path d="M42.3159 30.3189L43.1985 30.9463" stroke="#030202" stroke-width="2.08297" stroke-linecap="round" stroke-linejoin="round"/>
<path d="M42.563 34.9486C43.2256 34.9486 43.7635 34.3115 43.7635 33.5266C43.7635 32.7417 43.2256 32.1046 42.563 32.1046C41.9004 32.1046 41.3626 32.7417 41.3626 33.5266C41.3626 34.3115 41.9004 34.9486 42.563 34.9486Z" fill="#A3A3A3"/>
<path d="M27.0387 81.573C27.0151 81.573 27.0033 81.5451 27.0151 81.5172C29.0159 76.3451 29.4042 71.1437 31.5462 65.874C33.0174 62.1643 35.337 59.2088 37.0671 57.7868C37.0671 57.7868 37.0789 57.7729 37.0906 57.7729C37.4437 57.7729 47.0367 57.731 47.5663 57.8007C47.5781 57.8007 47.5899 57.8147 47.5899 57.8286C47.6958 58.3584 49.3081 68.3415 48.3902 81.559C48.3902 81.5869 48.3784 81.6008 48.3548 81.6008C47.4722 81.573 28.2273 81.573 27.0387 81.573Z" fill="#AFC2CB"/>
<path opacity="0.2" d="M47.5538 57.8009C47.2831 57.8009 44.9752 57.8149 44.4809 57.8149C44.4456 57.8149 44.4338 57.8567 44.4574 57.8846C45.7178 59.0975 46.5064 61.091 47.2596 62.7653C47.6598 63.6297 48.107 64.1734 48.26 64.3546C48.2835 64.3825 48.3188 64.3546 48.3188 64.3267C48.2717 63.6436 47.9187 59.7109 47.5774 57.8288C47.5891 57.8149 47.5774 57.8009 47.5538 57.8009Z" fill="#959595"/>
<path d="M36.4669 27.6995C34.5591 27.7135 34.053 25.9834 34.971 23.9759C36.0432 21.4247 39.5268 18.6504 41.81 18.7062C43.7166 18.6922 44.2227 20.4209 43.3047 22.4284C42.2337 24.9796 38.7736 27.7692 36.4669 27.6995Z" fill="#475139"/>
<path d="M36.3135 53.507L35.2072 54.1065" stroke="#959595" stroke-width="2.08297" stroke-linecap="round" stroke-linejoin="round"/>
<path d="M37.0781 57.7729L36.7251 54.7616H47.4832L47.801 55.5562L47.5891 57.8007L37.0781 57.7729Z" fill="white"/>
<path opacity="0.2" d="M44.3992 57.8148C44.9995 55.9467 44.9406 53.995 44.8935 52.4475C44.8465 50.8583 44.7994 49.6022 45.4478 48.9888C45.4596 48.9748 45.4949 48.9748 45.4949 49.0027C46.3188 51.4159 47.4368 54.5247 47.7899 55.5424V55.5564C47.7781 55.6958 47.6016 57.4942 47.5781 57.7591C47.5781 57.773 47.5663 57.7869 47.5428 57.7869L44.3992 57.8148Z" fill="#959595"/>
<path d="M36.1722 50.2157L37.0666 57.7731C37.0666 57.7731 35.3365 59.2927 34.335 60.8122" stroke="#959595" stroke-width="2.08297" stroke-linecap="round" stroke-linejoin="round"/>
<path d="M47.8009 55.5565L45.4824 48.961" stroke="#959595" stroke-width="2.08297" stroke-linecap="round" stroke-linejoin="round"/>
<path d="M44.3169 116.959C44.0933 116.527 43.5637 115.677 43.1989 115.189C43.1871 115.175 43.1871 115.147 43.1989 115.133C43.9521 114.311 49.9437 114.966 49.9437 115.063C50.285 115.496 50.6381 116.402 50.6852 116.917C50.6852 116.945 50.6734 116.959 50.6499 116.959C50.132 116.959 44.3169 116.959 44.3169 116.959Z" fill="black"/>
<path d="M43.1633 115.147C42.7043 114.478 41.9276 113.544 41.2332 113.154C41.1037 113.112 37.4318 111.857 37.1375 111.76C37.1258 111.76 37.114 111.746 37.114 111.732C36.6315 108.594 36.4196 105.541 36.4902 102.404C36.5608 100.466 36.6668 98.5005 36.8433 96.9098C36.8433 96.8959 36.8551 96.8819 36.8786 96.8819C37.4553 96.8819 45.8478 96.854 46.554 96.854C46.5775 96.854 46.5893 96.8819 46.5893 96.8959C46.5658 97.0213 46.5187 97.3559 46.4834 97.6069C46.2127 99.4206 45.9891 100.996 45.789 102.515C45.4006 106.377 44.7051 109.835 46.6952 111.913C47.1778 112.387 47.6132 112.777 48.084 113.21C48.9431 113.976 49.3197 114.186 49.9082 115.022C49.9317 115.05 49.9082 115.092 49.8846 115.092C49.1785 115.106 43.5399 115.175 43.1986 115.189C43.1751 115.161 43.1751 115.161 43.1633 115.147Z" fill="#475139"/>
<path d="M38.2083 116.932C37.8788 115.942 37.2903 113.182 37.1138 111.788C37.1138 111.76 37.1256 111.746 37.1491 111.746C37.4786 111.802 39.6324 112.206 41.2094 113.14C41.2212 113.14 41.233 113.154 41.233 113.182C41.233 113.488 41.2212 116.541 41.2212 116.918C41.2212 116.946 41.2094 116.96 41.1859 116.96C40.8799 116.96 38.4908 116.96 38.2436 116.96C38.2319 116.96 38.2201 116.946 38.2083 116.932Z" fill="black"/>
<path d="M55.4756 64.4658C54.9448 64.4658 54.5211 63.964 54.5211 63.3366C54.5211 62.7093 54.9448 62.206 55.4756 62.206C56.0052 62.206 56.4288 62.7093 56.4288 63.3366C56.4288 63.964 56.0052 64.4658 55.4756 64.4658Z" fill="white"/>
<path d="M45.6709 37.4986C45.6709 37.4986 46.0946 37.5405 46.6125 37.7774" stroke="#959595" stroke-width="2.08297" stroke-linecap="round" stroke-linejoin="round"/>
<path d="M40.8799 104.885C40.1973 104.899 39.5971 104.16 39.6442 103.352C39.6442 103.352 39.8913 97.4254 39.9149 96.8956C39.9149 96.8678 39.9266 96.8538 39.9502 96.8538L43.2573 96.8399C43.2808 96.8399 43.2926 96.8678 43.2926 96.8817L42.1039 103.7C41.9745 104.411 41.4684 104.885 40.8799 104.885Z" fill="black"/>
<path d="M20.9998 113.85C20.9292 113.376 20.7174 112.373 20.5408 111.731C20.5291 111.704 20.5526 111.676 20.5761 111.676C21.0116 111.801 23.6008 112.415 23.7303 112.456H23.742C23.8833 112.554 26.7326 114.729 26.9209 114.868C26.9326 114.868 26.9326 114.882 26.9326 114.882C27.1092 115.482 27.1327 116.43 27.0033 116.917C26.9915 116.945 26.9797 116.945 26.9562 116.945C26.4854 116.694 21.3411 114.032 21.0116 113.864L20.9998 113.85Z" fill="black"/>
<path d="M20.5169 111.648C20.2226 110.575 19.846 109.681 19.4812 109.179C19.3988 109.081 16.5507 105.987 16.3271 105.75C16.3153 105.736 16.3153 105.722 16.3153 105.708C17.2686 100.787 19.1987 95.613 21.4702 91.4028C21.4819 91.3889 21.4937 91.375 21.5055 91.3889C21.9998 91.612 29.7215 95.7246 30.3217 96.0313C30.3453 96.0452 30.3452 96.0731 30.3335 96.087C29.3449 97.9133 28.1797 99.964 27.3206 101.567C25.8495 104.551 23.8946 107.562 25.048 110.421C25.3316 111.09 25.6141 111.676 25.8848 112.275C26.3202 113.209 26.7086 114.004 26.9087 114.799C26.9204 114.827 26.8851 114.854 26.8616 114.84C26.2143 114.52 20.8346 111.815 20.5286 111.662C20.5169 111.662 20.5169 111.662 20.5169 111.648Z" fill="#475139"/>
<path d="M15.5505 111.007C15.5858 110.085 16.0213 107.032 16.3037 105.778C16.3155 105.75 16.3391 105.736 16.3508 105.764C18.4104 107.464 19.3637 108.984 19.4696 109.165C19.4814 109.179 19.4814 109.193 19.4696 109.207C19.3755 109.458 18.4104 112.094 18.2927 112.429C18.281 112.443 18.2692 112.457 18.2456 112.443L15.5623 111.049C15.5623 111.035 15.5505 111.021 15.5505 111.007Z" fill="black"/>
<path d="M22.6471 100.618C21.7645 100.646 21.1054 99.4468 21.5409 98.5128C21.5409 98.5128 23.7652 93.172 23.9653 92.698C23.9771 92.684 23.9888 92.6701 24.0124 92.684L27.0264 94.2873C27.05 94.3012 27.05 94.3291 27.0382 94.343L23.6593 100.004C23.4239 100.381 23.0473 100.618 22.6471 100.618Z" fill="black"/>
<path d="M38.0905 21.564L38.5848 22.3168" stroke="black" stroke-width="2.08297" stroke-linecap="round" stroke-linejoin="round"/>
<path d="M65.0913 71.9508C65.0913 71.9508 63.7614 68.6328 62.7022 66.709" stroke="#030202" stroke-width="2.08297" stroke-linecap="round" stroke-linejoin="round"/>
<path d="M63.7962 72.7889C63.7962 72.7889 61.9837 68.8715 61.407 67.7841" stroke="#030202" stroke-width="2.08297" stroke-linecap="round" stroke-linejoin="round"/>
<path d="M61.0079 70.8217C61.0079 70.8217 60.796 69.9574 60.2193 68.87" stroke="#030202" stroke-width="2.08297" stroke-linecap="round" stroke-linejoin="round"/>
</g>
<g opacity="0.15">
<path d="M287.306 102.742V102.717C287.306 100.525 288.809 98.7323 290.659 98.7323C292.509 98.7323 294.022 100.525 294.022 102.717V102.742H287.306Z" fill="#EFDCD7"/>
<path d="M155.07 94.1174V94.0909C155.07 91.9134 156.571 90.1206 158.421 90.108C160.272 90.108 161.784 91.8994 161.784 94.0909V94.1174H155.07Z" fill="#EFDCD7"/>
<path d="M239.095 107.241V107.215C239.095 105.346 240.379 103.825 241.957 103.825C243.535 103.825 244.819 105.346 244.819 107.215V107.241H239.095Z" fill="#EFDCD7"/>
<path d="M287.093 20.3733V20.3594C286.977 19.9899 286.918 19.5926 286.918 19.1688C286.918 17.2115 288.271 15.6111 289.923 15.6111C290.293 15.6111 290.64 15.6919 290.974 15.8299C291.852 13.216 294.025 11.4776 296.382 11.4776C298.507 11.4776 300.46 12.8466 301.489 15.0632C301.892 14.8987 302.297 14.8164 302.678 14.8164C304.7 14.8164 306.353 16.7737 306.353 19.1688C306.353 19.5801 306.306 19.9899 306.214 20.3594V20.3733H287.093Z" fill="white"/>
<path d="M151.706 12.3127L151.694 12.2987C151.682 12.2708 151.682 12.2304 151.682 12.1886C151.682 9.34182 153.635 7.02901 156.038 7.02901C156.453 7.02901 156.858 7.09732 157.228 7.23533C158.257 5.46901 159.931 4.41506 161.734 4.41506C164.738 4.41506 167.187 7.31758 167.187 10.8753C167.187 11.341 167.141 11.8191 167.06 12.2848V12.3127H151.706Z" fill="white"/>
<path d="M259.758 81.9872V55.7391H295.083L296.165 74.1691H285.665L273.82 81.9872H259.758Z" fill="#221E29" fill-opacity="0.68"/>
<path d="M218.818 55.7711H186.65V74.2011H218.818V55.7711Z" fill="#221E29" fill-opacity="0.68"/>
<path d="M297.662 61.2331C299.937 61.2331 301.781 59.0486 301.781 56.3538C301.781 53.659 299.937 51.4744 297.662 51.4744C295.387 51.4744 293.543 53.659 293.543 56.3538C293.543 59.0486 295.387 61.2331 297.662 61.2331Z" fill="white"/>
<path d="M164.032 60.0679C166.307 60.0679 168.152 57.8833 168.152 55.1885C168.152 52.4937 166.307 50.3092 164.032 50.3092C161.757 50.3092 159.913 52.4937 159.913 55.1885C159.913 57.8833 161.757 60.0679 164.032 60.0679Z" fill="white"/>
<path d="M298.274 53.1181C298.285 49.0013 295.805 45.5077 292.373 44.8078L270.489 40.3439L267.352 16.7613L168.185 16.7487L163.967 40.5767V74.215H189.338V74.1885C189.994 70.681 191.655 67.5108 194.014 65.2328C196.407 62.9283 199.434 61.6597 202.538 61.6597C205.629 61.6597 208.656 62.9283 211.06 65.2328C213.419 67.5108 215.081 70.681 215.737 74.1885V74.215H231.066L237.972 82.0317H266.806V77.6835C266.806 68.8435 272.871 61.6597 280.334 61.6597C283.425 61.6597 286.452 62.9283 288.856 65.2328C289.664 66.0093 290.386 66.9015 291.019 67.8732H298.274V53.1181Z" fill="white"/>
<path d="M298.274 61.1815V53.1181C298.274 52.5618 298.23 52.0042 298.142 51.4744" stroke="#838383" stroke-width="2.08297" stroke-linecap="round" stroke-linejoin="round"/>
<path d="M293.532 74.2154V74.1889C292.755 70.4876 290.975 67.0706 288.33 64.7536L288.276 64.702H299.651C300.83 64.702 301.781 65.841 301.781 67.2393V71.6781C301.781 73.0764 300.83 74.2014 299.651 74.2014H293.532V74.2154Z" fill="#221E29" fill-opacity="0.68"/>
<path d="M162.043 74.2013C160.864 74.2013 159.913 73.0763 159.913 71.678V67.2392C159.913 65.8409 160.864 64.7145 162.043 64.7145H170.085C170.664 64.7145 171.2 64.9863 171.605 65.4659C171.998 65.9441 172.217 66.5659 172.217 67.2253V74.2013H162.043Z" fill="#221E29" fill-opacity="0.68"/>
<path d="M193.14 6.523C192.234 6.523 191.502 5.65587 191.502 4.58241V1.94198C191.502 0.86713 192.234 0 193.14 0H205.53C206.438 0 207.17 0.86713 207.17 1.94198V4.58241C207.17 5.65587 206.438 6.523 205.53 6.523H193.14Z" fill="#221E29" fill-opacity="0.68"/>
<path d="M238.802 6.523C237.896 6.523 237.164 5.65587 237.164 4.58241V1.94198C237.164 0.86713 237.896 0 238.802 0H251.193C252.1 0 252.832 0.86713 252.832 1.94198V4.58241C252.832 5.65587 252.1 6.523 251.193 6.523H238.802Z" fill="#221E29" fill-opacity="0.68"/>
<path d="M273.886 38.6739C272.979 38.6739 272.247 37.8068 272.247 36.7319V26.7139C272.247 25.6404 272.979 24.7733 273.886 24.7733H276.115C277.022 24.7733 277.754 25.6404 277.754 26.7139V36.7319C277.754 37.8068 277.022 38.6739 276.115 38.6739H273.886Z" fill="#221E29" fill-opacity="0.68"/>
<path d="M280.345 89.8752C286.029 89.8752 290.637 84.4173 290.637 77.6838C290.637 70.9503 286.029 65.491 280.345 65.491C274.66 65.491 270.051 70.9503 270.051 77.6838C270.051 84.4173 274.66 89.8752 280.345 89.8752Z" fill="#CECDCE"/>
<path d="M280.345 81.2038C281.985 81.2038 283.316 79.6271 283.316 77.6837C283.316 75.7389 281.985 74.1636 280.345 74.1636C278.703 74.1636 277.373 75.7389 277.373 77.6837C277.373 79.6271 278.703 81.2038 280.345 81.2038Z" fill="#221E29" fill-opacity="0.68"/>
<path d="M202.548 89.8752C208.232 89.8752 212.84 84.4173 212.84 77.6838C212.84 70.9503 208.232 65.491 202.548 65.491C196.863 65.491 192.255 70.9503 192.255 77.6838C192.255 84.4173 196.863 89.8752 202.548 89.8752Z" fill="#CECDCE"/>
<path d="M202.548 81.2038C204.189 81.2038 205.52 79.6271 205.52 77.6837C205.52 75.7389 204.189 74.1636 202.548 74.1636C200.906 74.1636 199.576 75.7389 199.576 77.6837C199.576 79.6271 200.906 81.2038 202.548 81.2038Z" fill="#221E29" fill-opacity="0.68"/>
<path d="M240.67 77.2946V25.0702C240.67 22.689 242.298 20.7484 244.308 20.7484H259.671C261.682 20.7484 263.32 22.689 263.32 25.0702V77.2946H240.67Z" fill="#CECDCE"/>
<path opacity="0.2" d="M263.276 27.1418C263.276 24.7858 261.659 22.8703 259.671 22.8703H244.308C242.331 22.8703 240.714 24.7858 240.714 27.1418H240.67V25.0702C240.67 22.689 242.298 20.7484 244.308 20.7484H259.671C261.682 20.7484 263.32 22.689 263.32 25.0702V27.1418H263.276Z" fill="#868686"/>
<path d="M221.494 36.4084C219.483 36.4084 217.844 34.4678 217.844 32.0853V25.0702C217.844 22.689 219.483 20.7484 221.494 20.7484H233.557C235.567 20.7484 237.207 22.689 237.207 25.0702V32.0853C237.207 34.4678 235.567 36.4084 233.557 36.4084H221.494Z" fill="#CECDCE"/>
<path opacity="0.2" d="M237.163 27.1418C237.163 24.7858 235.546 22.8703 233.557 22.8703H221.494C219.506 22.8703 217.889 24.7858 217.889 27.1418H217.844V25.0702C217.844 22.689 219.483 20.7484 221.494 20.7484H233.557C235.567 20.7484 237.207 22.689 237.207 25.0702V27.1418H237.163Z" fill="#868686"/>
<path d="M198.659 36.4084C196.649 36.4084 195.009 34.4678 195.009 32.0853V25.0702C195.02 22.689 196.659 20.7484 198.659 20.7484H210.721C212.732 20.7484 214.37 22.689 214.37 25.0702V32.0853C214.37 34.4678 212.732 36.4084 210.721 36.4084H198.659Z" fill="#CECDCE"/>
<path d="M175.833 36.4084C173.822 36.4084 172.184 34.4678 172.184 32.0853V25.0702C172.184 22.689 173.822 20.7484 175.833 20.7484H187.896C189.906 20.7484 191.545 22.689 191.545 25.0702V32.0853C191.545 34.4678 189.906 36.4084 187.896 36.4084H175.833Z" fill="#CECDCE"/>
<path d="M263.32 46.7888H240.67V51.2416H263.32V46.7888Z" fill="#221E29" fill-opacity="0.68"/>
<path d="M263.32 74.1636H240.67V82.0319H263.32V74.1636Z" fill="#221E29" fill-opacity="0.68"/>
<path d="M240.692 52.8978H163.967V57.3505H240.692V52.8978Z" fill="#221E29" fill-opacity="0.68"/>
<path opacity="0.2" d="M286.866 57.7508C285.828 57.7508 284.986 56.7554 284.986 55.5258C284.986 54.2962 285.828 53.2994 286.866 53.2994H290.745C291.783 53.2994 292.625 54.2962 292.625 55.5258C292.625 56.1072 292.439 56.6648 292.089 57.0914C291.729 57.518 291.258 57.7508 290.745 57.7508H286.866Z" fill="#838383"/>
<path d="M240.692 40.577H163.967V45.0284H240.692V40.577Z" fill="#221E29" fill-opacity="0.68"/>
<path d="M168.195 16.7878L169.069 11.8694C169.911 7.09317 173.505 3.62465 177.635 3.62465H269.494C270.663 3.62465 271.744 4.24641 272.488 5.31987C273.22 6.39473 273.504 7.79162 273.264 9.13832L271.864 16.8129L168.195 16.7878Z" fill="white"/>
<path opacity="0.2" d="M168.195 16.788L169.069 11.8306L169.091 11.8431C169.113 11.8557 170.817 12.504 176.259 13.1508C181.284 13.7461 190.616 14.4585 206.514 14.4585C219.21 14.4585 238.212 13.9915 256.579 11.779C267.56 10.4588 273.176 9.1121 273.231 9.09956L273.264 9.08701L271.854 16.8006L168.195 16.788Z" fill="#838383"/>
<path d="M170.861 62.8895C169.835 63.0456 168.96 62.0098 169.091 60.7928C169.179 59.9647 169.746 59.2913 170.447 59.1882C171.473 59.0334 172.347 60.0678 172.217 61.2849C172.128 62.113 171.561 62.7863 170.861 62.8895Z" fill="white"/>
<path d="M168.217 16.7741L267.341 16.788" stroke="#838383" stroke-width="2.08297" stroke-linecap="round" stroke-linejoin="round"/>
<path d="M266.281 20.0237H272.203C273.744 20.0237 275.001 21.5112 275.001 23.3361V40.1239C275.001 41.9487 273.744 43.4362 272.203 43.4362H266.281" stroke="#221E29" stroke-opacity="0.68" stroke-width="2.08297" stroke-linecap="round" stroke-linejoin="round"/>
<path d="M251.991 20.7736V81.9412" stroke="#868686" stroke-width="2.08297" stroke-linecap="round" stroke-linejoin="round"/>
<path opacity="0.2" d="M214.327 27.1418C214.327 24.7858 212.71 22.8703 210.721 22.8703H198.659C196.67 22.8703 195.053 24.7858 195.053 27.1418H195.009V25.0702C195.009 22.689 196.649 20.7484 198.659 20.7484H210.721C212.732 20.7484 214.37 22.689 214.37 25.0702V27.1418H214.327Z" fill="#868686"/>
<path opacity="0.2" d="M191.502 27.1418C191.502 24.7858 189.885 22.8703 187.896 22.8703H175.833C173.844 22.8703 172.227 24.7858 172.227 27.1418H172.184V25.0702C172.184 22.689 173.822 20.7484 175.833 20.7484H187.896C189.906 20.7484 191.545 22.689 191.545 25.0702V27.1418H191.502Z" fill="#868686"/>
<path d="M286.867 55.9258C285.884 55.9258 285.076 55.021 284.999 53.882C284.912 52.5618 285.818 51.4744 286.933 51.4744H290.746C291.784 51.4744 292.625 52.4712 292.625 53.7008C292.625 54.2821 292.439 54.8398 292.09 55.2664C291.73 55.693 291.259 55.9258 290.746 55.9258H286.867Z" fill="white"/>
<path d="M163.945 50.3092V60.0679" stroke="#838383" stroke-width="2.08297" stroke-linecap="round" stroke-linejoin="round"/>
<path d="M267.02 63.34H264.408V117.002H267.02V63.34Z" fill="#475139"/>
<path opacity="0.2" d="M265.714 67.9542C265.282 67.9542 264.85 67.9263 264.431 67.8705H264.408V63.4777H267.02V67.8705H266.997C266.577 67.9263 266.145 67.9542 265.714 67.9542Z" fill="black"/>
<path d="M274.594 60.9701C279.501 55.158 279.501 45.7367 274.594 39.9261C269.689 34.1155 261.735 34.1155 256.83 39.9261C251.925 45.7367 251.925 55.158 256.83 60.9701C261.735 66.7807 269.689 66.7807 274.594 60.9701Z" fill="white"/>
<path d="M266.998 65.4951C266.578 65.5491 266.146 65.5767 265.715 65.5767C265.283 65.5767 264.851 65.5491 264.432 65.4951" stroke="black" stroke-width="2.08297" stroke-linecap="round" stroke-linejoin="round"/>
<path d="M262.087 58.6138C261.468 58.6138 260.967 58.0199 260.967 57.288V52.8798C260.967 52.1479 261.468 51.554 262.087 51.554C262.705 51.554 263.206 52.1479 263.206 52.8798V57.288C263.206 58.0199 262.705 58.6138 262.087 58.6138Z" fill="#AFC2CB"/>
<path d="M269.47 58.6138C268.852 58.6138 268.35 58.0199 268.35 57.288V52.8798C268.35 52.1479 268.852 51.554 269.47 51.554C270.088 51.554 270.589 52.1479 270.589 52.8798V57.288C270.589 58.0199 270.088 58.6138 269.47 58.6138Z" fill="#AFC2CB"/>
<path d="M260.955 50.0765V46.1381C260.955 44.1348 262.332 42.5051 264.023 42.5051H267.522C269.213 42.5051 270.589 44.1348 270.589 46.1381V50.0765H260.955Z" fill="#475139"/>
<path d="M270.589 50.0069H260.955V55.9764H270.589V50.0069Z" fill="#AFC2CB"/>
<path d="M263.404 54.1111C262.834 54.1111 262.366 53.5577 262.366 52.8815C262.366 52.204 262.834 51.6519 263.404 51.6519C263.976 51.6519 264.442 52.204 264.442 52.8815C264.442 53.5577 263.976 54.1111 263.404 54.1111Z" fill="#0F445D"/>
<path d="M268.047 54.1111C267.475 54.1111 267.009 53.5577 267.009 52.8815C267.009 52.204 267.475 51.6519 268.047 51.6519C268.618 51.6519 269.085 52.204 269.085 52.8815C269.085 53.5577 268.618 54.1111 268.047 54.1111Z" fill="#0F445D"/>
<path d="M260.978 50.0347H270.566" stroke="#0F445D" stroke-width="2.08297" stroke-linecap="round" stroke-linejoin="round"/>
<path d="M260.978 55.9483H263.183" stroke="#0F445D" stroke-width="2.08297" stroke-linecap="round" stroke-linejoin="round"/>
<path d="M268.362 55.9483H270.566" stroke="#0F445D" stroke-width="2.08297" stroke-linecap="round" stroke-linejoin="round"/>
<path d="M272.637 117.014V116.986C272.637 113.041 275.355 109.835 278.686 109.835C282.017 109.835 284.724 113.041 284.724 116.986V117.014H272.637Z" fill="#221E29" fill-opacity="0.68"/>
<path opacity="0.2" d="M272.637 117.014V116.986C272.637 114.03 274.143 111.424 276.462 110.336L276.485 110.322L276.497 110.35C277.062 112.539 278.192 113.18 279.192 113.738C279.522 113.919 279.828 114.1 280.11 114.323C281.64 115.55 281.522 116.972 281.522 116.986V117.014H272.637Z" fill="black"/>
<path d="M271.86 112.051C272.566 111.326 273.367 110.573 274.367 109.639C279.251 105.136 283.935 101.86 285.512 101.86C285.748 101.86 285.901 101.93 285.995 102.069C286.065 102.181 286.089 102.334 286.077 102.515C285.901 104.216 282.064 108.858 276.956 113.57C276.144 114.323 275.309 115.076 274.461 115.787L274.438 115.801L271.86 112.051Z" fill="#AFC2CB"/>
<path opacity="0.2" d="M271.86 112.051C272.566 111.326 273.367 110.574 274.367 109.639C274.473 109.542 274.579 109.444 274.685 109.347C274.92 109.124 275.167 108.901 275.414 108.692L275.426 108.678H275.438C276.062 108.915 276.815 109.026 277.603 109.026C279.169 109.026 280.922 108.552 282.676 107.646L282.711 107.688C281.111 109.542 279.122 111.577 276.956 113.557C276.144 114.31 275.309 115.063 274.461 115.774L274.438 115.787L271.86 112.051Z" fill="#757575"/>
<path d="M268.482 110.225V110.197C268.482 110.155 268.482 110.127 268.493 110.085C268.493 110.057 268.493 110.016 268.493 109.988C268.988 103.868 270.2 99.0719 271.259 99.0719C271.271 99.0719 271.283 99.0719 271.294 99.0719C272.342 99.1835 272.789 104.077 272.33 110.197V110.225H268.482Z" fill="#AFC2CB"/>
<path opacity="0.2" d="M268.482 110.225V110.197C268.482 110.155 268.482 110.127 268.493 110.086C268.493 110.058 268.493 110.016 268.493 109.988C268.693 107.311 269.082 104.649 269.576 102.585H269.623C270.07 104.899 271.436 105.973 272.495 106.475H272.507V106.489C272.483 107.66 272.424 108.901 272.33 110.183V110.211L268.482 110.225Z" fill="#757575"/>
<path d="M259.808 117.014V116.986C259.808 111.312 263.716 106.698 268.506 106.698C273.296 106.698 277.191 111.312 277.191 116.986V117.014H259.808Z" fill="#221E29" fill-opacity="0.68"/>
<path opacity="0.2" d="M259.808 117.014V116.986C259.808 114.589 260.514 112.26 261.809 110.434L261.844 110.378V110.462C261.88 112.916 262.904 114.031 265.505 114.435C268.106 114.839 268.282 116.958 268.282 116.986V117.014H259.808Z" fill="black"/>
<path d="M277.167 116.958C277.167 115.857 277.015 114.797 276.744 113.808" stroke="black" stroke-width="2.08297" stroke-linecap="round" stroke-linejoin="round"/>
<path d="M275.684 101.303C274.508 104.203 272.848 110.323 272.495 112.971" stroke="#636363" stroke-width="2.08297" stroke-linecap="round" stroke-linejoin="round"/>
<path d="M277.921 102.348C277.121 102.348 276.297 102.111 275.52 101.651C274.485 101.051 273.661 100.117 273.202 99.0579C272.743 97.9844 272.696 96.897 273.072 95.9908C273.543 94.8616 274.626 94.1924 275.968 94.1924C276.768 94.1924 277.592 94.4294 278.369 94.8895C279.404 95.489 280.228 96.423 280.687 97.4825C281.146 98.556 281.193 99.6434 280.816 100.55C280.334 101.679 279.263 102.348 277.921 102.348Z" fill="white"/>
<path d="M277.051 98.7654C276.956 98.7654 276.862 98.7375 276.768 98.6817C276.65 98.612 276.545 98.5005 276.497 98.375C276.439 98.2496 276.439 98.1102 276.486 97.9986C276.545 97.8592 276.674 97.7756 276.839 97.7756C276.933 97.7756 277.027 97.8035 277.121 97.8592C277.38 98.0126 277.51 98.3193 277.415 98.5423C277.345 98.6817 277.215 98.7654 277.051 98.7654Z" fill="#636363"/>
<path d="M209.276 111.513C209.407 109.635 209.583 108.345 209.951 106.776C209.951 106.762 209.962 106.748 209.974 106.748C210.199 106.664 212.257 105.977 214.458 105.991C215.132 106.005 217.653 106.678 217.996 106.762C218.019 106.762 218.031 106.79 218.019 106.818C217.736 107.674 217.582 108.206 217.405 108.766C217.405 108.78 217.392 108.794 217.369 108.794L215.488 108.822C214.802 108.822 214.53 109.579 214.317 110.378L213.867 111.878C213.867 111.892 213.844 111.906 213.831 111.906L209.276 111.513Z" fill="#CF5934"/>
<path d="M220.255 111.457C220.079 110.07 219.948 108.57 219.878 106.818C219.878 106.804 219.878 106.79 219.889 106.776C220.091 106.636 222.054 105.347 223.983 105.333C225.876 105.333 227.745 106.581 227.935 106.72C227.947 106.72 227.946 106.734 227.946 106.748C227.958 107.616 228.029 108.121 228.077 108.654C228.077 108.667 228.077 108.667 228.065 108.683L225.816 112.397C225.805 112.411 225.793 112.411 225.781 112.411C225.438 112.326 220.847 111.527 220.506 111.523C220.267 111.485 220.255 111.471 220.299 111.767L220.255 111.457Z" fill="#CF5934"/>
<path d="M216.279 65.9217C216.268 65.9217 216.268 65.9078 216.268 65.8938V59.6845C216.268 57.7788 217.167 55.2276 219.416 53.701C220.114 53.2242 220.114 52.8311 221.084 52.8311C223.533 52.8311 224.905 53.7707 225.378 55.1718C225.45 55.3962 225.532 55.7183 225.651 56.2369C225.852 57.1486 226.077 58.4242 226.124 59.0265C226.124 59.0404 226.136 59.0544 226.148 59.0544C227.012 59.5312 227.035 60.0916 226.195 60.6241V60.6938C226.408 63.4974 225.675 65.5007 222.858 65.0671C222.835 65.0671 222.823 65.0811 222.823 65.109C222.823 65.2637 222.823 65.7809 222.823 65.8799C222.823 65.8938 222.823 65.9078 222.811 65.9078C222.657 66.0486 221.154 67.3088 219.617 67.2949C218.054 67.2949 216.457 66.0332 216.279 65.9217Z" fill="#CF5934"/>
<path opacity="0.2" d="M221.142 64.2958C221.983 64.8562 222.645 65.0388 222.8 65.0528C222.811 65.0528 222.823 65.0667 222.823 65.0946C222.823 65.2772 222.823 66.1039 222.823 66.3981C222.823 66.4399 222.788 66.4538 222.764 66.4259L221.095 64.3655C221.072 64.3236 221.107 64.2818 221.142 64.2958Z" fill="#030202"/>
<path d="M227.911 103.145C227.899 101.422 227.887 99.4748 227.816 97.1898C227.567 89.2002 225.876 82.4737 225.757 81.9969C225.757 81.983 225.745 81.969 225.722 81.969C223.652 81.9272 216.15 81.969 214.209 81.9551C214.198 81.9551 214.186 81.969 214.174 81.983C212.151 87.7155 212.979 93.3212 212.186 98.8014C211.748 101.534 210.566 104.127 209.962 106.72C209.962 106.748 209.974 106.776 209.997 106.776C210.624 106.776 217.569 106.804 218.007 106.804C218.019 106.804 218.031 106.79 218.042 106.776C218.646 104.912 219.297 102.796 219.711 100.792C219.723 100.749 219.77 100.749 219.782 100.806C219.829 101.633 219.854 102.501 219.829 103.469C219.806 104.758 219.842 106.019 219.877 106.776C219.877 106.804 219.889 106.817 219.913 106.817C220.456 106.817 227.39 106.762 227.923 106.762C227.946 106.762 227.958 106.748 227.958 106.72C227.934 105.655 227.923 104.52 227.911 103.145Z" fill="#475139"/>
<path opacity="0.2" d="M219.771 100.61L219.569 98.6901L218.623 93.8679L217.534 89.4249C217.534 89.4249 217.653 88.5703 218.232 88.4727C218.316 88.4588 218.398 88.4588 218.469 88.4588C218.848 88.4588 219.167 88.6261 219.428 88.9495C220.41 90.168 220.41 93.3354 220.327 95.6203C220.208 99.3063 220.421 98.4517 219.771 100.61Z" fill="black"/>
<path d="M217.546 89.5376C218.256 93.027 219.416 96.2223 219.747 100.749" stroke="black" stroke-width="2.08297" stroke-linecap="round" stroke-linejoin="round"/>
<path d="M231.97 70.6449C231.958 70.631 231.958 70.617 231.958 70.5891C233.472 67.2252 235.259 63.2868 235.105 66.2995C235.105 66.3566 235.164 66.3845 235.188 66.3288C235.662 65.4031 236.596 63.9309 237.2 63.9309C237.329 63.9309 237.425 64.002 237.507 64.1135C237.519 64.1414 237.542 64.1414 237.566 64.1275C237.933 63.8891 238.347 63.8194 238.453 64.6879C238.453 64.7158 238.465 64.7297 238.488 64.7297C238.926 64.8566 238.986 65.4031 238.809 66.0332C238.809 66.0485 238.809 66.0625 238.809 66.0764C239.53 67.0844 237.507 72.046 236.821 74.1622C236.821 74.1762 236.809 74.1901 236.785 74.1901C235.59 74.1483 232.277 70.9251 231.97 70.6449Z" fill="#CF5934"/>
<path d="M211.418 83.3423C210.424 83.3423 209.667 82.8948 209.157 81.997C207.087 78.3528 211.24 70.8553 212.779 69.0751C214.565 67.0146 215.949 66.7483 216.233 66.7204C216.245 66.7204 216.256 66.7065 216.256 66.6786V65.8798C216.256 65.8519 216.268 65.838 216.293 65.838H222.788C222.812 65.838 222.824 65.8519 222.824 65.8798V66.6786C222.824 66.6926 222.835 66.7204 222.847 66.7204C223.238 66.7762 225.841 67.2251 227.366 69.2438C228.822 71.1913 230.206 73.1682 230.49 73.5738C230.503 73.6017 230.538 73.5878 230.55 73.5738C230.703 73.2379 231.342 71.8075 232.016 70.4622C232.028 70.4483 232.052 70.4343 232.065 70.4483C232.442 70.7424 236.442 73.9098 236.785 74.1761C236.797 74.19 236.809 74.204 236.797 74.2193C235.826 76.797 234.371 80.0494 232.821 80.9459C229.97 82.6982 227.485 79.9644 226.716 78.5494C226.704 78.5215 226.668 78.5215 226.657 78.5633C226.527 79.0541 225.841 81.6331 225.758 81.9273C225.758 81.9412 225.746 81.9552 225.722 81.9552L214.919 82.0109C214.908 82.0109 214.908 82.0109 214.908 82.0109C214.743 82.1378 213.039 83.3423 211.418 83.3423Z" fill="#AFC2CB"/>
<path d="M216.304 63.7637C216.279 63.7637 216.268 63.7497 216.268 63.7218C216.256 63.4835 216.256 62.3612 216.256 61.3672C216.655 60.5726 216.694 59.9508 216.765 59.7082C217.348 57.776 218.042 56.4042 219.037 53.9813C219.735 53.5045 220.102 52.8172 221.072 52.8172C223.865 52.8869 225.13 53.8265 225.556 55.8731C225.556 55.887 225.556 55.887 225.556 55.9009C225.485 56.1951 224.278 56.559 223.544 56.3359C223.474 56.3498 223.296 56.1951 223.284 56.3066C223.284 57.8624 222.468 58.7324 222.315 58.8857C222.303 58.8996 222.278 58.8996 222.266 58.8857C222.125 58.6905 221.261 57.5125 220.114 57.5125C219.344 57.4986 218.576 58.3671 218.587 59.3067C218.517 60.2882 219.545 61.8858 219.782 62.1521C219.794 62.166 219.794 62.1939 219.782 62.2079C218.93 63.5671 216.541 63.7358 216.304 63.7637Z" fill="#010005"/>
<path d="M209.276 111.555C209.276 111.541 209.288 111.513 209.312 111.513L213.571 111.499C213.583 111.499 213.595 111.485 213.606 111.471L213.95 110.14C214.163 109.313 214.802 108.766 215.524 108.766L217.357 108.808C217.381 108.808 217.392 108.836 217.381 108.878C216.458 111.864 216.79 112.059 218.268 113.937C218.565 114.316 218.825 114.611 218.991 115.032C219.002 115.059 218.991 115.087 218.967 115.087C218.493 115.171 214.388 115.928 214.222 115.956H214.21L209.218 115.073C209.206 115.073 209.194 115.059 209.194 115.032C209.182 114.737 209.194 112.788 209.276 111.555Z" fill="#221E29" fill-opacity="0.68"/>
<path d="M209.218 116.84C209.206 116.671 209.182 116.012 209.182 115.088C209.182 115.06 209.194 115.046 209.218 115.046C209.809 115.046 218.481 115.004 218.967 115.004C218.979 115.004 218.991 115.018 219.003 115.032C219.204 115.465 219.263 116.026 219.251 116.811C219.251 116.84 219.239 116.854 219.216 116.854C218.458 116.854 209.845 116.882 209.253 116.882C209.229 116.882 209.218 116.868 209.218 116.84Z" fill="black"/>
<path d="M220.836 114.988C220.623 113.98 220.41 112.774 220.256 111.527C220.256 111.499 220.267 111.485 220.292 111.485C220.717 111.485 224.61 111.485 225.036 111.485C225.06 111.485 225.072 111.457 225.072 111.443L224.929 110.35C224.823 109.537 225.403 108.738 226.101 108.766C226.101 108.766 227.793 108.697 228.041 108.683C228.066 108.683 228.077 108.697 228.077 108.725C228.219 110.883 229 111.878 230.124 113.013C231.377 113.98 231.473 114.807 231.473 114.974C231.473 114.988 231.461 115.018 231.449 115.018C231.177 115.073 229.201 115.788 226.231 115.816C224.634 115.83 221.143 115.087 220.848 115.018C220.848 115.018 220.836 115.004 220.836 114.988Z" fill="#221E29" fill-opacity="0.68"/>
<path d="M221.309 116.868C221.203 116.602 220.967 115.536 220.848 115.074C220.836 115.046 220.859 115.018 220.883 115.018C221.629 115.018 230.953 115.018 231.461 115.018C231.473 115.018 231.485 115.032 231.496 115.046C231.674 115.536 231.745 116.125 231.792 116.825C231.792 116.854 231.78 116.868 231.756 116.868C230.94 116.868 221.854 116.882 221.344 116.882C221.333 116.882 221.321 116.868 221.309 116.868Z" fill="black"/>
<path d="M223.001 80.6377L226.326 77.9332C226.337 77.9192 226.361 77.9192 226.373 77.9471L226.668 78.4797C226.668 78.4936 226.68 78.5076 226.668 78.5076L225.769 81.8994C225.769 81.9133 225.757 81.9133 225.757 81.9133L222.977 84.3656C222.954 84.3795 222.917 84.3656 222.917 84.3377L222.977 80.6517C222.989 80.6656 222.989 80.6517 223.001 80.6377Z" fill="white"/>
<path d="M220.315 75.5073L223.474 66.8751C223.486 66.8611 223.498 66.8472 223.509 66.8472C223.994 66.9448 225.118 67.2668 226.195 68.0796C226.207 68.0935 226.219 68.1074 226.207 68.1214C226.006 68.6679 223.226 76.3062 223.013 76.8819C223.001 76.8959 222.989 76.9098 222.966 76.8959L220.327 75.5366C220.315 75.5645 220.315 75.5366 220.315 75.5073Z" fill="white"/>
<path d="M212.861 68.9772C213.678 68.0515 214.671 67.2527 215.405 66.9724C215.417 66.9724 215.441 66.9724 215.441 67.0003C215.642 67.5886 218.103 74.8491 218.304 75.4374C218.316 75.4514 218.304 75.4792 218.279 75.4932C217.972 75.6479 215.476 76.8817 215.594 76.8246C215.547 76.6712 213.015 69.5097 212.849 69.0329C212.849 69.005 212.861 68.9911 212.861 68.9772Z" fill="white"/>
<path d="M224.729 61.2539C224.966 61.5341 225.226 61.5774 225.486 61.5063" stroke="#030202" stroke-width="2.08297" stroke-linecap="round" stroke-linejoin="round"/>
<path d="M225.024 59.446C225.188 59.446 225.32 59.2899 225.32 59.0961C225.32 58.9023 225.188 58.7462 225.024 58.7462C224.861 58.7462 224.729 58.9023 224.729 59.0961C224.729 59.2899 224.861 59.446 225.024 59.446Z" fill="#010005"/>
<path d="M216.244 59.6703C216.244 57.7646 216.256 54.5414 218.492 53.0135C219.191 52.5367 220.102 52.2705 221.072 52.2705C225.225 52.2705 225.616 55.8449 225.651 56.1949C225.651 56.2088 225.639 56.2227 225.628 56.2367L221.805 58.339C221.793 58.339 221.782 58.339 221.77 58.339C221.332 57.8915 220.267 57.2878 219.51 57.7088C218.552 58.2414 218.564 59.3483 218.658 59.9924C218.658 60.0077 218.658 60.0217 218.634 60.0356L216.292 61.3391C216.268 61.353 216.244 61.3391 216.244 61.2959V59.6703Z" fill="#475139"/>
<path d="M230.526 73.6156L229.686 72.4111" stroke="black" stroke-width="2.08297" stroke-linecap="round" stroke-linejoin="round"/>
<path d="M214.317 86.7339C213.027 86.7618 212.056 85.7385 212.329 84.2259L213.701 75.648C213.902 74.3166 214.931 73.6015 216.055 73.6015L219.653 73.2794H222.067C223.202 73.2794 224.078 74.3027 224.101 75.648L224.207 84.2259C224.219 84.9536 223.959 85.6967 223.509 86.2432C223.048 86.8036 222.421 87.1131 221.794 87.1131H219.286L215.109 86.7897L214.317 86.7339Z" fill="black"/>
<path d="M211.808 87.127C210.519 87.1549 209.548 85.7385 209.82 84.2259L211.194 75.648C211.382 74.3166 212.412 73.2794 213.547 73.2794H219.558C220.694 73.2794 221.569 74.3027 221.593 75.648L221.7 84.2259C221.712 84.9536 221.452 85.6967 221.002 86.2432C220.541 86.8036 219.913 87.1131 219.286 87.1131L211.808 87.127Z" fill="#221E29" fill-opacity="0.68"/>
<path d="M228.621 111.107L227.485 111.92" stroke="black" stroke-width="2.08297" stroke-linecap="round" stroke-linejoin="round"/>
<path d="M229.26 112.059L228.42 113.195" stroke="black" stroke-width="2.08297" stroke-linecap="round" stroke-linejoin="round"/>
<path d="M216.849 111.807L215.689 112.311" stroke="black" stroke-width="2.08297" stroke-linecap="round" stroke-linejoin="round"/>
<path d="M217.297 112.802L216.445 113.559" stroke="black" stroke-width="2.08297" stroke-linecap="round" stroke-linejoin="round"/>
<path d="M226.68 78.4796L226.029 77.2877" stroke="black" stroke-width="2.08297" stroke-linecap="round" stroke-linejoin="round"/>
<path d="M210.625 79.3066H221.604" stroke="black" stroke-width="2.08297" stroke-linecap="round" stroke-linejoin="round"/>
<path d="M216.127 54.5136C214.754 54.5136 213.63 53.1822 213.63 51.5553C213.63 49.9298 214.754 48.5984 216.127 48.5984C217.499 48.5984 218.623 49.9298 218.623 51.5553C218.623 53.1822 217.499 54.5136 216.127 54.5136Z" fill="#475139"/>
<path d="M237.541 64.1414C237.541 64.1414 236.169 66.496 235.424 67.9543" stroke="#030202" stroke-width="2.08297" stroke-linecap="round" stroke-linejoin="round"/>
<path d="M238.44 64.7448L236.464 68.7668" stroke="#030202" stroke-width="2.08297" stroke-linecap="round" stroke-linejoin="round"/>
<path d="M238.785 66.0902L237.364 69.4667" stroke="#030202" stroke-width="2.08297" stroke-linecap="round" stroke-linejoin="round"/>
<path d="M220.351 59.7974L220.967 60.5962" stroke="#030202" stroke-width="2.08297" stroke-linecap="round" stroke-linejoin="round"/>
<path d="M222.823 65.0671C222.149 64.982 220.93 64.1553 220.93 64.1553" stroke="#030202" stroke-width="2.08297" stroke-linecap="round" stroke-linejoin="round"/>
<path d="M190.62 36.0641C190.291 34.0705 189.82 30.9616 189.679 29.93L189.691 30.5713C189.408 28.8426 188.89 25.6069 190.467 23.934C191.468 22.8745 192.88 21.564 194.387 21.564C195.187 21.564 195.999 22.4423 196.705 22.7769C197.73 23.223 198.342 23.7946 198.813 24.645C199.237 25.3978 199.543 26.3597 199.884 27.6158C199.884 27.6297 199.896 27.6437 199.907 27.6437C200.072 27.6716 200.79 27.797 200.861 28.1874C200.955 28.6196 200.519 29.3027 200.425 29.456C200.413 29.47 200.413 29.4839 200.425 29.4978C201.049 31.812 201.025 33.0807 200.366 34.182C199.849 35.1439 198.083 35.5204 197.048 35.0742C197.024 35.0603 197 35.0882 197 35.1161C197.024 35.2973 197.095 35.8271 197.118 35.9804C197.118 36.0083 197.106 36.0641 197.083 36.0641H190.62Z" fill="#E59763"/>
<path d="M188.537 96.8817C188.526 96.8678 188.526 96.8538 188.526 96.8399C188.996 92.4624 189.844 90.1621 190.056 85.5741C190.114 84.2637 190.103 82.9672 190.032 81.587C190.032 81.5731 190.044 81.5452 190.056 81.5452C190.397 81.4615 193.81 80.3881 196.552 80.3881C197.507 80.3881 199.778 81.5034 200.037 81.6009C200.049 81.6009 200.06 81.6288 200.06 81.6428C199.707 86.7187 198.813 93.0758 198.26 96.8538C198.248 96.9096 194.834 98.5839 191.95 98.5699C190.526 98.5421 188.737 97.035 188.537 96.8817Z" fill="#E59763"/>
<path opacity="0.2" d="M190.091 83.9419C190.091 82.9939 190.067 82.2829 190.032 81.5859C190.032 81.558 190.043 81.544 190.067 81.544H195.481L195.493 81.5998C195.481 81.5719 190.714 83.691 190.138 83.9698C190.114 83.9837 190.091 83.9698 190.091 83.9419Z" fill="#030202"/>
<path d="M173.188 91.3612C175.142 87.7784 177.049 85.6579 178.673 81.6011C178.673 81.5872 178.685 81.5732 178.697 81.5732C179.191 81.5453 182.875 80.681 183.593 80.681C186.347 80.6671 189.255 81.5593 189.267 81.5453L189.255 81.5872C187.501 86.2574 184.146 92.2674 182.063 96.0315C182.063 96.0454 182.051 96.0454 182.039 96.0454C181.828 96.1012 179.203 96.3521 176.683 95.0138C175.448 94.3585 173.411 91.6679 173.2 91.403C173.176 91.3891 173.176 91.3752 173.188 91.3612Z" fill="#E59763"/>
<path opacity="0.2" d="M181.097 81.6009C182.451 81.5869 188.607 81.5312 189.196 81.573C189.219 81.573 189.231 81.6009 189.219 81.6288C188.89 82.4373 188.584 83.2459 188.219 84.0545C188.207 84.0684 188.195 84.0824 188.184 84.0684C187.772 83.929 182.263 82.0749 181.086 81.6706C181.05 81.6706 181.062 81.6009 181.097 81.6009Z" fill="#030202"/>
<path d="M214.95 72.984C214.114 72.984 213.185 71.576 212.749 70.8371C212.726 70.7953 212.667 70.8232 212.679 70.8789C212.796 71.5063 213.126 72.761 212.608 72.8586C212.019 72.9701 211.243 71.3808 210.242 69.6243C209.524 68.3417 208.677 66.9058 207.806 65.7208C207.794 65.7068 207.794 65.679 207.818 65.665C208.206 65.3444 212.043 61.6904 212.526 61.3977C212.537 61.3837 212.561 61.3977 212.561 61.4116C213.926 63.295 214.915 64.8564 215.48 65.902V65.9159C215.538 66.1529 218.093 70.6001 216.786 71.9524C216.774 71.9524 216.774 71.9663 216.774 71.9803C216.739 72.3985 216.551 72.9143 215.997 72.9143C215.844 72.9143 215.668 72.8725 215.491 72.8028C215.48 72.8028 215.48 72.8028 215.468 72.8028C215.315 72.8865 215.138 72.998 214.95 72.984Z" fill="#E59763"/>
<path d="M206.969 67.4495C202.767 63.0859 200.048 56.8808 199.542 55.6819C199.53 55.64 199.483 55.654 199.483 55.6958L199.283 57.773C199.283 57.787 199.271 57.8148 199.248 57.8148L188.984 57.8427C188.972 57.8427 188.972 57.8427 188.96 57.8567C188.784 58.0658 186.429 61.1328 186.417 61.0631C185.511 60.6728 184.805 60.1709 184.24 59.5854C181.015 56.2116 182.98 49.9647 184.557 44.9041C185.428 42.2971 186.358 40.1781 186.983 39.3695C188.337 37.5976 190.408 37.1236 190.785 37.0539C190.808 37.0539 190.82 37.026 190.808 37.0121C190.761 36.7054 190.69 36.3987 190.643 36.078C190.643 36.0501 190.655 36.0362 190.667 36.0362C191.149 35.9665 196.657 36.0362 197.106 36.0362C197.117 36.0362 197.141 36.0501 197.141 36.0641C197.165 36.2592 197.329 37.3048 197.353 37.4861C197.353 37.5 197.365 37.5139 197.376 37.5139C197.824 37.5836 201.743 38.448 203.626 44.5974L206.568 53.6465C206.568 53.6465 206.568 53.6604 206.58 53.6604C206.721 53.8277 209.923 57.7591 212.524 61.3559C212.536 61.3698 212.536 61.3977 212.524 61.4116C212.16 61.8299 207.393 67.1428 207.005 67.4634C206.993 67.4634 206.981 67.4634 206.969 67.4495Z" fill="#AFC2CB"/>
<path opacity="0.2" d="M186.371 61.0353C185.441 60.631 184.806 60.157 184.264 59.6133C184.241 59.5993 184.252 59.5575 184.276 59.5436C186.547 58.1495 186.806 55.1103 187.008 52.9216C187.137 51.5135 187.231 50.3829 187.82 50.2296C187.843 50.2296 187.855 50.2435 187.855 50.2575L188.749 57.7452C188.749 57.7591 188.749 57.7731 188.738 57.7731C188.573 57.9961 186.406 61.1189 186.371 61.0353Z" fill="#959595"/>
<path opacity="0.2" d="M195.811 34.5304C196.34 34.865 196.858 35.0044 196.977 35.0323C196.989 35.0323 197 35.0462 197 35.0601L197.13 36.0081L197.212 36.6076C197.212 36.6494 197.177 36.6773 197.153 36.6355L195.763 34.5861C195.752 34.5583 195.787 34.5025 195.811 34.5304Z" fill="#030202"/>
<path d="M183.204 49.503C178.944 49.4193 177.779 43.5362 181.31 41.2638C181.321 41.2499 181.333 41.222 181.321 41.2081C179.98 38.8799 179.78 36.1043 180.815 33.7622C181.827 31.4619 183.863 30.0817 186.253 30.0817C186.96 30.0817 187.701 30.2072 188.443 30.4163C188.466 30.4163 188.49 30.4024 188.478 30.3745C188.443 28.5064 188.243 24.8525 190.373 22.9286C192.068 21.409 194.633 21.0047 196.634 21.9388C197.565 22.371 198.318 23.3887 198.801 24.6155C198.813 24.6294 198.801 24.6434 198.789 24.6573C198.683 24.7828 198.106 25.4101 197.059 25.4101C196.822 25.4101 196.575 25.3822 196.328 25.2986C196.305 25.2846 196.281 25.3265 196.293 25.3543C196.811 26.5812 196.587 28.4925 195.799 29.3289C195.787 29.3429 195.775 29.3429 195.763 29.3289C195.598 29.2174 194.539 28.3809 193.574 28.367C192.986 28.367 192.574 28.6876 192.338 29.3289C191.644 31.2946 194.245 32.9397 194.457 33.0791C194.469 33.0791 194.469 33.093 194.469 33.1069C195.081 39.0612 192.35 44.4285 185.77 41.7657C185.758 41.7657 185.735 41.7657 185.735 41.7797C185.558 42.1561 184.334 45.1394 183.24 49.4612C183.228 49.489 183.216 49.503 183.204 49.503Z" fill="#010005"/>
<path d="M198.789 30.5712C198.966 30.9894 199.495 31.0591 199.766 30.9476" stroke="#030202" stroke-width="2.08297" stroke-linecap="round" stroke-linejoin="round"/>
<path d="M198.659 28.3966C198.822 28.3966 198.954 28.2405 198.954 28.0481C198.954 27.8557 198.822 27.6996 198.659 27.6996C198.497 27.6996 198.365 27.8557 198.365 28.0481C198.365 28.2405 198.497 28.3966 198.659 28.3966Z" fill="#171314"/>
<path d="M195.669 34.4314C195.669 34.4314 196.552 34.8218 197 35.0309" stroke="#030202" stroke-width="2.08297" stroke-linecap="round" stroke-linejoin="round"/>
<path d="M193.998 30.3189L194.881 30.9463" stroke="#030202" stroke-width="2.08297" stroke-linecap="round" stroke-linejoin="round"/>
<path d="M194.245 34.9486C194.908 34.9486 195.446 34.3115 195.446 33.5266C195.446 32.7417 194.908 32.1046 194.245 32.1046C193.583 32.1046 193.045 32.7417 193.045 33.5266C193.045 34.3115 193.583 34.9486 194.245 34.9486Z" fill="#A3A3A3"/>
<path d="M178.721 81.573C178.697 81.573 178.686 81.5451 178.697 81.5172C180.698 76.3451 181.087 71.1437 183.229 65.874C184.7 62.1643 187.019 59.2088 188.749 57.7868C188.749 57.7868 188.761 57.7729 188.773 57.7729C189.126 57.7729 198.719 57.731 199.249 57.8007C199.26 57.8007 199.272 57.8147 199.272 57.8286C199.378 58.3584 200.99 68.3415 200.072 81.559C200.072 81.5869 200.061 81.6008 200.037 81.6008C199.154 81.573 179.91 81.573 178.721 81.573Z" fill="#AFC2CB"/>
<path opacity="0.2" d="M199.236 57.8009C198.965 57.8009 196.658 57.8149 196.163 57.8149C196.128 57.8149 196.116 57.8567 196.14 57.8846C197.4 59.0975 198.189 61.091 198.942 62.7653C199.342 63.6297 199.789 64.1734 199.942 64.3546C199.966 64.3825 200.001 64.3546 200.001 64.3267C199.954 63.6436 199.601 59.7109 199.26 57.8288C199.271 57.8149 199.26 57.8009 199.236 57.8009Z" fill="#959595"/>
<path d="M188.149 27.6995C186.241 27.7135 185.735 25.9834 186.653 23.9759C187.725 21.4247 191.209 18.6504 193.492 18.7062C195.399 18.6922 195.905 20.4209 194.987 22.4284C193.916 24.9796 190.456 27.7692 188.149 27.6995Z" fill="#475139"/>
<path d="M187.996 53.507L186.89 54.1065" stroke="#959595" stroke-width="2.08297" stroke-linecap="round" stroke-linejoin="round"/>
<path d="M188.76 57.7729L188.407 54.7616H199.165L199.483 55.5562L199.271 57.8007L188.76 57.7729Z" fill="white"/>
<path opacity="0.2" d="M196.082 57.8148C196.682 55.9467 196.623 53.995 196.576 52.4475C196.529 50.8583 196.482 49.6022 197.13 48.9888C197.142 48.9748 197.177 48.9748 197.177 49.0027C198.001 51.4159 199.119 54.5247 199.472 55.5424V55.5564C199.46 55.6958 199.284 57.4942 199.26 57.7591C199.26 57.773 199.249 57.7869 199.225 57.7869L196.082 57.8148Z" fill="#959595"/>
<path d="M187.854 50.2157L188.749 57.7731C188.749 57.7731 187.019 59.2927 186.017 60.8122" stroke="#959595" stroke-width="2.08297" stroke-linecap="round" stroke-linejoin="round"/>
<path d="M199.483 55.5565L197.165 48.961" stroke="#959595" stroke-width="2.08297" stroke-linecap="round" stroke-linejoin="round"/>
<path d="M195.999 116.959C195.776 116.527 195.246 115.677 194.881 115.189C194.869 115.175 194.869 115.147 194.881 115.133C195.634 114.311 201.626 114.966 201.626 115.063C201.967 115.496 202.32 116.402 202.367 116.917C202.367 116.945 202.356 116.959 202.332 116.959C201.814 116.959 195.999 116.959 195.999 116.959Z" fill="black"/>
<path d="M194.846 115.147C194.387 114.478 193.61 113.544 192.915 113.154C192.786 113.112 189.114 111.857 188.82 111.76C188.808 111.76 188.796 111.746 188.796 111.732C188.314 108.594 188.102 105.541 188.173 102.404C188.243 100.466 188.349 98.5005 188.526 96.9098C188.526 96.8959 188.537 96.8819 188.561 96.8819C189.138 96.8819 197.53 96.854 198.236 96.854C198.26 96.854 198.272 96.8819 198.272 96.8959C198.248 97.0213 198.201 97.3559 198.166 97.6069C197.895 99.4206 197.671 100.996 197.471 102.515C197.083 106.377 196.387 109.835 198.378 111.913C198.86 112.387 199.296 112.777 199.766 113.21C200.625 113.976 201.002 114.186 201.59 115.022C201.614 115.05 201.59 115.092 201.567 115.092C200.861 115.106 195.222 115.175 194.881 115.189C194.857 115.161 194.857 115.161 194.846 115.147Z" fill="#475139"/>
<path d="M189.891 116.932C189.561 115.942 188.973 113.182 188.796 111.788C188.796 111.76 188.808 111.746 188.831 111.746C189.161 111.802 191.315 112.206 192.892 113.14C192.904 113.14 192.915 113.154 192.915 113.182C192.915 113.488 192.904 116.541 192.904 116.918C192.904 116.946 192.892 116.96 192.868 116.96C192.562 116.96 190.173 116.96 189.926 116.96C189.914 116.96 189.902 116.946 189.891 116.932Z" fill="black"/>
<path d="M207.158 64.4658C206.627 64.4658 206.203 63.964 206.203 63.3366C206.203 62.7093 206.627 62.206 207.158 62.206C207.687 62.206 208.111 62.7093 208.111 63.3366C208.111 63.964 207.687 64.4658 207.158 64.4658Z" fill="white"/>
<path d="M197.353 37.4986C197.353 37.4986 197.777 37.5405 198.295 37.7774" stroke="#959595" stroke-width="2.08297" stroke-linecap="round" stroke-linejoin="round"/>
<path d="M192.562 104.885C191.88 104.899 191.279 104.16 191.326 103.352C191.326 103.352 191.574 97.4254 191.597 96.8956C191.597 96.8678 191.609 96.8538 191.632 96.8538L194.94 96.8399C194.963 96.8399 194.975 96.8678 194.975 96.8817L193.786 103.7C193.657 104.411 193.151 104.885 192.562 104.885Z" fill="black"/>
<path d="M172.682 113.85C172.612 113.376 172.4 112.373 172.223 111.731C172.211 111.704 172.235 111.676 172.258 111.676C172.694 111.801 175.283 112.415 175.413 112.456H175.424C175.566 112.554 178.415 114.729 178.603 114.868C178.615 114.868 178.615 114.882 178.615 114.882C178.791 115.482 178.815 116.43 178.686 116.917C178.674 116.945 178.662 116.945 178.638 116.945C178.168 116.694 173.023 114.032 172.694 113.864L172.682 113.85Z" fill="black"/>
<path d="M172.199 111.648C171.905 110.575 171.528 109.681 171.163 109.179C171.081 109.081 168.233 105.987 168.009 105.75C167.998 105.736 167.998 105.722 167.998 105.708C168.951 100.787 170.881 95.613 173.152 91.4028C173.164 91.3889 173.176 91.375 173.188 91.3889C173.682 91.612 181.404 95.7246 182.004 96.0313C182.028 96.0452 182.028 96.0731 182.016 96.087C181.027 97.9133 179.862 99.964 179.003 101.567C177.532 104.551 175.577 107.562 176.73 110.421C177.014 111.09 177.296 111.676 177.567 112.275C178.003 113.209 178.391 114.004 178.591 114.799C178.603 114.827 178.567 114.854 178.544 114.84C177.897 114.52 172.517 111.815 172.211 111.662C172.199 111.662 172.199 111.662 172.199 111.648Z" fill="#475139"/>
<path d="M167.233 111.007C167.268 110.085 167.704 107.032 167.986 105.778C167.998 105.75 168.021 105.736 168.033 105.764C170.093 107.464 171.046 108.984 171.152 109.165C171.164 109.179 171.164 109.193 171.152 109.207C171.058 109.458 170.093 112.094 169.975 112.429C169.963 112.443 169.951 112.457 169.928 112.443L167.245 111.049C167.245 111.035 167.233 111.021 167.233 111.007Z" fill="black"/>
<path d="M174.329 100.618C173.447 100.646 172.788 99.4468 173.223 98.5128C173.223 98.5128 175.448 93.172 175.648 92.698C175.659 92.684 175.671 92.6701 175.695 92.684L178.709 94.2873C178.732 94.3012 178.732 94.3291 178.72 94.343L175.342 100.004C175.106 100.381 174.73 100.618 174.329 100.618Z" fill="black"/>
<path d="M189.773 21.564L190.267 22.3168" stroke="black" stroke-width="2.08297" stroke-linecap="round" stroke-linejoin="round"/>
<path d="M216.774 71.9508C216.774 71.9508 215.444 68.6328 214.384 66.709" stroke="#030202" stroke-width="2.08297" stroke-linecap="round" stroke-linejoin="round"/>
<path d="M215.478 72.7889C215.478 72.7889 213.666 68.8715 213.089 67.7841" stroke="#030202" stroke-width="2.08297" stroke-linecap="round" stroke-linejoin="round"/>
<path d="M212.69 70.8217C212.69 70.8217 212.478 69.9574 211.902 68.87" stroke="#030202" stroke-width="2.08297" stroke-linecap="round" stroke-linejoin="round"/>
</g>
</g>
</svg>
