<svg width="61" height="68" viewBox="0 0 61 68" fill="none" xmlns="http://www.w3.org/2000/svg">
<path d="M4.75863 0H55.7749C58.3929 0 60.5335 2.13928 60.5335 4.75727V63.2426C60.5335 65.8606 58.3929 67.9999 55.7749 67.9999H4.75863C2.14063 67.9999 0 65.8606 0 63.2426V4.75727C0 2.11752 2.14063 0 4.75863 0Z" fill="#2A9E66"/>
<path d="M10.8595 15.0254L12.9539 17.1198L16.3457 13.7497" stroke="white" stroke-width="0.540667" stroke-linecap="round" stroke-linejoin="round"/>
<path d="M14.9379 35.4497C15.9933 34.7193 16.2544 33.2737 15.5255 32.2197C14.7951 31.163 13.3495 30.9018 12.2955 31.6322C11.2387 32.3611 10.9776 33.8081 11.7066 34.8621C12.4369 35.9161 13.8839 36.1813 14.9379 35.4497Z" stroke="white" stroke-width="0.540667" stroke-linecap="round" stroke-linejoin="round"/>
<path d="M14.9369 53.5255C15.9909 52.7952 16.2548 51.3495 15.5245 50.2955C14.7955 49.2415 13.3471 48.9776 12.2931 49.708C11.2391 50.4369 10.9753 51.884 11.7069 52.938C12.4373 53.9919 13.8829 54.2571 14.9369 53.5255Z" stroke="white" stroke-width="0.540667" stroke-linecap="round" stroke-linejoin="round"/>
<path d="M22.9256 15.8672H44.0967" stroke="#F9FAFB" stroke-width="0.540667" stroke-linecap="round" stroke-linejoin="round"/>
<path d="M22.9256 33.5566H44.0967" stroke="#F9FAFB" stroke-width="0.540667" stroke-linecap="round" stroke-linejoin="round"/>
<path d="M22.9256 51.4718H44.0967" stroke="#F9FAFB" stroke-width="0.540667" stroke-linecap="round" stroke-linejoin="round"/>
</svg>
