<svg width="162" height="135" viewBox="0 0 162 135" fill="none" xmlns="http://www.w3.org/2000/svg">
<g filter="url(#filter0_d_142_36185)">
<rect x="4.00198" y="2.00099" width="153.142" height="126.996" rx="18.6667" fill="#F3F4F6"/>
</g>
<path d="M48.4741 73.9515H115.757" stroke="#2A9E66" stroke-width="4" stroke-linecap="round" stroke-linejoin="round"/>
<path d="M78.2342 56.9617H73.819C71.4821 56.9617 69.5822 58.863 69.5822 61.1999V91.9114C69.5822 93.5845 70.4146 96.3155 74.6266 96.1482H80.5891" stroke="#2A9E66" stroke-width="4" stroke-linecap="round" stroke-linejoin="round"/>
<path d="M44.4927 49.8334V72.0505" stroke="#2A9E66" stroke-width="4" stroke-linecap="round" stroke-linejoin="round"/>
<path d="M82.9307 99.9819C85.1307 99.9819 86.9103 98.1995 86.9103 96.0009C86.9103 93.8037 85.1307 92.0213 82.9307 92.0213C80.7321 92.0213 78.9511 93.8037 78.9511 96.0009C78.9511 98.1995 80.7321 99.9819 82.9307 99.9819Z" fill="#3EB27A"/>
<path d="M44.4928 77.9312C46.6914 77.9312 48.4738 76.1488 48.4738 73.9516C48.4738 71.753 46.6914 69.9706 44.4928 69.9706C42.2956 69.9706 40.5132 71.753 40.5132 73.9516C40.5132 76.1488 42.2956 77.9312 44.4928 77.9312Z" fill="#3EB27A"/>
<path d="M44.4927 75.6742C45.444 75.6742 46.2156 74.9012 46.2156 73.9512C46.2156 72.9985 45.444 72.2283 44.4927 72.2283C43.5413 72.2283 42.7711 72.9985 42.7711 73.9512C42.7711 74.9012 43.5413 75.6742 44.4927 75.6742Z" fill="#3C2C5B"/>
<path d="M69.5818 77.9312C71.779 77.9312 73.5614 76.1488 73.5614 73.9516C73.5614 71.753 71.779 69.9706 69.5818 69.9706C67.3831 69.9706 65.6007 71.753 65.6007 73.9516C65.6007 76.1488 67.3831 77.9312 69.5818 77.9312Z" fill="#3EB27A"/>
<path d="M82.1755 60.9424C84.3727 60.9424 86.1551 59.16 86.1551 56.9614C86.1551 54.7641 84.3727 52.9817 82.1755 52.9817C79.9769 52.9817 78.1958 54.7641 78.1958 56.9614C78.1958 59.16 79.9769 60.9424 82.1755 60.9424Z" fill="#3EB27A"/>
<path d="M94.6299 77.9312C96.8285 77.9312 98.6095 76.1488 98.6095 73.9516C98.6095 71.753 96.8285 69.9706 94.6299 69.9706C92.4326 69.9706 90.6502 71.753 90.6502 73.9516C90.6502 76.1488 92.4326 77.9312 94.6299 77.9312Z" fill="#3EB27A"/>
<path d="M119.757 77.9312C121.955 77.9312 123.737 76.1488 123.737 73.9516C123.737 71.753 121.955 69.9706 119.757 69.9706C117.559 69.9706 115.778 71.753 115.778 73.9516C115.778 76.1488 117.559 77.9312 119.757 77.9312Z" fill="#3EB27A"/>
<path d="M44.4928 50.8828C46.6914 50.8828 48.4738 49.1004 48.4738 46.9032C48.4738 44.7045 46.6914 42.9235 44.4928 42.9235C42.2956 42.9235 40.5132 44.7045 40.5132 46.9032C40.5132 49.1004 42.2956 50.8828 44.4928 50.8828Z" fill="#3EB27A"/>
<path d="M44.4927 48.5459C45.444 48.5459 46.2156 47.7743 46.2156 46.8243C46.2156 45.8716 45.444 45.1014 44.4927 45.1014C43.5413 45.1014 42.7711 45.8716 42.7711 46.8243C42.7711 47.7743 43.5413 48.5459 44.4927 48.5459Z" fill="#3C2C5B"/>
<path d="M69.6399 75.6742C70.5912 75.6742 71.3628 74.9012 71.3628 73.9512C71.3628 72.9985 70.5912 72.2283 69.6399 72.2283C68.6885 72.2283 67.9183 72.9985 67.9183 73.9512C67.9183 74.9012 68.6885 75.6742 69.6399 75.6742Z" fill="#3C2C5B"/>
<path d="M94.6292 75.6742C95.5791 75.6742 96.3521 74.9012 96.3521 73.9512C96.3521 72.9985 95.5791 72.2283 94.6292 72.2283C93.6764 72.2283 92.9062 72.9985 92.9062 73.9512C92.9062 74.9012 93.6764 75.6742 94.6292 75.6742Z" fill="#3C2C5B"/>
<path d="M119.757 75.6742C120.707 75.6742 121.48 74.9012 121.48 73.9512C121.48 72.9985 120.707 72.2283 119.757 72.2283C118.804 72.2283 118.034 72.9985 118.034 73.9512C118.034 74.9012 118.804 75.6742 119.757 75.6742Z" fill="#3C2C5B"/>
<path d="M82.1757 58.646C83.1285 58.646 83.8987 57.873 83.8987 56.923C83.8987 55.9703 83.1285 55.2001 82.1757 55.2001C81.2258 55.2001 80.4528 55.9703 80.4528 56.923C80.4528 57.873 81.2258 58.646 82.1757 58.646Z" fill="#3C2C5B"/>
<path d="M82.9326 97.6844C83.8839 97.6844 84.6555 96.9142 84.6555 95.9628C84.6555 95.0115 83.8839 94.2399 82.9326 94.2399C81.9812 94.2399 81.211 95.0115 81.211 95.9628C81.211 96.9142 81.9812 97.6844 82.9326 97.6844Z" fill="#3C2C5B"/>
<defs>
<filter id="filter0_d_142_36185" x="0" y="0" width="161.146" height="135" filterUnits="userSpaceOnUse" color-interpolation-filters="sRGB">
<feFlood flood-opacity="0" result="BackgroundImageFix"/>
<feColorMatrix in="SourceAlpha" type="matrix" values="0 0 0 0 0 0 0 0 0 0 0 0 0 0 0 0 0 0 127 0" result="hardAlpha"/>
<feOffset dy="2"/>
<feGaussianBlur stdDeviation="2"/>
<feComposite in2="hardAlpha" operator="out"/>
<feColorMatrix type="matrix" values="0 0 0 0 0 0 0 0 0 0 0 0 0 0 0 0 0 0 0.14 0"/>
<feBlend mode="normal" in2="BackgroundImageFix" result="effect1_dropShadow_142_36185"/>
<feBlend mode="normal" in="SourceGraphic" in2="effect1_dropShadow_142_36185" result="shape"/>
</filter>
</defs>
</svg>
