<svg width="20" height="20" viewBox="0 0 20 20" fill="none" xmlns="http://www.w3.org/2000/svg">
<path d="M11.1666 14.5168H9.07497C7.70831 14.5168 6.59997 13.3668 6.59997 11.9502C6.59997 11.6085 6.88331 11.3252 7.22497 11.3252C7.56664 11.3252 7.84997 11.6085 7.84997 11.9502C7.84997 12.6752 8.39997 13.2668 9.07497 13.2668H11.1666C11.7083 13.2668 12.1583 12.7835 12.1583 12.2002C12.1583 11.4752 11.9 11.3335 11.475 11.1835L8.11664 10.0002C7.46664 9.77517 6.59164 9.29184 6.59164 7.80017C6.59164 6.51684 7.59997 5.48351 8.83331 5.48351H10.925C12.2916 5.48351 13.4 6.63351 13.4 8.05017C13.4 8.39184 13.1166 8.67517 12.775 8.67517C12.4333 8.67517 12.15 8.39184 12.15 8.05017C12.15 7.32517 11.6 6.73351 10.925 6.73351H8.83331C8.29164 6.73351 7.84164 7.21684 7.84164 7.80017C7.84164 8.52517 8.09997 8.66684 8.52497 8.81684L11.8833 10.0002C12.5333 10.2252 13.4083 10.7085 13.4083 12.2002C13.4 13.4752 12.4 14.5168 11.1666 14.5168Z" fill="#2A9E66"/>
<path d="M10 15.6249C9.65833 15.6249 9.375 15.3415 9.375 14.9999V4.99987C9.375 4.65821 9.65833 4.37487 10 4.37487C10.3417 4.37487 10.625 4.65821 10.625 4.99987V14.9999C10.625 15.3415 10.3417 15.6249 10 15.6249Z" fill="#2A9E66"/>
</svg>
