<svg width="86" height="40" viewBox="0 0 86 40" fill="none" xmlns="http://www.w3.org/2000/svg">
<path d="M32.7904 24.9234H10.7684V35.7604H32.7904V24.9234Z" fill="#464646"/>
<path d="M66.2834 24.9234H44.2614V35.7604H66.2834V24.9234Z" fill="#464646"/>
<path d="M81.4562 30C80.2959 30 79.3576 29.0562 79.3576 27.8996C79.3576 26.7375 80.3014 25.7992 81.4562 25.7992C82.6128 25.7992 83.5566 26.743 83.5566 27.8996C83.5566 29.0562 82.6128 30 81.4562 30Z" fill="#3EB27A"/>
<path d="M2.6161 29.9368C1.45394 29.9368 0.515693 28.993 0.515693 27.8364C0.515693 26.6761 1.46134 25.7378 2.6161 25.7378C3.77827 25.7378 4.71653 26.6816 4.71653 27.8364C4.72393 28.993 3.77827 29.9368 2.6161 29.9368Z" fill="#3EB27A"/>
<path d="M24.1898 3.38658V1.47307C24.1898 0.664365 24.8486 0 25.6628 0H62.3933C63.2001 0 63.8663 0.658813 63.8663 1.47307V3.38658H24.1898Z" fill="#3EB27A"/>
<path opacity="0.2" d="M63.8589 1.68463H24.1898V3.38717H63.8589V1.68463Z" fill="#2A9E66"/>
<path d="M61.971 35.7611V34.2066C61.971 30.1742 58.6899 26.8931 54.6501 26.8875C50.6121 26.8875 47.331 30.1686 47.331 34.2066L47.3236 35.7611H27.8555V34.2066C27.8555 30.1742 24.5762 26.8931 20.5364 26.8875C16.4966 26.8875 13.2173 30.1686 13.2173 34.2066V35.7611H2.62826V9.66228C2.62826 5.60395 5.92787 2.30435 9.98621 2.30435H68.6257C71.0796 2.30435 73.441 3.05014 75.4544 4.46214C77.4678 5.87229 78.9705 7.83575 79.8107 10.1471C81.0154 13.4782 81.6298 16.9628 81.6298 20.5123V35.7611H61.971Z" fill="#3EB27A"/>
<path d="M46.2563 22.2759C45.1552 22.2759 44.2614 21.382 44.2614 20.2809V10.3266C44.2614 9.22739 45.1552 8.3317 46.2563 8.3317H58.1981C59.2992 8.3317 60.1931 9.22739 60.1931 10.3266V20.2809C60.1931 21.382 59.2992 22.2759 58.1981 22.2759H46.2563Z" fill="white"/>
<path d="M79.5062 25.01C78.407 25.01 77.5113 24.1143 77.5113 23.0151V10.3256C77.5113 9.4188 78.1275 8.62305 79.0029 8.39357H79.0084L79.0158 8.39912C79.3267 8.95985 79.5932 9.54278 79.8116 10.1461C81.0163 13.4771 81.6307 16.9618 81.6307 20.5112V25.01H79.5062Z" fill="white"/>
<path d="M28.4407 22.2759C27.3415 22.2759 26.4458 21.382 26.4458 20.2809V10.3266C26.4458 9.22739 27.3415 8.3317 28.4407 8.3317H40.3844C41.4837 8.3317 42.3793 9.22739 42.3793 10.3266V20.2809C42.3793 21.382 41.4837 22.2759 40.3844 22.2759H28.4407Z" fill="white"/>
<path opacity="0.2" d="M42.3534 11.4462C42.3534 10.3581 41.4707 9.47536 40.3844 9.47536H28.4407C27.3544 9.47536 26.4717 10.3581 26.4717 11.4462H26.4458V10.3266C26.4458 9.22739 27.3415 8.3317 28.4407 8.3317H40.3844C41.4837 8.3317 42.3793 9.22739 42.3793 10.3266V11.4462H42.3534Z" fill="#2A9E66"/>
<path opacity="0.2" d="M60.169 11.4462C60.169 10.3581 59.2863 9.47536 58.1981 9.47536H46.2563C45.1682 9.47536 44.2854 10.3581 44.2854 11.4462H44.2614V10.3266C44.2614 9.22739 45.1552 8.3317 46.2563 8.3317H58.1981C59.2992 8.3317 60.1931 9.22739 60.1931 10.3266V11.4462H60.169Z" fill="#2A9E66"/>
<path d="M10.6326 22.2759C9.53146 22.2759 8.63762 21.382 8.63762 20.2809V10.3266C8.63762 9.22739 9.53146 8.3317 10.6326 8.3317H22.5744C23.6755 8.3317 24.5693 9.22739 24.5693 10.3266V20.2809C24.5693 21.382 23.6755 22.2759 22.5744 22.2759H10.6326Z" fill="white"/>
<path d="M2.62826 22.2759V9.66227C2.62826 9.22183 2.66528 8.77954 2.7467 8.34466V8.3317H4.76014C5.85939 8.3317 6.75507 9.22739 6.75507 10.3266V20.2809C6.75507 21.382 5.85939 22.2759 4.76014 22.2759H2.62826Z" fill="white"/>
<path d="M3.37469 6.43116L3.38764 6.41266C3.99648 5.17646 4.92733 4.14384 6.0969 3.41655C7.26462 2.69112 8.6063 2.30435 9.98684 2.30435H68.6264C72.0814 2.30435 75.3551 3.79593 77.6165 6.40711L77.635 6.43116H3.37469Z" fill="#3EB27A"/>
<path d="M58.6663 38.1668C60.8667 35.9664 60.8667 32.3967 58.6663 30.1963C56.466 27.996 52.8962 27.996 50.6959 30.1963C48.4955 32.3967 48.4955 35.9664 50.6959 38.1668C52.8962 40.3671 56.466 40.3671 58.6663 38.1668Z" fill="#505050"/>
<path d="M54.682 35.8534C53.7622 35.8534 53.0109 35.1021 53.0109 34.1823C53.0109 33.2626 53.7622 32.5094 54.682 32.5094C55.6017 32.5094 56.3531 33.2626 56.3531 34.1823C56.3531 35.1076 55.6073 35.8534 54.682 35.8534Z" fill="#3EB27A"/>
<path d="M20.5678 39.8175C23.6805 39.8175 26.2029 37.2951 26.2029 34.1824C26.2029 31.0698 23.6805 28.5455 20.5678 28.5455C17.4551 28.5455 14.9309 31.0698 14.9309 34.1824C14.9309 37.2951 17.4551 39.8175 20.5678 39.8175Z" fill="#505050"/>
<path d="M20.5678 35.8534C19.6481 35.8534 18.8968 35.1021 18.8968 34.1823C18.8968 33.2626 19.6481 32.5094 20.5678 32.5094C21.4876 32.5094 22.2389 33.2626 22.2389 34.1823C22.2389 35.1076 21.4931 35.8534 20.5678 35.8534Z" fill="#3EB27A"/>
<path d="M1.76484 35.7609C1.07642 35.7609 0.515693 35.2002 0.515693 34.5117V32.069C0.515693 31.3787 1.07642 30.8198 1.76484 30.8198H2.62906V31.8136H13.6142L13.6086 31.8339C13.3477 32.5982 13.2181 33.3921 13.2181 34.2008V35.7535L1.76484 35.7609Z" fill="#3EB27A"/>
<path d="M61.971 35.7604V34.2059C61.971 33.399 61.8396 32.6033 61.5787 31.839L61.5731 31.8205H81.6298V30.8267H82.3071C82.9973 30.8267 83.5562 31.3856 83.5562 32.074V34.5168C83.5562 35.2071 82.9973 35.7659 82.3071 35.7659L61.971 35.7604Z" fill="#3EB27A"/>
<path d="M27.856 35.7608V34.2063C27.856 33.3994 27.7264 32.6037 27.4655 31.8394L27.4599 31.8209H47.7294L47.722 31.8394C47.4611 32.6037 47.3315 33.3994 47.3315 34.2063L47.3241 35.7608H27.856Z" fill="#3EB27A"/>
<path opacity="0.2" d="M78.42 28.2415C78.9234 28.2415 79.3324 27.8325 79.3324 27.3273C79.3324 26.824 78.9234 26.415 78.42 26.415C77.9148 26.415 77.5059 26.824 77.5059 27.3273C77.5059 27.8325 77.9148 28.2415 78.42 28.2415Z" fill="#168A52"/>
<path opacity="0.2" d="M5.84138 28.2415C6.34659 28.2415 6.75557 27.8325 6.75557 27.3273C6.75557 26.824 6.34659 26.415 5.84138 26.415C5.33617 26.415 4.92719 26.824 4.92719 27.3273C4.92719 27.8325 5.33617 28.2415 5.84138 28.2415Z" fill="#168A52"/>
<path d="M63.835 35.7611V10.3266C63.835 9.22739 64.7289 8.3317 65.83 8.3317H73.6098C74.7091 8.3317 75.6029 9.22739 75.6029 10.3266V35.7611H63.835Z" fill="white"/>
<path opacity="0.2" d="M75.5789 11.4462C75.5789 10.3581 74.6961 9.47536 73.6098 9.47536H65.83C64.7418 9.47536 63.8591 10.3581 63.8591 11.4462H63.835V10.3266C63.835 9.22739 64.7289 8.3317 65.83 8.3317H73.6098C74.7091 8.3317 75.6029 9.22739 75.6029 10.3266V11.4462H75.5789Z" fill="#2A9E66"/>
<path d="M75.6029 22.252H63.835V25.0112H75.6029V22.252Z" fill="#3EB27A"/>
<path d="M75.6029 34.2433H63.835V35.7608H75.6029V34.2433Z" fill="#3EB27A"/>
<path d="M76.6485 7.50048H82.9183C83.5086 7.50048 83.9805 7.97793 83.9805 8.56271V16.0928C83.9805 16.6831 83.5012 17.155 82.9183 17.155H76.6485" stroke="#3EB27A" stroke-width="4" stroke-linecap="round" stroke-linejoin="round"/>
<path d="M83.39 16.2485C82.7552 16.2485 82.2408 15.734 82.2408 15.0993V9.48831C82.2408 8.85356 82.7552 8.3391 83.39 8.3391H84.5891C85.222 8.3391 85.7384 8.85356 85.7384 9.48831V15.0993C85.7384 15.734 85.222 16.2485 84.5891 16.2485H83.39Z" fill="#3EB27A"/>
<path opacity="0.2" d="M24.5452 11.4462C24.5452 10.3581 23.6625 9.47536 22.5744 9.47536H10.6326C9.54441 9.47536 8.66168 10.3581 8.66168 11.4462H8.63762V10.3266C8.63762 9.22739 9.53146 8.3317 10.6326 8.3317H22.5744C23.6755 8.3317 24.5693 9.22739 24.5693 10.3266V11.4462H24.5452Z" fill="#2A9E66"/>
<path opacity="0.2" d="M6.72916 11.4462C6.72916 10.3581 5.84644 9.47536 4.76014 9.47536H2.62826V9.46426C2.64122 9.09044 2.67823 8.71107 2.7467 8.34466V8.3317H4.76014C5.85939 8.3317 6.75507 9.22739 6.75507 10.3266V11.4462H6.72916Z" fill="#2A9E66"/>
<path d="M78.42 27.6201C78.9234 27.6201 79.3324 27.2111 79.3324 26.7059C79.3324 26.2025 78.9234 25.7935 78.42 25.7935C77.9148 25.7935 77.5059 26.2025 77.5059 26.7059C77.5059 27.2111 77.9148 27.6201 78.42 27.6201Z" fill="#3EB27A"/>
<path opacity="0.2" d="M77.5059 11.3823V10.3256C77.5059 9.4188 78.1202 8.62305 78.9974 8.39357H79.003L79.0085 8.39912C79.2028 8.74148 79.3768 9.09495 79.5322 9.45581L79.5378 9.47431H79.5193C78.2072 9.49282 77.5244 10.4496 77.5244 11.3823H77.5059Z" fill="#2A9E66"/>
<path d="M62.9572 5.27482C62.5167 5.27482 62.1558 4.91582 62.1558 4.47353C62.1558 4.03309 62.5167 3.67222 62.9572 3.67222H64.6726C65.1149 3.67222 65.474 4.03309 65.474 4.47353C65.474 4.91582 65.1149 5.27482 64.6726 5.27482H62.9572Z" fill="white"/>
<path d="M23.3778 5.27482C22.9355 5.27482 22.5746 4.91582 22.5746 4.47353C22.5746 4.03309 22.9355 3.67222 23.3778 3.67222H25.0915C25.5338 3.67222 25.8928 4.03309 25.8928 4.47353C25.8928 4.91582 25.5338 5.27482 25.0915 5.27482H23.3778Z" fill="white"/>
<path d="M63.8479 22.2645V24.9979" stroke="#2A9E66" stroke-width="4" stroke-linecap="round" stroke-linejoin="round"/>
<path d="M69.7497 8.34427V34.1951" stroke="#2A9E66" stroke-width="4" stroke-linecap="round" stroke-linejoin="round"/>
<path d="M75.5915 22.2645V24.9979" stroke="#2A9E66" stroke-width="4" stroke-linecap="round" stroke-linejoin="round"/>
<path d="M63.8479 34.2561H75.5917" stroke="#2A9E66" stroke-width="4" stroke-linecap="round" stroke-linejoin="round"/>
<path d="M81.6186 25.8071V29.908" stroke="#2A9E66" stroke-width="4" stroke-linecap="round" stroke-linejoin="round"/>
<path d="M2.64108 25.8071V29.908" stroke="#2A9E66" stroke-width="4" stroke-linecap="round" stroke-linejoin="round"/>
<path d="M2.01939 31.8332H13.6022" stroke="#2A9E66" stroke-width="4" stroke-linecap="round" stroke-linejoin="round"/>
<path d="M27.4969 31.8332H47.6905" stroke="#2A9E66" stroke-width="4" stroke-linecap="round" stroke-linejoin="round"/>
<path d="M75.5915 31.8332H82.2647" stroke="#2A9E66" stroke-width="4" stroke-linecap="round" stroke-linejoin="round"/>
<path d="M61.6101 31.8332H63.8474" stroke="#2A9E66" stroke-width="4" stroke-linecap="round" stroke-linejoin="round"/>
<path d="M24.2657 2.31742H63.8479" stroke="#2A9E66" stroke-width="4" stroke-linecap="round" stroke-linejoin="round"/>
<path d="M54.2971 15.4471C53.6438 15.4471 53.109 14.9197 53.109 14.2609V11.3832C53.109 10.7318 53.6383 10.197 54.2971 10.197H57.1729C57.8262 10.197 58.361 10.7244 58.361 11.3832V14.2609C58.361 14.9123 57.8317 15.4471 57.1729 15.4471H54.2971Z" fill="white"/>
<path d="M54.6453 11.4959V14.1663" stroke="#2A9E66" stroke-width="4" stroke-linecap="round" stroke-linejoin="round"/>
<path d="M56.1792 11.4086C56.6456 11.4086 57.0175 11.7861 57.0175 12.2469V13.4091C57.0175 13.8754 56.64 14.2474 56.1792 14.2474C55.7129 14.2474 55.3409 13.868 55.3409 13.4091V12.2469C55.3409 11.7861 55.7129 11.4086 56.1792 11.4086Z" stroke="#2A9E66" stroke-width="4" stroke-linecap="round" stroke-linejoin="round"/>
<path opacity="0.2" d="M83.377 16.2481C82.7441 16.2481 82.2408 15.7262 82.2408 15.0933V14.7325C83.6009 14.5086 84.8316 13.6702 85.7143 12.3656L85.7384 12.3286V15.0989C85.7384 15.7336 85.222 16.2481 84.5891 16.2481H83.377Z" fill="#168A52"/>
<path opacity="0.2" d="M63.835 25.0112V22.252H65.0083L65.4562 25.0112H63.835Z" fill="#168A52"/>
<path opacity="0.2" d="M63.835 35.7608V34.2433H66.9348L67.1772 35.7608H63.835Z" fill="#168A52"/>
<path d="M5.84138 27.6201C6.34659 27.6201 6.75557 27.2111 6.75557 26.7059C6.75557 26.2025 6.34659 25.7935 5.84138 25.7935C5.33617 25.7935 4.92719 26.2025 4.92719 26.7059C4.92719 27.2111 5.33617 27.6201 5.84138 27.6201Z" fill="#3EB27A"/>
</svg>
