<svg width="27" height="32" viewBox="0 0 27 32" fill="none" xmlns="http://www.w3.org/2000/svg">
<path d="M16.0873 30.6812L15.8078 27.5309L15.7447 26.8191H15.0301H13.4685C9.9598 26.8191 6.98529 25.5593 4.50172 23.0146C2.01752 20.4692 0.780784 17.4125 0.780784 13.8C0.780784 10.1886 2.02313 7.13231 4.5199 4.58671C7.01581 2.04198 10.0101 0.780784 13.5466 0.780784C15.2963 0.780784 16.9012 1.10219 18.3707 1.73679C19.8503 2.37577 21.1361 3.26909 22.2342 4.41917C23.3323 5.56933 24.1969 6.92969 24.8258 8.50882C25.4493 10.0748 25.7659 11.7956 25.7659 13.68C25.7659 17.1023 24.8268 20.4127 22.9273 23.6222C21.2361 26.4797 18.9599 28.8319 16.0873 30.6812ZM11.4198 8.04736C10.9607 8.3489 10.5876 8.75246 10.2914 9.23711L9.93087 9.08454C10.2646 8.53196 10.6925 8.08173 11.2152 7.72471C11.9375 7.23134 12.7583 6.98076 13.7028 6.98076C14.8695 6.98076 15.7197 7.31532 16.3396 7.91924C16.9692 8.53264 17.2944 9.31126 17.2944 10.32C17.2944 10.9021 17.1751 11.4333 16.941 11.9237C16.7054 12.4176 16.2738 13.0077 15.6035 13.6946C14.8905 14.4252 14.3568 15.0763 14.0788 15.6292C13.8921 16.0005 13.7744 16.4138 13.7138 16.8592H13.3045C13.3434 16.4199 13.4156 16.1106 13.5025 15.9087L12.7853 15.6L13.5025 15.9087C13.6405 15.5882 14.008 15.0711 14.7008 14.3351C15.4449 13.5453 16.0051 12.8424 16.3387 12.2365C16.6775 11.6211 16.8649 10.9793 16.8649 10.32C16.8649 9.47729 16.5627 8.74127 15.9343 8.19206C15.3084 7.64506 14.4924 7.41919 13.5856 7.41919C12.7941 7.41919 12.0638 7.62435 11.4198 8.04736ZM13.4685 25.9807H16.5917V27.6799V29.384L17.8823 28.2713C20.0956 26.363 21.8339 24.1115 23.0914 21.5209C24.3477 18.9327 24.9851 16.3167 24.9851 13.68C24.9851 10.2012 23.9178 7.29175 21.7427 5.02001C19.5699 2.75064 16.818 1.61921 13.5466 1.61921C10.214 1.61921 7.3641 2.81679 5.04336 5.19464C2.72604 7.56898 1.56157 10.4521 1.56157 13.8C1.56157 17.1478 2.72604 20.0309 5.04336 22.4053C7.3613 24.7803 10.184 25.9807 13.4685 25.9807ZM14.0419 22.0946C13.9052 22.2347 13.7564 22.2991 13.5466 22.2991C13.3368 22.2991 13.188 22.2347 13.0513 22.0946C12.9137 21.9536 12.8439 21.7921 12.8439 21.5599C12.8439 21.3278 12.9137 21.1663 13.0513 21.0253C13.188 20.8852 13.3368 20.8207 13.5466 20.8207C13.7564 20.8207 13.9051 20.8852 14.0419 21.0253L14.6007 20.4799L14.0419 21.0253C14.1795 21.1663 14.2493 21.3278 14.2493 21.5599C14.2493 21.7921 14.1795 21.9536 14.0419 22.0946Z" fill="black" stroke="#F9FAFB" stroke-width="1.53154"/>
</svg>
