<svg width="162" height="135" viewBox="0 0 162 135" fill="none" xmlns="http://www.w3.org/2000/svg">
<g filter="url(#filter0_d_142_36143)">
<rect x="4.00198" y="2.00099" width="153.142" height="126.996" rx="18.6667" fill="#F3F4F6"/>
</g>
<path opacity="0.2" d="M51.2228 38.9093H112.15C114.628 38.9093 116.621 40.9151 116.621 43.3938V89.8318C116.621 92.3105 114.614 94.3019 112.15 94.3019H51.2228C48.7441 94.3019 46.7369 92.2961 46.7369 89.8318V43.3938C46.7514 40.9151 48.7441 38.9093 51.2228 38.9093Z" fill="#CECECE"/>
<path d="M49.0098 36.6961H109.937C112.415 36.6961 114.408 38.7018 114.408 41.1806V87.6186C114.408 90.0973 112.401 92.0886 109.937 92.0886H49.0098C46.5311 92.0886 44.5239 90.0829 44.5239 87.6186V41.1806C44.5384 38.7018 46.5311 36.6961 49.0098 36.6961Z" fill="#2A9E66"/>
<path d="M54.4398 42.435H73.6956C74.8319 42.435 75.762 43.3651 75.762 44.5013V44.5893C75.762 45.7255 74.8319 46.6556 73.6956 46.6556H54.4398C53.3036 46.6556 52.3735 45.7255 52.3735 44.5893V44.5013C52.3735 43.3651 53.3036 42.435 54.4398 42.435Z" fill="white"/>
<path d="M101.984 42.435H114.408V46.6556H101.984C100.848 46.6556 99.9175 45.7255 99.9175 44.5893V44.5013C99.9175 43.3651 100.848 42.435 101.984 42.435Z" fill="white"/>
<path d="M70.5977 62.1349H77.0317C78.168 62.1349 79.098 63.065 79.098 64.1998V64.2892C79.098 65.4255 78.168 66.3555 77.0317 66.3555H70.5977C69.4615 66.3555 68.5329 65.4255 68.5329 64.2892V64.1998C68.5329 63.0491 69.4615 62.1349 70.5977 62.1349Z" fill="#F3F4F6"/>
<path d="M64.2523 81.8334H70.6863C71.8225 81.8334 72.7512 82.7634 72.7512 83.8997V83.9876C72.7512 85.1239 71.8225 86.054 70.6863 86.054H64.2523C63.116 86.054 62.186 85.1239 62.186 83.9876V83.8997C62.186 82.749 63.116 81.8334 64.2523 81.8334Z" fill="#F3F4F6"/>
<path d="M78.3002 81.8334H90.7688C91.905 81.8334 92.8351 82.7634 92.8351 83.8997V83.9876C92.8351 85.1239 91.905 86.054 90.7688 86.054H78.3002C77.164 86.054 76.2339 85.1239 76.2339 83.9876V83.8997C76.2339 82.749 77.1496 81.8334 78.3002 81.8334Z" fill="#F3F4F6"/>
<path d="M70.5977 71.9762H92.5702C93.7064 71.9762 94.6351 72.9063 94.6351 74.0425V74.1305C94.6351 75.2667 93.7064 76.1968 92.5702 76.1968H70.5977C69.4615 76.1968 68.5329 75.2667 68.5329 74.1305V74.0425C68.5329 72.9063 69.4615 71.9762 70.5977 71.9762Z" fill="#F3F4F6"/>
<path d="M54.4398 52.2778H73.6956C74.8319 52.2778 75.762 53.2078 75.762 54.3441V54.432C75.762 55.5683 74.8319 56.4984 73.6956 56.4984H54.4398C53.3036 56.4984 52.3735 55.5683 52.3735 54.432V54.3441C52.3735 53.2078 53.3036 52.2778 54.4398 52.2778Z" fill="#F3F4F6"/>
<path d="M83.8777 52.2475H93.6311C94.7673 52.2475 95.6974 53.1775 95.6974 54.3138V54.4032C95.6974 55.5394 94.7673 56.4681 93.6311 56.4681H83.8777C82.7415 56.4681 81.8129 55.5394 81.8129 54.4032V54.3138C81.8129 53.1631 82.7415 52.2475 83.8777 52.2475Z" fill="#F3F4F6"/>
<path d="M49.0098 36.6961H57.3616V92.0886H49.0098C46.5311 92.0886 44.5239 90.0829 44.5239 87.6186V41.1806C44.5239 38.7018 46.5311 36.6961 49.0098 36.6961Z" fill="#2A9E66"/>
<path opacity="0.2" d="M49.0098 36.6961H57.3616V92.0886H49.0098C46.5311 92.0886 44.5239 90.0829 44.5239 87.6186V41.1806C44.5239 38.7018 46.5311 36.6961 49.0098 36.6961Z" fill="#2A9E66"/>
<path d="M114.408 49.3852H57.5089" stroke="#2A9E66" stroke-width="0.576495" stroke-linejoin="round"/>
<path d="M114.408 59.3462H57.5089" stroke="#2A9E66" stroke-width="0.576495" stroke-linejoin="round"/>
<path d="M114.408 69.4542H57.5089" stroke="#2A9E66" stroke-width="0.576495" stroke-linejoin="round"/>
<path d="M114.408 78.9567H57.5089" stroke="#2A9E66" stroke-width="0.576495" stroke-linejoin="round"/>
<path d="M57.3613 36.6961V92.0886" stroke="black" stroke-width="0.576495" stroke-linejoin="round"/>
<path d="M49.5117 44.5459H52.374" stroke="black" stroke-width="0.576495" stroke-linecap="round" stroke-linejoin="round"/>
<path d="M49.5117 54.3584H52.374" stroke="black" stroke-width="0.576495" stroke-linecap="round" stroke-linejoin="round"/>
<path d="M49.5117 64.1711H52.374" stroke="black" stroke-width="0.576495" stroke-linecap="round" stroke-linejoin="round"/>
<path d="M49.5117 74.1306H52.374" stroke="black" stroke-width="0.576495" stroke-linecap="round" stroke-linejoin="round"/>
<path d="M49.5117 83.9445H52.374" stroke="black" stroke-width="0.576495" stroke-linecap="round" stroke-linejoin="round"/>
<defs>
<filter id="filter0_d_142_36143" x="0" y="0" width="161.146" height="135" filterUnits="userSpaceOnUse" color-interpolation-filters="sRGB">
<feFlood flood-opacity="0" result="BackgroundImageFix"/>
<feColorMatrix in="SourceAlpha" type="matrix" values="0 0 0 0 0 0 0 0 0 0 0 0 0 0 0 0 0 0 127 0" result="hardAlpha"/>
<feOffset dy="2"/>
<feGaussianBlur stdDeviation="2"/>
<feComposite in2="hardAlpha" operator="out"/>
<feColorMatrix type="matrix" values="0 0 0 0 0 0 0 0 0 0 0 0 0 0 0 0 0 0 0.14 0"/>
<feBlend mode="normal" in2="BackgroundImageFix" result="effect1_dropShadow_142_36143"/>
<feBlend mode="normal" in="SourceGraphic" in2="effect1_dropShadow_142_36143" result="shape"/>
</filter>
</defs>
</svg>
