<svg width="21" height="22" viewBox="0 0 21 22" fill="none" xmlns="http://www.w3.org/2000/svg">
<path d="M13.7812 0.375C12.859 0.374779 11.9494 0.600889 11.1256 1.03521C10.3017 1.46954 9.58641 2.09999 9.037 2.87607C8.48759 3.65214 8.11934 4.55225 7.96177 5.50426C7.8042 6.45627 7.86169 7.43371 8.12962 8.35825L1.3125 15.5V19.625H5.25L12.0671 12.4832C12.8795 12.7416 13.7355 12.8134 14.5767 12.6938C15.418 12.5742 16.2248 12.2661 16.9421 11.7903C17.6594 11.3145 18.2703 10.6823 18.7333 9.93682C19.1963 9.19131 19.5004 8.35001 19.625 7.47023C19.7495 6.59045 19.6916 5.69288 19.455 4.83869C19.2185 3.9845 18.809 3.19377 18.2544 2.52039C17.6998 1.847 17.0131 1.30678 16.2412 0.936557C15.4693 0.566331 14.6302 0.374794 13.7812 0.375ZM13.7812 11.375C13.3294 11.3747 12.8801 11.3048 12.4478 11.1674L11.695 10.9281L11.1392 11.5104L9.05166 13.6974L8.14669 12.75L7.21875 13.7221L8.12372 14.6702L7.08291 15.7606L6.17794 14.8125L5.25 15.7846L6.15497 16.7327L4.70662 18.25H2.625V16.0692L9.05756 9.33037L9.61406 8.74806L9.38569 7.9595C9.10519 6.99081 9.12342 5.95412 9.43776 4.9969C9.75211 4.03968 10.3466 3.21068 11.1366 2.62782C11.9266 2.04495 12.8719 1.73791 13.8381 1.75036C14.8043 1.76282 15.7422 2.09413 16.5183 2.69718C17.2944 3.30023 17.8692 4.1443 18.161 5.10933C18.4527 6.07436 18.4466 7.11121 18.1434 8.07238C17.8403 9.03355 17.2555 9.8701 16.4724 10.463C15.6892 11.056 14.7475 11.3751 13.7812 11.375Z" fill="#2A9E66"/>
<path d="M14.4375 8.25C15.1624 8.25 15.75 7.63439 15.75 6.875C15.75 6.11561 15.1624 5.5 14.4375 5.5C13.7126 5.5 13.125 6.11561 13.125 6.875C13.125 7.63439 13.7126 8.25 14.4375 8.25Z" fill="#2A9E66"/>
</svg>
