<svg width="24" height="24" viewBox="0 0 24 24" fill="none" xmlns="http://www.w3.org/2000/svg">
<path d="M12 21.75C10.53 21.75 9.18997 20.94 8.50997 19.64L2.40997 8.04999C1.58997 6.49999 1.85997 4.69999 3.07997 3.44999C4.29997 2.19999 6.09997 1.89999 7.65997 2.67999L10.9 4.29999C11.58 4.63999 12.4 4.63999 13.09 4.29999L16.33 2.67999C17.9 1.89999 19.7 2.19999 20.92 3.44999C22.14 4.69999 22.41 6.49999 21.59 8.04999L15.49 19.64C14.81 20.94 13.47 21.75 12 21.75ZM5.87997 3.74999C5.16997 3.74999 4.54997 4.08999 4.14997 4.49999C3.54997 5.11999 3.11997 6.18999 3.72997 7.34999L9.82997 18.94C10.26 19.76 11.07 20.25 11.99 20.25C12.91 20.25 13.72 19.76 14.15 18.94L20.25 7.34999C20.86 6.18999 20.44 5.10999 19.83 4.49999C19.23 3.88999 18.17 3.43999 16.99 4.01999L13.75 5.63999C12.64 6.18999 11.33 6.18999 10.22 5.63999L6.98997 4.01999C6.60997 3.82999 6.22997 3.74999 5.87997 3.74999Z" fill="#FF3236"/>
</svg>
