<svg width="30" height="30" viewBox="0 0 30 30" fill="none" xmlns="http://www.w3.org/2000/svg">
<path d="M18.125 2.49999C18.8537 2.49991 19.5689 2.6958 20.1959 3.06716C20.8228 3.43851 21.3383 3.97166 21.6884 4.61072C22.0385 5.24978 22.2102 5.97124 22.1857 6.69949C22.1611 7.42774 21.9411 8.13598 21.5487 8.74999H24.6875C25.55 8.74999 26.25 9.44999 26.25 10.3125V14.6875C26.2501 15.0477 26.1257 15.3969 25.8979 15.6759C25.6701 15.9549 25.3529 16.1467 25 16.2187V23.4375C25.0001 24.4752 24.6031 25.4735 23.8904 26.2278C23.1778 26.982 22.2035 27.435 21.1675 27.4937L20.9375 27.5H9.0625C8.02483 27.5001 7.02646 27.103 6.27221 26.3904C5.51796 25.6778 5.065 24.7035 5.00625 23.6675L5 23.4375V16.2187C4.2875 16.0737 3.75 15.4437 3.75 14.6875V10.3125C3.75 9.44999 4.45 8.74999 5.3125 8.74999H8.45125C7.89053 7.87881 7.68383 6.82632 7.87344 5.80778C8.06305 4.78925 8.63464 3.88164 9.47129 3.27059C10.3079 2.65955 11.3464 2.39124 12.3744 2.52055C13.4023 2.64986 14.342 3.16702 15.0013 3.96624C15.3818 3.50688 15.8592 3.13725 16.3991 2.88378C16.9391 2.63031 17.5285 2.49926 18.125 2.49999ZM14.0625 16.2487H6.875V23.4375C6.87502 23.9865 7.08146 24.5154 7.45335 24.9192C7.82524 25.3231 8.33537 25.5723 8.8825 25.6175L9.0625 25.625H14.0625V16.2487ZM23.125 16.2487H15.9375V25.625H20.9375C21.4867 25.6249 22.0158 25.4183 22.4196 25.0462C22.8235 24.674 23.0726 24.1636 23.1175 23.6162L23.125 23.4375V16.2487ZM14.0625 10.625H5.625V14.375L14.0625 14.3737V10.625ZM24.375 14.375V10.625H15.9375V14.3737L24.375 14.375ZM18.125 4.37499C17.5448 4.37499 16.9884 4.60546 16.5782 5.0157C16.168 5.42593 15.9375 5.98233 15.9375 6.56249V8.74874H18.155L18.305 8.74249C18.8675 8.6958 19.3901 8.43351 19.7637 8.01046C20.1373 7.58741 20.3329 7.03633 20.3097 6.47241C20.2864 5.9085 20.0461 5.37539 19.639 4.98451C19.2319 4.59363 18.6894 4.37525 18.125 4.37499ZM11.875 4.37499C11.3106 4.37525 10.7681 4.59363 10.361 4.98451C9.95388 5.37539 9.71358 5.9085 9.69034 6.47241C9.6671 7.03633 9.86272 7.58741 10.2363 8.01046C10.6099 8.43351 11.1325 8.6958 11.695 8.74249L11.845 8.74874H14.0625V6.56249L14.055 6.38249C14.0098 5.83537 13.7606 5.32523 13.3567 4.95334C12.9529 4.58146 12.424 4.37501 11.875 4.37499Z" fill="#F3F4F6"/>
</svg>
