<svg width="29" height="29" viewBox="0 0 29 29" fill="none" xmlns="http://www.w3.org/2000/svg">
<path d="M16.1916 21.0493H13.1587C11.177 21.0493 9.56994 19.3818 9.56994 17.3276C9.56994 16.8322 9.98078 16.4213 10.4762 16.4213C10.9716 16.4213 11.3824 16.8322 11.3824 17.3276C11.3824 18.3788 12.1799 19.2368 13.1587 19.2368H16.1916C16.977 19.2368 17.6295 18.5359 17.6295 17.6901C17.6295 16.6388 17.2549 16.4334 16.6387 16.2159L11.7691 14.5001C10.8266 14.1738 9.55786 13.473 9.55786 11.3101C9.55786 9.44926 11.0199 7.95093 12.8083 7.95093H15.8412C17.8229 7.95093 19.4299 9.61843 19.4299 11.6726C19.4299 12.168 19.0191 12.5788 18.5237 12.5788C18.0283 12.5788 17.6174 12.168 17.6174 11.6726C17.6174 10.6213 16.8199 9.76343 15.8412 9.76343H12.8083C12.0229 9.76343 11.3704 10.4643 11.3704 11.3101C11.3704 12.3613 11.7449 12.5668 12.3612 12.7843L17.2308 14.5001C18.1733 14.8263 19.442 15.5272 19.442 17.6901C19.4299 19.5388 17.9799 21.0493 16.1916 21.0493Z" fill="#505050"/>
<path d="M14.5 22.6562C14.0046 22.6562 13.5938 22.2454 13.5938 21.75V7.25C13.5938 6.75458 14.0046 6.34375 14.5 6.34375C14.9954 6.34375 15.4062 6.75458 15.4062 7.25V21.75C15.4062 22.2454 14.9954 22.6562 14.5 22.6562Z" fill="#505050"/>
</svg>
