<svg width="375" height="824" viewBox="0 0 375 824" fill="none" xmlns="http://www.w3.org/2000/svg">
<path d="M0 0H375V213.482C210.47 215.012 127.83 212.577 0 213.482V0Z" fill="#2A9E66"/>
<g opacity="0.7">
<g opacity="0.15">
<path d="M169.95 89.9429V89.9217C169.95 88.0703 171.453 86.5557 173.303 86.5557C175.152 86.5557 176.664 88.0703 176.664 89.9217V89.9429H169.95Z" fill="#EFDCD7"/>
<path d="M37.7368 82.6567V82.6344C37.7368 80.7947 39.2383 79.2801 41.0881 79.2695C42.9379 79.2695 44.4499 80.7829 44.4499 82.6344V82.6567H37.7368Z" fill="#EFDCD7"/>
<path d="M121.748 93.7429V93.7217C121.748 92.1423 123.031 90.8574 124.609 90.8574C126.187 90.8574 127.471 92.1423 127.471 93.7217V93.7429H121.748Z" fill="#EFDCD7"/>
<path d="M169.737 20.357V20.3452C169.622 20.0331 169.563 19.6975 169.563 19.3394C169.563 17.6859 170.915 16.3338 172.567 16.3338C172.937 16.3338 173.284 16.4021 173.618 16.5187C174.496 14.3104 176.668 12.8418 179.025 12.8418C181.15 12.8418 183.102 13.9983 184.131 15.871C184.534 15.732 184.939 15.6625 185.32 15.6625C187.342 15.6625 188.994 17.3161 188.994 19.3394C188.994 19.6869 188.947 20.0331 188.855 20.3452V20.357H169.737Z" fill="white"/>
<path d="M34.3736 13.5469L34.3619 13.5352C34.3501 13.5116 34.3501 13.4775 34.3501 13.4421C34.3501 11.0372 36.3023 9.08328 38.7051 9.08328C39.1205 9.08328 39.5253 9.14099 39.8947 9.25759C40.9232 7.76538 42.5976 6.875 44.4004 6.875C47.4033 6.875 49.8521 9.32707 49.8521 12.3327C49.8521 12.7261 49.8062 13.13 49.725 13.5234V13.5469H34.3736Z" fill="white"/>
<path d="M142.409 72.409V50.2344H177.728L178.809 65.8042H168.31L156.468 72.409H142.409Z" fill="#221E29" fill-opacity="0.68"/>
<path d="M101.474 50.2617H69.3125V65.8316H101.474V50.2617Z" fill="#221E29" fill-opacity="0.68"/>
<path d="M180.305 54.8761C182.58 54.8761 184.424 53.0305 184.424 50.754C184.424 48.4774 182.58 46.6318 180.305 46.6318C178.031 46.6318 176.187 48.4774 176.187 50.754C176.187 53.0305 178.031 54.8761 180.305 54.8761Z" fill="white"/>
<path d="M46.6986 53.8917C48.9731 53.8917 50.817 52.0462 50.817 49.7696C50.817 47.493 48.9731 45.6475 46.6986 45.6475C44.424 45.6475 42.5801 47.493 42.5801 49.7696C42.5801 52.0462 44.424 53.8917 46.6986 53.8917Z" fill="white"/>
<path d="M180.918 48.02C180.928 44.5421 178.449 41.5907 175.018 40.9995L153.137 37.2283L150.001 17.3055L50.8501 17.2949L46.6328 37.425V65.8429H72.0003V65.8205C72.6557 62.8573 74.316 60.1791 76.6753 58.2547C79.0676 56.3078 82.0941 55.2361 85.1971 55.2361C88.2883 55.2361 91.3148 56.3078 93.7176 58.2547C96.0769 60.1791 97.7384 62.8573 98.3938 65.8205V65.8429H113.72L120.625 72.4465H149.455V68.7731C149.455 61.305 155.518 55.2361 162.98 55.2361C166.071 55.2361 169.098 56.3078 171.5 58.2547C172.309 58.9107 173.03 59.6644 173.663 60.4853H180.918V48.02Z" fill="white"/>
<path d="M180.917 54.8325V48.0204C180.917 47.5505 180.874 47.0794 180.786 46.6318" stroke="#838383" stroke-width="2.08297" stroke-linecap="round" stroke-linejoin="round"/>
<path d="M176.176 65.8436V65.8212C175.399 62.6943 173.619 59.8076 170.975 57.8502L170.921 57.8066H182.294C183.473 57.8066 184.424 58.7689 184.424 59.9501V63.7001C184.424 64.8814 183.473 65.8318 182.294 65.8318H176.176V65.8436Z" fill="#221E29" fill-opacity="0.68"/>
<path d="M44.7099 65.831C43.5309 65.831 42.5801 64.8805 42.5801 63.6993V59.9493C42.5801 58.768 43.5309 57.8164 44.7099 57.8164H52.7504C53.3293 57.8164 53.8647 58.0461 54.2695 58.4512C54.6625 58.8552 54.8814 59.3805 54.8814 59.9375V65.831H44.7099Z" fill="#221E29" fill-opacity="0.68"/>
<path d="M75.8011 8.65619C74.895 8.65619 74.1631 7.92363 74.1631 7.01677V4.78611C74.1631 3.87807 74.895 3.14551 75.8011 3.14551H88.1894C89.0967 3.14551 89.8286 3.87807 89.8286 4.78611V7.01677C89.8286 7.92363 89.0967 8.65619 88.1894 8.65619H75.8011Z" fill="#221E29" fill-opacity="0.68"/>
<path d="M121.455 8.65619C120.549 8.65619 119.817 7.92363 119.817 7.01677V4.78611C119.817 3.87807 120.549 3.14551 121.455 3.14551H133.843C134.75 3.14551 135.482 3.87807 135.482 4.78611V7.01677C135.482 7.92363 134.75 8.65619 133.843 8.65619H121.455Z" fill="#221E29" fill-opacity="0.68"/>
<path d="M156.534 35.8175C155.626 35.8175 154.895 35.085 154.895 34.1769V25.7136C154.895 24.8068 155.626 24.0742 156.534 24.0742H158.762C159.668 24.0742 160.4 24.8068 160.4 25.7136V34.1769C160.4 35.085 159.668 35.8175 158.762 35.8175H156.534Z" fill="#221E29" fill-opacity="0.68"/>
<path d="M162.99 79.0727C168.674 79.0727 173.281 74.4618 173.281 68.7732C173.281 63.0847 168.674 58.4727 162.99 58.4727C157.307 58.4727 152.699 63.0847 152.699 68.7732C152.699 74.4618 157.307 79.0727 162.99 79.0727Z" fill="#CECDCE"/>
<path d="M162.99 71.7474C164.631 71.7474 165.961 70.4154 165.961 68.7736C165.961 67.1307 164.631 65.7998 162.99 65.7998C161.349 65.7998 160.019 67.1307 160.019 68.7736C160.019 70.4154 161.349 71.7474 162.99 71.7474Z" fill="#221E29" fill-opacity="0.68"/>
<path d="M85.2075 79.0727C90.891 79.0727 95.4978 74.4618 95.4978 68.7732C95.4978 63.0847 90.891 58.4727 85.2075 58.4727C79.524 58.4727 74.916 63.0847 74.916 68.7732C74.916 74.4618 79.524 79.0727 85.2075 79.0727Z" fill="#CECDCE"/>
<path d="M85.2075 71.7474C86.8478 71.7474 88.1787 70.4154 88.1787 68.7736C88.1787 67.1307 86.8478 65.7998 85.2075 65.7998C83.566 65.7998 82.2363 67.1307 82.2363 68.7736C82.2363 70.4154 83.566 71.7474 85.2075 71.7474Z" fill="#221E29" fill-opacity="0.68"/>
<path d="M123.324 68.4445V24.3248C123.324 22.3133 124.951 20.6738 126.961 20.6738H142.322C144.331 20.6738 145.969 22.3133 145.969 24.3248V68.4445H123.324Z" fill="#CECDCE"/>
<path opacity="0.2" d="M145.926 26.075C145.926 24.0846 144.309 22.4664 142.322 22.4664H126.961C124.984 22.4664 123.367 24.0846 123.367 26.075H123.324V24.3248C123.324 22.3133 124.951 20.6738 126.961 20.6738H142.322C144.331 20.6738 145.969 22.3133 145.969 24.3248V26.075H145.926Z" fill="#868686"/>
<path d="M104.15 33.9035C102.14 33.9035 100.501 32.2641 100.501 30.2513V24.3248C100.501 22.3133 102.14 20.6738 104.15 20.6738H116.211C118.221 20.6738 119.86 22.3133 119.86 24.3248V30.2513C119.86 32.2641 118.221 33.9035 116.211 33.9035H104.15Z" fill="#CECDCE"/>
<path opacity="0.2" d="M119.817 26.075C119.817 24.0846 118.2 22.4664 116.211 22.4664H104.15C102.162 22.4664 100.546 24.0846 100.546 26.075H100.501V24.3248C100.501 22.3133 102.14 20.6738 104.15 20.6738H116.211C118.221 20.6738 119.86 22.3133 119.86 24.3248V26.075H119.817Z" fill="#868686"/>
<path d="M81.3184 33.9035C79.3086 33.9035 77.6694 32.2641 77.6694 30.2513V24.3248C77.68 22.3133 79.3192 20.6738 81.3184 20.6738H93.3785C95.3895 20.6738 97.0275 22.3133 97.0275 24.3248V30.2513C97.0275 32.2641 95.3895 33.9035 93.3785 33.9035H81.3184Z" fill="#CECDCE"/>
<path d="M58.4976 33.9035C56.4866 33.9035 54.8486 32.2641 54.8486 30.2513V24.3248C54.8486 22.3133 56.4866 20.6738 58.4976 20.6738H70.5577C72.5675 20.6738 74.2067 22.3133 74.2067 24.3248V30.2513C74.2067 32.2641 72.5675 33.9035 70.5577 33.9035H58.4976Z" fill="#CECDCE"/>
<path d="M145.969 42.6729H123.324V46.4346H145.969V42.6729Z" fill="#221E29" fill-opacity="0.68"/>
<path d="M145.969 65.7998H123.324V72.447H145.969V65.7998Z" fill="#221E29" fill-opacity="0.68"/>
<path d="M123.345 47.834H46.6328V51.5957H123.345V47.834Z" fill="#221E29" fill-opacity="0.68"/>
<path opacity="0.2" d="M169.512 51.9334C168.474 51.9334 167.632 51.0925 167.632 50.0537C167.632 49.0149 168.474 48.1729 169.512 48.1729H173.39C174.428 48.1729 175.269 49.0149 175.269 50.0537C175.269 50.5448 175.083 51.0159 174.734 51.3763C174.374 51.7367 173.903 51.9334 173.39 51.9334H169.512Z" fill="#838383"/>
<path d="M123.345 37.4248H46.6328V41.1854H123.345V37.4248Z" fill="#221E29" fill-opacity="0.68"/>
<path d="M50.8604 17.3283L51.7346 13.1732C52.576 9.13825 56.1697 6.20801 60.2987 6.20801H152.142C153.31 6.20801 154.392 6.73328 155.136 7.64015C155.867 8.54819 156.151 9.7283 155.911 10.866L154.512 17.3495L50.8604 17.3283Z" fill="white"/>
<path opacity="0.2" d="M50.8604 17.3281L51.7346 13.1401L51.7558 13.1507C51.7782 13.1613 53.4821 13.7089 58.9232 14.2554C63.9477 14.7583 73.2778 15.3601 89.1728 15.3601C101.867 15.3601 120.865 14.9656 139.229 13.0965C150.209 11.9812 155.824 10.8435 155.878 10.8329L155.911 10.8223L154.501 17.3387L50.8604 17.3281Z" fill="#838383"/>
<path d="M53.5259 56.2747C52.4998 56.4066 51.6255 55.5315 51.7561 54.5034C51.8444 53.8038 52.4116 53.2349 53.1117 53.1478C54.1378 53.017 55.0121 53.8909 54.8815 54.9191C54.7932 55.6187 54.226 56.1875 53.5259 56.2747Z" fill="white"/>
<path d="M50.8828 17.3164L149.99 17.3282" stroke="#838383" stroke-width="2.08297" stroke-linecap="round" stroke-linejoin="round"/>
<path d="M148.93 20.0615H154.851C156.391 20.0615 157.648 21.3182 157.648 22.8599V37.0423C157.648 38.584 156.391 39.8406 154.851 39.8406H148.93" stroke="#221E29" stroke-opacity="0.68" stroke-width="2.08297" stroke-linecap="round" stroke-linejoin="round"/>
<path d="M134.641 20.6953V72.3702" stroke="#868686" stroke-width="2.08297" stroke-linecap="round" stroke-linejoin="round"/>
<path opacity="0.2" d="M96.9839 26.075C96.9839 24.0846 95.3671 22.4664 93.3785 22.4664H81.3184C79.3298 22.4664 77.713 24.0846 77.713 26.075H77.6694V24.3248C77.6694 22.3133 79.3086 20.6738 81.3184 20.6738H93.3785C95.3895 20.6738 97.0275 22.3133 97.0275 24.3248V26.075H96.9839Z" fill="#868686"/>
<path opacity="0.2" d="M74.1631 26.075C74.1631 24.0846 72.5463 22.4664 70.5577 22.4664H58.4976C56.509 22.4664 54.8922 24.0846 54.8922 26.075H54.8486V24.3248C54.8486 22.3133 56.4866 20.6738 58.4976 20.6738H70.5577C72.5675 20.6738 74.2067 22.3133 74.2067 24.3248V26.075H74.1631Z" fill="#868686"/>
<path d="M169.512 50.3924C168.529 50.3924 167.721 49.628 167.644 48.6658C167.557 47.5505 168.463 46.6318 169.578 46.6318H173.39C174.428 46.6318 175.27 47.4739 175.27 48.5127C175.27 49.0038 175.084 49.4749 174.734 49.8353C174.374 50.1957 173.903 50.3924 173.39 50.3924H169.512Z" fill="white"/>
<path d="M46.6113 45.6475V53.8917" stroke="#838383" stroke-width="2.08297" stroke-linecap="round" stroke-linejoin="round"/>
<path d="M149.669 56.6553H147.057V101.989H149.669V56.6553Z" fill="#475139"/>
<path opacity="0.2" d="M148.363 60.5532C147.931 60.5532 147.499 60.5297 147.08 60.4826H147.057V56.7715H149.669V60.4826H149.645C149.225 60.5297 148.793 60.5532 148.363 60.5532Z" fill="black"/>
<path d="M157.241 54.6531C162.147 49.7431 162.147 41.7839 157.241 36.875C152.336 31.9661 144.384 31.9661 139.48 36.875C134.575 41.7839 134.575 49.7431 139.48 54.6531C144.384 59.562 152.336 59.562 157.241 54.6531Z" fill="white"/>
<path d="M149.646 58.4756C149.226 58.5215 148.794 58.5451 148.363 58.5451C147.931 58.5451 147.499 58.5215 147.081 58.4756" stroke="black" stroke-width="2.08297" stroke-linecap="round" stroke-linejoin="round"/>
<path d="M144.736 52.6624C144.117 52.6624 143.616 52.1606 143.616 51.5423V47.8183C143.616 47.2 144.117 46.6982 144.736 46.6982C145.354 46.6982 145.855 47.2 145.855 47.8183V51.5423C145.855 52.1606 145.354 52.6624 144.736 52.6624Z" fill="#AFC2CB"/>
<path d="M152.118 52.6624C151.5 52.6624 150.998 52.1606 150.998 51.5423V47.8183C150.998 47.2 151.5 46.6982 152.118 46.6982C152.736 46.6982 153.237 47.2 153.237 47.8183V51.5423C153.237 52.1606 152.736 52.6624 152.118 52.6624Z" fill="#AFC2CB"/>
<path d="M143.604 45.4501V42.1229C143.604 40.4305 144.981 39.0537 146.672 39.0537H150.17C151.861 39.0537 153.237 40.4305 153.237 42.1229V45.4501H143.604Z" fill="#475139"/>
<path d="M153.237 45.3916H143.604V50.4347H153.237V45.3916Z" fill="#AFC2CB"/>
<path d="M146.053 48.8588C145.482 48.8588 145.015 48.3912 145.015 47.82C145.015 47.2476 145.482 46.7812 146.053 46.7812C146.625 46.7812 147.091 47.2476 147.091 47.82C147.091 48.3912 146.625 48.8588 146.053 48.8588Z" fill="#0F445D"/>
<path d="M150.695 48.8588C150.123 48.8588 149.657 48.3912 149.657 47.82C149.657 47.2476 150.123 46.7812 150.695 46.7812C151.266 46.7812 151.733 47.2476 151.733 47.82C151.733 48.3912 151.266 48.8588 150.695 48.8588Z" fill="#0F445D"/>
<path d="M143.628 45.415H153.213" stroke="#0F445D" stroke-width="2.08297" stroke-linecap="round" stroke-linejoin="round"/>
<path d="M143.628 50.4111H145.832" stroke="#0F445D" stroke-width="2.08297" stroke-linecap="round" stroke-linejoin="round"/>
<path d="M151.009 50.4111H153.213" stroke="#0F445D" stroke-width="2.08297" stroke-linecap="round" stroke-linejoin="round"/>
<path d="M155.284 102V101.976C155.284 98.6434 158.002 95.9346 161.332 95.9346C164.663 95.9346 167.369 98.6434 167.369 101.976V102H155.284Z" fill="#221E29" fill-opacity="0.68"/>
<path opacity="0.2" d="M155.284 102V101.976C155.284 99.4795 156.79 97.2771 159.108 96.3585L159.132 96.3467L159.144 96.3702C159.709 98.2193 160.838 98.7611 161.838 99.2322C162.168 99.3853 162.474 99.5384 162.756 99.7268C164.286 100.763 164.168 101.965 164.168 101.976V102H155.284Z" fill="black"/>
<path d="M154.507 97.8066C155.213 97.1942 156.014 96.5582 157.014 95.7691C161.897 91.965 166.58 89.1973 168.157 89.1973C168.392 89.1973 168.545 89.2562 168.64 89.3739C168.71 89.4681 168.734 89.5977 168.722 89.7508C168.545 91.1877 164.709 95.1096 159.602 99.0903C158.791 99.7263 157.955 100.362 157.108 100.963L157.084 100.975L154.507 97.8066Z" fill="#AFC2CB"/>
<path opacity="0.2" d="M154.507 97.8067C155.213 97.1942 156.014 96.5582 157.014 95.7691C157.12 95.6867 157.226 95.6043 157.331 95.5218C157.567 95.3334 157.814 95.1449 158.061 94.9683L158.073 94.9565H158.085C158.708 95.1567 159.461 95.2509 160.25 95.2509C161.815 95.2509 163.568 94.8505 165.321 94.085L165.357 94.1203C163.756 95.6867 161.768 97.4062 159.602 99.0786C158.791 99.7146 157.955 100.351 157.108 100.951L157.084 100.963L154.507 97.8067Z" fill="#757575"/>
<path d="M151.13 96.2638V96.2402C151.13 96.2049 151.13 96.1813 151.142 96.146C151.142 96.1225 151.142 96.0871 151.142 96.0636C151.636 90.8933 152.848 86.8418 153.907 86.8418C153.919 86.8418 153.931 86.8418 153.943 86.8418C154.99 86.936 155.437 91.0699 154.978 96.2402V96.2638H151.13Z" fill="#AFC2CB"/>
<path opacity="0.2" d="M151.13 96.2646V96.2411C151.13 96.2057 151.13 96.1822 151.142 96.1468C151.142 96.1233 151.142 96.0879 151.142 96.0644C151.342 93.8031 151.73 91.5536 152.225 89.8105H152.272C152.719 91.7656 154.084 92.6725 155.143 93.0965H155.155V93.1082C155.131 94.0976 155.072 95.1457 154.978 96.2293V96.2528L151.13 96.2646Z" fill="#757575"/>
<path d="M142.458 102V101.976C142.458 97.1825 146.365 93.2842 151.154 93.2842C155.943 93.2842 159.838 97.1825 159.838 101.976V102H142.458Z" fill="#221E29" fill-opacity="0.68"/>
<path opacity="0.2" d="M142.458 102V101.976C142.458 99.9504 143.164 97.9835 144.458 96.4407L144.494 96.3936V96.4642C144.529 98.5371 145.553 99.4793 148.153 99.8208C150.754 100.162 150.93 101.953 150.93 101.976V102H142.458Z" fill="black"/>
<path d="M159.815 101.953C159.815 101.022 159.662 100.127 159.391 99.291" stroke="black" stroke-width="2.08297" stroke-linecap="round" stroke-linejoin="round"/>
<path d="M158.332 88.7266C157.155 91.1763 155.496 96.3466 155.143 98.5843" stroke="#636363" stroke-width="2.08297" stroke-linecap="round" stroke-linejoin="round"/>
<path d="M160.568 89.6096C159.768 89.6096 158.944 89.4093 158.167 89.0207C157.132 88.5142 156.308 87.7252 155.849 86.8301C155.39 85.9232 155.343 85.0046 155.72 84.239C156.191 83.285 157.273 82.7197 158.615 82.7197C159.415 82.7197 160.238 82.9199 161.015 83.3086C162.051 83.815 162.874 84.6041 163.333 85.4992C163.792 86.4061 163.839 87.3247 163.463 88.0903C162.98 89.0442 161.909 89.6096 160.568 89.6096Z" fill="white"/>
<path d="M159.697 86.5833C159.603 86.5833 159.509 86.5597 159.414 86.5126C159.297 86.4537 159.191 86.3595 159.144 86.2535C159.085 86.1475 159.085 86.0297 159.132 85.9355C159.191 85.8177 159.32 85.7471 159.485 85.7471C159.579 85.7471 159.673 85.7706 159.768 85.8177C160.026 85.9473 160.156 86.2064 160.062 86.3948C159.991 86.5126 159.862 86.5833 159.697 86.5833Z" fill="#636363"/>
<path d="M91.9331 97.3527C92.0637 95.7663 92.2402 94.6769 92.6074 93.3507C92.6074 93.339 92.6191 93.3272 92.6309 93.3272C92.8556 93.2565 94.9137 92.6759 97.1142 92.6877C97.7884 92.6995 100.309 93.2683 100.651 93.339C100.675 93.339 100.687 93.3625 100.675 93.3861C100.391 94.1092 100.237 94.5591 100.061 95.0326C100.061 95.0443 100.048 95.0561 100.024 95.0561L98.1438 95.0797C97.4578 95.0797 97.1859 95.7192 96.9729 96.394L96.5234 97.6613C96.5234 97.6731 96.4999 97.6849 96.487 97.6849L91.9331 97.3527Z" fill="#CF5934"/>
<path d="M102.911 97.3057C102.734 96.1338 102.604 94.8666 102.533 93.3861C102.533 93.3744 102.533 93.3626 102.545 93.3508C102.746 93.233 104.709 92.1436 106.638 92.1318C108.531 92.1318 110.399 93.1859 110.589 93.3037C110.601 93.3037 110.601 93.3155 110.601 93.3273C110.612 94.061 110.683 94.4873 110.731 94.9372C110.731 94.949 110.731 94.949 110.72 94.962L108.471 98.0995C108.459 98.1113 108.447 98.1113 108.436 98.1113C108.093 98.0394 103.503 97.3646 103.162 97.361C102.923 97.3292 102.911 97.3175 102.954 97.5671L102.911 97.3057Z" fill="#CF5934"/>
<path d="M98.9361 58.8374C98.9243 58.8374 98.9243 58.8256 98.9243 58.8138V53.5681C98.9243 51.9581 99.8233 49.8029 102.072 48.5132C102.77 48.1104 102.77 47.7783 103.739 47.7783C106.188 47.7783 107.56 48.5721 108.033 49.7558C108.105 49.9454 108.187 50.2174 108.306 50.6556C108.507 51.4258 108.732 52.5034 108.779 53.0122C108.779 53.024 108.791 53.0358 108.803 53.0358C109.666 53.4386 109.69 53.912 108.85 54.3619V54.4208C109.063 56.7893 108.33 58.4817 105.514 58.1154C105.49 58.1154 105.479 58.1272 105.479 58.1508C105.479 58.2815 105.479 58.7184 105.479 58.802C105.479 58.8138 105.479 58.8256 105.467 58.8256C105.313 58.9446 103.81 60.0092 102.273 59.9975C100.711 59.9975 99.1138 58.9316 98.9361 58.8374Z" fill="#CF5934"/>
<path opacity="0.2" d="M103.798 57.4632C104.639 57.9367 105.301 58.091 105.455 58.1028C105.467 58.1028 105.479 58.1145 105.479 58.1381C105.479 58.2924 105.479 58.9908 105.479 59.2393C105.479 59.2746 105.443 59.2864 105.42 59.2629L103.751 57.5221C103.728 57.4868 103.763 57.4515 103.798 57.4632Z" fill="#030202"/>
<path d="M110.566 90.2841C110.554 88.8284 110.542 87.1831 110.47 85.2528C110.222 78.5031 108.531 72.8205 108.412 72.4177C108.412 72.4059 108.4 72.3941 108.377 72.3941C106.307 72.3588 98.8068 72.3941 96.8664 72.3823C96.8546 72.3823 96.8428 72.3941 96.8311 72.4059C94.8083 77.2488 95.6367 81.9845 94.8436 86.6143C94.4059 88.9226 93.2233 91.1132 92.6196 93.3039C92.6196 93.3274 92.6314 93.351 92.6549 93.351C93.2821 93.351 100.226 93.3745 100.664 93.3745C100.675 93.3745 100.687 93.3628 100.699 93.351C101.303 91.7763 101.953 89.9885 102.367 88.2961C102.379 88.2596 102.426 88.2596 102.438 88.3079C102.485 89.0063 102.51 89.74 102.485 90.5574C102.462 91.6468 102.498 92.7115 102.533 93.351C102.533 93.3745 102.545 93.3863 102.569 93.3863C103.112 93.3863 110.044 93.3392 110.577 93.3392C110.601 93.3392 110.613 93.3274 110.613 93.3039C110.589 92.4041 110.577 91.4454 110.566 90.2841Z" fill="#475139"/>
<path opacity="0.2" d="M102.426 88.1422L102.225 86.5205L101.279 82.4466L100.19 78.6931C100.19 78.6931 100.309 77.9712 100.888 77.8887C100.972 77.877 101.054 77.877 101.125 77.877C101.504 77.877 101.823 78.0183 102.084 78.2915C103.065 79.3209 103.065 81.9967 102.983 83.927C102.864 87.041 103.077 86.3191 102.426 88.1422Z" fill="black"/>
<path d="M100.202 78.7881C100.912 81.736 102.072 84.4354 102.403 88.2595" stroke="black" stroke-width="2.08297" stroke-linecap="round" stroke-linejoin="round"/>
<path d="M114.623 62.8273C114.611 62.8155 114.611 62.8038 114.611 62.7802C116.125 59.9383 117.912 56.6112 117.757 59.1563C117.757 59.2046 117.816 59.2281 117.841 59.181C118.314 58.399 119.248 57.1553 119.852 57.1553C119.981 57.1553 120.077 57.2153 120.159 57.3096C120.171 57.3331 120.194 57.3331 120.218 57.3213C120.585 57.1199 120.999 57.0611 121.105 57.7948C121.105 57.8183 121.117 57.8301 121.14 57.8301C121.578 57.9373 121.638 58.399 121.46 58.9313C121.46 58.9443 121.46 58.9561 121.46 58.9678C122.182 59.8193 120.159 64.011 119.473 65.7988C119.473 65.8105 119.461 65.8223 119.438 65.8223C118.242 65.787 114.93 63.064 114.623 62.8273Z" fill="#CF5934"/>
<path d="M94.0751 73.5544C93.0808 73.5544 92.3242 73.1764 91.8147 72.4179C89.7448 69.3392 93.8974 63.0053 95.4354 61.5013C97.2216 59.7606 98.6055 59.5357 98.889 59.5121C98.9008 59.5121 98.9126 59.5003 98.9126 59.4768V58.8019C98.9126 58.7784 98.9243 58.7666 98.9491 58.7666H105.443C105.467 58.7666 105.479 58.7784 105.479 58.8019V59.4768C105.479 59.4886 105.49 59.5121 105.502 59.5121C105.893 59.5592 108.496 59.9385 110.021 61.6438C111.476 63.2892 112.86 64.9592 113.144 65.3019C113.157 65.3255 113.192 65.3137 113.204 65.3019C113.357 65.0181 113.996 63.8097 114.67 62.6732C114.682 62.6614 114.705 62.6496 114.718 62.6614C115.096 62.9099 119.094 65.5858 119.438 65.8107C119.45 65.8225 119.461 65.8343 119.45 65.8472C118.479 68.0249 117.024 70.7726 115.475 71.5299C112.624 73.0103 110.14 70.7007 109.37 69.5053C109.358 69.4818 109.323 69.4818 109.311 69.5171C109.182 69.9317 108.496 72.1105 108.412 72.359C108.412 72.3708 108.4 72.3826 108.377 72.3826L97.5758 72.4297C97.5641 72.4297 97.5641 72.4297 97.5641 72.4297C97.3993 72.5368 95.6955 73.5544 94.0751 73.5544Z" fill="#AFC2CB"/>
<path d="M98.9608 57.0133C98.9361 57.0133 98.9244 57.0015 98.9244 56.978C98.9126 56.7766 98.9126 55.8285 98.9126 54.9888C99.3115 54.3174 99.3503 53.7922 99.4221 53.5872C100.005 51.9549 100.699 50.796 101.693 48.749C102.391 48.3463 102.758 47.7656 103.728 47.7656C106.52 47.8245 107.785 48.6183 108.211 50.3473C108.211 50.359 108.211 50.359 108.211 50.3708C108.14 50.6193 106.933 50.9267 106.2 50.7383C106.129 50.75 105.952 50.6193 105.94 50.7135C105.94 52.0279 105.123 52.7628 104.97 52.8924C104.959 52.9041 104.934 52.9041 104.922 52.8924C104.781 52.7275 103.917 51.7323 102.77 51.7323C102 51.7205 101.232 52.4542 101.244 53.2481C101.173 54.0772 102.201 55.4269 102.438 55.6518C102.45 55.6636 102.45 55.6872 102.438 55.6989C101.586 56.8472 99.1974 56.9898 98.9608 57.0133Z" fill="#010005"/>
<path d="M91.9334 97.3877C91.9334 97.3759 91.9452 97.3524 91.9687 97.3524L96.2272 97.3406C96.239 97.3406 96.2508 97.3288 96.2625 97.3171L96.6061 96.1923C96.8191 95.4939 97.4581 95.0322 98.1794 95.0322L100.013 95.0676C100.036 95.0676 100.048 95.0911 100.036 95.1264C99.1137 97.6492 99.4455 97.8141 100.923 99.4005C101.22 99.7208 101.48 99.9694 101.646 100.325C101.658 100.349 101.646 100.372 101.622 100.372C101.148 100.443 97.0438 101.082 96.8779 101.106H96.8662L91.8746 100.36C91.8628 100.36 91.851 100.349 91.851 100.325C91.8393 100.077 91.851 98.43 91.9334 97.3877Z" fill="#221E29" fill-opacity="0.68"/>
<path d="M91.8747 101.853C91.8629 101.71 91.8394 101.153 91.8394 100.372C91.8394 100.349 91.8511 100.337 91.8747 100.337C92.4654 100.337 101.137 100.302 101.623 100.302C101.634 100.302 101.646 100.314 101.658 100.325C101.859 100.692 101.918 101.165 101.906 101.828C101.906 101.853 101.894 101.865 101.871 101.865C101.113 101.865 92.5018 101.888 91.91 101.888C91.8864 101.888 91.8747 101.876 91.8747 101.853Z" fill="black"/>
<path d="M103.491 100.289C103.278 99.4374 103.065 98.4186 102.911 97.3645C102.911 97.341 102.922 97.3292 102.947 97.3292C103.372 97.3292 107.264 97.3292 107.69 97.3292C107.714 97.3292 107.726 97.3056 107.726 97.2939L107.583 96.3705C107.477 95.6839 108.058 95.009 108.755 95.0326C108.755 95.0326 110.446 94.9737 110.695 94.9619C110.719 94.9619 110.731 94.9737 110.731 94.9972C110.872 96.8204 111.654 97.6613 112.777 98.62C114.031 99.4374 114.126 100.136 114.126 100.277C114.126 100.289 114.114 100.314 114.102 100.314C113.83 100.361 111.855 100.965 108.885 100.988C107.288 101 103.798 100.372 103.503 100.314C103.503 100.314 103.491 100.302 103.491 100.289Z" fill="#221E29" fill-opacity="0.68"/>
<path d="M103.964 101.876C103.858 101.651 103.621 100.752 103.503 100.361C103.491 100.337 103.514 100.313 103.538 100.313C104.284 100.313 113.606 100.313 114.114 100.313C114.126 100.313 114.138 100.325 114.149 100.337C114.327 100.752 114.398 101.249 114.445 101.84C114.445 101.865 114.433 101.876 114.41 101.876C113.593 101.876 104.509 101.888 103.999 101.888C103.987 101.888 103.976 101.876 103.964 101.876Z" fill="black"/>
<path d="M105.656 71.2691L108.98 68.9843C108.992 68.9725 109.016 68.9725 109.028 68.9961L109.323 69.446C109.323 69.4578 109.335 69.4695 109.323 69.4695L108.424 72.335C108.424 72.3468 108.412 72.3468 108.412 72.3468L105.633 74.4184C105.609 74.4302 105.573 74.4184 105.573 74.3949L105.633 71.2809C105.645 71.2927 105.645 71.2809 105.656 71.2691Z" fill="white"/>
<path d="M102.971 66.9353L106.129 59.6427C106.141 59.6309 106.153 59.6191 106.164 59.6191C106.649 59.7016 107.773 59.9736 108.85 60.6603C108.861 60.6721 108.873 60.6838 108.861 60.6956C108.66 61.1573 105.881 67.6102 105.668 68.0966C105.656 68.1084 105.644 68.1201 105.621 68.1084L102.982 66.96C102.971 66.9836 102.971 66.96 102.971 66.9353Z" fill="white"/>
<path d="M95.5176 61.4182C96.3343 60.6362 97.3274 59.9613 98.0617 59.7246C98.0734 59.7246 98.097 59.7246 98.097 59.7482C98.2982 60.2452 100.759 66.3789 100.96 66.8759C100.972 66.8877 100.96 66.9112 100.935 66.923C100.628 67.0537 98.1323 68.096 98.2499 68.0478C98.2029 67.9182 95.6718 61.8681 95.5059 61.4653C95.5059 61.4418 95.5176 61.43 95.5176 61.4182Z" fill="white"/>
<path d="M107.383 54.8936C107.62 55.1303 107.88 55.1668 108.14 55.1067" stroke="#030202" stroke-width="2.08297" stroke-linecap="round" stroke-linejoin="round"/>
<path d="M107.679 53.3666C107.842 53.3666 107.974 53.2347 107.974 53.071C107.974 52.9073 107.842 52.7754 107.679 52.7754C107.515 52.7754 107.383 52.9073 107.383 53.071C107.383 53.2347 107.515 53.3666 107.679 53.3666Z" fill="#010005"/>
<path d="M98.9009 53.5562C98.9009 51.9462 98.9126 49.2232 101.148 47.9324C101.847 47.5296 102.758 47.3047 103.728 47.3047C107.88 47.3047 108.271 50.3244 108.306 50.6201C108.306 50.6318 108.295 50.6436 108.283 50.6554L104.461 52.4314C104.449 52.4314 104.437 52.4314 104.426 52.4314C103.988 52.0534 102.923 51.5434 102.166 51.8991C101.208 52.349 101.22 53.2841 101.314 53.8282C101.314 53.8412 101.314 53.853 101.291 53.8647L98.9491 54.9659C98.9244 54.9777 98.9009 54.9659 98.9009 54.9294V53.5562Z" fill="#475139"/>
<path d="M113.18 65.3369L112.34 64.3193" stroke="black" stroke-width="2.08297" stroke-linecap="round" stroke-linejoin="round"/>
<path d="M96.9732 76.4192C95.6835 76.4427 94.7127 75.5783 94.9857 74.3004L96.3577 67.0537C96.559 65.929 97.5874 65.3248 98.7112 65.3248L102.308 65.0527H104.722C105.857 65.0527 106.733 65.9172 106.756 67.0537L106.862 74.3004C106.874 74.9152 106.614 75.5429 106.164 76.0046C105.703 76.4781 105.076 76.7395 104.449 76.7395H101.941L97.7651 76.4663L96.9732 76.4192Z" fill="black"/>
<path d="M94.4645 76.7513C93.176 76.7749 92.2052 75.5783 92.477 74.3004L93.8503 67.0537C94.0385 65.929 95.0682 65.0527 96.2037 65.0527H102.213C103.349 65.0527 104.224 65.9172 104.248 67.0537L104.355 74.3004C104.366 74.9152 104.106 75.5429 103.657 76.0046C103.196 76.4781 102.568 76.7395 101.941 76.7395L94.4645 76.7513Z" fill="#221E29" fill-opacity="0.68"/>
<path d="M111.275 97.0098L110.14 97.6964" stroke="black" stroke-width="2.08297" stroke-linecap="round" stroke-linejoin="round"/>
<path d="M111.914 97.8145L111.074 98.7743" stroke="black" stroke-width="2.08297" stroke-linecap="round" stroke-linejoin="round"/>
<path d="M99.5043 97.6016L98.3452 98.0279" stroke="black" stroke-width="2.08297" stroke-linecap="round" stroke-linejoin="round"/>
<path d="M99.954 98.4424L99.1021 99.0819" stroke="black" stroke-width="2.08297" stroke-linecap="round" stroke-linejoin="round"/>
<path d="M109.334 69.4464L108.684 68.4395" stroke="black" stroke-width="2.08297" stroke-linecap="round" stroke-linejoin="round"/>
<path d="M93.2822 70.1445H104.26" stroke="black" stroke-width="2.08297" stroke-linecap="round" stroke-linejoin="round"/>
<path d="M98.7834 49.1993C97.4114 49.1993 96.2876 48.0746 96.2876 46.7001C96.2876 45.3269 97.4114 44.2021 98.7834 44.2021C100.155 44.2021 101.279 45.3269 101.279 46.7001C101.279 48.0746 100.155 49.1993 98.7834 49.1993Z" fill="#475139"/>
<path d="M120.195 57.333C120.195 57.333 118.822 59.3222 118.078 60.5541" stroke="#030202" stroke-width="2.08297" stroke-linecap="round" stroke-linejoin="round"/>
<path d="M121.093 57.8428L119.118 61.2406" stroke="#030202" stroke-width="2.08297" stroke-linecap="round" stroke-linejoin="round"/>
<path d="M121.437 58.9795L120.017 61.832" stroke="#030202" stroke-width="2.08297" stroke-linecap="round" stroke-linejoin="round"/>
<path d="M103.006 53.6631L103.622 54.3379" stroke="#030202" stroke-width="2.08297" stroke-linecap="round" stroke-linejoin="round"/>
<path d="M105.478 58.115C104.804 58.0431 103.585 57.3447 103.585 57.3447" stroke="#030202" stroke-width="2.08297" stroke-linecap="round" stroke-linejoin="round"/>
<path d="M73.2815 33.613C72.952 31.9289 72.4814 29.3025 72.3402 28.4309L72.3519 28.9727C72.0695 27.5123 71.5518 24.7788 73.1285 23.3655C74.1287 22.4704 75.5408 21.3633 77.047 21.3633C77.8471 21.3633 78.6591 22.1053 79.3651 22.3879C80.39 22.7648 81.0019 23.2477 81.4726 23.9661C81.8962 24.6021 82.2021 25.4147 82.5434 26.4759C82.5434 26.4877 82.5552 26.4994 82.5669 26.4994C82.7317 26.523 83.4495 26.629 83.5201 26.9588C83.6142 27.3239 83.1788 27.901 83.0847 28.0305C83.0729 28.0423 83.0729 28.0541 83.0847 28.0658C83.7083 30.0209 83.6848 31.0927 83.0258 32.0231C82.5081 32.8357 80.743 33.1537 79.7075 32.7768C79.684 32.7651 79.6605 32.7886 79.6605 32.8122C79.684 32.9653 79.7546 33.4128 79.7781 33.5424C79.7781 33.5659 79.7664 33.613 79.7428 33.613H73.2815Z" fill="#E59763"/>
<path d="M71.1988 84.9925C71.187 84.9808 71.187 84.969 71.187 84.9572C71.6577 81.2591 72.5049 79.3158 72.7167 75.4398C72.7756 74.3327 72.7638 73.2374 72.6932 72.0715C72.6932 72.0597 72.705 72.0361 72.7167 72.0361C73.058 71.9655 76.4704 71.0586 79.2122 71.0586C80.1665 71.0586 82.4375 72.0008 82.6964 72.0832C82.7082 72.0832 82.7199 72.1068 82.7199 72.1186C82.3669 76.4068 81.4726 81.7773 80.9196 84.969C80.9078 85.0161 77.4942 86.4306 74.6112 86.4188C73.1874 86.3952 71.3988 85.1221 71.1988 84.9925Z" fill="#E59763"/>
<path opacity="0.2" d="M72.7517 74.0609C72.7517 73.26 72.7282 72.6594 72.6929 72.0705C72.6929 72.0469 72.7046 72.0352 72.7282 72.0352H78.141L78.1528 72.0823C78.141 72.0587 73.3754 73.8489 72.7988 74.0844C72.7752 74.0962 72.7517 74.0844 72.7517 74.0609Z" fill="#030202"/>
<path d="M55.852 80.3285C57.8053 77.3017 59.7127 75.5104 61.3366 72.0831C61.3366 72.0713 61.3484 72.0596 61.3601 72.0596C61.8544 72.036 65.5375 71.3058 66.2552 71.3058C69.0087 71.294 71.9164 72.0478 71.9282 72.036L71.9164 72.0713C70.1631 76.0168 66.8083 81.0941 64.7255 84.274C64.7255 84.2858 64.7138 84.2858 64.702 84.2858C64.4902 84.3329 61.8661 84.5449 59.3468 83.4142C58.1112 82.8607 56.0755 80.5876 55.8637 80.3639C55.8402 80.3521 55.8402 80.3403 55.852 80.3285Z" fill="#E59763"/>
<path opacity="0.2" d="M63.7606 72.0833C65.1138 72.0716 71.2692 72.0245 71.8576 72.0598C71.8811 72.0598 71.8929 72.0833 71.8811 72.1069C71.5516 72.79 71.2457 73.4731 70.8809 74.1562C70.8691 74.168 70.8573 74.1797 70.8456 74.168C70.4337 74.0502 64.9256 72.4838 63.7489 72.1422C63.7136 72.1422 63.7253 72.0833 63.7606 72.0833Z" fill="#030202"/>
<path d="M97.6064 64.8029C96.7709 64.8029 95.8413 63.6134 95.406 62.9892C95.3824 62.9538 95.3236 62.9774 95.3354 63.0245C95.453 63.5545 95.7825 64.6145 95.2648 64.6969C94.6764 64.7911 93.8998 63.4485 92.8996 61.9645C92.1818 60.881 91.3345 59.6679 90.4638 58.6668C90.452 58.6551 90.452 58.6315 90.4755 58.6197C90.8639 58.3488 94.6999 55.262 95.1824 55.0146C95.1941 55.0029 95.2177 55.0146 95.2177 55.0264C96.5827 56.6176 97.5711 57.9366 98.1359 58.82V58.8317C98.1948 59.0319 100.749 62.789 99.4421 63.9314C99.4303 63.9314 99.4303 63.9432 99.4303 63.9549C99.395 64.3083 99.2067 64.744 98.6537 64.744C98.5007 64.744 98.3242 64.7087 98.1477 64.6498C98.1359 64.6498 98.1359 64.6498 98.1242 64.6498C97.9712 64.7205 97.7947 64.8147 97.6064 64.8029Z" fill="#E59763"/>
<path d="M89.6282 60.1279C85.4262 56.4415 82.708 51.1993 82.202 50.1865C82.1902 50.1512 82.1431 50.1629 82.1431 50.1983L81.9431 51.9531C81.9431 51.9649 81.9313 51.9884 81.9078 51.9884L71.6457 52.012C71.634 52.012 71.634 52.012 71.6222 52.0238C71.4457 52.2004 69.0911 54.7915 69.0793 54.7326C68.1733 54.4028 67.4672 53.9788 66.9024 53.4842C63.6782 50.634 65.6433 45.3565 67.2201 41.0813C68.0909 38.8789 69.0205 37.0887 69.6453 36.4056C70.9985 34.9087 73.0696 34.5083 73.4461 34.4494C73.4696 34.4494 73.4814 34.4259 73.4696 34.4141C73.4226 34.155 73.352 33.8959 73.3049 33.625C73.3049 33.6014 73.3167 33.5896 73.3284 33.5896C73.8109 33.5308 79.3179 33.5896 79.7662 33.5896C79.778 33.5896 79.8015 33.6014 79.8015 33.6132C79.825 33.7781 79.9898 34.6614 80.0133 34.8145C80.0133 34.8263 80.0251 34.8381 80.0368 34.8381C80.484 34.897 84.4024 35.6272 86.2852 40.8222L89.2269 48.467C89.2269 48.467 89.2269 48.4787 89.2387 48.4787C89.3799 48.6201 92.5817 51.9413 95.1822 54.9799C95.194 54.9917 95.194 55.0152 95.1822 55.027C94.8175 55.3804 90.0518 59.8687 89.6635 60.1396C89.6517 60.1396 89.64 60.1396 89.6282 60.1279Z" fill="#AFC2CB"/>
<path opacity="0.2" d="M69.0322 54.7088C68.1026 54.3673 67.4672 53.9668 66.9259 53.5075C66.9024 53.4957 66.9141 53.4604 66.9377 53.4486C69.2087 52.2709 69.4676 49.7034 69.6688 47.8543C69.7983 46.6648 69.8924 45.7096 70.4807 45.5801C70.5043 45.5801 70.5161 45.5919 70.5161 45.6036L71.4104 51.9293C71.4104 51.9411 71.4104 51.9529 71.3986 51.9529C71.2338 52.1413 69.0675 54.7795 69.0322 54.7088Z" fill="#959595"/>
<path opacity="0.2" d="M78.4708 32.317C79.0003 32.5996 79.5181 32.7174 79.6369 32.741C79.6487 32.741 79.6604 32.7527 79.6604 32.7645L79.7899 33.5654L79.8723 34.0718C79.8723 34.1071 79.837 34.1307 79.8134 34.0954L78.4237 32.3641C78.412 32.3405 78.4473 32.2934 78.4708 32.317Z" fill="#030202"/>
<path d="M65.8668 44.9667C61.6071 44.896 60.4422 39.9259 63.9723 38.0062C63.9841 37.9944 63.9958 37.9708 63.9841 37.9591C62.6426 35.9922 62.4426 33.6473 63.4781 31.6687C64.4901 29.7254 66.5258 28.5594 68.9145 28.5594C69.6217 28.5594 70.363 28.6654 71.1043 28.8421C71.1279 28.8421 71.1514 28.8303 71.1396 28.8068C71.1043 27.2286 70.9043 24.1417 73.0341 22.5164C74.7286 21.2327 77.2938 20.8911 79.2942 21.6802C80.225 22.0453 80.9781 22.9051 81.4605 23.9415C81.4723 23.9533 81.4606 23.965 81.4488 23.9768C81.3429 24.0828 80.7663 24.6128 79.719 24.6128C79.4825 24.6128 79.2354 24.5892 78.9883 24.5186C78.9647 24.5068 78.9412 24.5421 78.953 24.5657C79.4707 25.6021 79.2472 27.2168 78.4588 27.9235C78.447 27.9352 78.4352 27.9352 78.4235 27.9235C78.2587 27.8292 77.1997 27.1226 76.2348 27.1108C75.6464 27.1108 75.2346 27.3817 74.9992 27.9235C74.305 29.5841 76.9055 30.9738 77.1173 31.0916C77.1291 31.0916 77.1291 31.1034 77.1291 31.1152C77.741 36.1453 75.011 40.6797 68.432 38.4302C68.4203 38.4302 68.3967 38.4301 68.3967 38.4419C68.2202 38.7599 66.9965 41.2803 65.9021 44.9313C65.8904 44.9549 65.8786 44.9667 65.8668 44.9667Z" fill="#010005"/>
<path d="M81.4487 28.9727C81.6252 29.326 82.1548 29.3849 82.4254 29.2906" stroke="#030202" stroke-width="2.08297" stroke-linecap="round" stroke-linejoin="round"/>
<path d="M81.3196 27.1357C81.482 27.1357 81.6137 27.0038 81.6137 26.8413C81.6137 26.6788 81.482 26.5469 81.3196 26.5469C81.1572 26.5469 81.0254 26.6788 81.0254 26.8413C81.0254 27.0038 81.1572 27.1357 81.3196 27.1357Z" fill="#171314"/>
<path d="M78.3296 32.2334C78.3296 32.2334 79.2121 32.5632 79.6604 32.7398" stroke="#030202" stroke-width="2.08297" stroke-linecap="round" stroke-linejoin="round"/>
<path d="M76.6587 28.7598L77.5412 29.2898" stroke="#030202" stroke-width="2.08297" stroke-linecap="round" stroke-linejoin="round"/>
<path d="M76.9053 32.6712C77.5678 32.6712 78.1056 32.1329 78.1056 31.4699C78.1056 30.8068 77.5678 30.2686 76.9053 30.2686C76.2428 30.2686 75.7051 30.8068 75.7051 31.4699C75.7051 32.1329 76.2428 32.6712 76.9053 32.6712Z" fill="#A3A3A3"/>
<path d="M61.3836 72.0594C61.3601 72.0594 61.3483 72.0359 61.3601 72.0123C63.3605 67.6429 63.7488 63.2487 65.8904 58.7968C67.3613 55.6628 69.6806 53.166 71.4103 51.9647C71.4103 51.9647 71.4221 51.9529 71.4339 51.9529C71.7869 51.9529 81.3782 51.9176 81.9078 51.9764C81.9195 51.9764 81.9313 51.9882 81.9313 52C82.0372 52.4475 83.6493 60.8814 82.7315 72.0476C82.7315 72.0712 82.7197 72.083 82.6962 72.083C81.8136 72.0594 62.5721 72.0594 61.3836 72.0594Z" fill="#AFC2CB"/>
<path opacity="0.2" d="M81.8962 51.9766C81.6256 51.9766 79.3181 51.9883 78.8239 51.9883C78.7886 51.9883 78.7768 52.0237 78.8003 52.0472C80.0606 53.0719 80.849 54.7561 81.6021 56.1705C82.0022 56.9007 82.4493 57.3601 82.6023 57.5132C82.6258 57.5367 82.6611 57.5132 82.6611 57.4896C82.614 56.9125 82.261 53.5901 81.9198 52.0001C81.9316 51.9883 81.9198 51.9766 81.8962 51.9766Z" fill="#959595"/>
<path d="M70.8102 26.5466C68.9028 26.5584 68.3968 25.0968 69.3146 23.4008C70.3866 21.2455 73.8696 18.9018 76.1525 18.9489C78.0587 18.9372 78.5647 20.3976 77.6469 22.0935C76.5761 24.2488 73.1166 26.6055 70.8102 26.5466Z" fill="#475139"/>
<path d="M70.6574 48.3486L69.5513 48.8551" stroke="#959595" stroke-width="2.08297" stroke-linecap="round" stroke-linejoin="round"/>
<path d="M71.4219 51.9531L71.0688 49.4092H81.8251L82.1428 50.0805L81.931 51.9767L71.4219 51.9531Z" fill="white"/>
<path opacity="0.2" d="M78.7417 51.9885C79.3418 50.4103 79.283 48.7614 79.2359 47.4541C79.1888 46.1115 79.1418 45.0504 79.7901 44.5322C79.8019 44.5204 79.8372 44.5204 79.8372 44.5439C80.6609 46.5826 81.7788 49.209 82.1318 50.0687V50.0805C82.12 50.1983 81.9435 51.7176 81.92 51.9414C81.92 51.9531 81.9082 51.9649 81.8847 51.9649L78.7417 51.9885Z" fill="#959595"/>
<path d="M70.516 45.5684L71.4103 51.9529C71.4103 51.9529 69.6806 53.2367 68.6792 54.5204" stroke="#959595" stroke-width="2.08297" stroke-linecap="round" stroke-linejoin="round"/>
<path d="M82.1433 50.0807L79.8252 44.5088" stroke="#959595" stroke-width="2.08297" stroke-linecap="round" stroke-linejoin="round"/>
<path d="M78.6589 101.954C78.4354 101.589 77.9058 100.87 77.5411 100.458C77.5293 100.446 77.5293 100.423 77.5411 100.411C78.2941 99.7163 84.2848 100.27 84.2848 100.352C84.626 100.717 84.979 101.483 85.0261 101.919C85.0261 101.942 85.0143 101.954 84.9908 101.954C84.473 101.954 78.6589 101.954 78.6589 101.954Z" fill="black"/>
<path d="M77.506 100.423C77.0471 99.8579 76.2705 99.0688 75.5762 98.739C75.4468 98.7037 71.7754 97.6437 71.4813 97.5612C71.4695 97.5612 71.4577 97.5495 71.4577 97.5377C70.9753 94.8866 70.7635 92.3073 70.8341 89.6574C70.9047 88.0203 71.0106 86.3597 71.1871 85.0159C71.1871 85.0041 71.1988 84.9923 71.2224 84.9923C71.799 84.9923 80.1901 84.9688 80.8961 84.9688C80.9196 84.9688 80.9314 84.9923 80.9314 85.0041C80.9079 85.1101 80.8608 85.3927 80.8255 85.6047C80.5549 87.137 80.3313 88.4678 80.1312 89.7516C79.7429 93.014 79.0475 95.9348 81.0373 97.6908C81.5198 98.0912 81.9551 98.421 82.4258 98.7861C83.2848 99.4339 83.6614 99.6105 84.2497 100.317C84.2732 100.341 84.2497 100.376 84.2262 100.376C83.5202 100.388 77.8825 100.447 77.5413 100.459C77.5178 100.435 77.5178 100.435 77.506 100.423Z" fill="#475139"/>
<path d="M72.5519 101.931C72.2224 101.095 71.634 98.7629 71.4575 97.5851C71.4575 97.5616 71.4693 97.5498 71.4928 97.5498C71.8223 97.5969 73.9757 97.9385 75.5525 98.7276C75.5642 98.7276 75.576 98.7393 75.576 98.7629C75.576 99.022 75.5642 101.601 75.5642 101.919C75.5642 101.943 75.5525 101.955 75.5289 101.955C75.223 101.955 72.8343 101.955 72.5872 101.955C72.5754 101.955 72.5636 101.943 72.5519 101.931Z" fill="black"/>
<path d="M89.8166 57.6074C89.2859 57.6074 88.8623 57.1834 88.8623 56.6534C88.8623 56.1234 89.2859 55.6982 89.8166 55.6982C90.3461 55.6982 90.7697 56.1234 90.7697 56.6534C90.7697 57.1834 90.3461 57.6074 89.8166 57.6074Z" fill="white"/>
<path d="M80.0132 34.8252C80.0132 34.8252 80.4368 34.8605 80.9546 35.0607" stroke="#959595" stroke-width="2.08297" stroke-linecap="round" stroke-linejoin="round"/>
<path d="M75.223 91.7538C74.5405 91.7656 73.9404 91.1414 73.9875 90.4583C73.9875 90.4583 74.2346 85.4517 74.2581 85.0041C74.2581 84.9806 74.2699 84.9688 74.2934 84.9688L77.6 84.957C77.6235 84.957 77.6353 84.9806 77.6353 84.9924L76.4468 90.7527C76.3173 91.3534 75.8114 91.7538 75.223 91.7538Z" fill="black"/>
<path d="M55.3458 99.3275C55.2752 98.9271 55.0634 98.0791 54.8869 97.5373C54.8752 97.5138 54.8987 97.4902 54.9222 97.4902C55.3576 97.5962 57.9464 98.1144 58.0758 98.1498H58.0876C58.2288 98.2322 61.0776 100.07 61.2659 100.187C61.2776 100.187 61.2776 100.199 61.2776 100.199C61.4541 100.705 61.4777 101.506 61.3482 101.919C61.3365 101.942 61.3247 101.942 61.3012 101.942C60.8305 101.73 55.6871 99.4806 55.3576 99.3393L55.3458 99.3275Z" fill="black"/>
<path d="M54.8634 97.4666C54.5693 96.5597 54.1927 95.8048 53.8279 95.3808C53.7456 95.2984 50.8979 92.6838 50.6744 92.4835C50.6626 92.4718 50.6626 92.46 50.6626 92.4482C51.6157 88.2908 53.5455 83.9201 55.8166 80.3633C55.8283 80.3516 55.8401 80.3398 55.8519 80.3516C56.3461 80.54 64.0665 84.0144 64.6666 84.2735C64.6901 84.2852 64.6901 84.3088 64.6784 84.3206C63.6899 85.8634 62.525 87.5959 61.666 88.9503C60.1951 91.4707 58.2406 94.0146 59.3938 96.4302C59.6774 96.9955 59.9598 97.4902 60.2304 97.9966C60.6658 98.7857 61.0541 99.457 61.2541 100.128C61.2659 100.152 61.2306 100.175 61.2071 100.164C60.5599 99.8928 55.1812 97.6079 54.8752 97.4784C54.8634 97.4784 54.8634 97.4784 54.8634 97.4666Z" fill="#475139"/>
<path d="M49.8979 96.9248C49.9333 96.1463 50.3686 93.567 50.651 92.507C50.6628 92.4835 50.6863 92.4717 50.6981 92.4953C52.7573 93.9321 53.7105 95.2159 53.8164 95.369C53.8282 95.3807 53.8282 95.3925 53.8164 95.4043C53.7222 95.6163 52.7573 97.8434 52.6397 98.1261C52.6279 98.1379 52.6161 98.1496 52.5926 98.1379L49.9097 96.9601C49.9097 96.9483 49.8979 96.9366 49.8979 96.9248Z" fill="black"/>
<path d="M56.9934 88.1488C56.1108 88.1724 55.4519 87.1595 55.8873 86.3705C55.8873 86.3705 58.1112 81.8585 58.3113 81.4581C58.323 81.4463 58.3348 81.4345 58.3583 81.4463L61.3719 82.8007C61.3954 82.8125 61.3954 82.836 61.3837 82.8478L58.0053 87.6306C57.77 87.9486 57.3934 88.1488 56.9934 88.1488Z" fill="black"/>
<path d="M72.4346 21.3633L72.9288 21.9993" stroke="black" stroke-width="2.08297" stroke-linecap="round" stroke-linejoin="round"/>
<path d="M99.4302 63.9303C99.4302 63.9303 98.1005 61.1272 97.0415 59.502" stroke="#030202" stroke-width="2.08297" stroke-linecap="round" stroke-linejoin="round"/>
<path d="M98.1358 64.6383C98.1358 64.6383 96.3237 61.3288 95.7471 60.4102" stroke="#030202" stroke-width="2.08297" stroke-linecap="round" stroke-linejoin="round"/>
<path d="M95.347 62.977C95.347 62.977 95.1352 62.2468 94.5586 61.3281" stroke="#030202" stroke-width="2.08297" stroke-linecap="round" stroke-linejoin="round"/>
</g>
<g opacity="0.15">
<path d="M321.606 89.9429V89.9217C321.606 88.0703 323.109 86.5557 324.958 86.5557C326.808 86.5557 328.32 88.0703 328.32 89.9217V89.9429H321.606Z" fill="#EFDCD7"/>
<path d="M189.393 82.6567V82.6344C189.393 80.7947 190.894 79.2801 192.744 79.2695C194.594 79.2695 196.106 80.7829 196.106 82.6344V82.6567H189.393Z" fill="#EFDCD7"/>
<path d="M273.403 93.7429V93.7217C273.403 92.1423 274.687 90.8574 276.265 90.8574C277.843 90.8574 279.127 92.1423 279.127 93.7217V93.7429H273.403Z" fill="#EFDCD7"/>
<path d="M321.393 20.357V20.3452C321.278 20.0331 321.219 19.6975 321.219 19.3394C321.219 17.6859 322.571 16.3338 324.223 16.3338C324.592 16.3338 324.94 16.4021 325.274 16.5187C326.152 14.3104 328.324 12.8418 330.681 12.8418C332.806 12.8418 334.758 13.9983 335.786 15.871C336.19 15.732 336.595 15.6625 336.976 15.6625C338.998 15.6625 340.65 17.3161 340.65 19.3394C340.65 19.6869 340.603 20.0331 340.511 20.3452V20.357H321.393Z" fill="white"/>
<path d="M186.029 13.5469L186.018 13.5352C186.006 13.5116 186.006 13.4775 186.006 13.4421C186.006 11.0372 187.958 9.08328 190.361 9.08328C190.776 9.08328 191.181 9.14099 191.551 9.25759C192.579 7.76538 194.253 6.875 196.056 6.875C199.059 6.875 201.508 9.32707 201.508 12.3327C201.508 12.7261 201.462 13.13 201.381 13.5234V13.5469H186.029Z" fill="white"/>
<path d="M294.064 72.409V50.2344H329.383L330.465 65.8042H319.966L308.124 72.409H294.064Z" fill="#221E29" fill-opacity="0.68"/>
<path d="M253.13 50.2617H220.968V65.8316H253.13V50.2617Z" fill="#221E29" fill-opacity="0.68"/>
<path d="M331.961 54.8761C334.236 54.8761 336.08 53.0305 336.08 50.754C336.08 48.4774 334.236 46.6318 331.961 46.6318C329.687 46.6318 327.843 48.4774 327.843 50.754C327.843 53.0305 329.687 54.8761 331.961 54.8761Z" fill="white"/>
<path d="M198.354 53.8917C200.629 53.8917 202.473 52.0462 202.473 49.7696C202.473 47.493 200.629 45.6475 198.354 45.6475C196.08 45.6475 194.236 47.493 194.236 49.7696C194.236 52.0462 196.08 53.8917 198.354 53.8917Z" fill="white"/>
<path d="M332.573 48.02C332.584 44.5421 330.105 41.5907 326.673 40.9995L304.792 37.2283L301.656 17.3055L202.506 17.2949L198.289 37.425V65.8429H223.656V65.8205C224.311 62.8573 225.972 60.1791 228.331 58.2547C230.723 56.3078 233.75 55.2361 236.853 55.2361C239.944 55.2361 242.971 56.3078 245.373 58.2547C247.733 60.1791 249.394 62.8573 250.05 65.8205V65.8429H265.376L272.281 72.4465H301.11V68.7731C301.11 61.305 307.174 55.2361 314.636 55.2361C317.727 55.2361 320.753 56.3078 323.156 58.2547C323.965 58.9107 324.686 59.6644 325.319 60.4853H332.573V48.02Z" fill="white"/>
<path d="M332.573 54.8325V48.0204C332.573 47.5505 332.53 47.0794 332.441 46.6318" stroke="#838383" stroke-width="2.08297" stroke-linecap="round" stroke-linejoin="round"/>
<path d="M327.832 65.8436V65.8212C327.056 62.6943 325.275 59.8076 322.631 57.8502L322.577 57.8066H333.95C335.129 57.8066 336.08 58.7689 336.08 59.9501V63.7001C336.08 64.8814 335.129 65.8318 333.95 65.8318H327.832V65.8436Z" fill="#221E29" fill-opacity="0.68"/>
<path d="M196.366 65.831C195.187 65.831 194.236 64.8805 194.236 63.6993V59.9493C194.236 58.768 195.187 57.8164 196.366 57.8164H204.406C204.985 57.8164 205.52 58.0461 205.925 58.4512C206.318 58.8552 206.537 59.3805 206.537 59.9375V65.831H196.366Z" fill="#221E29" fill-opacity="0.68"/>
<path d="M227.457 8.65619C226.551 8.65619 225.819 7.92363 225.819 7.01677V4.78611C225.819 3.87807 226.551 3.14551 227.457 3.14551H239.845C240.752 3.14551 241.484 3.87807 241.484 4.78611V7.01677C241.484 7.92363 240.752 8.65619 239.845 8.65619H227.457Z" fill="#221E29" fill-opacity="0.68"/>
<path d="M273.111 8.65619C272.205 8.65619 271.473 7.92363 271.473 7.01677V4.78611C271.473 3.87807 272.205 3.14551 273.111 3.14551H285.499C286.406 3.14551 287.138 3.87807 287.138 4.78611V7.01677C287.138 7.92363 286.406 8.65619 285.499 8.65619H273.111Z" fill="#221E29" fill-opacity="0.68"/>
<path d="M308.189 35.8175C307.282 35.8175 306.55 35.085 306.55 34.1769V25.7136C306.55 24.8068 307.282 24.0742 308.189 24.0742H310.418C311.324 24.0742 312.056 24.8068 312.056 25.7136V34.1769C312.056 35.085 311.324 35.8175 310.418 35.8175H308.189Z" fill="#221E29" fill-opacity="0.68"/>
<path d="M314.646 79.0727C320.329 79.0727 324.936 74.4618 324.936 68.7732C324.936 63.0847 320.329 58.4727 314.646 58.4727C308.962 58.4727 304.354 63.0847 304.354 68.7732C304.354 74.4618 308.962 79.0727 314.646 79.0727Z" fill="#CECDCE"/>
<path d="M314.646 71.7474C316.286 71.7474 317.617 70.4154 317.617 68.7736C317.617 67.1307 316.286 65.7998 314.646 65.7998C313.004 65.7998 311.675 67.1307 311.675 68.7736C311.675 70.4154 313.004 71.7474 314.646 71.7474Z" fill="#221E29" fill-opacity="0.68"/>
<path d="M236.863 79.0727C242.547 79.0727 247.154 74.4618 247.154 68.7732C247.154 63.0847 242.547 58.4727 236.863 58.4727C231.18 58.4727 226.572 63.0847 226.572 68.7732C226.572 74.4618 231.18 79.0727 236.863 79.0727Z" fill="#CECDCE"/>
<path d="M236.863 71.7474C238.504 71.7474 239.834 70.4154 239.834 68.7736C239.834 67.1307 238.504 65.7998 236.863 65.7998C235.222 65.7998 233.892 67.1307 233.892 68.7736C233.892 70.4154 235.222 71.7474 236.863 71.7474Z" fill="#221E29" fill-opacity="0.68"/>
<path d="M274.979 68.4445V24.3248C274.979 22.3133 276.607 20.6738 278.617 20.6738H293.977C295.987 20.6738 297.625 22.3133 297.625 24.3248V68.4445H274.979Z" fill="#CECDCE"/>
<path opacity="0.2" d="M297.582 26.075C297.582 24.0846 295.965 22.4664 293.977 22.4664H278.617C276.64 22.4664 275.023 24.0846 275.023 26.075H274.979V24.3248C274.979 22.3133 276.607 20.6738 278.617 20.6738H293.977C295.987 20.6738 297.625 22.3133 297.625 24.3248V26.075H297.582Z" fill="#868686"/>
<path d="M255.806 33.9035C253.796 33.9035 252.157 32.2641 252.157 30.2513V24.3248C252.157 22.3133 253.796 20.6738 255.806 20.6738H267.867C269.877 20.6738 271.516 22.3133 271.516 24.3248V30.2513C271.516 32.2641 269.877 33.9035 267.867 33.9035H255.806Z" fill="#CECDCE"/>
<path opacity="0.2" d="M271.472 26.075C271.472 24.0846 269.856 22.4664 267.867 22.4664H255.806C253.818 22.4664 252.201 24.0846 252.201 26.075H252.157V24.3248C252.157 22.3133 253.796 20.6738 255.806 20.6738H267.867C269.877 20.6738 271.516 22.3133 271.516 24.3248V26.075H271.472Z" fill="#868686"/>
<path d="M232.974 33.9035C230.964 33.9035 229.325 32.2641 229.325 30.2513V24.3248C229.336 22.3133 230.975 20.6738 232.974 20.6738H245.034C247.045 20.6738 248.683 22.3133 248.683 24.3248V30.2513C248.683 32.2641 247.045 33.9035 245.034 33.9035H232.974Z" fill="#CECDCE"/>
<path d="M210.153 33.9035C208.142 33.9035 206.504 32.2641 206.504 30.2513V24.3248C206.504 22.3133 208.142 20.6738 210.153 20.6738H222.213C224.223 20.6738 225.862 22.3133 225.862 24.3248V30.2513C225.862 32.2641 224.223 33.9035 222.213 33.9035H210.153Z" fill="#CECDCE"/>
<path d="M297.625 42.6729H274.979V46.4346H297.625V42.6729Z" fill="#221E29" fill-opacity="0.68"/>
<path d="M297.625 65.7998H274.979V72.447H297.625V65.7998Z" fill="#221E29" fill-opacity="0.68"/>
<path d="M275.001 47.834H198.289V51.5957H275.001V47.834Z" fill="#221E29" fill-opacity="0.68"/>
<path opacity="0.2" d="M321.167 51.9334C320.129 51.9334 319.288 51.0925 319.288 50.0537C319.288 49.0149 320.129 48.1729 321.167 48.1729H325.046C326.084 48.1729 326.925 49.0149 326.925 50.0537C326.925 50.5448 326.739 51.0159 326.39 51.3763C326.029 51.7367 325.559 51.9334 325.046 51.9334H321.167Z" fill="#838383"/>
<path d="M275.001 37.4248H198.289V41.1854H275.001V37.4248Z" fill="#221E29" fill-opacity="0.68"/>
<path d="M202.516 17.3283L203.39 13.1732C204.232 9.13825 207.825 6.20801 211.954 6.20801H303.798C304.966 6.20801 306.048 6.73328 306.791 7.64015C307.523 8.54819 307.807 9.7283 307.567 10.866L306.168 17.3495L202.516 17.3283Z" fill="white"/>
<path opacity="0.2" d="M202.516 17.3281L203.39 13.1401L203.412 13.1507C203.434 13.1613 205.138 13.7089 210.579 14.2554C215.603 14.7583 224.934 15.3601 240.829 15.3601C253.523 15.3601 272.521 14.9656 290.885 13.0965C301.864 11.9812 307.48 10.8435 307.534 10.8329L307.567 10.8223L306.157 17.3387L202.516 17.3281Z" fill="#838383"/>
<path d="M205.182 56.2747C204.156 56.4066 203.281 55.5315 203.412 54.5034C203.5 53.8038 204.067 53.2349 204.767 53.1478C205.794 53.017 206.668 53.8909 206.537 54.9191C206.449 55.6187 205.882 56.1875 205.182 56.2747Z" fill="white"/>
<path d="M202.539 17.3164L301.646 17.3282" stroke="#838383" stroke-width="2.08297" stroke-linecap="round" stroke-linejoin="round"/>
<path d="M300.585 20.0615H306.507C308.047 20.0615 309.304 21.3182 309.304 22.8599V37.0423C309.304 38.584 308.047 39.8406 306.507 39.8406H300.585" stroke="#221E29" stroke-opacity="0.68" stroke-width="2.08297" stroke-linecap="round" stroke-linejoin="round"/>
<path d="M286.297 20.6953V72.3702" stroke="#868686" stroke-width="2.08297" stroke-linecap="round" stroke-linejoin="round"/>
<path opacity="0.2" d="M248.64 26.075C248.64 24.0846 247.023 22.4664 245.034 22.4664H232.974C230.986 22.4664 229.369 24.0846 229.369 26.075H229.325V24.3248C229.325 22.3133 230.964 20.6738 232.974 20.6738H245.034C247.045 20.6738 248.683 22.3133 248.683 24.3248V26.075H248.64Z" fill="#868686"/>
<path opacity="0.2" d="M225.819 26.075C225.819 24.0846 224.202 22.4664 222.213 22.4664H210.153C208.165 22.4664 206.548 24.0846 206.548 26.075H206.504V24.3248C206.504 22.3133 208.142 20.6738 210.153 20.6738H222.213C224.223 20.6738 225.862 22.3133 225.862 24.3248V26.075H225.819Z" fill="#868686"/>
<path d="M321.168 50.3924C320.185 50.3924 319.377 49.628 319.3 48.6658C319.213 47.5505 320.119 46.6318 321.234 46.6318H325.046C326.084 46.6318 326.925 47.4739 326.925 48.5127C326.925 49.0038 326.739 49.4749 326.39 49.8353C326.03 50.1957 325.559 50.3924 325.046 50.3924H321.168Z" fill="white"/>
<path d="M198.267 45.6475V53.8917" stroke="#838383" stroke-width="2.08297" stroke-linecap="round" stroke-linejoin="round"/>
<path d="M301.325 56.6553H298.712V101.989H301.325V56.6553Z" fill="#475139"/>
<path opacity="0.2" d="M300.019 60.5532C299.587 60.5532 299.155 60.5297 298.736 60.4826H298.712V56.7715H301.325V60.4826H301.301C300.881 60.5297 300.449 60.5532 300.019 60.5532Z" fill="black"/>
<path d="M308.897 54.6531C313.802 49.7431 313.802 41.7839 308.897 36.875C303.992 31.9661 296.04 31.9661 291.135 36.875C286.231 41.7839 286.231 49.7431 291.135 54.6531C296.04 59.562 303.992 59.562 308.897 54.6531Z" fill="white"/>
<path d="M301.302 58.4756C300.881 58.5215 300.45 58.5451 300.019 58.5451C299.587 58.5451 299.155 58.5215 298.736 58.4756" stroke="black" stroke-width="2.08297" stroke-linecap="round" stroke-linejoin="round"/>
<path d="M296.392 52.6624C295.773 52.6624 295.272 52.1606 295.272 51.5423V47.8183C295.272 47.2 295.773 46.6982 296.392 46.6982C297.01 46.6982 297.511 47.2 297.511 47.8183V51.5423C297.511 52.1606 297.01 52.6624 296.392 52.6624Z" fill="#AFC2CB"/>
<path d="M303.774 52.6624C303.156 52.6624 302.653 52.1606 302.653 51.5423V47.8183C302.653 47.2 303.156 46.6982 303.774 46.6982C304.391 46.6982 304.893 47.2 304.893 47.8183V51.5423C304.893 52.1606 304.391 52.6624 303.774 52.6624Z" fill="#AFC2CB"/>
<path d="M295.26 45.4501V42.1229C295.26 40.4305 296.637 39.0537 298.327 39.0537H301.826C303.517 39.0537 304.892 40.4305 304.892 42.1229V45.4501H295.26Z" fill="#475139"/>
<path d="M304.892 45.3916H295.26V50.4347H304.892V45.3916Z" fill="#AFC2CB"/>
<path d="M297.709 48.8588C297.138 48.8588 296.671 48.3912 296.671 47.82C296.671 47.2476 297.138 46.7812 297.709 46.7812C298.281 46.7812 298.747 47.2476 298.747 47.82C298.747 48.3912 298.281 48.8588 297.709 48.8588Z" fill="#0F445D"/>
<path d="M302.351 48.8588C301.779 48.8588 301.313 48.3912 301.313 47.82C301.313 47.2476 301.779 46.7812 302.351 46.7812C302.922 46.7812 303.389 47.2476 303.389 47.82C303.389 48.3912 302.922 48.8588 302.351 48.8588Z" fill="#0F445D"/>
<path d="M295.284 45.415H304.869" stroke="#0F445D" stroke-width="2.08297" stroke-linecap="round" stroke-linejoin="round"/>
<path d="M295.284 50.4111H297.488" stroke="#0F445D" stroke-width="2.08297" stroke-linecap="round" stroke-linejoin="round"/>
<path d="M302.665 50.4111H304.869" stroke="#0F445D" stroke-width="2.08297" stroke-linecap="round" stroke-linejoin="round"/>
<path d="M306.94 102V101.976C306.94 98.6434 309.658 95.9346 312.988 95.9346C316.318 95.9346 319.025 98.6434 319.025 101.976V102H306.94Z" fill="#221E29" fill-opacity="0.68"/>
<path opacity="0.2" d="M306.94 102V101.976C306.94 99.4795 308.446 97.2771 310.764 96.3585L310.788 96.3467L310.8 96.3702C311.364 98.2193 312.494 98.7611 313.494 99.2322C313.824 99.3853 314.13 99.5384 314.412 99.7268C315.942 100.763 315.824 101.965 315.824 101.976V102H306.94Z" fill="black"/>
<path d="M306.163 97.8066C306.869 97.1942 307.669 96.5582 308.669 95.7691C313.553 91.965 318.236 89.1973 319.813 89.1973C320.048 89.1973 320.201 89.2562 320.295 89.3739C320.366 89.4681 320.389 89.5977 320.378 89.7508C320.201 91.1877 316.365 95.1096 311.258 99.0903C310.446 99.7263 309.611 100.362 308.764 100.963L308.74 100.975L306.163 97.8066Z" fill="#AFC2CB"/>
<path opacity="0.2" d="M306.163 97.8067C306.869 97.1942 307.669 96.5582 308.669 95.7691C308.775 95.6867 308.881 95.6043 308.987 95.5218C309.223 95.3334 309.47 95.1449 309.717 94.9683L309.729 94.9565H309.74C310.364 95.1567 311.117 95.2509 311.905 95.2509C313.47 95.2509 315.224 94.8505 316.977 94.085L317.012 94.1203C315.412 95.6867 313.423 97.4062 311.258 99.0786C310.446 99.7146 309.611 100.351 308.764 100.951L308.74 100.963L306.163 97.8067Z" fill="#757575"/>
<path d="M302.786 96.2638V96.2402C302.786 96.2049 302.786 96.1813 302.798 96.146C302.798 96.1225 302.798 96.0871 302.798 96.0636C303.292 90.8933 304.504 86.8418 305.563 86.8418C305.575 86.8418 305.587 86.8418 305.598 86.8418C306.646 86.936 307.093 91.0699 306.634 96.2402V96.2638H302.786Z" fill="#AFC2CB"/>
<path opacity="0.2" d="M302.786 96.2646V96.2411C302.786 96.2057 302.786 96.1822 302.798 96.1468C302.798 96.1233 302.798 96.0879 302.798 96.0644C302.998 93.8031 303.386 91.5536 303.88 89.8105H303.928C304.375 91.7656 305.74 92.6725 306.799 93.0965H306.81V93.1082C306.787 94.0976 306.728 95.1457 306.634 96.2293V96.2528L302.786 96.2646Z" fill="#757575"/>
<path d="M294.114 102V101.976C294.114 97.1825 298.02 93.2842 302.81 93.2842C307.599 93.2842 311.494 97.1825 311.494 101.976V102H294.114Z" fill="#221E29" fill-opacity="0.68"/>
<path opacity="0.2" d="M294.114 102V101.976C294.114 99.9504 294.82 97.9835 296.114 96.4407L296.149 96.3936V96.4642C296.185 98.5371 297.209 99.4793 299.809 99.8208C302.41 100.162 302.586 101.953 302.586 101.976V102H294.114Z" fill="black"/>
<path d="M311.47 101.953C311.47 101.022 311.318 100.127 311.047 99.291" stroke="black" stroke-width="2.08297" stroke-linecap="round" stroke-linejoin="round"/>
<path d="M309.988 88.7266C308.811 91.1763 307.152 96.3466 306.799 98.5843" stroke="#636363" stroke-width="2.08297" stroke-linecap="round" stroke-linejoin="round"/>
<path d="M312.224 89.6096C311.423 89.6096 310.6 89.4093 309.823 89.0207C308.788 88.5142 307.964 87.7252 307.505 86.8301C307.046 85.9232 306.999 85.0046 307.376 84.239C307.846 83.285 308.929 82.7197 310.27 82.7197C311.07 82.7197 311.894 82.9199 312.671 83.3086C313.706 83.815 314.53 84.6041 314.989 85.4992C315.448 86.4061 315.495 87.3247 315.118 88.0903C314.636 89.0442 313.565 89.6096 312.224 89.6096Z" fill="white"/>
<path d="M311.353 86.5833C311.259 86.5833 311.164 86.5597 311.07 86.5126C310.953 86.4537 310.847 86.3595 310.8 86.2535C310.741 86.1475 310.741 86.0297 310.788 85.9355C310.847 85.8177 310.976 85.7471 311.141 85.7471C311.235 85.7471 311.329 85.7706 311.423 85.8177C311.682 85.9473 311.812 86.2064 311.717 86.3948C311.647 86.5126 311.517 86.5833 311.353 86.5833Z" fill="#636363"/>
<path d="M243.589 97.3527C243.719 95.7663 243.896 94.6769 244.263 93.3507C244.263 93.339 244.275 93.3272 244.287 93.3272C244.511 93.2565 246.569 92.6759 248.77 92.6877C249.444 92.6995 251.965 93.2683 252.307 93.339C252.331 93.339 252.342 93.3625 252.331 93.3861C252.047 94.1092 251.893 94.5591 251.716 95.0326C251.716 95.0443 251.703 95.0561 251.68 95.0561L249.8 95.0797C249.114 95.0797 248.842 95.7192 248.629 96.394L248.179 97.6613C248.179 97.6731 248.156 97.6849 248.143 97.6849L243.589 97.3527Z" fill="#CF5934"/>
<path d="M254.567 97.3057C254.39 96.1338 254.26 94.8666 254.189 93.3861C254.189 93.3744 254.189 93.3626 254.201 93.3508C254.402 93.233 256.365 92.1436 258.293 92.1318C260.187 92.1318 262.055 93.1859 262.245 93.3037C262.256 93.3037 262.256 93.3155 262.256 93.3273C262.268 94.061 262.339 94.4873 262.387 94.9372C262.387 94.949 262.387 94.949 262.375 94.962L260.127 98.0995C260.115 98.1113 260.103 98.1113 260.091 98.1113C259.749 98.0394 255.159 97.3646 254.817 97.361C254.578 97.3292 254.567 97.3175 254.61 97.5671L254.567 97.3057Z" fill="#CF5934"/>
<path d="M250.592 58.8374C250.58 58.8374 250.58 58.8256 250.58 58.8138V53.5681C250.58 51.9581 251.479 49.8029 253.728 48.5132C254.426 48.1104 254.426 47.7783 255.395 47.7783C257.844 47.7783 259.216 48.5721 259.689 49.7558C259.761 49.9454 259.843 50.2174 259.962 50.6556C260.163 51.4258 260.388 52.5034 260.435 53.0122C260.435 53.024 260.447 53.0358 260.459 53.0358C261.322 53.4386 261.346 53.912 260.506 54.3619V54.4208C260.719 56.7893 259.986 58.4817 257.17 58.1154C257.146 58.1154 257.134 58.1272 257.134 58.1508C257.134 58.2815 257.134 58.7184 257.134 58.802C257.134 58.8138 257.134 58.8256 257.123 58.8256C256.968 58.9446 255.466 60.0092 253.929 59.9975C252.366 59.9975 250.77 58.9316 250.592 58.8374Z" fill="#CF5934"/>
<path opacity="0.2" d="M255.454 57.4632C256.294 57.9367 256.957 58.091 257.111 58.1028C257.123 58.1028 257.134 58.1145 257.134 58.1381C257.134 58.2924 257.134 58.9908 257.134 59.2393C257.134 59.2746 257.099 59.2864 257.076 59.2629L255.407 57.5221C255.383 57.4868 255.419 57.4515 255.454 57.4632Z" fill="#030202"/>
<path d="M262.221 90.2841C262.21 88.8284 262.198 87.1831 262.126 85.2528C261.878 78.5031 260.187 72.8205 260.068 72.4177C260.068 72.4059 260.056 72.3941 260.033 72.3941C257.963 72.3588 250.463 72.3941 248.522 72.3823C248.51 72.3823 248.499 72.3941 248.487 72.4059C246.464 77.2488 247.292 81.9845 246.499 86.6143C246.062 88.9226 244.879 91.1132 244.275 93.3039C244.275 93.3274 244.287 93.351 244.311 93.351C244.938 93.351 251.882 93.3745 252.319 93.3745C252.331 93.3745 252.343 93.3628 252.355 93.351C252.958 91.7763 253.609 89.9885 254.023 88.2961C254.035 88.2596 254.082 88.2596 254.094 88.3079C254.141 89.0063 254.166 89.74 254.141 90.5574C254.117 91.6468 254.154 92.7115 254.189 93.351C254.189 93.3745 254.201 93.3863 254.224 93.3863C254.768 93.3863 261.7 93.3392 262.233 93.3392C262.257 93.3392 262.268 93.3274 262.268 93.3039C262.245 92.4041 262.233 91.4454 262.221 90.2841Z" fill="#475139"/>
<path opacity="0.2" d="M254.082 88.1422L253.881 86.5205L252.935 82.4466L251.846 78.6931C251.846 78.6931 251.965 77.9712 252.544 77.8887C252.628 77.877 252.71 77.877 252.78 77.877C253.159 77.877 253.478 78.0183 253.74 78.2915C254.721 79.3209 254.721 81.9967 254.639 83.927C254.52 87.041 254.733 86.3191 254.082 88.1422Z" fill="black"/>
<path d="M251.858 78.7881C252.567 81.736 253.728 84.4354 254.058 88.2595" stroke="black" stroke-width="2.08297" stroke-linecap="round" stroke-linejoin="round"/>
<path d="M266.278 62.8273C266.267 62.8155 266.267 62.8038 266.267 62.7802C267.781 59.9383 269.567 56.6112 269.413 59.1563C269.413 59.2046 269.472 59.2281 269.497 59.181C269.97 58.399 270.904 57.1553 271.508 57.1553C271.637 57.1553 271.732 57.2153 271.815 57.3096C271.827 57.3331 271.85 57.3331 271.874 57.3213C272.241 57.1199 272.655 57.0611 272.761 57.7948C272.761 57.8183 272.773 57.8301 272.796 57.8301C273.234 57.9373 273.294 58.399 273.116 58.9313C273.116 58.9443 273.116 58.9561 273.116 58.9678C273.838 59.8193 271.815 64.011 271.129 65.7988C271.129 65.8105 271.117 65.8223 271.093 65.8223C269.898 65.787 266.585 63.064 266.278 62.8273Z" fill="#CF5934"/>
<path d="M245.731 73.5544C244.737 73.5544 243.98 73.1764 243.47 72.4179C241.401 69.3392 245.553 63.0053 247.091 61.5013C248.877 59.7606 250.261 59.5357 250.545 59.5121C250.557 59.5121 250.568 59.5003 250.568 59.4768V58.8019C250.568 58.7784 250.58 58.7666 250.605 58.7666H257.099C257.123 58.7666 257.134 58.7784 257.134 58.8019V59.4768C257.134 59.4886 257.146 59.5121 257.158 59.5121C257.549 59.5592 260.151 59.9385 261.676 61.6438C263.132 63.2892 264.516 64.9592 264.799 65.3019C264.812 65.3255 264.848 65.3137 264.859 65.3019C265.012 65.0181 265.651 63.8097 266.326 62.6732C266.337 62.6614 266.361 62.6496 266.374 62.6614C266.752 62.9099 270.75 65.5858 271.094 65.8107C271.105 65.8225 271.117 65.8343 271.105 65.8472C270.135 68.0249 268.68 70.7726 267.131 71.5299C264.279 73.0103 261.795 70.7007 261.026 69.5053C261.014 69.4818 260.979 69.4818 260.967 69.5171C260.837 69.9317 260.151 72.1105 260.068 72.359C260.068 72.3708 260.056 72.3826 260.033 72.3826L249.232 72.4297C249.22 72.4297 249.22 72.4297 249.22 72.4297C249.055 72.5368 247.351 73.5544 245.731 73.5544Z" fill="#AFC2CB"/>
<path d="M250.617 57.0133C250.592 57.0133 250.58 57.0015 250.58 56.978C250.568 56.7766 250.568 55.8285 250.568 54.9888C250.967 54.3174 251.006 53.7922 251.078 53.5872C251.66 51.9549 252.355 50.796 253.349 48.749C254.047 48.3463 254.414 47.7656 255.383 47.7656C258.176 47.8245 259.441 48.6183 259.867 50.3473C259.867 50.359 259.867 50.359 259.867 50.3708C259.796 50.6193 258.589 50.9267 257.856 50.7383C257.785 50.75 257.607 50.6193 257.596 50.7135C257.596 52.0279 256.779 52.7628 256.626 52.8924C256.614 52.9041 256.59 52.9041 256.578 52.8924C256.437 52.7275 255.573 51.7323 254.426 51.7323C253.656 51.7205 252.888 52.4542 252.899 53.2481C252.829 54.0772 253.857 55.4269 254.094 55.6518C254.106 55.6636 254.106 55.6872 254.094 55.6989C253.242 56.8472 250.853 56.9898 250.617 57.0133Z" fill="#010005"/>
<path d="M243.589 97.3877C243.589 97.3759 243.601 97.3524 243.624 97.3524L247.883 97.3406C247.895 97.3406 247.907 97.3288 247.918 97.3171L248.262 96.1923C248.475 95.4939 249.114 95.0322 249.835 95.0322L251.668 95.0676C251.692 95.0676 251.704 95.0911 251.692 95.1264C250.769 97.6492 251.101 97.8141 252.579 99.4005C252.876 99.7208 253.136 99.9694 253.302 100.325C253.313 100.349 253.302 100.372 253.278 100.372C252.804 100.443 248.7 101.082 248.534 101.106H248.522L243.53 100.36C243.519 100.36 243.507 100.349 243.507 100.325C243.495 100.077 243.507 98.43 243.589 97.3877Z" fill="#221E29" fill-opacity="0.68"/>
<path d="M243.53 101.853C243.519 101.71 243.495 101.153 243.495 100.372C243.495 100.349 243.507 100.337 243.53 100.337C244.121 100.337 252.792 100.302 253.278 100.302C253.29 100.302 253.302 100.314 253.314 100.325C253.515 100.692 253.574 101.165 253.562 101.828C253.562 101.853 253.55 101.865 253.527 101.865C252.769 101.865 244.158 101.888 243.566 101.888C243.542 101.888 243.53 101.876 243.53 101.853Z" fill="black"/>
<path d="M255.147 100.289C254.934 99.4374 254.721 98.4186 254.566 97.3645C254.566 97.341 254.578 97.3292 254.603 97.3292C255.028 97.3292 258.92 97.3292 259.346 97.3292C259.37 97.3292 259.381 97.3056 259.381 97.2939L259.239 96.3705C259.133 95.6839 259.713 95.009 260.411 95.0326C260.411 95.0326 262.102 94.9737 262.35 94.9619C262.375 94.9619 262.387 94.9737 262.387 94.9972C262.528 96.8204 263.309 97.6613 264.433 98.62C265.686 99.4374 265.782 100.136 265.782 100.277C265.782 100.289 265.77 100.314 265.758 100.314C265.486 100.361 263.511 100.965 260.541 100.988C258.944 101 255.454 100.372 255.158 100.314C255.158 100.314 255.147 100.302 255.147 100.289Z" fill="#221E29" fill-opacity="0.68"/>
<path d="M255.62 101.876C255.514 101.651 255.277 100.752 255.158 100.361C255.147 100.337 255.17 100.313 255.194 100.313C255.94 100.313 265.262 100.313 265.77 100.313C265.782 100.313 265.793 100.325 265.805 100.337C265.983 100.752 266.054 101.249 266.101 101.84C266.101 101.865 266.089 101.876 266.065 101.876C265.249 101.876 256.164 101.888 255.655 101.888C255.643 101.888 255.631 101.876 255.62 101.876Z" fill="black"/>
<path d="M257.312 71.2691L260.636 68.9843C260.648 68.9725 260.672 68.9725 260.683 68.9961L260.979 69.446C260.979 69.4578 260.99 69.4695 260.979 69.4695L260.08 72.335C260.08 72.3468 260.068 72.3468 260.068 72.3468L257.289 74.4184C257.265 74.4302 257.229 74.4184 257.229 74.3949L257.289 71.2809C257.3 71.2927 257.3 71.2809 257.312 71.2691Z" fill="white"/>
<path d="M254.626 66.9353L257.785 59.6427C257.797 59.6309 257.808 59.6191 257.82 59.6191C258.305 59.7016 259.429 59.9736 260.505 60.6603C260.517 60.6721 260.529 60.6838 260.517 60.6956C260.316 61.1573 257.536 67.6102 257.323 68.0966C257.312 68.1084 257.3 68.1201 257.276 68.1084L254.638 66.96C254.626 66.9836 254.626 66.96 254.626 66.9353Z" fill="white"/>
<path d="M247.173 61.4182C247.99 60.6362 248.983 59.9613 249.717 59.7246C249.729 59.7246 249.753 59.7246 249.753 59.7482C249.954 60.2452 252.414 66.3789 252.616 66.8759C252.627 66.8877 252.616 66.9112 252.591 66.923C252.284 67.0537 249.788 68.096 249.906 68.0478C249.859 67.9182 247.328 61.8681 247.162 61.4653C247.162 61.4418 247.173 61.43 247.173 61.4182Z" fill="white"/>
<path d="M259.039 54.8936C259.276 55.1303 259.536 55.1668 259.796 55.1067" stroke="#030202" stroke-width="2.08297" stroke-linecap="round" stroke-linejoin="round"/>
<path d="M259.334 53.3666C259.498 53.3666 259.63 53.2347 259.63 53.071C259.63 52.9073 259.498 52.7754 259.334 52.7754C259.171 52.7754 259.039 52.9073 259.039 53.071C259.039 53.2347 259.171 53.3666 259.334 53.3666Z" fill="#010005"/>
<path d="M250.557 53.5562C250.557 51.9462 250.568 49.2232 252.804 47.9324C253.503 47.5296 254.414 47.3047 255.383 47.3047C259.536 47.3047 259.927 50.3244 259.962 50.6201C259.962 50.6318 259.95 50.6436 259.939 50.6554L256.117 52.4314C256.105 52.4314 256.093 52.4314 256.081 52.4314C255.644 52.0534 254.579 51.5434 253.822 51.8991C252.864 52.349 252.876 53.2841 252.97 53.8282C252.97 53.8412 252.97 53.853 252.947 53.8647L250.605 54.9659C250.58 54.9777 250.557 54.9659 250.557 54.9294V53.5562Z" fill="#475139"/>
<path d="M264.836 65.3369L263.996 64.3193" stroke="black" stroke-width="2.08297" stroke-linecap="round" stroke-linejoin="round"/>
<path d="M248.629 76.4192C247.339 76.4427 246.368 75.5783 246.641 74.3004L248.014 67.0537C248.215 65.929 249.243 65.3248 250.367 65.3248L253.964 65.0527H256.378C257.513 65.0527 258.389 65.9172 258.412 67.0537L258.518 74.3004C258.53 74.9152 258.27 75.5429 257.82 76.0046C257.359 76.4781 256.732 76.7395 256.105 76.7395H253.597L249.421 76.4663L248.629 76.4192Z" fill="black"/>
<path d="M246.12 76.7513C244.832 76.7749 243.861 75.5783 244.133 74.3004L245.506 67.0537C245.694 65.929 246.724 65.0527 247.859 65.0527H253.869C255.004 65.0527 255.88 65.9172 255.903 67.0537L256.01 74.3004C256.022 74.9152 255.762 75.5429 255.313 76.0046C254.851 76.4781 254.224 76.7395 253.597 76.7395L246.12 76.7513Z" fill="#221E29" fill-opacity="0.68"/>
<path d="M262.931 97.0098L261.795 97.6964" stroke="black" stroke-width="2.08297" stroke-linecap="round" stroke-linejoin="round"/>
<path d="M263.57 97.8145L262.729 98.7743" stroke="black" stroke-width="2.08297" stroke-linecap="round" stroke-linejoin="round"/>
<path d="M251.16 97.6016L250.001 98.0279" stroke="black" stroke-width="2.08297" stroke-linecap="round" stroke-linejoin="round"/>
<path d="M251.61 98.4424L250.758 99.0819" stroke="black" stroke-width="2.08297" stroke-linecap="round" stroke-linejoin="round"/>
<path d="M260.99 69.4464L260.339 68.4395" stroke="black" stroke-width="2.08297" stroke-linecap="round" stroke-linejoin="round"/>
<path d="M244.938 70.1445H255.915" stroke="black" stroke-width="2.08297" stroke-linecap="round" stroke-linejoin="round"/>
<path d="M250.439 49.1993C249.067 49.1993 247.943 48.0746 247.943 46.7001C247.943 45.3269 249.067 44.2021 250.439 44.2021C251.811 44.2021 252.935 45.3269 252.935 46.7001C252.935 48.0746 251.811 49.1993 250.439 49.1993Z" fill="#475139"/>
<path d="M271.85 57.333C271.85 57.333 270.478 59.3222 269.733 60.5541" stroke="#030202" stroke-width="2.08297" stroke-linecap="round" stroke-linejoin="round"/>
<path d="M272.749 57.8428L270.773 61.2406" stroke="#030202" stroke-width="2.08297" stroke-linecap="round" stroke-linejoin="round"/>
<path d="M273.093 58.9795L271.672 61.832" stroke="#030202" stroke-width="2.08297" stroke-linecap="round" stroke-linejoin="round"/>
<path d="M254.662 53.6631L255.278 54.3379" stroke="#030202" stroke-width="2.08297" stroke-linecap="round" stroke-linejoin="round"/>
<path d="M257.134 58.115C256.46 58.0431 255.241 57.3447 255.241 57.3447" stroke="#030202" stroke-width="2.08297" stroke-linecap="round" stroke-linejoin="round"/>
<path d="M224.937 33.613C224.608 31.9289 224.137 29.3025 223.996 28.4309L224.008 28.9727C223.725 27.5123 223.208 24.7788 224.784 23.3655C225.785 22.4704 227.197 21.3633 228.703 21.3633C229.503 21.3633 230.315 22.1053 231.021 22.3879C232.046 22.7648 232.658 23.2477 233.128 23.9661C233.552 24.6021 233.858 25.4147 234.199 26.4759C234.199 26.4877 234.211 26.4994 234.223 26.4994C234.387 26.523 235.105 26.629 235.176 26.9588C235.27 27.3239 234.835 27.901 234.74 28.0305C234.729 28.0423 234.729 28.0541 234.74 28.0658C235.364 30.0209 235.341 31.0927 234.682 32.0231C234.164 32.8357 232.399 33.1537 231.363 32.7768C231.34 32.7651 231.316 32.7886 231.316 32.8122C231.34 32.9653 231.41 33.4128 231.434 33.5424C231.434 33.5659 231.422 33.613 231.399 33.613H224.937Z" fill="#E59763"/>
<path d="M222.855 84.9925C222.843 84.9808 222.843 84.969 222.843 84.9572C223.313 81.2591 224.161 79.3158 224.372 75.4398C224.431 74.3327 224.42 73.2374 224.349 72.0715C224.349 72.0597 224.361 72.0361 224.372 72.0361C224.714 71.9655 228.126 71.0586 230.868 71.0586C231.822 71.0586 234.093 72.0008 234.352 72.0832C234.364 72.0832 234.376 72.1068 234.376 72.1186C234.023 76.4068 233.128 81.7773 232.575 84.969C232.564 85.0161 229.15 86.4306 226.267 86.4188C224.843 86.3952 223.055 85.1221 222.855 84.9925Z" fill="#E59763"/>
<path opacity="0.2" d="M224.407 74.0609C224.407 73.26 224.384 72.6594 224.349 72.0705C224.349 72.0469 224.36 72.0352 224.384 72.0352H229.797L229.809 72.0823C229.797 72.0587 225.031 73.8489 224.455 74.0844C224.431 74.0962 224.407 74.0844 224.407 74.0609Z" fill="#030202"/>
<path d="M207.508 80.3285C209.461 77.3017 211.369 75.5104 212.992 72.0831C212.992 72.0713 213.004 72.0596 213.016 72.0596C213.51 72.036 217.193 71.3058 217.911 71.3058C220.665 71.294 223.572 72.0478 223.584 72.036L223.572 72.0713C221.819 76.0168 218.464 81.0941 216.381 84.274C216.381 84.2858 216.37 84.2858 216.358 84.2858C216.146 84.3329 213.522 84.5449 211.003 83.4142C209.767 82.8607 207.731 80.5876 207.519 80.3639C207.496 80.3521 207.496 80.3403 207.508 80.3285Z" fill="#E59763"/>
<path opacity="0.2" d="M215.416 72.0833C216.77 72.0716 222.925 72.0245 223.513 72.0598C223.537 72.0598 223.549 72.0833 223.537 72.1069C223.207 72.79 222.901 73.4731 222.537 74.1562C222.525 74.168 222.513 74.1797 222.501 74.168C222.089 74.0502 216.581 72.4838 215.405 72.1422C215.369 72.1422 215.381 72.0833 215.416 72.0833Z" fill="#030202"/>
<path d="M249.262 64.8029C248.427 64.8029 247.497 63.6134 247.062 62.9892C247.038 62.9538 246.979 62.9774 246.991 63.0245C247.109 63.5545 247.438 64.6145 246.921 64.6969C246.332 64.7911 245.556 63.4485 244.555 61.9645C243.838 60.881 242.99 59.6679 242.12 58.6668C242.108 58.6551 242.108 58.6315 242.131 58.6197C242.52 58.3488 246.356 55.262 246.838 55.0146C246.85 55.0029 246.873 55.0146 246.873 55.0264C248.238 56.6176 249.227 57.9366 249.792 58.82V58.8317C249.851 59.0319 252.405 62.789 251.098 63.9314C251.086 63.9314 251.086 63.9432 251.086 63.9549C251.051 64.3083 250.862 64.744 250.309 64.744C250.156 64.744 249.98 64.7087 249.803 64.6498C249.792 64.6498 249.792 64.6498 249.78 64.6498C249.627 64.7205 249.45 64.8147 249.262 64.8029Z" fill="#E59763"/>
<path d="M241.284 60.1279C237.082 56.4415 234.364 51.1993 233.858 50.1865C233.846 50.1512 233.799 50.1629 233.799 50.1983L233.599 51.9531C233.599 51.9649 233.587 51.9884 233.564 51.9884L223.301 52.012C223.29 52.012 223.29 52.012 223.278 52.0238C223.101 52.2004 220.747 54.7915 220.735 54.7326C219.829 54.4028 219.123 53.9788 218.558 53.4842C215.334 50.634 217.299 45.3565 218.876 41.0813C219.747 38.8789 220.676 37.0887 221.301 36.4056C222.654 34.9087 224.725 34.5083 225.102 34.4494C225.125 34.4494 225.137 34.4259 225.125 34.4141C225.078 34.155 225.008 33.8959 224.961 33.625C224.961 33.6014 224.972 33.5896 224.984 33.5896C225.467 33.5308 230.974 33.5896 231.422 33.5896C231.434 33.5896 231.457 33.6014 231.457 33.6132C231.481 33.7781 231.646 34.6614 231.669 34.8145C231.669 34.8263 231.681 34.8381 231.693 34.8381C232.14 34.897 236.058 35.6272 237.941 40.8222L240.883 48.467C240.883 48.467 240.883 48.4787 240.894 48.4787C241.036 48.6201 244.237 51.9413 246.838 54.9799C246.85 54.9917 246.85 55.0152 246.838 55.027C246.473 55.3804 241.708 59.8687 241.319 60.1396C241.307 60.1396 241.296 60.1396 241.284 60.1279Z" fill="#AFC2CB"/>
<path opacity="0.2" d="M220.688 54.7088C219.758 54.3673 219.123 53.9668 218.582 53.5075C218.558 53.4957 218.57 53.4604 218.593 53.4486C220.864 52.2709 221.123 49.7034 221.325 47.8543C221.454 46.6648 221.548 45.7096 222.137 45.5801C222.16 45.5801 222.172 45.5919 222.172 45.6036L223.066 51.9293C223.066 51.9411 223.066 51.9529 223.054 51.9529C222.89 52.1413 220.723 54.7795 220.688 54.7088Z" fill="#959595"/>
<path opacity="0.2" d="M230.127 32.317C230.656 32.5996 231.174 32.7174 231.293 32.741C231.304 32.741 231.316 32.7527 231.316 32.7645L231.446 33.5654L231.528 34.0718C231.528 34.1071 231.493 34.1307 231.469 34.0954L230.079 32.3641C230.068 32.3405 230.103 32.2934 230.127 32.317Z" fill="#030202"/>
<path d="M217.523 44.9667C213.263 44.896 212.098 39.9259 215.628 38.0062C215.64 37.9944 215.652 37.9708 215.64 37.9591C214.298 35.9922 214.098 33.6473 215.134 31.6687C216.146 29.7254 218.182 28.5594 220.57 28.5594C221.277 28.5594 222.019 28.6654 222.76 28.8421C222.784 28.8421 222.807 28.8303 222.795 28.8068C222.76 27.2286 222.56 24.1417 224.69 22.5164C226.384 21.2327 228.95 20.8911 230.95 21.6802C231.881 22.0453 232.634 22.9051 233.116 23.9415C233.128 23.9533 233.116 23.965 233.105 23.9768C232.999 24.0828 232.422 24.6128 231.375 24.6128C231.138 24.6128 230.891 24.5892 230.644 24.5186C230.621 24.5068 230.597 24.5421 230.609 24.5657C231.126 25.6021 230.903 27.2168 230.115 27.9235C230.103 27.9352 230.091 27.9352 230.079 27.9235C229.914 27.8292 228.855 27.1226 227.891 27.1108C227.302 27.1108 226.89 27.3817 226.655 27.9235C225.961 29.5841 228.561 30.9738 228.773 31.0916C228.785 31.0916 228.785 31.1034 228.785 31.1152C229.397 36.1453 226.667 40.6797 220.088 38.4302C220.076 38.4302 220.052 38.4301 220.052 38.4419C219.876 38.7599 218.652 41.2803 217.558 44.9313C217.546 44.9549 217.534 44.9667 217.523 44.9667Z" fill="#010005"/>
<path d="M233.104 28.9727C233.281 29.326 233.811 29.3849 234.081 29.2906" stroke="#030202" stroke-width="2.08297" stroke-linecap="round" stroke-linejoin="round"/>
<path d="M232.975 27.1357C233.138 27.1357 233.27 27.0038 233.27 26.8413C233.27 26.6788 233.138 26.5469 232.975 26.5469C232.813 26.5469 232.681 26.6788 232.681 26.8413C232.681 27.0038 232.813 27.1357 232.975 27.1357Z" fill="#171314"/>
<path d="M229.985 32.2334C229.985 32.2334 230.868 32.5632 231.316 32.7398" stroke="#030202" stroke-width="2.08297" stroke-linecap="round" stroke-linejoin="round"/>
<path d="M228.314 28.7598L229.197 29.2898" stroke="#030202" stroke-width="2.08297" stroke-linecap="round" stroke-linejoin="round"/>
<path d="M228.561 32.6712C229.224 32.6712 229.761 32.1329 229.761 31.4699C229.761 30.8068 229.224 30.2686 228.561 30.2686C227.899 30.2686 227.361 30.8068 227.361 31.4699C227.361 32.1329 227.899 32.6712 228.561 32.6712Z" fill="#A3A3A3"/>
<path d="M213.039 72.0594C213.016 72.0594 213.004 72.0359 213.016 72.0123C215.016 67.6429 215.405 63.2487 217.546 58.7968C219.017 55.6628 221.336 53.166 223.066 51.9647C223.066 51.9647 223.078 51.9529 223.09 51.9529C223.443 51.9529 233.034 51.9176 233.564 51.9764C233.575 51.9764 233.587 51.9882 233.587 52C233.693 52.4475 235.305 60.8814 234.387 72.0476C234.387 72.0712 234.375 72.083 234.352 72.083C233.469 72.0594 214.228 72.0594 213.039 72.0594Z" fill="#AFC2CB"/>
<path opacity="0.2" d="M233.552 51.9766C233.281 51.9766 230.974 51.9883 230.48 51.9883C230.444 51.9883 230.433 52.0237 230.456 52.0472C231.716 53.0719 232.505 54.7561 233.258 56.1705C233.658 56.9007 234.105 57.3601 234.258 57.5132C234.282 57.5367 234.317 57.5132 234.317 57.4896C234.27 56.9125 233.917 53.5901 233.576 52.0001C233.587 51.9883 233.576 51.9766 233.552 51.9766Z" fill="#959595"/>
<path d="M222.466 26.5466C220.559 26.5584 220.053 25.0968 220.97 23.4008C222.042 21.2455 225.525 18.9018 227.808 18.9489C229.714 18.9372 230.22 20.3976 229.303 22.0935C228.232 24.2488 224.772 26.6055 222.466 26.5466Z" fill="#475139"/>
<path d="M222.313 48.3486L221.207 48.8551" stroke="#959595" stroke-width="2.08297" stroke-linecap="round" stroke-linejoin="round"/>
<path d="M223.078 51.9531L222.725 49.4092H233.481L233.799 50.0805L233.587 51.9767L223.078 51.9531Z" fill="white"/>
<path opacity="0.2" d="M230.397 51.9885C230.998 50.4103 230.939 48.7614 230.892 47.4541C230.845 46.1115 230.798 45.0504 231.446 44.5322C231.458 44.5204 231.493 44.5204 231.493 44.5439C232.317 46.5826 233.435 49.209 233.788 50.0687V50.0805C233.776 50.1983 233.599 51.7176 233.576 51.9414C233.576 51.9531 233.564 51.9649 233.54 51.9649L230.397 51.9885Z" fill="#959595"/>
<path d="M222.172 45.5684L223.066 51.9529C223.066 51.9529 221.336 53.2367 220.335 54.5204" stroke="#959595" stroke-width="2.08297" stroke-linecap="round" stroke-linejoin="round"/>
<path d="M233.799 50.0807L231.481 44.5088" stroke="#959595" stroke-width="2.08297" stroke-linecap="round" stroke-linejoin="round"/>
<path d="M230.315 101.954C230.091 101.589 229.562 100.87 229.197 100.458C229.185 100.446 229.185 100.423 229.197 100.411C229.95 99.7163 235.941 100.27 235.941 100.352C236.282 100.717 236.635 101.483 236.682 101.919C236.682 101.942 236.67 101.954 236.647 101.954C236.129 101.954 230.315 101.954 230.315 101.954Z" fill="black"/>
<path d="M229.162 100.423C228.703 99.8579 227.926 99.0688 227.232 98.739C227.103 98.7037 223.431 97.6437 223.137 97.5612C223.125 97.5612 223.113 97.5495 223.113 97.5377C222.631 94.8866 222.419 92.3073 222.49 89.6574C222.56 88.0203 222.666 86.3597 222.843 85.0159C222.843 85.0041 222.855 84.9923 222.878 84.9923C223.455 84.9923 231.846 84.9688 232.552 84.9688C232.575 84.9688 232.587 84.9923 232.587 85.0041C232.564 85.1101 232.517 85.3927 232.481 85.6047C232.211 87.137 231.987 88.4678 231.787 89.7516C231.399 93.014 230.703 95.9348 232.693 97.6908C233.176 98.0912 233.611 98.421 234.082 98.7861C234.941 99.4339 235.317 99.6105 235.905 100.317C235.929 100.341 235.905 100.376 235.882 100.376C235.176 100.388 229.538 100.447 229.197 100.459C229.174 100.435 229.174 100.435 229.162 100.423Z" fill="#475139"/>
<path d="M224.208 101.931C223.878 101.095 223.29 98.7629 223.113 97.5851C223.113 97.5616 223.125 97.5498 223.149 97.5498C223.478 97.5969 225.631 97.9385 227.208 98.7276C227.22 98.7276 227.232 98.7393 227.232 98.7629C227.232 99.022 227.22 101.601 227.22 101.919C227.22 101.943 227.208 101.955 227.185 101.955C226.879 101.955 224.49 101.955 224.243 101.955C224.231 101.955 224.219 101.943 224.208 101.931Z" fill="black"/>
<path d="M241.472 57.6074C240.942 57.6074 240.518 57.1834 240.518 56.6534C240.518 56.1234 240.942 55.6982 241.472 55.6982C242.002 55.6982 242.426 56.1234 242.426 56.6534C242.426 57.1834 242.002 57.6074 241.472 57.6074Z" fill="white"/>
<path d="M231.669 34.8252C231.669 34.8252 232.093 34.8605 232.61 35.0607" stroke="#959595" stroke-width="2.08297" stroke-linecap="round" stroke-linejoin="round"/>
<path d="M226.879 91.7538C226.196 91.7656 225.596 91.1414 225.643 90.4583C225.643 90.4583 225.89 85.4517 225.914 85.0041C225.914 84.9806 225.926 84.9688 225.949 84.9688L229.256 84.957C229.279 84.957 229.291 84.9806 229.291 84.9924L228.103 90.7527C227.973 91.3534 227.467 91.7538 226.879 91.7538Z" fill="black"/>
<path d="M207.002 99.3275C206.931 98.9271 206.719 98.0791 206.543 97.5373C206.531 97.5138 206.554 97.4902 206.578 97.4902C207.013 97.5962 209.602 98.1144 209.732 98.1498H209.743C209.885 98.2322 212.733 100.07 212.922 100.187C212.933 100.187 212.933 100.199 212.933 100.199C213.11 100.705 213.133 101.506 213.004 101.919C212.992 101.942 212.98 101.942 212.957 101.942C212.486 101.73 207.343 99.4806 207.013 99.3393L207.002 99.3275Z" fill="black"/>
<path d="M206.519 97.4666C206.225 96.5597 205.848 95.8048 205.484 95.3808C205.401 95.2984 202.554 92.6838 202.33 92.4835C202.318 92.4718 202.318 92.46 202.318 92.4482C203.271 88.2908 205.201 83.9201 207.472 80.3633C207.484 80.3516 207.496 80.3398 207.508 80.3516C208.002 80.54 215.722 84.0144 216.322 84.2735C216.346 84.2852 216.346 84.3088 216.334 84.3206C215.346 85.8634 214.181 87.5959 213.322 88.9503C211.851 91.4707 209.896 94.0146 211.05 96.4302C211.333 96.9955 211.616 97.4902 211.886 97.9966C212.322 98.7857 212.71 99.457 212.91 100.128C212.922 100.152 212.886 100.175 212.863 100.164C212.216 99.8928 206.837 97.6079 206.531 97.4784C206.519 97.4784 206.519 97.4784 206.519 97.4666Z" fill="#475139"/>
<path d="M201.554 96.9248C201.589 96.1463 202.024 93.567 202.307 92.507C202.319 92.4835 202.342 92.4717 202.354 92.4953C204.413 93.9321 205.366 95.2159 205.472 95.369C205.484 95.3807 205.484 95.3925 205.472 95.4043C205.378 95.6163 204.413 97.8434 204.295 98.1261C204.284 98.1379 204.272 98.1496 204.248 98.1379L201.565 96.9601C201.565 96.9483 201.554 96.9366 201.554 96.9248Z" fill="black"/>
<path d="M208.649 88.1488C207.767 88.1724 207.108 87.1595 207.543 86.3705C207.543 86.3705 209.767 81.8585 209.967 81.4581C209.979 81.4463 209.991 81.4345 210.014 81.4463L213.028 82.8007C213.051 82.8125 213.051 82.836 213.039 82.8478L209.661 87.6306C209.426 87.9486 209.049 88.1488 208.649 88.1488Z" fill="black"/>
<path d="M224.09 21.3633L224.585 21.9993" stroke="black" stroke-width="2.08297" stroke-linecap="round" stroke-linejoin="round"/>
<path d="M251.086 63.9303C251.086 63.9303 249.756 61.1272 248.697 59.502" stroke="#030202" stroke-width="2.08297" stroke-linecap="round" stroke-linejoin="round"/>
<path d="M249.792 64.6383C249.792 64.6383 247.979 61.3288 247.403 60.4102" stroke="#030202" stroke-width="2.08297" stroke-linecap="round" stroke-linejoin="round"/>
<path d="M247.003 62.977C247.003 62.977 246.791 62.2468 246.214 61.3281" stroke="#030202" stroke-width="2.08297" stroke-linecap="round" stroke-linejoin="round"/>
</g>
</g>
<rect y="78" width="375" height="745.56" fill="white"/>
</svg>
