<svg width="162" height="135" viewBox="0 0 162 135" fill="none" xmlns="http://www.w3.org/2000/svg">
<g filter="url(#filter0_d_142_35463)">
<rect x="4.00198" y="2.00099" width="153.142" height="126.996" rx="18.6667" fill="#F3F4F6"/>
</g>
<path d="M44.8491 74.4457H23.9796V88.0082H44.8491V74.4457Z" fill="#2A9E66"/>
<path d="M44.8491 88.0082H23.9796V74.4457H44.8491V88.0082ZM23.9974 88.0082H44.8491V74.4635H23.9974V88.0082Z" fill="#1A2E35"/>
<g opacity="0.3">
<path d="M44.8491 74.4457H23.9796V88.0082H44.8491V74.4457Z" fill="black"/>
</g>
<path d="M133.139 40.3165H23.1595C20.6823 40.3165 18.6684 41.9027 18.6684 43.8453V84.5149C18.6684 86.4575 20.6823 88.0436 23.1595 88.0436H27.9358C27.5615 87.099 27.3477 86.0654 27.3477 84.9782C27.3477 80.4158 31.0368 76.7267 35.5992 76.7267C40.1616 76.7267 43.8508 80.4158 43.8508 84.9782C43.8508 86.0654 43.6369 87.099 43.2626 88.0436H133.139C135.616 88.0436 137.63 86.4575 137.63 84.5149V43.8453C137.63 41.8849 135.616 40.3165 133.139 40.3165Z" fill="#2A9E66"/>
<path d="M113.748 43.5601H69.7102V70.0078H113.748V43.5601Z" fill="#375A64"/>
<path d="M18.7573 43.6135C18.7573 43.5957 45.3832 43.5601 78.229 43.5601C111.075 43.5601 137.701 43.5779 137.701 43.6135C137.701 43.6314 111.075 43.667 78.229 43.667C45.3832 43.6492 18.7573 43.6314 18.7573 43.6135Z" fill="#1A2E35"/>
<path d="M108.936 41.2077H79.9045C79.1738 41.2077 78.5857 40.6196 78.5857 39.8889C78.5857 39.1582 79.1738 38.5701 79.9045 38.5701H108.936C109.667 38.5701 110.255 39.1582 110.255 39.8889C110.255 40.6196 109.667 41.2077 108.936 41.2077Z" fill="#2A9E66"/>
<path d="M38.0943 41.2077H25.316C24.5853 41.2077 23.9972 40.6196 23.9972 39.8889C23.9972 39.1582 24.5853 38.5701 25.316 38.5701H38.0943C38.825 38.5701 39.4131 39.1582 39.4131 39.8889C39.3953 40.6196 38.8072 41.2077 38.0943 41.2077Z" fill="#2A9E66"/>
<g opacity="0.3">
<path d="M110.701 74.0177H92.5584V88.0436H110.701V74.0177Z" fill="black"/>
</g>
<path d="M137.986 83.4813H134.742C134.172 83.4813 133.709 83.018 133.709 82.4477C133.709 81.8774 134.172 81.414 134.742 81.414H137.986C138.556 81.414 139.02 81.8774 139.02 82.4477C139.02 83.018 138.556 83.4813 137.986 83.4813Z" fill="#375A64"/>
<path d="M137.629 80.7544H135.99C134.528 80.7544 133.334 79.5604 133.334 78.099C133.334 76.6376 134.528 75.4435 135.99 75.4435H137.629V80.7544Z" fill="#ECECEC"/>
<path d="M137.63 80.7544C137.63 80.7544 137.63 80.7188 137.63 80.6475C137.63 80.5762 137.63 80.4693 137.63 80.3445C137.63 80.0772 137.63 79.7029 137.612 79.2396C137.612 78.295 137.594 76.9762 137.594 75.4257L137.63 75.4613C137.149 75.4613 136.632 75.4613 136.115 75.4613C135.598 75.4435 135.046 75.5861 134.6 75.8712C134.119 76.1742 133.745 76.6376 133.566 77.1544C133.513 77.2792 133.477 77.4039 133.459 77.5465C133.442 77.6713 133.406 77.8138 133.406 77.9386C133.388 78.2059 133.424 78.4554 133.477 78.7049C133.584 79.1861 133.851 79.6138 134.154 79.9346C134.475 80.2554 134.832 80.4693 135.188 80.5762C135.545 80.701 135.901 80.7188 136.186 80.7188C136.489 80.7188 136.739 80.7188 136.952 80.7366C137.166 80.7366 137.327 80.7366 137.451 80.7544C137.505 80.7544 137.541 80.7544 137.576 80.7544C137.612 80.7366 137.63 80.7544 137.63 80.7544C137.63 80.7544 137.612 80.7544 137.594 80.7544C137.558 80.7544 137.523 80.7544 137.469 80.7544C137.345 80.7544 137.184 80.7544 136.97 80.7723C136.756 80.7723 136.489 80.7723 136.186 80.7901C135.883 80.7901 135.527 80.7901 135.152 80.6653C134.778 80.5406 134.404 80.3267 134.083 80.0059C133.762 79.6851 133.495 79.2574 133.37 78.7584C133.317 78.5089 133.281 78.2415 133.299 77.9742C133.299 77.8316 133.335 77.7069 133.352 77.5643C133.388 77.4396 133.424 77.297 133.477 77.1722C133.673 76.6376 134.047 76.1742 134.546 75.8534C135.028 75.5504 135.598 75.4079 136.115 75.4257C136.649 75.4257 137.149 75.4257 137.63 75.4257H137.665V75.4613C137.665 77.0118 137.648 78.3485 137.648 79.293C137.648 79.7564 137.648 80.1307 137.63 80.3802C137.63 80.5049 137.63 80.594 137.63 80.6653C137.63 80.7188 137.63 80.7544 137.63 80.7544Z" fill="#1A2E35"/>
<path d="M26.1177 82.0733H23.1058C22.4642 82.0733 21.9474 81.5564 21.9474 80.9148C21.9474 80.2733 22.4642 79.7564 23.1058 79.7564H26.1177C26.7593 79.7564 27.2761 80.2733 27.2761 80.9148C27.2583 81.5564 26.7415 82.0733 26.1177 82.0733Z" fill="#F5F5F5"/>
<path d="M26.1176 82.0732C26.1176 82.0554 26.3136 82.091 26.6166 81.9485C26.7592 81.8772 26.9374 81.7524 27.0621 81.5564C27.1869 81.3604 27.276 81.093 27.2404 80.8079C27.2047 80.5227 27.0443 80.2197 26.7592 80.0237C26.6166 79.9346 26.4562 79.8633 26.278 79.8455C26.0998 79.8277 25.9037 79.8455 25.7077 79.8455C24.9057 79.8455 24.0502 79.8455 23.1235 79.8455C22.6779 79.8455 22.268 80.1306 22.1076 80.5049C21.9472 80.8792 22.0185 81.3425 22.2502 81.6277C22.375 81.7703 22.5175 81.895 22.6958 81.9663C22.8562 82.0376 23.0344 82.0554 23.2126 82.0554C23.569 82.0554 23.8898 82.0554 24.1928 82.0554C24.7809 82.0554 25.2621 82.0732 25.6186 82.0732C25.779 82.0732 25.9037 82.0732 26.0106 82.0732C26.0641 82.0732 26.1176 82.0732 26.1176 82.0732C26.1176 82.0732 26.0641 82.0732 25.975 82.0911C25.8859 82.0911 25.7433 82.0911 25.5829 82.0911C25.2443 82.0911 24.7631 82.0911 24.1572 82.1089C23.8542 82.1089 23.5334 82.1089 23.177 82.1089C22.9987 82.1089 22.8027 82.0911 22.6245 82.0198C22.4463 81.9485 22.2859 81.8237 22.1433 81.6633C21.876 81.3425 21.8047 80.8613 21.9829 80.4514C22.1611 80.0415 22.6067 79.7207 23.0878 79.7386C23.9968 79.7386 24.87 79.7386 25.672 79.7386C25.8681 79.7386 26.0641 79.7386 26.2601 79.7564C26.4562 79.7742 26.6344 79.8455 26.777 79.9524C27.08 80.1663 27.2404 80.4871 27.276 80.79C27.3116 81.093 27.2225 81.3782 27.08 81.5742C26.9374 81.7703 26.7592 81.895 26.6166 81.9663C26.4562 82.0376 26.3314 82.0554 26.2423 82.0732C26.2067 82.0732 26.171 82.0732 26.1354 82.0732C26.1176 82.0732 26.1176 82.0732 26.1176 82.0732Z" fill="#1A2E35"/>
<path d="M141.889 47.6236H141.355C141.355 45.182 139.911 43.2038 138.147 43.2038H132.265V42.6691H138.147C140.214 42.6513 141.889 44.879 141.889 47.6236Z" fill="#2A9E66"/>
<path d="M141.8 59.5643H140.463C140.124 59.5643 139.857 59.297 139.857 58.9583V46.8038C139.857 46.4652 140.124 46.1979 140.463 46.1979H141.8C142.138 46.1979 142.406 46.4652 142.406 46.8038V58.9583C142.423 59.297 142.138 59.5643 141.8 59.5643Z" fill="#2A9E66"/>
<path d="M141.8 59.5642C141.8 59.5464 141.907 59.5821 142.103 59.4751C142.192 59.4217 142.281 59.3326 142.352 59.2078C142.424 59.0831 142.406 58.9048 142.406 58.7088C142.406 57.9246 142.406 56.8019 142.388 55.4117C142.388 54.0216 142.388 52.3642 142.37 50.5107C142.37 49.584 142.37 48.6216 142.37 47.6236C142.37 47.3741 142.37 47.1246 142.37 46.8572C142.388 46.6077 142.246 46.376 142.014 46.2869C141.907 46.2335 141.782 46.2513 141.64 46.2513C141.515 46.2513 141.372 46.2513 141.247 46.2513C140.98 46.2513 140.713 46.2513 140.463 46.2513C140.214 46.2513 139.982 46.4295 139.929 46.6612C139.893 46.7681 139.911 46.9107 139.911 47.0355C139.911 47.1602 139.911 47.3028 139.911 47.4275C139.911 47.9444 139.911 48.4612 139.911 48.9602C139.911 49.9582 139.911 50.9206 139.911 51.8474C139.911 53.683 139.911 55.3405 139.893 56.7484C139.893 57.4434 139.893 58.0672 139.893 58.6197C139.893 58.7623 139.893 58.887 139.893 59.0118C139.911 59.1365 139.964 59.2435 140.036 59.3326C140.107 59.4217 140.214 59.4751 140.303 59.5108C140.41 59.5464 140.499 59.5286 140.606 59.5464C140.998 59.5464 141.301 59.5464 141.497 59.5464C141.604 59.5464 141.675 59.5464 141.729 59.5464C141.782 59.5642 141.8 59.5642 141.8 59.5642C141.8 59.5642 141.764 59.5642 141.729 59.5642C141.675 59.5642 141.586 59.5642 141.497 59.5642C141.283 59.5642 140.98 59.5642 140.606 59.5642C140.517 59.5642 140.41 59.5642 140.303 59.5464C140.196 59.5108 140.089 59.4573 140.018 59.3504C139.929 59.2613 139.875 59.1365 139.857 59.0118C139.857 58.887 139.857 58.7444 139.857 58.6019C139.857 58.0494 139.857 57.4256 139.857 56.7306C139.857 55.3405 139.857 53.683 139.84 51.8295C139.84 50.9028 139.84 49.9404 139.84 48.9424C139.84 48.4434 139.84 47.9265 139.84 47.4097C139.84 47.285 139.84 47.1424 139.84 47.0176V46.8216C139.84 46.7503 139.84 46.679 139.857 46.6077C139.929 46.3226 140.196 46.1265 140.481 46.1265C140.748 46.1265 141.016 46.1265 141.265 46.1265C141.39 46.1265 141.533 46.1265 141.657 46.1265C141.782 46.1265 141.925 46.1265 142.067 46.18C142.335 46.2869 142.495 46.5721 142.477 46.8394C142.477 47.0889 142.477 47.3384 142.477 47.6057C142.477 48.6038 142.477 49.5662 142.477 50.4929C142.477 52.3286 142.477 53.986 142.459 55.3939C142.459 56.784 142.442 57.9068 142.442 58.691C142.442 58.7801 142.442 58.887 142.442 58.9583C142.442 59.0474 142.424 59.1365 142.388 59.19C142.317 59.3326 142.21 59.4217 142.121 59.4751C142.032 59.5286 141.943 59.5464 141.889 59.5464C141.836 59.5642 141.8 59.5642 141.8 59.5642Z" fill="#1A2E35"/>
<path d="M45.49 70.792L35.7593 70.5425L27.579 60.9899H20.8423V43.6136H45.49V70.792Z" fill="#375A64"/>
<path d="M45.49 70.792C45.49 70.792 45.49 70.7385 45.49 70.6672C45.49 70.5781 45.49 70.4533 45.49 70.2929C45.49 69.9543 45.49 69.4553 45.49 68.8137C45.49 67.5305 45.49 65.6414 45.4722 63.2533C45.4722 58.477 45.4544 51.6869 45.4544 43.6135L45.49 43.6492C38.9672 43.6492 31.482 43.6492 23.5513 43.6492C22.6423 43.6492 21.7512 43.6492 20.8423 43.6492L20.8958 43.5957C20.8958 49.7799 20.8958 55.6433 20.8958 60.9721L20.8601 60.9364C23.2126 60.9364 25.476 60.9364 27.5968 60.9364H27.6146L27.6325 60.9543C30.8048 64.679 33.585 67.9048 35.8127 70.5068L35.7949 70.489C38.8603 70.5781 41.3019 70.6494 42.9593 70.685C43.7969 70.7029 44.4207 70.7207 44.8663 70.7385C45.0801 70.7385 45.2405 70.7563 45.3653 70.7563C45.4366 70.792 45.49 70.792 45.49 70.792C45.49 70.792 45.4366 70.792 45.3296 70.792C45.2227 70.792 45.0623 70.792 44.8484 70.7741C44.4207 70.7563 43.7791 70.7563 42.9593 70.7385C41.3019 70.7028 38.8603 70.6494 35.7771 70.5781H35.7593V70.5603C33.5315 67.9583 30.7513 64.7325 27.579 61.0077L27.6146 61.0256C25.4938 61.0256 23.2305 61.0256 20.878 61.0256H20.8423V60.9899C20.8423 55.6433 20.8423 49.7799 20.8423 43.6135V43.5601H20.8958C21.7869 43.5601 22.6958 43.5601 23.6047 43.5601C31.5355 43.5601 39.0207 43.5601 45.5435 43.5601H45.5791V43.5957C45.5791 51.6869 45.5613 58.477 45.5613 63.2711C45.5613 65.6592 45.5613 67.5305 45.5435 68.8137C45.5435 69.4553 45.5435 69.9365 45.5435 70.2751C45.5435 70.4355 45.5435 70.5603 45.5435 70.6494C45.49 70.7563 45.49 70.792 45.49 70.792Z" fill="#1A2E35"/>
<path d="M101.594 92.3388C105.561 92.3388 108.776 89.1231 108.776 85.1565C108.776 81.1899 105.561 77.9743 101.594 77.9743C97.6274 77.9743 94.4118 81.1899 94.4118 85.1565C94.4118 89.1231 97.6274 92.3388 101.594 92.3388Z" fill="#1A2E35"/>
<path d="M94.4301 85.0317V85.0495C94.3766 89.006 97.5311 92.2674 101.505 92.3209C105.462 92.3743 108.723 89.2199 108.795 85.2456V85.2278L94.4301 85.0317Z" fill="#1A2E35"/>
<path d="M101.594 90.2C104.38 90.2 106.638 87.9419 106.638 85.1564C106.638 82.3709 104.38 80.1128 101.594 80.1128C98.8087 80.1128 96.5506 82.3709 96.5506 85.1564C96.5506 87.9419 98.8087 90.2 101.594 90.2Z" fill="#FAFAFA"/>
<path d="M101.665 80.113C98.8853 80.0773 96.5862 82.3051 96.5506 85.0853L106.62 85.2279C106.673 82.4476 104.464 80.1486 101.665 80.113Z" fill="#E1E1E1"/>
<path d="M101.594 88.2218C103.287 88.2218 104.66 86.8494 104.66 85.1564C104.66 83.4635 103.287 82.0911 101.594 82.0911C99.9015 82.0911 98.5291 83.4635 98.5291 85.1564C98.5291 86.8494 99.9015 88.2218 101.594 88.2218Z" fill="#1A2E35"/>
<path d="M35.582 92.4101C39.5486 92.4101 42.7642 89.1945 42.7642 85.2278C42.7642 81.2612 39.5486 78.0456 35.582 78.0456C31.6154 78.0456 28.3998 81.2612 28.3998 85.2278C28.3998 89.1945 31.6154 92.4101 35.582 92.4101Z" fill="#1A2E35"/>
<path d="M28.3995 85.1031V85.1209C28.346 89.0773 31.5005 92.3388 35.4748 92.3922C39.4312 92.4457 42.6926 89.2912 42.7639 85.3169V85.2991L28.3995 85.1031Z" fill="#1A2E35"/>
<path d="M35.5821 90.2713C38.3676 90.2713 40.6257 88.0132 40.6257 85.2277C40.6257 82.4422 38.3676 80.1841 35.5821 80.1841C32.7966 80.1841 30.5385 82.4422 30.5385 85.2277C30.5385 88.0132 32.7966 90.2713 35.5821 90.2713Z" fill="#FAFAFA"/>
<path d="M35.6534 80.1841C32.8732 80.1484 30.5742 82.3761 30.5385 85.1564L40.6079 85.2989C40.6614 82.5187 38.4336 80.2197 35.6534 80.1841Z" fill="#E1E1E1"/>
<path d="M35.5814 88.2931C37.2744 88.2931 38.6468 86.9207 38.6468 85.2278C38.6468 83.5348 37.2744 82.1624 35.5814 82.1624C33.8885 82.1624 32.5161 83.5348 32.5161 85.2278C32.5161 86.9207 33.8885 88.2931 35.5814 88.2931Z" fill="#1A2E35"/>
<path d="M20.843 87.5268C20.8252 87.5268 20.7896 77.6891 20.7896 65.5702C20.7896 53.4334 20.8074 43.6136 20.843 43.6136C20.8608 43.6136 20.8965 53.4513 20.8965 65.5702C20.8965 77.7069 20.8608 87.5268 20.843 87.5268Z" fill="#1A2E35"/>
<path d="M22.5004 40.477C22.5004 40.4592 42.4074 40.4235 66.9482 40.4235C91.5068 40.4235 111.396 40.4413 111.396 40.477C111.396 40.4948 91.489 40.5305 66.9482 40.5305C42.4074 40.5126 22.5004 40.4948 22.5004 40.477Z" fill="#1A2E35"/>
<path d="M69.7099 73.1266C69.6921 73.1266 69.6565 66.6038 69.6565 58.5661C69.6565 50.5284 69.6743 44.0056 69.7099 44.0056C69.7277 44.0056 69.7634 50.5284 69.7634 58.5661C69.7456 66.6216 69.7277 73.1266 69.7099 73.1266Z" fill="#1A2E35"/>
<path d="M92.1302 69.4021C92.1124 69.4021 92.0767 63.7169 92.0767 56.7129C92.0767 49.7089 92.0945 44.0237 92.1302 44.0237C92.1658 44.0237 92.1836 49.7089 92.1836 56.7129C92.1658 63.7169 92.148 69.4021 92.1302 69.4021Z" fill="#1A2E35"/>
<path d="M77.1779 66.4792C77.16 66.4614 79.4234 63.1465 82.2393 59.0831C85.0551 55.0019 87.3542 51.7226 87.372 51.7405C87.3898 51.7583 85.1264 55.0732 82.3106 59.1366C79.4947 63.1999 77.1957 66.497 77.1779 66.4792Z" fill="#1A2E35"/>
<path d="M74.0054 67.994C73.9876 67.9762 76.4113 64.5544 79.4232 60.3306C82.4351 56.1068 84.8946 52.7029 84.9302 52.7207C84.948 52.7385 82.5243 56.1603 79.5124 60.3841C76.4826 64.5901 74.0232 67.994 74.0054 67.994Z" fill="#1A2E35"/>
<path d="M94.7148 62.3089C94.697 62.2911 97.2812 59.3149 100.471 55.6435C103.679 51.9901 106.281 49.0316 106.299 49.0494C106.317 49.0673 103.733 52.0435 100.543 55.7148C97.3525 59.3683 94.7505 62.3268 94.7148 62.3089Z" fill="#1A2E35"/>
<path d="M97.1027 62.7189C97.0849 62.701 99.6156 59.9386 102.752 56.5703C105.889 53.1841 108.455 50.4574 108.473 50.4752C108.491 50.493 105.96 53.2554 102.824 56.6238C99.6869 60.0099 97.1205 62.7367 97.1027 62.7189Z" fill="#1A2E35"/>
<path d="M69.7102 73.1088V88.008H93.8054C93.4312 87.0634 93.2173 86.0297 93.2173 84.9426C93.2173 80.3802 96.9064 76.691 101.469 76.691C106.031 76.691 109.72 80.3802 109.72 84.9426C109.72 86.0297 109.364 87.0812 108.99 88.0258L112.394 88.0436V73.1088H69.7102Z" fill="#2A9E66"/>
<path d="M90.5614 83.0537H87.5673C86.9257 83.0537 86.4089 82.5369 86.4089 81.8953C86.4089 81.2537 86.9257 80.7369 87.5673 80.7369H90.5792C91.2208 80.7369 91.7376 81.2537 91.7376 81.8953C91.7198 82.5369 91.203 83.0537 90.5614 83.0537Z" fill="white"/>
<path d="M90.5615 83.0537C90.5615 83.0359 90.7575 83.0715 91.0605 82.9289C91.2031 82.8576 91.3813 82.7329 91.5061 82.5369C91.6308 82.3408 91.7199 82.0735 91.6843 81.7883C91.6486 81.5032 91.4882 81.2002 91.2031 81.0042C91.0605 80.9151 90.9001 80.8438 90.7219 80.826C90.5437 80.8081 90.3476 80.826 90.1516 80.826C89.3496 80.826 88.4942 80.826 87.5674 80.826C87.1219 80.826 86.712 81.1111 86.5516 81.4854C86.3912 81.8596 86.4625 82.323 86.6941 82.6081C86.8189 82.7507 86.9615 82.8755 87.1397 82.9468C87.3001 83.0181 87.4783 83.0359 87.6565 83.0359C88.013 83.0359 88.3338 83.0359 88.6367 83.0359C89.2249 83.0359 89.706 83.0537 90.0625 83.0537C90.2229 83.0537 90.3476 83.0537 90.4546 83.0537C90.5259 83.0359 90.5615 83.0359 90.5615 83.0537C90.5615 83.0537 90.508 83.0537 90.4189 83.0715C90.3298 83.0715 90.1872 83.0715 90.0268 83.0715C89.6882 83.0715 89.207 83.0715 88.6011 83.0893C88.2981 83.0893 87.9773 83.0893 87.6209 83.0893C87.4427 83.0893 87.2466 83.0715 87.0684 83.0002C86.8902 82.9289 86.7298 82.8042 86.5872 82.6438C86.3199 82.323 86.2486 81.8418 86.4268 81.4319C86.605 81.022 87.0506 80.7012 87.5318 80.719C88.4407 80.719 89.314 80.719 90.116 80.719C90.312 80.719 90.508 80.719 90.7041 80.7368C90.9001 80.7547 91.0783 80.826 91.2209 80.9329C91.5239 81.1468 91.6843 81.4675 91.7199 81.7705C91.7556 82.0735 91.6665 82.3586 91.5239 82.5547C91.3813 82.7507 91.2031 82.8755 91.0605 82.9468C90.9001 83.0181 90.7754 83.0359 90.6863 83.0537C90.6506 83.0537 90.615 83.0537 90.5793 83.0537H90.5615Z" fill="#1A2E35"/>
<path d="M57.5911 43.6847H45.5078V88.0077H57.5911V43.6847Z" fill="#2A9E66"/>
<path d="M57.5915 88.0079C57.5915 88.0079 57.5915 87.9367 57.5915 87.7941C57.5915 87.6515 57.5915 87.4376 57.5915 87.1525C57.5915 86.5822 57.5915 85.7446 57.5915 84.6574C57.5915 82.4832 57.5915 79.3109 57.5737 75.3544C57.5737 67.4415 57.5559 56.3741 57.5559 43.7027L57.6094 43.7561C53.742 43.7561 49.6786 43.7561 45.5261 43.7561L45.5796 43.7027C45.5796 61.7919 45.5618 77.8851 45.5618 88.0258L45.5261 87.9901C49.34 87.9901 52.3519 88.0079 54.4192 88.0079C55.4529 88.0079 56.2549 88.0079 56.7896 88.0079C56.2549 88.0079 55.4529 88.0079 54.4371 88.0079C52.3697 88.0079 49.34 88.0258 45.5261 88.0258H45.4905V87.9901C45.4905 77.8495 45.4726 61.7563 45.4726 43.667V43.6136H45.5261C49.6786 43.6136 53.7242 43.6136 57.6094 43.6136H57.6628V43.667C57.6628 56.3562 57.645 67.4415 57.645 75.3544C57.645 79.3109 57.6272 82.4653 57.6272 84.6396C57.6272 85.7267 57.6272 86.5644 57.6272 87.1347C57.6272 87.4198 57.6272 87.6337 57.6272 87.7763C57.5915 87.9367 57.5915 88.0079 57.5915 88.0079Z" fill="#1A2E35"/>
<path d="M53.6351 73.1087H49.6252C48.3955 73.1087 47.3974 72.1107 47.3974 70.881V47.5165C47.3974 46.2867 48.3955 45.2887 49.6252 45.2887H53.6351C54.8648 45.2887 55.8628 46.2867 55.8628 47.5165V70.8988C55.845 72.1107 54.8648 73.1087 53.6351 73.1087Z" fill="#375A64"/>
<path d="M53.6346 73.1086C53.6346 73.1086 53.6881 73.1086 53.8128 73.0908C53.9376 73.073 54.098 73.0551 54.3118 72.9839C54.5257 72.9126 54.793 72.7878 55.0425 72.574C55.292 72.3601 55.5415 72.0571 55.6841 71.6472C55.7554 71.4512 55.8089 71.2195 55.8089 70.9878C55.8267 70.7561 55.8089 70.4888 55.8089 70.2215C55.8089 69.6868 55.8089 69.1165 55.8089 68.4927C55.8089 67.263 55.8089 65.8551 55.8089 64.3046C55.8089 61.1858 55.8089 57.4966 55.791 53.3798C55.791 52.3461 55.791 51.2946 55.791 50.2253C55.791 49.6906 55.791 49.1381 55.791 48.5857C55.791 48.3183 55.791 48.0332 55.791 47.7659C55.791 47.4807 55.791 47.2134 55.7197 46.946C55.5772 46.4114 55.2386 45.9302 54.7574 45.645C54.5257 45.5025 54.2584 45.3955 53.9732 45.3599C53.7059 45.3064 53.4029 45.3243 53.1178 45.3243C51.9593 45.3243 50.7831 45.3243 49.6068 45.3243C49.0187 45.3243 48.4484 45.5559 48.0563 45.9837C47.6464 46.3936 47.4326 46.9639 47.4326 47.5342C47.4326 48.6926 47.4326 49.8332 47.4326 50.956C47.4326 53.2015 47.4326 55.358 47.4326 57.4075C47.4326 61.5244 47.4326 65.2135 47.4147 68.3323C47.4147 69.1165 47.4147 69.8472 47.4147 70.5423C47.4147 70.7205 47.4147 70.8987 47.4147 71.0591C47.4326 71.2195 47.4682 71.3977 47.5039 71.5403C47.6108 71.8433 47.7712 72.1284 47.9672 72.3601C48.3771 72.8235 48.9474 73.0551 49.4643 73.0908C49.9989 73.1086 50.4801 73.0908 50.9078 73.1086C51.7811 73.1086 52.4583 73.1086 52.9039 73.1086C53.1356 73.1086 53.3138 73.1086 53.4207 73.1086C53.5633 73.1086 53.6346 73.1086 53.6346 73.1086C53.6346 73.1086 53.5811 73.1086 53.4564 73.1086C53.3316 73.1086 53.1712 73.1086 52.9395 73.1086C52.4762 73.1086 51.7989 73.1086 50.9435 73.1086C50.5158 73.1086 50.0346 73.1264 49.4999 73.1086C48.9652 73.073 48.3949 72.8413 47.9672 72.3779C47.7534 72.1462 47.593 71.8611 47.486 71.5403C47.4326 71.3799 47.3969 71.2195 47.3969 71.0413C47.3791 70.8631 47.3969 70.7027 47.3791 70.5244C47.3791 69.8294 47.3791 69.0809 47.3791 68.3145C47.3791 65.1957 47.3791 61.5065 47.3613 57.3897C47.3613 55.3402 47.3613 53.1837 47.3613 50.9382C47.3613 49.8154 47.3613 48.6748 47.3613 47.5163C47.3613 46.9282 47.593 46.3401 48.0029 45.9124C48.4128 45.4846 49.0187 45.2351 49.6247 45.2351C50.8187 45.2351 51.9771 45.2351 53.1356 45.2351C53.4207 45.2351 53.7059 45.2173 54.0088 45.2708C54.294 45.3243 54.5791 45.4312 54.8287 45.5738C55.3277 45.8767 55.6841 46.3757 55.8267 46.9282C55.898 47.1956 55.9158 47.4985 55.898 47.7659C55.898 48.051 55.898 48.3183 55.898 48.5857C55.898 49.1381 55.898 49.6728 55.898 50.2253C55.898 51.2946 55.898 52.3461 55.898 53.3798C55.898 57.4966 55.898 61.1858 55.8801 64.3046C55.8801 65.8551 55.8801 67.263 55.8801 68.4927C55.8801 69.1165 55.8801 69.6868 55.8801 70.2215C55.8801 70.4888 55.8801 70.7383 55.8801 70.9878C55.8623 71.2373 55.8267 71.469 55.7376 71.665C55.595 72.0749 55.3277 72.3779 55.0782 72.6096C54.8108 72.8235 54.5613 72.9482 54.3296 73.0195C54.1158 73.0908 53.9376 73.1086 53.8128 73.1086C53.6881 73.1086 53.6346 73.1086 53.6346 73.1086Z" fill="#1A2E35"/>
<path d="M69.7284 88.0079C69.7284 88.0079 69.7284 87.9367 69.7284 87.7941C69.7284 87.6515 69.7284 87.4376 69.7284 87.1525C69.7284 86.5822 69.7284 85.7446 69.7284 84.6574C69.7284 82.4832 69.7284 79.3109 69.7106 75.3544C69.7106 67.4415 69.6928 56.3741 69.6928 43.7027L69.7462 43.7561C65.8789 43.7561 61.8155 43.7561 57.663 43.7561L57.7164 43.7027C57.7164 61.7919 57.6986 77.8851 57.6986 88.0258L57.663 87.9901C61.4769 87.9901 64.4888 88.0079 66.5561 88.0079C67.5898 88.0079 68.3918 88.0079 68.9264 88.0079C68.3918 88.0079 67.5898 88.0079 66.5739 88.0079C64.5066 88.0079 61.4769 88.0258 57.663 88.0258H57.6273V87.9901C57.6273 77.8495 57.6095 61.7563 57.6095 43.667V43.6136H57.663C61.8155 43.6136 65.861 43.6136 69.7462 43.6136H69.7997V43.667C69.7997 56.3562 69.7819 67.4415 69.7819 75.3544C69.7819 79.3109 69.764 82.4653 69.764 84.6396C69.764 85.7267 69.764 86.5644 69.764 87.1347C69.764 87.4198 69.764 87.6337 69.764 87.7763C69.7284 87.9367 69.7284 88.0079 69.7284 88.0079Z" fill="#1A2E35"/>
<path d="M65.8252 73.1087H61.7261C60.5321 73.1087 59.5519 72.1285 59.5519 70.9344V47.463C59.5519 46.2689 60.5321 45.2887 61.7261 45.2887H65.8252C67.0192 45.2887 67.9994 46.2689 67.9994 47.463V70.9344C67.9994 72.1463 67.0192 73.1087 65.8252 73.1087Z" fill="#375A64"/>
<path d="M65.825 73.1087C65.825 73.0909 66.0745 73.1266 66.5022 72.984C66.716 72.9127 66.9834 72.788 67.2329 72.5741C67.4824 72.3602 67.7319 72.0394 67.8567 71.6295C67.9279 71.4335 67.9636 71.2018 67.9636 70.9523C67.9636 70.7028 67.9636 70.4533 67.9636 70.1859C67.9636 69.6513 67.9636 69.081 67.9636 68.4572C67.9636 67.2275 67.9636 65.8196 67.9636 64.2513C67.9636 61.1324 67.9636 57.4255 67.9458 53.3086C67.9458 52.2749 67.9458 51.2234 67.9458 50.1541C67.9458 49.6195 67.9458 49.067 67.9458 48.5145C67.9458 48.2472 67.9458 47.962 67.9458 47.6947C67.9458 47.4096 67.9458 47.1422 67.8745 46.8749C67.7319 46.3402 67.3755 45.8769 66.8764 45.5917C66.6269 45.4491 66.3596 45.36 66.0923 45.3244C65.8071 45.2887 65.522 45.3066 65.2368 45.3066C64.0784 45.3066 62.9022 45.3066 61.7259 45.3066C61.1378 45.3066 60.5675 45.5561 60.1754 45.966C59.7833 46.3759 59.5695 46.964 59.5873 47.5343C59.5873 48.6927 59.5873 49.8333 59.5873 50.9561C59.5873 53.2017 59.5873 55.3581 59.5873 57.4076C59.5873 61.5245 59.5873 65.2315 59.5695 68.3503C59.5695 69.1345 59.5695 69.8652 59.5695 70.578C59.5695 70.9345 59.5695 71.2731 59.6764 71.5761C59.7833 71.879 59.9437 72.1642 60.1576 72.378C60.5675 72.8236 61.1556 73.0553 61.6725 73.0553C62.2071 73.0553 62.6883 73.0553 63.116 73.0553C63.9893 73.0553 64.6665 73.0553 65.1121 73.0553C65.3438 73.0553 65.522 73.0553 65.6289 73.0553C65.7537 73.1087 65.825 73.1087 65.825 73.1087C65.825 73.1087 65.7715 73.1087 65.6467 73.1087C65.522 73.1087 65.3616 73.1087 65.1299 73.1087C64.6665 73.1087 63.9893 73.1087 63.1338 73.1087C62.7061 73.1087 62.2071 73.1087 61.6903 73.1087C61.1556 73.1087 60.5675 72.8771 60.1398 72.4315C59.9259 72.1998 59.7477 71.9147 59.6408 71.6117C59.6229 71.5404 59.6051 71.4513 59.5695 71.3622C59.5516 71.2731 59.5338 71.2018 59.5338 71.1127C59.516 70.9345 59.516 70.7741 59.516 70.5959C59.516 69.9008 59.516 69.1523 59.516 68.3681C59.516 65.2493 59.516 61.5423 59.4982 57.4255C59.4982 55.3581 59.4982 53.2017 59.4982 50.9739C59.4982 49.8512 59.4982 48.7106 59.4982 47.5521C59.4804 46.964 59.6942 46.3581 60.1041 45.9303C60.514 45.4848 61.1021 45.2353 61.7259 45.2353C62.92 45.2353 64.0784 45.2353 65.2368 45.2353C65.522 45.2353 65.8071 45.2175 66.1101 45.2531C66.3953 45.2887 66.6804 45.3779 66.9299 45.5383C67.4289 45.8234 67.8032 46.3224 67.9636 46.8749C68.0349 47.1422 68.0527 47.4452 68.0527 47.7125C68.0527 47.9977 68.0527 48.265 68.0527 48.5323C68.0527 49.0848 68.0527 49.6195 68.0527 50.1719C68.0527 51.2413 68.0527 52.3106 68.0527 53.3264C68.0527 57.4433 68.0527 61.1502 68.0349 64.2691C68.0349 65.8196 68.0349 67.2275 68.0349 68.475C68.0349 69.0988 68.0349 69.6691 68.0349 70.2038C68.0349 70.4711 68.0349 70.7206 68.0349 70.9701C68.0349 71.2196 67.9814 71.4513 67.9101 71.6473C67.7675 72.0572 67.518 72.378 67.2685 72.5919C67.019 72.8058 66.7517 72.9305 66.5378 73.0018C66.324 73.0731 66.1457 73.0909 66.021 73.1087C65.8784 73.1087 65.825 73.1087 65.825 73.1087Z" fill="#1A2E35"/>
<path d="M34.1733 60.2058C34.1555 60.188 35.6525 57.9246 37.5238 55.1444C39.3951 52.3642 40.9278 50.1186 40.9456 50.1364C40.9634 50.1543 39.4664 52.4176 37.5951 55.1979C35.7416 57.9781 34.2089 60.2236 34.1733 60.2058Z" fill="#1A2E35"/>
<path d="M31.2684 60.2059C31.2684 60.2059 31.2684 60.1881 31.2862 60.1703C31.304 60.1346 31.3218 60.099 31.3575 60.0633C31.4288 59.9564 31.5179 59.8138 31.6426 59.6356C31.8921 59.2613 32.2486 58.7267 32.6941 58.0673C33.5852 56.7485 34.8506 54.9484 36.2585 52.9702C37.6664 50.992 38.9318 49.192 39.8407 47.891C40.2863 47.2494 40.6605 46.7147 40.91 46.3405C41.0348 46.1622 41.1239 46.0197 41.1952 45.9127C41.2308 45.8771 41.2486 45.8414 41.2665 45.8058C41.2843 45.788 41.3021 45.7702 41.3021 45.7702C41.3021 45.7702 41.3021 45.788 41.2843 45.8058C41.2665 45.8414 41.2486 45.8771 41.213 45.9127C41.1417 46.0197 41.0526 46.1622 40.9278 46.3405C40.6783 46.7147 40.3219 47.2494 39.8763 47.9088C38.9853 49.2276 37.7199 51.0276 36.312 53.0059C34.904 54.9841 33.6387 56.7841 32.7298 58.0851C32.2842 58.7267 31.91 59.2613 31.6604 59.6356C31.5357 59.8138 31.4466 59.9564 31.3753 60.0633C31.3397 60.099 31.3218 60.1346 31.304 60.1703C31.2862 60.1881 31.2684 60.2059 31.2684 60.2059Z" fill="#1A2E35"/>
<path d="M84.1813 80.5761C84.1813 80.5761 84.217 80.5761 84.2882 80.5761C84.3595 80.594 84.4486 80.6118 84.5556 80.7009C84.6625 80.79 84.7516 80.9326 84.7516 81.1286C84.7516 81.3247 84.7516 81.5385 84.7516 81.788C84.7516 82.7861 84.7516 84.2118 84.7694 85.994C84.7694 86.4395 84.7694 86.9029 84.7694 87.3841C84.7873 87.6336 84.6269 87.9188 84.3774 88.0079C84.3061 88.0257 84.2526 88.0435 84.1813 88.0435H83.9853C83.8605 88.0435 83.7358 88.0435 83.5932 88.0435C82.5417 88.0435 81.4367 88.0435 80.2605 88.0435C77.908 88.0435 75.3417 88.0435 72.6327 88.0435C72.4545 88.0435 72.2763 87.9544 72.1515 87.8118C72.0981 87.7405 72.0624 87.6514 72.0446 87.5623C72.0268 87.4732 72.0268 87.3841 72.0268 87.295C72.0268 86.9564 72.0268 86.6356 72.0268 86.297C72.0268 85.6376 72.0268 84.996 72.0268 84.3544C72.0268 83.7128 72.0268 83.089 72.0268 82.4831C72.0268 82.1801 72.0268 81.8771 72.0268 81.5742C72.0268 81.4316 72.0268 81.2712 72.0268 81.1286C72.0268 80.9682 72.0981 80.8078 72.205 80.7009C72.3119 80.594 72.4723 80.5227 72.6327 80.5227C72.7753 80.5227 72.9179 80.5227 73.0604 80.5227C73.3456 80.5227 73.6307 80.5227 73.8981 80.5227C74.4506 80.5227 74.9852 80.5227 75.5199 80.5227C76.5535 80.5227 77.5337 80.5227 78.4248 80.5227C80.1892 80.5227 81.6328 80.5405 82.6308 80.5405C83.1298 80.5405 83.5041 80.5405 83.7714 80.5405C83.8962 80.5405 84.0031 80.5405 84.0744 80.5405C84.1457 80.5761 84.1813 80.5761 84.1813 80.5761C84.1813 80.5761 84.1457 80.5761 84.0744 80.5761C84.0031 80.5761 83.914 80.5761 83.7714 80.5761C83.5041 80.5761 83.1298 80.5761 82.6308 80.5761C81.6328 80.5761 80.207 80.5761 78.4248 80.594C77.5337 80.594 76.5714 80.594 75.5199 80.594C75.003 80.594 74.4506 80.594 73.8981 80.594C73.6129 80.594 73.3456 80.594 73.0604 80.594C72.9179 80.594 72.7753 80.594 72.6327 80.594C72.4901 80.594 72.3654 80.6474 72.2763 80.7365C72.1872 80.8256 72.1159 80.9682 72.1159 81.1108C72.1159 81.2534 72.1159 81.4138 72.1159 81.5563C72.1159 81.8593 72.1159 82.1623 72.1159 82.4653C72.1159 83.0712 72.1159 83.7128 72.1159 84.3366C72.1159 84.9781 72.1159 85.6197 72.1159 86.2792C72.1159 86.5999 72.1159 86.9386 72.1159 87.2772C72.1159 87.3663 72.1159 87.4376 72.1337 87.5089C72.1515 87.5801 72.1872 87.6514 72.2228 87.7227C72.3119 87.8475 72.4723 87.9188 72.6327 87.9188C75.3417 87.9188 77.908 87.9188 80.2605 87.9188C81.4367 87.9188 82.5417 87.9188 83.5932 87.9188C83.7179 87.9188 83.8605 87.9188 83.9853 87.9188C84.11 87.9188 84.2348 87.9366 84.3417 87.8831C84.5734 87.8118 84.716 87.5801 84.6982 87.3306C84.6982 86.8494 84.6982 86.3861 84.6982 85.9405C84.6982 84.1762 84.716 82.7326 84.716 81.7346C84.716 81.4851 84.716 81.2712 84.716 81.0752C84.716 80.8791 84.6269 80.7365 84.5378 80.6474C84.4486 80.5583 84.3417 80.5227 84.2704 80.5227C84.217 80.5761 84.1813 80.5761 84.1813 80.5761Z" fill="#1A2E35"/>
<path d="M73.4168 88.0079C73.4464 88.0079 73.4703 86.3482 73.4703 84.3009C73.4703 82.2536 73.4464 80.594 73.4168 80.594C73.3873 80.594 73.3634 82.2536 73.3634 84.3009C73.3634 86.3482 73.3873 88.0079 73.4168 88.0079Z" fill="#1A2E35"/>
<path d="M74.8072 88.0079C74.8367 88.0079 74.8606 86.3482 74.8606 84.3009C74.8606 82.2536 74.8367 80.594 74.8072 80.594C74.7776 80.594 74.7537 82.2536 74.7537 84.3009C74.7537 86.3482 74.7776 88.0079 74.8072 88.0079Z" fill="#1A2E35"/>
<path d="M76.2151 88.0079C76.2446 88.0079 76.2686 86.3482 76.2686 84.3009C76.2686 82.2536 76.2446 80.594 76.2151 80.594C76.1856 80.594 76.1616 82.2536 76.1616 84.3009C76.1616 86.3482 76.1856 88.0079 76.2151 88.0079Z" fill="#1A2E35"/>
<path d="M77.6054 88.0079C77.635 88.0079 77.6589 86.3482 77.6589 84.3009C77.6589 82.2536 77.635 80.594 77.6054 80.594C77.5759 80.594 77.552 82.2536 77.552 84.3009C77.552 86.3482 77.5759 88.0079 77.6054 88.0079Z" fill="#1A2E35"/>
<path d="M79.0133 88.0079C79.0429 88.0079 79.0668 86.3482 79.0668 84.3009C79.0668 82.2536 79.0429 80.594 79.0133 80.594C78.9838 80.594 78.9599 82.2536 78.9599 84.3009C78.9599 86.3482 78.9838 88.0079 79.0133 88.0079Z" fill="#1A2E35"/>
<path d="M80.4037 88.0079C80.4332 88.0079 80.4571 86.3482 80.4571 84.3009C80.4571 82.2536 80.4332 80.594 80.4037 80.594C80.3742 80.594 80.3502 82.2536 80.3502 84.3009C80.3502 86.3482 80.3742 88.0079 80.4037 88.0079Z" fill="#1A2E35"/>
<path d="M81.8116 88.0079C81.8411 88.0079 81.8651 86.3482 81.8651 84.3009C81.8651 82.2536 81.8411 80.594 81.8116 80.594C81.7821 80.594 81.7581 82.2536 81.7581 84.3009C81.7581 86.3482 81.7821 88.0079 81.8116 88.0079Z" fill="#1A2E35"/>
<path d="M83.2019 88.0079C83.2315 88.0079 83.2554 86.3482 83.2554 84.3009C83.2554 82.2536 83.2315 80.594 83.2019 80.594C83.1724 80.594 83.1485 82.2536 83.1485 84.3009C83.1485 86.3482 83.1724 88.0079 83.2019 88.0079Z" fill="#1A2E35"/>
<path d="M112.251 43.5601H69.7278V48.9245H112.251V43.5601Z" fill="#1A2E35"/>
<path d="M45.4907 43.5601H20.7896V48.9245H45.4907V43.5601Z" fill="#1A2E35"/>
<path d="M140.392 58.1029C140.374 58.1029 140.339 55.7683 140.339 52.8989C140.339 50.0118 140.357 47.6771 140.392 47.6771C140.41 47.6771 140.446 50.0118 140.446 52.8989C140.446 55.7683 140.41 58.1029 140.392 58.1029Z" fill="#1A2E35"/>
<path d="M22.0897 76.5663C22.0719 76.5663 22.0363 73.5722 22.0363 69.8653C22.0363 66.1583 22.0541 63.1642 22.0897 63.1642C22.1254 63.1642 22.1432 66.1583 22.1432 69.8653C22.1432 73.5722 22.1076 76.5663 22.0897 76.5663Z" fill="white"/>
<path d="M49.8952 61.2703C50.0726 60.9865 50.1961 60.7438 50.1711 60.7281C50.146 60.7125 49.9819 60.9299 49.8046 61.2137C49.6272 61.4974 49.5037 61.7402 49.5288 61.7558C49.5538 61.7715 49.7179 61.5541 49.8952 61.2703Z" fill="white"/>
<path d="M53.5457 58.2453C53.5457 58.2453 53.5278 58.281 53.51 58.3166C53.4744 58.3701 53.4387 58.4414 53.3853 58.5305C53.2783 58.7265 53.1179 58.9938 52.9219 59.3324C52.5298 60.0097 51.9595 60.9186 51.2823 61.8988C50.6051 62.879 49.9635 63.7345 49.4823 64.3404C49.2328 64.6434 49.0367 64.8929 48.8941 65.0533C48.8229 65.1246 48.7694 65.1959 48.7338 65.2493C48.6981 65.285 48.6803 65.3206 48.6803 65.3028C48.6803 65.3028 48.6981 65.2671 48.7338 65.2315C48.7694 65.178 48.8229 65.1067 48.8763 65.0355C49.0189 64.8572 49.1971 64.6077 49.4288 64.3048C49.8922 63.681 50.5338 62.8255 51.211 61.8453C51.8882 60.8651 52.4585 59.9562 52.8684 59.2968C53.0645 58.976 53.2249 58.7087 53.3496 58.5126C53.4031 58.4235 53.4387 58.3522 53.4922 58.2988C53.5278 58.2631 53.5457 58.2453 53.5457 58.2453Z" fill="white"/>
<path d="M63.3265 57.7712C64.3623 56.1203 65.1817 54.7693 65.1567 54.7536C65.1317 54.7379 64.2717 56.0635 63.2359 57.7144C62.2001 59.3652 61.3806 60.7163 61.4057 60.732C61.4307 60.7477 62.2907 59.4221 63.3265 57.7712Z" fill="white"/>
<path d="M63.9458 60.2339C65.4367 57.8 66.6248 55.8143 66.5996 55.7989C66.5745 55.7835 65.3455 57.7441 63.8546 60.1781C62.3638 62.612 61.1756 64.5976 61.2008 64.613C61.226 64.6285 62.455 62.6679 63.9458 60.2339Z" fill="white"/>
<path d="M46.2745 71.3802C46.2567 71.3802 46.2211 66.4613 46.2211 60.4019C46.2211 54.3246 46.2389 49.4236 46.2745 49.4236C46.3102 49.4236 46.328 54.3424 46.328 60.4019C46.3102 66.4613 46.2923 71.3802 46.2745 71.3802Z" fill="white"/>
<path d="M48.2166 41.7247C48.2166 41.7425 42.4602 41.7781 35.3492 41.7781C28.2383 41.7781 22.4818 41.7603 22.4818 41.7247C22.4818 41.689 28.2383 41.6712 35.3492 41.6712C42.4602 41.689 48.2166 41.7068 48.2166 41.7247Z" fill="white"/>
<path d="M75.6447 41.7247C75.6447 41.7425 73.4883 41.7781 70.8328 41.7781C68.1773 41.7781 66.0209 41.7603 66.0209 41.7247C66.0209 41.689 68.1773 41.6712 70.8328 41.6712C73.5061 41.689 75.6447 41.7068 75.6447 41.7247Z" fill="white"/>
<path d="M71.1003 83.8556C71.0824 83.8556 71.0468 81.1823 71.0468 77.8674C71.0468 74.5704 71.0646 71.8792 71.1003 71.8792C71.1359 71.8792 71.1537 74.5525 71.1537 77.8674C71.1537 81.1823 71.1359 83.8556 71.1003 83.8556Z" fill="white"/>
<path d="M58.1085 85.798C58.0907 85.798 58.055 82.2158 58.055 77.796C58.055 73.3762 58.0729 69.794 58.1085 69.794C58.1263 69.794 58.162 73.3762 58.162 77.796C58.1441 82.2158 58.1263 85.798 58.1085 85.798Z" fill="white"/>
<path d="M105.033 39.7818C105.033 39.7996 99.3661 39.8353 92.3621 39.8353C85.3581 39.8353 79.6907 39.8175 79.6907 39.7818C79.6907 39.7462 85.3581 39.7284 92.3621 39.7284C99.3661 39.7284 105.033 39.7462 105.033 39.7818Z" fill="white"/>
<path d="M132.728 42.3839C132.728 42.4018 128.184 42.4374 122.588 42.4374C116.992 42.4374 112.447 42.4196 112.447 42.3839C112.447 42.3661 116.992 42.3305 122.588 42.3305C128.184 42.3305 132.728 42.3483 132.728 42.3839Z" fill="white"/>
<path d="M130.876 43.5601H113.731V87.9901H130.876V43.5601Z" fill="#FAFAFA"/>
<path d="M130.875 88.0079C130.875 88.0079 130.875 87.9366 130.875 87.794C130.875 87.6515 130.875 87.4376 130.875 87.1524C130.875 86.5821 130.875 85.7623 130.875 84.6752C130.875 82.5187 130.875 79.3643 130.858 75.4256C130.858 67.5305 130.84 56.4275 130.84 43.5779L130.893 43.6313C125.529 43.6313 119.737 43.6313 113.749 43.6313L113.802 43.5779C113.802 61.0968 113.784 76.887 113.784 88.0079L113.749 87.9723C119.077 87.9723 123.355 87.9901 126.313 87.9901C127.792 87.9901 128.933 87.9901 129.717 87.9901C130.109 87.9901 130.394 87.9901 130.608 87.9901C130.768 88.0079 130.875 88.0079 130.875 88.0079C130.875 88.0079 130.768 88.0079 130.572 88.0079C130.376 88.0079 130.073 88.0079 129.699 88.0079C128.915 88.0079 127.774 88.0079 126.313 88.0079C123.355 88.0079 119.059 88.0257 113.731 88.0257H113.695V87.9901C113.695 76.8692 113.695 61.0612 113.677 43.5601V43.5066H113.731C119.719 43.5066 125.511 43.5066 130.875 43.5066H130.929V43.5601C130.929 56.4275 130.911 67.5483 130.911 75.4434C130.911 79.3821 130.893 82.5366 130.893 84.693C130.893 85.7623 130.893 86.6 130.893 87.1524C130.893 87.4376 130.893 87.6515 130.893 87.794C130.875 87.9366 130.875 88.0079 130.875 88.0079Z" fill="#1A2E35"/>
<path d="M137.631 72.1464H132.213V43.6136H137.702L137.631 72.1464Z" fill="#FAFAFA"/>
<path d="M137.63 72.1464C137.63 72.1464 137.63 72.093 137.63 72.0038C137.63 71.9147 137.63 71.7722 137.63 71.5761C137.63 71.2019 137.63 70.6494 137.63 69.9543C137.63 68.5464 137.63 66.4969 137.63 63.9305C137.63 58.8156 137.648 51.6869 137.666 43.5957L137.719 43.6492C135.973 43.6492 134.137 43.6492 132.266 43.6492C132.248 43.6492 132.23 43.6492 132.23 43.6492L132.284 43.5957C132.266 55.6077 132.266 66.1583 132.266 72.1286L132.248 72.1108C133.959 72.1108 135.313 72.1286 136.24 72.1286C136.703 72.1286 137.06 72.1286 137.291 72.1286C137.416 72.1286 137.505 72.1286 137.559 72.1286C137.594 72.1464 137.63 72.1464 137.63 72.1464C137.63 72.1464 137.594 72.1464 137.541 72.1464C137.488 72.1464 137.398 72.1464 137.274 72.1464C137.042 72.1464 136.686 72.1464 136.222 72.1464C135.295 72.1464 133.941 72.1464 132.212 72.1642H132.194V72.1464C132.194 66.1583 132.177 55.6255 132.177 43.6135V43.5601H132.23C132.248 43.5601 132.248 43.5601 132.266 43.5601C134.137 43.5601 135.955 43.5601 137.719 43.5601H137.773V43.6135C137.737 51.7225 137.719 58.8513 137.701 63.9662C137.684 66.5147 137.684 68.5642 137.666 69.9721C137.666 70.6672 137.666 71.2197 137.648 71.5939C137.648 71.7722 137.648 71.9147 137.648 72.0038C137.63 72.093 137.63 72.1464 137.63 72.1464Z" fill="#1A2E35"/>
<path d="M128.505 59.2612C128.505 59.2434 128.684 59.2969 129.165 59.3147C129.664 59.3325 130.573 59.2256 130.68 59.2434C130.787 59.2434 132.105 59.3147 132.105 59.3147C132.105 59.3147 131.802 59.5999 131.553 59.5642C131.303 59.5286 130.822 59.582 130.822 59.582L130.644 59.5642L131.036 59.8494L130.929 61.1504C130.929 61.1504 130.822 61.2395 130.733 61.1147C130.644 60.99 130.697 60.7405 130.697 60.7405L130.519 61.3108C130.519 61.3108 130.341 61.382 130.234 61.2573C130.145 61.1325 130.216 60.9721 130.216 60.9721L130.163 60.4731L129.771 60.0632L129.307 60.2236L129.557 60.7939C129.557 60.7939 129.806 61.2929 129.753 61.3464C129.699 61.3999 129.646 61.5781 129.503 61.382C129.361 61.2038 129.325 61.0256 129.183 60.9543C129.04 60.883 128.238 60.384 128.095 59.9919L128.505 59.2612Z" fill="#FFC19D"/>
<path d="M119.968 54.9304C119.968 54.9304 120.414 55.1621 120.627 55.3938C120.841 55.6255 123.8 57.6572 123.8 57.6572L127.346 58.673L128.79 59.2612L128.344 60.58L126.901 60.2414C126.901 60.2414 125.226 60.0453 124.21 59.9562C123.194 59.8671 122.624 59.5107 122.624 59.5107L120.61 58.3522L119.772 55.9463L119.968 54.9304Z" fill="#2A9E66"/>
<path d="M125.689 70.5426L123.586 75.6574H112.786V70.5426L125.6 70.3822" fill="#E1E1E1"/>
<path d="M116.279 64.8396C116.279 64.8396 116.76 66.6396 118.721 67.2099C120.663 67.7802 126.954 67.4594 126.954 67.4594L127.881 73.8396L130.893 73.4297C130.893 73.4297 129.467 65.8554 129.485 65.3029C129.503 64.4475 129.129 63.8593 128.238 63.8593C127.685 63.8593 121.59 63.5029 121.59 63.5029L120.645 62.79L116.6 64.2871L116.279 64.8396Z" fill="#1A2E35"/>
<path d="M125.421 69.4018C125.421 69.4018 126.117 69.3483 126.134 68.6533C126.134 68.3147 126.134 67.8691 126.134 67.4949C126.134 67.1028 125.814 66.782 125.404 66.782H116.261L115.53 67.1741L115.334 68.2612L115.709 69.188L125.421 69.4018Z" fill="#375A64"/>
<path d="M121.233 49.2454C121.055 49.0315 120.823 48.8355 120.77 48.5681C120.716 48.3186 120.823 48.0335 120.699 47.8196C120.538 47.5523 120.146 47.4988 119.968 47.2493C119.879 47.1246 119.843 46.9642 119.754 46.8394C119.611 46.6255 119.309 46.5721 119.059 46.5899C118.81 46.6077 118.56 46.7147 118.293 46.7325C117.936 46.7503 117.58 46.6434 117.223 46.7325C116.849 46.8394 116.617 47.178 116.368 47.4988L116.047 47.8731C115.976 47.9444 115.905 47.9978 115.833 48.0513C115.691 48.1404 115.548 48.1939 115.423 48.3008C115.174 48.5325 115.192 48.9959 115.459 49.2097C115.192 49.2988 114.996 49.584 114.996 49.8691C114.996 50.0295 115.067 50.1721 115.12 50.3325C115.174 50.4751 115.192 50.6533 115.138 50.7959C115.067 50.9384 114.889 51.0454 114.746 50.9563C114.8 51.1523 114.942 51.3484 115.138 51.4375C115.067 51.5087 114.96 51.5622 114.853 51.5622C115.138 52.2394 115.922 52.5959 116.653 52.5959C117.384 52.5959 118.097 52.3286 118.774 52.0612L120.752 51.5444C120.93 51.5088 121.002 51.2949 121.002 51.1167C121.002 50.9385 120.948 50.7602 121.019 50.582C121.109 50.3503 121.376 50.2256 121.465 50.0117C121.572 49.7444 121.412 49.4592 121.233 49.2454Z" fill="#1A2E35"/>
<path d="M116.546 51.0455C116.404 50.6 116.261 50.1544 116.208 49.6732C116.136 49.2099 116.154 48.7287 116.332 48.2831C116.35 48.2119 116.564 47.7663 116.635 47.7841C116.689 47.7841 116.546 48.2118 116.582 48.2475C116.831 48.6752 116.885 49.1742 116.849 49.6554C116.796 50.1366 116.689 50.5822 116.546 51.0455Z" fill="#1A2E35"/>
<path d="M116.511 49.2456C116.475 48.0694 117.135 47.0713 118.311 47.0713H118.418C119.505 47.1426 120.378 48.0337 120.396 49.1387C120.414 50.1545 120.432 51.2951 120.378 51.8298C120.289 52.9526 119.148 53.0595 119.148 53.0595L119.184 54.913L116.422 53.1843L116.511 49.2456Z" fill="#FFC19D"/>
<path d="M119.184 53.0594C119.184 53.0594 118.471 53.0594 117.741 52.5425C117.741 52.5425 118.044 53.4871 119.184 53.4515V53.0594Z" fill="#FF9C6A"/>
<path d="M119.772 50.1011C119.772 50.1902 119.701 50.2615 119.612 50.2615C119.523 50.2615 119.452 50.1902 119.452 50.1011C119.452 50.012 119.523 49.9407 119.612 49.9407C119.701 49.9407 119.772 50.012 119.772 50.1011Z" fill="#1A2E35"/>
<path d="M120.147 49.6018C120.129 49.6196 120.004 49.5305 119.844 49.5127C119.665 49.4949 119.541 49.584 119.523 49.5661C119.523 49.5483 119.541 49.5127 119.594 49.477C119.648 49.4414 119.755 49.4057 119.861 49.4057C119.968 49.4057 120.058 49.4592 120.111 49.4948C120.129 49.5483 120.147 49.584 120.147 49.6018Z" fill="#1A2E35"/>
<path d="M118.276 50.0297C118.276 50.1189 118.204 50.1901 118.115 50.1901C118.026 50.1901 117.955 50.1189 117.955 50.0297C117.955 49.9406 118.026 49.8693 118.115 49.8693C118.222 49.8872 118.293 49.9585 118.276 50.0297Z" fill="#1A2E35"/>
<path d="M118.436 49.5664C118.418 49.5842 118.293 49.4951 118.133 49.4773C117.955 49.4594 117.83 49.5485 117.812 49.5307C117.812 49.5129 117.83 49.4773 117.883 49.4416C117.937 49.406 118.044 49.3703 118.151 49.3703C118.258 49.3703 118.347 49.4238 118.4 49.4594C118.436 49.5129 118.454 49.5485 118.436 49.5664Z" fill="#1A2E35"/>
<path d="M118.97 50.9385C118.97 50.9207 119.077 50.9207 119.255 50.9028C119.308 50.9028 119.344 50.9028 119.344 50.8672C119.362 50.8315 119.344 50.7781 119.326 50.7424C119.291 50.6355 119.255 50.5108 119.219 50.4038C119.059 49.9048 118.952 49.5127 118.97 49.5127C118.988 49.5127 119.13 49.9048 119.291 50.386C119.326 50.5108 119.362 50.6177 119.398 50.7246C119.415 50.7781 119.433 50.8315 119.415 50.9028C119.398 50.9385 119.362 50.9563 119.344 50.9563C119.308 50.9563 119.291 50.9563 119.273 50.9563C119.095 50.9385 118.97 50.9385 118.97 50.9385Z" fill="#1A2E35"/>
<path d="M118.453 51.0276C118.489 51.0276 118.471 51.2237 118.632 51.3662C118.792 51.5088 118.988 51.5088 118.988 51.5266C118.988 51.5445 118.935 51.5623 118.863 51.5623C118.774 51.5623 118.667 51.5266 118.56 51.4375C118.471 51.3484 118.436 51.2415 118.436 51.1524C118.418 51.0633 118.453 51.0098 118.453 51.0276Z" fill="#1A2E35"/>
<path d="M118.471 48.8534C118.453 48.9068 118.275 48.8712 118.079 48.8712C117.865 48.8712 117.704 48.9247 117.687 48.889C117.669 48.8712 117.704 48.8177 117.776 48.7821C117.847 48.7465 117.954 48.7108 118.079 48.693C118.204 48.693 118.31 48.7108 118.382 48.7464C118.435 48.7999 118.471 48.8356 118.471 48.8534Z" fill="#1A2E35"/>
<path d="M120.111 49.0138C120.075 49.0495 119.968 48.996 119.825 48.996C119.683 48.9782 119.558 49.0138 119.54 48.9604C119.522 48.9426 119.558 48.9069 119.611 48.8713C119.665 48.8356 119.754 48.8178 119.861 48.8178C119.968 48.8356 120.039 48.8713 120.093 48.9069C120.111 48.9604 120.111 48.996 120.111 49.0138Z" fill="#1A2E35"/>
<path d="M116.564 50.0831C116.546 50.0652 115.798 49.7979 115.78 50.5821C115.762 51.3484 116.546 51.2237 116.546 51.188C116.529 51.1702 116.564 50.0831 116.564 50.0831Z" fill="#FFC19D"/>
<path d="M116.297 50.903C116.297 50.903 116.28 50.9208 116.262 50.9208C116.244 50.9386 116.208 50.9386 116.155 50.9208C116.066 50.8852 116.012 50.7604 116.012 50.6178C116.012 50.5465 116.03 50.4753 116.048 50.4218C116.066 50.3683 116.119 50.3327 116.155 50.3149C116.191 50.3149 116.226 50.3327 116.226 50.3505C116.244 50.3683 116.226 50.3861 116.226 50.3861C116.226 50.3861 116.244 50.3683 116.244 50.3327C116.244 50.3149 116.226 50.297 116.208 50.2792C116.191 50.2614 116.155 50.2614 116.137 50.2614C116.084 50.2614 116.03 50.3149 115.994 50.3683C115.959 50.4218 115.941 50.5109 115.941 50.5822C115.941 50.7426 116.012 50.8852 116.119 50.9208C116.173 50.9386 116.226 50.9208 116.244 50.903C116.297 50.9208 116.315 50.903 116.297 50.903Z" fill="#FF9C6A"/>
<path d="M119.933 47.8554C120.058 47.7841 119.683 47.3742 119.38 47.2317C118.917 47.0178 118.204 46.8752 117.776 46.9821C117.259 47.1247 116.832 47.3742 116.564 47.8376C116.297 48.301 116.19 48.8534 116.19 49.3881C116.19 49.5485 116.208 49.7267 116.297 49.8693C116.404 50.0475 116.6 50.1544 116.6 50.3861C116.6 50.4752 116.618 50.5644 116.671 50.6178C116.814 50.7782 116.992 50.6356 117.063 50.4931C117.242 50.1901 117.259 49.8337 117.295 49.4772C117.313 49.2277 117.331 48.9782 117.259 48.7465C117.224 48.6218 117.17 48.497 117.135 48.3544C117.099 48.2297 117.117 48.0693 117.206 47.9624C117.224 47.9445 117.242 47.9267 117.277 47.9089C117.491 47.7128 117.812 47.6772 118.079 47.7663C118.507 47.9267 119.256 48.1762 119.452 48.0336C119.737 47.8198 119.808 47.695 119.808 47.695L119.933 47.8554Z" fill="#1A2E35"/>
<path d="M117.83 46.8751C118.257 46.7503 118.738 46.7503 119.131 46.9642C119.344 47.0711 119.523 47.2493 119.594 47.481C119.647 47.7127 119.558 47.9979 119.327 48.0692L119.309 48.087C118.97 48.1939 118.756 48.1404 118.436 48.0157C118.168 47.9088 117.919 47.7305 117.651 47.6414C117.366 47.5345 117.028 47.5167 116.725 47.588C117.028 47.285 117.402 46.9998 117.83 46.8751Z" fill="#1A2E35"/>
<path d="M116.261 53.3444C116.261 53.3444 114.64 55.2335 114.657 56.5702C114.657 57.283 116.297 64.8395 116.297 64.8395L120.842 63.1643C121.127 63.0573 121.305 62.7722 121.251 62.4692L120.645 58.5128L119.986 54.9484L119.309 54.4494L119.255 54.0751L119.166 53.8969L116.529 52.7741L116.261 53.3444Z" fill="#2A9E66"/>
<path d="M127.347 62.2552L130.68 62.6473L131.018 62.077L129.022 61.5245L127.614 61.6314L127.347 62.2552Z" fill="#1A2E35"/>
<path d="M133.496 59.19L132.676 62.0771H133.513L134.654 58.9226L133.496 59.19Z" fill="#1A2E35"/>
<path d="M128.006 72.2713C128.006 72.2713 129.61 63.4673 129.877 62.8079C130.144 62.1484 130.091 61.8633 131.16 61.7742C132.212 61.6851 137.63 61.7742 137.63 61.7742V72.1465L130.875 72.2535L130.839 75.7466L127.328 75.5862L128.006 72.2713Z" fill="#1A2E35"/>
<path d="M113.392 49.6373C113.392 49.6373 114.853 49.7799 115.067 50.3502C115.228 50.7601 115.156 52.3997 115.103 53.273C115.085 53.5759 114.835 53.8076 114.533 53.8076C114.533 53.8076 115.281 54.467 115.352 54.7165C115.424 54.9839 116.814 63.3423 116.671 64.8216C116.529 66.3008 116.101 67.0137 116.101 67.0137L113.392 67.1562V49.6373Z" fill="#375A64"/>
<path d="M116.85 66.8357C116.832 66.8179 118.65 62.0416 118.988 60.4911C119.345 58.9406 119.291 54.4138 119.291 54.4138C119.434 54.4138 119.915 54.7524 120.058 54.9307C120.058 54.9307 120.004 59.0119 119.79 60.598C119.594 62.1664 118.026 67.2278 118.026 67.2278L116.85 66.8357Z" fill="#1A2E35"/>
<path d="M116.85 66.8357C116.85 66.8357 116.885 66.8357 116.921 66.8535C116.974 66.8713 117.046 66.8891 117.153 66.9248C117.367 66.9961 117.652 67.0852 118.044 67.2099L118.026 67.2277C118.329 66.1941 118.828 64.5366 119.363 62.4515C119.487 61.9346 119.63 61.3822 119.719 60.794C119.808 60.2059 119.844 59.6 119.879 58.9762C119.951 57.7108 119.986 56.3742 120.004 54.9841V54.9663L120.022 55.0019C119.933 54.895 119.79 54.7881 119.666 54.6989C119.594 54.6633 119.541 54.6098 119.47 54.5742C119.398 54.5385 119.327 54.5029 119.273 54.5029L119.327 54.4494C119.327 56.2494 119.309 57.9425 119.167 59.4752C119.131 59.8495 119.077 60.2237 119.006 60.5802C118.917 60.9366 118.81 61.2752 118.721 61.596C118.507 62.2376 118.311 62.8435 118.115 63.3782C117.741 64.4653 117.402 65.3386 117.188 65.9267C116.992 66.4614 116.885 66.7287 116.85 66.8357C116.85 66.8357 116.868 66.7466 116.921 66.5862C116.974 66.4258 117.064 66.1941 117.17 65.8911C117.384 65.2852 117.705 64.4119 118.079 63.3247C118.258 62.7723 118.471 62.1841 118.668 61.5247C118.774 61.2039 118.864 60.8653 118.953 60.5089C119.024 60.1524 119.077 59.7782 119.113 59.4039C119.238 57.8712 119.256 56.1782 119.256 54.396V54.3425H119.309C119.416 54.3603 119.47 54.396 119.541 54.4316C119.612 54.4673 119.683 54.5207 119.737 54.5564C119.862 54.6455 120.004 54.7524 120.111 54.8772L120.129 54.895V54.9128V54.9306C120.111 56.3207 120.058 57.6752 119.986 58.9406C119.951 59.5821 119.915 60.1881 119.826 60.7762C119.719 61.3643 119.594 61.9168 119.452 62.4336C118.899 64.5366 118.382 66.1941 118.079 67.2099V67.2277H118.062C117.687 67.103 117.384 66.9961 117.17 66.9248C117.081 66.8891 116.992 66.8713 116.939 66.8535C116.868 66.8357 116.85 66.8357 116.85 66.8357Z" fill="#375A64"/>
<path d="M116.956 66.9604C116.956 66.8713 118.542 63.9485 120.449 63.2891L121.501 63.592C121.501 63.592 118.382 65.8198 118.043 67.2277L116.956 66.9604Z" fill="#1A2E35"/>
<path d="M116.957 66.9604C116.957 66.9604 116.992 66.9603 117.028 66.9782C117.081 66.996 117.153 67.0138 117.242 67.0316C117.438 67.0673 117.705 67.1386 118.026 67.2099L117.99 67.2277C118.062 66.9604 118.222 66.6574 118.436 66.3544C118.65 66.0693 118.917 65.7485 119.22 65.4455C119.844 64.8217 120.592 64.1801 121.448 63.5564L121.466 63.6455C121.448 63.6455 121.448 63.6455 121.43 63.6277C121.091 63.5207 120.735 63.4316 120.414 63.3247H120.45C119.772 63.5742 119.22 64.0197 118.792 64.4653C118.365 64.9108 118.008 65.3386 117.741 65.7128C117.224 66.4613 116.957 66.9604 116.957 66.9604C116.939 66.9604 116.992 66.8178 117.117 66.6039C117.242 66.3722 117.438 66.0693 117.687 65.6772C117.955 65.3029 118.293 64.8574 118.721 64.4118C119.149 63.9663 119.701 63.5207 120.414 63.2534H120.432H120.45C120.77 63.3425 121.109 63.4494 121.466 63.5564C121.483 63.5564 121.483 63.5564 121.501 63.5742L121.59 63.592L121.519 63.6455C120.664 64.2692 119.915 64.9108 119.291 65.5168C118.988 65.8197 118.721 66.1227 118.507 66.4079C118.293 66.693 118.133 66.9782 118.062 67.2455V67.2633H118.044C117.705 67.1742 117.438 67.1029 117.26 67.0495C117.17 67.0316 117.117 67.0138 117.046 66.996C116.992 66.9782 116.957 66.9604 116.957 66.9604Z" fill="#375A64"/>
<path d="M116.19 54.4136C115.156 54.9304 115.548 56.9978 115.851 57.8889C116.404 59.4394 117.277 61.881 117.74 62.2909C118.382 62.879 122.909 64.4117 122.909 64.4117L123.782 62.7542L119.522 60.4909C119.522 60.4909 119.522 60.1522 119.344 60.0988C119.166 60.0453 118.685 56.873 118.685 56.873C118.685 56.873 118.507 55.6433 118.061 55.0552" fill="#2A9E66"/>
<path d="M118.079 55.0373C118.079 55.0373 118.168 55.1443 118.293 55.3759C118.418 55.6076 118.542 55.9819 118.649 56.4631C118.703 56.7126 118.738 56.9799 118.792 57.2829C118.845 57.5859 118.899 57.9067 118.952 58.2453C119.024 58.5839 119.077 58.9581 119.166 59.3324C119.202 59.5284 119.255 59.7245 119.309 59.9205C119.327 59.974 119.344 60.0275 119.362 60.0453C119.344 60.0453 119.398 60.0631 119.416 60.0809C119.451 60.0987 119.469 60.1166 119.487 60.1522C119.54 60.2591 119.558 60.3661 119.576 60.473L119.558 60.4374C120.806 61.0968 122.249 61.8631 123.818 62.7007L123.853 62.7186L123.836 62.7542C123.55 63.2889 123.265 63.8413 122.962 64.4116L122.944 64.4473L122.909 64.4295C122.641 64.3404 122.374 64.2334 122.089 64.1443C121.216 63.8413 120.378 63.5206 119.576 63.1998C119.166 63.0394 118.792 62.879 118.4 62.7007C118.311 62.6473 118.222 62.6116 118.115 62.5582C118.026 62.5047 117.936 62.4512 117.847 62.3978L117.723 62.3087C117.687 62.273 117.651 62.2374 117.616 62.1839C117.562 62.0948 117.491 62.0235 117.455 61.9344C117.259 61.578 117.099 61.2215 116.956 60.8829C116.814 60.5265 116.671 60.1879 116.546 59.8671C116.297 59.2077 116.065 58.5839 115.869 58.0136C115.655 57.4433 115.548 56.9086 115.513 56.4274C115.477 55.9462 115.495 55.5363 115.584 55.1977C115.673 54.8769 115.816 54.6452 115.958 54.5205C115.816 54.6274 115.691 54.8591 115.602 55.1799C115.513 55.5007 115.513 55.9106 115.548 56.3918C115.602 56.8552 115.709 57.3898 115.923 57.9601C116.136 58.5304 116.35 59.1364 116.6 59.7958C116.725 60.1166 116.867 60.4552 117.01 60.8116C117.152 61.1502 117.313 61.5067 117.509 61.8453C117.616 62.0235 117.705 62.1839 117.883 62.2908C117.972 62.3443 118.061 62.3978 118.15 62.4512C118.239 62.5047 118.329 62.5403 118.418 62.5938C118.792 62.772 119.184 62.9324 119.576 63.0928C120.378 63.4136 121.216 63.7166 122.089 64.0196C122.374 64.1265 122.659 64.2156 122.909 64.3047L122.855 64.3225C123.158 63.7522 123.461 63.1998 123.729 62.6651L123.746 62.7186C122.178 61.8809 120.735 61.1146 119.487 60.4552L119.469 60.4374V60.4195C119.469 60.3126 119.451 60.2057 119.398 60.1344C119.38 60.1166 119.38 60.0987 119.362 60.0809C119.344 60.0631 119.327 60.0809 119.291 60.0275C119.255 59.974 119.237 59.9205 119.22 59.8671C119.166 59.671 119.113 59.475 119.077 59.2789C118.988 58.8869 118.935 58.5304 118.863 58.1918C118.81 57.8532 118.756 57.5324 118.703 57.2294C118.649 56.9264 118.614 56.6591 118.56 56.4274C118.453 55.9462 118.329 55.572 118.222 55.3403C118.168 55.2155 118.115 55.1264 118.079 55.073C118.097 55.073 118.079 55.0373 118.079 55.0373Z" fill="#1A2E35"/>
<path d="M113.392 49.2455C113.392 49.2455 112.572 49.4059 112.358 50.0475C112.145 50.6891 112.358 70.5427 112.358 70.5427H125.689C125.689 70.5427 125.903 69.01 124.477 68.7249C123.052 68.4219 118.133 68.6357 118.133 68.6357C118.133 68.6357 116.404 66.9427 116.012 66.604C115.62 66.2654 115.459 65.9981 114.925 66.105C114.372 66.1941 113.962 66.2654 113.962 66.2654V59.6179L113.374 57.907V49.2455H113.392Z" fill="#1A2E35"/>
<path d="M123.854 64.5546C123.854 64.5546 123.283 64.7863 123.337 65.3744C123.39 65.9625 123.604 66.3546 123.604 66.3546L124.495 75.4972H125.262L124.424 66.016V64.8932L123.854 64.5546Z" fill="#1A2E35"/>
<path d="M123.854 64.5545C123.854 64.5545 123.872 64.5545 123.889 64.5723C123.925 64.5901 123.961 64.6079 123.996 64.6258C124.103 64.6792 124.228 64.7683 124.424 64.8753C124.424 65.1604 124.424 65.5347 124.424 65.9981C124.602 67.9763 124.923 71.4694 125.297 75.4793V75.5328H125.244C125.137 75.5328 125.012 75.5328 124.887 75.5328C124.745 75.5328 124.602 75.5328 124.478 75.5328H124.442V75.4971C124.085 71.7011 123.765 68.3684 123.569 66.3545V66.3723C123.426 66.0693 123.355 65.7842 123.337 65.5347C123.319 65.4099 123.319 65.2852 123.337 65.1783C123.355 65.0713 123.408 64.9822 123.444 64.9109C123.551 64.7683 123.658 64.6792 123.729 64.6436C123.765 64.6258 123.8 64.608 123.818 64.5901C123.854 64.5545 123.854 64.5367 123.854 64.5545C123.854 64.5545 123.836 64.5545 123.818 64.5723C123.8 64.5901 123.765 64.6079 123.729 64.6258C123.658 64.6792 123.551 64.7505 123.444 64.9109C123.39 64.9822 123.355 65.0713 123.337 65.1783C123.319 65.2852 123.337 65.3921 123.355 65.5169C123.39 65.7664 123.462 66.0515 123.604 66.3367C123.8 68.3506 124.139 71.6832 124.513 75.4793L124.46 75.4437C124.584 75.4437 124.727 75.4437 124.87 75.4437C124.994 75.4437 125.119 75.4437 125.226 75.4437L125.173 75.4971C124.816 71.4872 124.513 67.9941 124.353 66.0159C124.353 65.5525 124.371 65.1782 124.371 64.8931V64.9109C124.192 64.804 124.068 64.7149 123.961 64.6614C123.925 64.6258 123.889 64.608 123.854 64.5901C123.872 64.5545 123.854 64.5545 123.854 64.5545Z" fill="#375A64"/>
<path d="M119.166 53.9148C119.166 53.9148 119.184 53.986 119.166 54.1286C119.148 54.2712 119.095 54.4494 118.988 54.6633L118.97 54.6989L118.934 54.6811C118.649 54.5742 118.311 54.4316 117.936 54.2534C117.473 54.0395 117.063 53.8257 116.76 53.6653C116.475 53.5049 116.297 53.3801 116.297 53.3801C116.297 53.3623 116.493 53.4692 116.796 53.6118C117.099 53.7544 117.509 53.9682 117.972 54.1821C118.346 54.3603 118.685 54.5029 118.97 54.6276L118.916 54.6455C119.148 54.2356 119.148 53.9148 119.166 53.9148Z" fill="#1A2E35"/>
<path d="M120.272 55.9463C120.272 55.9463 120.289 56.0176 120.307 56.1602C120.325 56.3206 120.343 56.4988 120.378 56.7127C120.432 57.1939 120.539 57.8354 120.646 58.5661C120.753 59.279 120.86 59.9206 120.931 60.4196C120.967 60.6335 120.984 60.8295 121.002 60.9721C121.02 61.0969 121.02 61.186 121.02 61.186C121.02 61.186 121.002 61.1147 120.967 60.9899C120.931 60.8473 120.895 60.6513 120.86 60.4374C120.771 59.9741 120.664 59.3147 120.539 58.6018C120.432 57.8889 120.343 57.2295 120.289 56.7483C120.272 56.5166 120.254 56.3206 120.254 56.178C120.272 56.0176 120.272 55.9463 120.272 55.9463Z" fill="#1A2E35"/>
<path d="M137.131 58.0494L126.527 62.6831C126.331 62.7722 126.117 62.6831 126.028 62.4871L125.992 62.4158C125.903 62.2198 125.992 62.0059 126.188 61.9168L136.792 57.2831C136.988 57.194 137.202 57.2831 137.291 57.4791L137.327 57.5504C137.398 57.7465 137.309 57.9603 137.131 58.0494Z" fill="#375A64"/>
<path d="M126.046 65.0889C126.046 64.982 125.725 63.8236 125.618 63.681C125.511 63.5384 123.675 63.0216 123.693 63.0038L123.087 64.0909L123.301 64.2691C123.551 64.5008 123.907 64.6612 123.907 64.6612L124.067 65.2493C124.067 65.2493 124.103 65.5701 124.121 65.677C124.139 65.8018 124.495 65.7662 124.495 65.7662C124.566 65.8731 124.852 65.8018 124.852 65.8018H125.137C125.012 66.0335 125.226 66.0869 125.226 66.0869L125.547 65.9444C126.046 65.8731 125.814 65.5523 125.814 65.5523C125.814 65.5523 126.046 65.1959 126.046 65.0889Z" fill="#FFC19D"/>
<path d="M124.531 65.7662C124.495 65.7662 124.549 65.4632 124.531 65.1068C124.513 64.7503 124.442 64.4652 124.46 64.4473C124.478 64.4473 124.602 64.7147 124.62 65.1068C124.638 65.481 124.549 65.7662 124.531 65.7662Z" fill="#FF9C6A"/>
<path d="M125.066 65.7662C125.048 65.7662 125.083 65.6949 125.101 65.5701C125.119 65.4454 125.119 65.285 125.083 65.1068C125.012 64.7503 124.905 64.4652 124.923 64.4473C124.941 64.4473 124.976 64.5008 125.03 64.6256C125.083 64.7325 125.137 64.8929 125.173 65.0889C125.208 65.285 125.19 65.4632 125.155 65.5879C125.119 65.7127 125.066 65.784 125.066 65.7662Z" fill="#FF9C6A"/>
<path d="M125.083 65.8374C125.083 65.8196 125.155 65.784 125.279 65.6949C125.386 65.6236 125.547 65.4632 125.511 65.2493C125.44 64.8038 125.404 64.4473 125.422 64.4295C125.44 64.4295 125.529 64.786 125.6 65.2315C125.618 65.3563 125.582 65.481 125.511 65.5701C125.44 65.6592 125.368 65.7127 125.297 65.7483C125.172 65.8196 125.083 65.8374 125.083 65.8374Z" fill="#FF9C6A"/>
<path d="M125.778 65.6236C125.76 65.6414 125.689 65.6414 125.618 65.6414C125.529 65.6414 125.475 65.6414 125.457 65.6236C125.439 65.6058 125.511 65.5523 125.618 65.5523C125.725 65.5345 125.796 65.6058 125.778 65.6236Z" fill="#FF9C6A"/>
<path d="M124.459 64.4116C124.441 64.4116 124.459 64.2869 124.388 64.18C124.334 64.0552 124.227 64.0196 124.227 63.9839C124.227 63.9661 124.263 63.9661 124.316 63.9839C124.37 64.0017 124.423 64.0552 124.459 64.1265C124.495 64.1978 124.495 64.2691 124.495 64.3225C124.495 64.3938 124.477 64.4116 124.459 64.4116Z" fill="#FF9C6A"/>
<path d="M124.958 64.2333C124.94 64.2333 124.923 64.1442 124.887 64.0551C124.851 63.966 124.78 63.8947 124.798 63.8769C124.816 63.8591 124.923 63.8947 124.976 64.0195C125.03 64.1264 124.994 64.2333 124.958 64.2333Z" fill="#FF9C6A"/>
<path d="M125.369 64.269C125.351 64.269 125.333 64.1621 125.297 64.0374C125.262 63.9126 125.19 63.8235 125.208 63.8057C125.226 63.7879 125.333 63.8591 125.386 64.0017C125.422 64.1621 125.386 64.2869 125.369 64.269Z" fill="#FF9C6A"/>
<path d="M113.731 43.6136H112.394V88.0436H113.731V43.6136Z" fill="#2A9E66"/>
<path d="M113.731 88.0435C113.731 88.0435 113.731 87.9723 113.731 87.8119C113.731 87.6515 113.731 87.4376 113.731 87.1346C113.731 86.5465 113.731 85.6732 113.731 84.5505C113.731 82.3049 113.731 79.0613 113.713 75.0514C113.713 67.0315 113.695 55.9285 113.695 43.5957L113.749 43.6492C113.321 43.6492 112.875 43.6492 112.412 43.6492L112.465 43.5957C112.448 65.2315 112.43 83.3386 112.43 88.0257L112.412 88.0079C112.857 88.0079 113.196 88.0079 113.428 88.0079C113.624 88.0435 113.731 88.0435 113.731 88.0435C113.731 88.0435 113.624 88.0435 113.41 88.0435C113.178 88.0435 112.857 88.0435 112.394 88.0435H112.376V88.0257C112.376 83.3386 112.358 65.2315 112.341 43.5957V43.5422H112.394C112.857 43.5422 113.303 43.5422 113.731 43.5422H113.784V43.5957C113.784 55.9463 113.766 67.0493 113.766 75.087C113.766 79.097 113.749 82.3405 113.749 84.5683C113.749 85.6911 113.749 86.5465 113.749 87.1346C113.749 87.4198 113.749 87.6515 113.749 87.7941C113.731 87.9723 113.731 88.0435 113.731 88.0435Z" fill="#1A2E35"/>
<path d="M130.644 82.2337C130.644 82.2515 126.883 82.2871 122.232 82.2871C117.58 82.2871 113.82 82.2693 113.82 82.2337C113.82 82.2159 117.58 82.1802 122.232 82.1802C126.866 82.198 130.644 82.2159 130.644 82.2337Z" fill="#1A2E35"/>
<path d="M130.679 85.5129C130.679 85.5307 126.901 85.5664 122.25 85.5664C117.598 85.5664 113.82 85.5485 113.82 85.5129C113.82 85.4951 117.598 85.4594 122.25 85.4594C126.919 85.4594 130.679 85.4772 130.679 85.5129Z" fill="#1A2E35"/>
<path d="M130.894 75.6574C130.894 75.6753 127.044 75.7109 122.304 75.7109C117.563 75.7109 113.713 75.6931 113.713 75.6574C113.713 75.6396 117.563 75.604 122.304 75.604C127.044 75.604 130.894 75.6396 130.894 75.6574Z" fill="#1A2E35"/>
<path d="M130.733 79.0793C130.733 79.0971 126.954 79.1328 122.285 79.1328C117.616 79.1328 113.837 79.1149 113.837 79.0793C113.837 79.0437 117.616 79.0258 122.285 79.0258C126.937 79.0258 130.733 79.0437 130.733 79.0793Z" fill="#1A2E35"/>
<path d="M130.733 61.8452C130.733 61.8452 130.679 61.8631 130.59 61.8809C130.501 61.9165 130.376 61.9878 130.269 62.1304C130.038 62.4155 129.842 62.9145 129.735 63.5561C129.485 64.8571 129.147 66.6393 128.79 68.6176C128.416 70.578 128.059 72.3602 127.81 73.6612C127.685 74.3027 127.578 74.8196 127.507 75.1938C127.471 75.3721 127.436 75.4968 127.418 75.6037C127.4 75.6929 127.382 75.7463 127.382 75.7463C127.382 75.7463 127.382 75.6929 127.4 75.6037C127.418 75.4968 127.436 75.3542 127.471 75.1938C127.543 74.8196 127.632 74.3027 127.756 73.6612C128.006 72.3602 128.345 70.578 128.701 68.5997C129.075 66.6393 129.432 64.8571 129.681 63.5561C129.806 62.9145 130.002 62.3977 130.252 62.1126C130.376 61.97 130.519 61.8987 130.608 61.8631C130.661 61.8452 130.697 61.8452 130.715 61.8452H130.733Z" fill="#375A64"/>
<path d="M116.136 68.0831L116.867 66.9246L117.883 67.192L117.313 68.5108L116.136 68.0831Z" fill="#1A2E35"/>
<path d="M132.213 43.6136H130.876V87.9367H132.213V43.6136Z" fill="#2A9E66"/>
<path d="M132.213 87.9366C132.213 87.9366 132.213 87.8653 132.213 87.7049C132.213 87.5445 132.213 87.3307 132.213 87.0277C132.213 86.4396 132.213 85.5663 132.213 84.4614C132.213 82.2336 132.213 78.99 132.195 74.9801C132.195 66.9781 132.177 55.9107 132.177 43.6135L132.23 43.667C131.803 43.667 131.357 43.667 130.894 43.667L130.947 43.6135C130.929 65.1959 130.912 83.2673 130.912 87.9366L130.894 87.9188C131.339 87.9188 131.678 87.9188 131.91 87.9188C132.106 87.9188 132.213 87.9366 132.213 87.9366C132.213 87.9366 132.106 87.9366 131.892 87.9366C131.66 87.9366 131.339 87.9366 130.876 87.9366H130.858V87.9188C130.858 83.2495 130.84 65.178 130.822 43.5957V43.5422H130.876C131.339 43.5422 131.785 43.5422 132.213 43.5422H132.266V43.5957C132.266 55.9107 132.248 66.9959 132.248 74.9979C132.248 78.99 132.23 82.2336 132.23 84.4614C132.23 85.5663 132.23 86.4396 132.23 87.0277C132.23 87.3128 132.23 87.5445 132.23 87.6871C132.23 87.8475 132.213 87.9366 132.213 87.9366Z" fill="#1A2E35"/>
<path d="M117.937 67.4413L116.868 67.0849C116.725 67.0314 116.636 66.871 116.689 66.7285C116.743 66.5859 116.903 66.4968 117.046 66.5502L118.115 66.9067C118.258 66.9601 118.347 67.1205 118.293 67.2631C118.24 67.4057 118.08 67.477 117.937 67.4413Z" fill="#2A9E66"/>
<path d="M134.474 52.937C133.561 54.4668 132.842 55.7192 132.867 55.7344C132.892 55.7495 133.653 54.5216 134.566 52.9918C135.479 51.462 136.198 50.2096 136.173 50.1944C136.147 50.1793 135.387 51.4072 134.474 52.937Z" fill="#1A2E35"/>
<path d="M132.907 53.5759C132.907 53.5759 132.961 53.4868 133.05 53.3443C133.157 53.1839 133.299 52.9878 133.46 52.7383C133.816 52.2215 134.28 51.5264 134.779 50.7066C135.278 49.9046 135.705 49.1561 135.991 48.6215C136.133 48.3541 136.258 48.1403 136.347 47.9799C136.436 47.8195 136.472 47.7482 136.49 47.7482C136.49 47.7482 136.454 47.8373 136.383 47.9977C136.311 48.1581 136.204 48.3719 136.062 48.6571C135.777 49.2096 135.367 49.9581 134.868 50.7601C134.369 51.5621 133.888 52.2749 133.513 52.774C133.335 53.0235 133.175 53.2195 133.068 53.3621C132.979 53.5047 132.907 53.5759 132.907 53.5759Z" fill="#1A2E35"/>
<path d="M112.394 72.7524C112.376 72.7524 112.341 66.2296 112.341 58.1919C112.341 50.1542 112.358 43.6314 112.394 43.6314C112.43 43.6314 112.448 50.1542 112.448 58.1919C112.448 66.2296 112.43 72.7524 112.394 72.7524Z" fill="#1A2E35"/>
<path d="M81.4916 55.5008H80.4401V92.41H81.4916V55.5008Z" fill="#E1E1E1"/>
<path d="M81.4911 92.4102C81.4911 92.4102 81.4911 92.3389 81.4911 92.2141C81.4911 92.0894 81.4911 91.8933 81.4911 91.6616C81.4911 91.1626 81.4911 90.4498 81.4911 89.523C81.4911 87.6695 81.4911 84.9606 81.4733 81.6279C81.4733 74.9625 81.4555 65.7486 81.4555 55.5188L81.5089 55.5723C81.1881 55.5723 80.8317 55.5723 80.4752 55.5723L80.5287 55.5188C80.5287 73.5368 80.5109 88.6141 80.4931 92.428L80.4752 92.4102C80.8317 92.4102 81.0812 92.4102 81.2594 92.4102C81.402 92.4102 81.4911 92.4102 81.4911 92.4102C81.4911 92.4102 81.402 92.4102 81.2416 92.4102C81.0634 92.4102 80.8139 92.4102 80.4574 92.4102H80.4396V92.3924C80.4218 88.5785 80.404 73.5011 80.404 55.4832V55.4297H80.4574C80.8139 55.4297 81.1703 55.4297 81.4911 55.4297H81.5446V55.4832C81.5446 65.7308 81.5267 74.9625 81.5267 81.6279C81.5267 84.9606 81.5089 87.6517 81.5089 89.5052C81.5089 90.4319 81.5089 91.1448 81.5089 91.6438C81.5089 91.8933 81.5089 92.0716 81.5089 92.1963C81.4911 92.3389 81.4911 92.4102 81.4911 92.4102Z" fill="#1A2E35"/>
<path d="M85.0545 56.4632H76.4287C76.0367 56.4632 75.7337 56.1424 75.7337 55.7682V45.3602C75.7337 44.9681 76.0545 44.6651 76.4287 44.6651H85.0545C85.4466 44.6651 85.7496 44.9859 85.7496 45.3602V55.7682C85.7674 56.1424 85.4466 56.4632 85.0545 56.4632Z" fill="white"/>
<path d="M85.055 56.4632C85.055 56.4632 85.0907 56.4632 85.1619 56.4454C85.2332 56.4275 85.3402 56.4097 85.4471 56.3206C85.554 56.2493 85.6788 56.1067 85.7144 55.8929C85.7322 55.786 85.7322 55.679 85.7322 55.5543C85.7322 55.4295 85.7322 55.3048 85.7322 55.18C85.7322 54.0929 85.7322 52.5424 85.7144 50.6354C85.7144 49.673 85.7144 48.6215 85.7144 47.4988C85.7144 46.9285 85.7144 46.3403 85.7144 45.7522C85.7144 45.6096 85.7144 45.4492 85.7144 45.3067C85.6966 45.1641 85.6431 45.0215 85.5362 44.9146C85.4293 44.8077 85.3045 44.7364 85.1619 44.7185C85.0907 44.7007 85.0194 44.7185 84.9303 44.7185H84.6986C82.15 44.7185 79.3698 44.7185 76.4292 44.7185C76.251 44.7185 76.0906 44.7898 75.9658 44.9146C75.8411 45.0393 75.7698 45.1997 75.7698 45.378C75.7698 45.7344 75.7698 46.0908 75.7698 46.4651C75.7698 47.178 75.7698 47.8908 75.7698 48.5681C75.7698 49.9582 75.7698 51.277 75.7698 52.5602C75.7698 53.2018 75.7698 53.8077 75.7698 54.4137C75.7698 54.7166 75.7698 55.0196 75.7698 55.3048C75.7698 55.4473 75.7698 55.5899 75.7698 55.7325C75.7698 55.8751 75.7876 55.9998 75.8589 56.1246C75.9302 56.2315 76.0193 56.3384 76.1441 56.3919C76.2688 56.4454 76.3936 56.4632 76.5361 56.4632C76.8035 56.4632 77.0708 56.4632 77.3381 56.4632C77.855 56.4632 78.3718 56.4632 78.853 56.4632C80.7778 56.4632 82.3283 56.481 83.3976 56.481C83.9322 56.481 84.3421 56.481 84.6273 56.481C84.7699 56.481 84.8768 56.481 84.9481 56.481C85.0194 56.4454 85.055 56.4632 85.055 56.4632C85.055 56.4632 85.0194 56.4632 84.9481 56.4632C84.8768 56.4632 84.7699 56.4632 84.6273 56.4632C84.3421 56.4632 83.9322 56.4632 83.3976 56.4632C82.3104 56.4632 80.7599 56.4632 78.853 56.481C78.3718 56.481 77.8728 56.481 77.3381 56.481C77.0708 56.481 76.8035 56.481 76.5361 56.481C76.4114 56.481 76.251 56.481 76.1262 56.4097C76.0015 56.3563 75.8767 56.2493 75.8054 56.1067C75.7342 55.982 75.6985 55.8216 75.6985 55.679C75.6985 55.5364 75.6985 55.3939 75.6985 55.2513C75.6985 54.9661 75.6985 54.6632 75.6985 54.3602C75.6985 53.7543 75.6985 53.1305 75.6985 52.5067C75.6985 51.2414 75.6985 49.9047 75.6985 48.5146C75.6985 47.8196 75.6985 47.1245 75.6985 46.4116C75.6985 46.0552 75.6985 45.6988 75.6985 45.3245C75.6985 45.1285 75.7876 44.9324 75.9124 44.8077C76.0549 44.6651 76.251 44.5938 76.447 44.5938C79.3876 44.5938 82.1679 44.5938 84.7164 44.5938H84.9481C85.0194 44.5938 85.1085 44.5938 85.1976 44.6116C85.358 44.6294 85.5184 44.7185 85.6253 44.8433C85.7322 44.9681 85.8035 45.1284 85.8214 45.2888C85.8214 45.4492 85.8214 45.5918 85.8214 45.7522C85.8214 46.3582 85.8214 46.9463 85.8214 47.4988C85.8214 48.6215 85.8214 49.673 85.8214 50.6354C85.8214 52.5602 85.8035 54.1107 85.8035 55.18C85.8035 55.3226 85.8035 55.4473 85.8035 55.5543C85.8035 55.679 85.8035 55.786 85.7857 55.8929C85.7322 56.1067 85.6075 56.2493 85.5006 56.3206C85.3758 56.4097 85.2689 56.4275 85.1976 56.4454C85.0907 56.4632 85.055 56.4632 85.055 56.4632Z" fill="#1A2E35"/>
<path d="M83.398 54.1285H78.2831C78.1406 54.1285 78.0336 54.0216 78.0336 53.879V47.2671C78.0336 47.1245 78.1406 47.0176 78.2831 47.0176H83.398C83.5406 47.0176 83.6475 47.1245 83.6475 47.2671V53.879C83.6654 54.0216 83.5406 54.1285 83.398 54.1285Z" fill="#2A9E66"/>
<path d="M78.1401 50.4572H77.9619C77.7659 50.4572 77.6233 50.2968 77.6233 50.1186V48.7285C77.6233 48.5324 77.7837 48.3899 77.9619 48.3899H78.1401C78.3362 48.3899 78.4787 48.5503 78.4787 48.7285V50.1186C78.4787 50.2968 78.3183 50.4572 78.1401 50.4572Z" fill="#2A9E66"/>
<path d="M83.7718 50.4572H83.5936C83.3976 50.4572 83.255 50.2968 83.255 50.1186V48.7285C83.255 48.5324 83.4154 48.3899 83.5936 48.3899H83.7718C83.9679 48.3899 84.1104 48.5503 84.1104 48.7285V50.1186C84.1104 50.2968 83.95 50.4572 83.7718 50.4572Z" fill="#2A9E66"/>
<path d="M82.9872 48.3899H78.6922V51.081H82.9872V48.3899Z" fill="white"/>
<path d="M82.4357 52.774C82.7408 52.774 82.9882 52.5267 82.9882 52.2215C82.9882 51.9164 82.7408 51.6691 82.4357 51.6691C82.1306 51.6691 81.8832 51.9164 81.8832 52.2215C81.8832 52.5267 82.1306 52.774 82.4357 52.774Z" fill="white"/>
<path d="M79.2808 52.774C79.5859 52.774 79.8333 52.5267 79.8333 52.2215C79.8333 51.9164 79.5859 51.6691 79.2808 51.6691C78.9757 51.6691 78.7283 51.9164 78.7283 52.2215C78.7283 52.5267 78.9757 52.774 79.2808 52.774Z" fill="white"/>
<path d="M79.0136 54.9125H78.8175C78.6037 54.9125 78.4254 54.7343 78.4254 54.5205V53.362H79.4235V54.5205C79.4235 54.7343 79.2452 54.9125 79.0136 54.9125Z" fill="#2A9E66"/>
<path d="M82.7205 54.9125H82.5244C82.3106 54.9125 82.1323 54.7343 82.1323 54.5205V53.362H83.1304V54.5205C83.1304 54.7343 82.9522 54.9125 82.7205 54.9125Z" fill="#2A9E66"/>
<path d="M81.9185 47.6058H79.762V47.8375H81.9185V47.6058Z" fill="white"/>
<defs>
<filter id="filter0_d_142_35463" x="0" y="0" width="161.146" height="135" filterUnits="userSpaceOnUse" color-interpolation-filters="sRGB">
<feFlood flood-opacity="0" result="BackgroundImageFix"/>
<feColorMatrix in="SourceAlpha" type="matrix" values="0 0 0 0 0 0 0 0 0 0 0 0 0 0 0 0 0 0 127 0" result="hardAlpha"/>
<feOffset dy="2"/>
<feGaussianBlur stdDeviation="2"/>
<feComposite in2="hardAlpha" operator="out"/>
<feColorMatrix type="matrix" values="0 0 0 0 0 0 0 0 0 0 0 0 0 0 0 0 0 0 0.14 0"/>
<feBlend mode="normal" in2="BackgroundImageFix" result="effect1_dropShadow_142_35463"/>
<feBlend mode="normal" in="SourceGraphic" in2="effect1_dropShadow_142_35463" result="shape"/>
</filter>
</defs>
</svg>
