<svg width="28" height="28" viewBox="0 0 28 28" fill="none" xmlns="http://www.w3.org/2000/svg">
<path d="M22.0615 17.1406C22.0615 18.6456 23.2982 19.8706 24.8032 19.8706C24.8032 24.2456 23.7065 25.3423 19.3315 25.3423H8.38817C4.01317 25.3423 2.9165 24.2456 2.9165 19.8706V19.334C3.64269 19.3309 4.33826 19.041 4.85176 18.5275C5.36526 18.014 5.6551 17.3185 5.65817 16.5923C5.6551 15.8661 5.36526 15.1705 4.85176 14.657C4.33826 14.1435 3.64269 13.8537 2.9165 13.8506V13.314C2.92817 8.93895 4.01317 7.84229 8.38817 7.84229H19.3198C23.6948 7.84229 24.7915 8.93895 24.7915 13.314V14.4106C23.2865 14.4106 22.0615 15.624 22.0615 17.1406Z" stroke="white" stroke-width="1.5" stroke-linecap="round" stroke-linejoin="round"/>
<path d="M18.9126 7.84357H8.30762L11.726 4.42523C14.5143 1.6369 15.9143 1.6369 18.7026 4.42523L19.4026 5.12523C18.6676 5.86023 18.4926 6.94523 18.9126 7.84357Z" stroke="white" stroke-width="1.5" stroke-linecap="round" stroke-linejoin="round"/>
<path d="M11.5254 7.84351V25.3435" stroke="white" stroke-width="1.5" stroke-linecap="round" stroke-linejoin="round" stroke-dasharray="5 5"/>
</svg>
