<svg width="307" height="199" viewBox="0 0 307 199" fill="none" xmlns="http://www.w3.org/2000/svg">
<g opacity="0.1">
<path d="M269.194 172.309V172.267C269.194 168.592 272.177 165.585 275.849 165.585C279.522 165.585 282.523 168.592 282.523 172.267V172.309H269.194Z" fill="#EFDCD7"/>
<path d="M6.72296 157.846V157.801C6.72296 154.149 9.70371 151.143 13.3759 151.122C17.0481 151.122 20.0499 154.126 20.0499 157.801V157.846H6.72296Z" fill="#EFDCD7"/>
<path d="M173.502 179.854V179.812C173.502 176.677 176.05 174.126 179.183 174.126C182.315 174.126 184.864 176.677 184.864 179.812V179.854H173.502Z" fill="#EFDCD7"/>
<path d="M268.771 34.1686V34.1452C268.542 33.5256 268.426 32.8592 268.426 32.1485C268.426 28.8658 271.11 26.1817 274.389 26.1817C275.123 26.1817 275.812 26.3173 276.476 26.5488C278.218 22.1649 282.53 19.2493 287.209 19.2493C291.428 19.2493 295.304 21.5453 297.345 25.2628C298.147 24.987 298.95 24.849 299.707 24.849C303.72 24.849 307 28.1317 307 32.1485C307 32.8382 306.907 33.5256 306.725 34.1452V34.1686H268.771Z" fill="white"/>
<path d="M0.0467194 20.6498L0.0233615 20.6264C1.42544e-06 20.5797 0 20.5119 0 20.4417C0 15.6674 3.87544 11.7885 8.64556 11.7885C9.47017 11.7885 10.2738 11.9031 11.0073 12.1346C13.0489 9.17222 16.3731 7.40464 19.9518 7.40464C25.9133 7.40464 30.7746 12.2725 30.7746 18.2393C30.7746 19.0202 30.6835 19.8221 30.5223 20.6031V20.6498H0.0467194Z" fill="white"/>
<path d="M214.518 137.502V93.4808H284.633L286.78 124.39H265.938L242.428 137.502H214.518Z" fill="#221E29"/>
<path d="M133.255 93.5348H69.4073V124.444H133.255V93.5348Z" fill="#221E29"/>
<path d="M289.752 102.695C294.267 102.695 297.928 99.0313 297.928 94.5118C297.928 89.9923 294.267 86.3285 289.752 86.3285C285.236 86.3285 281.576 89.9923 281.576 94.5118C281.576 99.0313 285.236 102.695 289.752 102.695Z" fill="white"/>
<path d="M24.5142 100.741C29.0298 100.741 32.6903 97.0771 32.6903 92.5576C32.6903 88.0381 29.0298 84.3743 24.5142 84.3743C19.9987 84.3743 16.3382 88.0381 16.3382 92.5576C16.3382 97.0771 19.9987 100.741 24.5142 100.741Z" fill="white"/>
<path d="M290.966 89.0855C290.987 82.1812 286.065 76.322 279.254 75.1483L235.816 67.6617L229.59 28.1109L32.7558 28.0899L24.3835 68.0522V124.468H74.7432V124.423C76.0443 118.541 79.3404 113.224 84.0241 109.403C88.7732 105.539 94.7814 103.411 100.941 103.411C107.078 103.411 113.086 105.539 117.857 109.403C122.54 113.224 125.839 118.541 127.14 124.423V124.468H157.566L171.274 137.577H228.506V130.285C228.506 115.459 240.544 103.411 255.356 103.411C261.493 103.411 267.501 105.539 272.271 109.403C273.876 110.706 275.308 112.202 276.565 113.832H290.966V89.0855Z" fill="white"/>
<path d="M290.966 102.608V89.0851C290.966 88.1522 290.879 87.217 290.704 86.3285" stroke="#838383" stroke-width="4" stroke-linecap="round" stroke-linejoin="round"/>
<path d="M281.554 124.468V124.423C280.012 118.216 276.478 112.485 271.229 108.599L271.122 108.513H293.699C296.04 108.513 297.927 110.423 297.927 112.768V120.213C297.927 122.558 296.04 124.444 293.699 124.444H281.554V124.468Z" fill="#221E29"/>
<path d="M20.5664 124.444C18.2257 124.444 16.3382 122.558 16.3382 120.213V112.768C16.3382 110.423 18.2257 108.534 20.5664 108.534H36.5283C37.6777 108.534 38.7405 108.99 39.5441 109.794C40.3243 110.596 40.7588 111.639 40.7588 112.745V124.444H20.5664Z" fill="#221E29"/>
<path d="M82.2884 10.9398C80.4897 10.9398 79.0367 9.48556 79.0367 7.68525V3.25693C79.0367 1.45428 80.4897 0 82.2884 0H106.882C108.683 0 110.136 1.45428 110.136 3.25693V7.68525C110.136 9.48556 108.683 10.9398 106.882 10.9398H82.2884Z" fill="#221E29"/>
<path d="M172.921 10.9398C171.122 10.9398 169.669 9.48556 169.669 7.68525V3.25693C169.669 1.45428 171.122 0 172.921 0H197.515C199.316 0 200.769 1.45428 200.769 3.25693V7.68525C200.769 9.48556 199.316 10.9398 197.515 10.9398H172.921Z" fill="#221E29"/>
<path d="M242.559 64.8604C240.758 64.8604 239.305 63.4061 239.305 61.6035V44.8021C239.305 43.0018 240.758 41.5475 242.559 41.5475H246.984C248.783 41.5475 250.235 43.0018 250.235 44.8021V61.6035C250.235 63.4061 248.783 64.8604 246.984 64.8604H242.559Z" fill="#221E29"/>
<path d="M255.377 150.731C266.66 150.731 275.806 141.578 275.806 130.285C275.806 118.992 266.66 109.836 255.377 109.836C244.094 109.836 234.947 118.992 234.947 130.285C234.947 141.578 244.094 150.731 255.377 150.731Z" fill="#CECDCE"/>
<path d="M255.377 136.188C258.634 136.188 261.276 133.544 261.276 130.285C261.276 127.023 258.634 124.381 255.377 124.381C252.119 124.381 249.479 127.023 249.479 130.285C249.479 133.544 252.119 136.188 255.377 136.188Z" fill="#221E29"/>
<path d="M100.962 150.731C112.245 150.731 121.391 141.578 121.391 130.285C121.391 118.992 112.245 109.836 100.962 109.836C89.6793 109.836 80.5315 118.992 80.5315 130.285C80.5315 141.578 89.6793 150.731 100.962 150.731Z" fill="#CECDCE"/>
<path d="M100.962 136.188C104.219 136.188 106.861 133.544 106.861 130.285C106.861 127.023 104.219 124.381 100.962 124.381C97.7034 124.381 95.0638 127.023 95.0638 130.285C95.0638 133.544 97.7034 136.188 100.962 136.188Z" fill="#221E29"/>
<path d="M176.631 129.632V42.0455C176.631 38.052 179.861 34.7974 183.851 34.7974H214.346C218.336 34.7974 221.587 38.052 221.587 42.0455V129.632H176.631Z" fill="#CECDCE"/>
<path opacity="0.2" d="M221.501 45.5198C221.501 41.5685 218.291 38.356 214.346 38.356H183.851C179.927 38.356 176.717 41.5685 176.717 45.5198H176.631V42.0455C176.631 38.052 179.861 34.7974 183.851 34.7974H214.346C218.336 34.7974 221.587 38.052 221.587 42.0455V45.5198H221.501Z" fill="#868686"/>
<path d="M138.568 61.061C134.578 61.061 131.324 57.8064 131.324 53.8106V42.0455C131.324 38.052 134.578 34.7974 138.568 34.7974H162.512C166.502 34.7974 169.756 38.052 169.756 42.0455V53.8106C169.756 57.8064 166.502 61.061 162.512 61.061H138.568Z" fill="#CECDCE"/>
<path opacity="0.2" d="M169.669 45.5198C169.669 41.5685 166.46 38.356 162.512 38.356H138.568C134.622 38.356 131.412 41.5685 131.412 45.5198H131.324V42.0455C131.324 38.052 134.578 34.7974 138.568 34.7974H162.512C166.502 34.7974 169.756 38.052 169.756 42.0455V45.5198H169.669Z" fill="#868686"/>
<path d="M93.242 61.061C89.2521 61.061 85.998 57.8064 85.998 53.8106V42.0455C86.0191 38.052 89.2731 34.7974 93.242 34.7974H117.184C121.176 34.7974 124.428 38.052 124.428 42.0455V53.8106C124.428 57.8064 121.176 61.061 117.184 61.061H93.242Z" fill="#CECDCE"/>
<path d="M47.9373 61.061C43.9451 61.061 40.6934 57.8064 40.6934 53.8106V42.0455C40.6934 38.052 43.9451 34.7974 47.9373 34.7974H71.8791C75.869 34.7974 79.1231 38.052 79.1231 42.0455V53.8106C79.1231 57.8064 75.869 61.061 71.8791 61.061H47.9373Z" fill="#CECDCE"/>
<path d="M221.587 78.4706H176.631V85.9384H221.587V78.4706Z" fill="#221E29"/>
<path d="M221.587 124.381H176.631V137.577H221.587V124.381Z" fill="#221E29"/>
<path d="M176.673 88.716H24.3835V96.1838H176.673V88.716Z" fill="#221E29"/>
<path opacity="0.2" d="M268.323 96.855C266.263 96.855 264.593 95.1857 264.593 93.1235C264.593 91.0613 266.263 89.3896 268.323 89.3896H276.023C278.083 89.3896 279.753 91.0613 279.753 93.1235C279.753 94.0985 279.384 95.0337 278.69 95.7491C277.976 96.4646 277.041 96.855 276.023 96.855H268.323Z" fill="#838383"/>
<path d="M176.673 68.0522H24.3835V75.5177H176.673V68.0522Z" fill="#221E29"/>
<path d="M32.7766 28.155L34.5122 19.9063C36.1825 11.896 43.3166 6.0789 51.5137 6.0789H233.841C236.161 6.0789 238.308 7.12168 239.784 8.922C241.237 10.7246 241.8 13.0674 241.324 15.326L238.546 28.1971L32.7766 28.155Z" fill="white"/>
<path opacity="0.2" d="M32.7766 28.1554L34.5122 19.8412L34.5543 19.8622C34.5987 19.8833 37.9812 20.9705 48.7829 22.0554C58.7577 23.0537 77.2799 24.2485 108.835 24.2485C134.036 24.2485 171.75 23.4652 208.206 19.7547C230.003 17.5405 241.151 15.282 241.258 15.2609L241.324 15.2399L238.525 28.1764L32.7766 28.1554Z" fill="#838383"/>
<path d="M38.0679 105.473C36.0309 105.735 34.2952 103.998 34.5545 101.957C34.7297 100.568 35.8557 99.4386 37.2456 99.2656C39.2826 99.0061 41.0183 100.741 40.759 102.782C40.5838 104.171 39.4578 105.3 38.0679 105.473Z" fill="white"/>
<path d="M32.8215 28.1321L229.569 28.1555" stroke="#838383" stroke-width="4" stroke-linecap="round" stroke-linejoin="round"/>
<path d="M227.464 33.5821H239.219C242.277 33.5821 244.772 36.0768 244.772 39.1374V67.2924C244.772 70.353 242.277 72.8477 239.219 72.8477H227.464" stroke="#221E29" stroke-width="4" stroke-linecap="round" stroke-linejoin="round"/>
<path d="M199.098 34.8397V137.425" stroke="#868686" stroke-width="4" stroke-linecap="round" stroke-linejoin="round"/>
<path opacity="0.2" d="M124.341 45.5198C124.341 41.5685 121.132 38.356 117.184 38.356H93.242C89.2942 38.356 86.0845 41.5685 86.0845 45.5198H85.998V42.0455C85.998 38.052 89.2521 34.7974 93.242 34.7974H117.184C121.176 34.7974 124.428 38.052 124.428 42.0455V45.5198H124.341Z" fill="#868686"/>
<path opacity="0.2" d="M79.0366 45.5198C79.0366 41.5685 75.827 38.356 71.8791 38.356H47.9373C43.9895 38.356 40.7798 41.5685 40.7798 45.5198H40.6934V42.0455C40.6934 38.052 43.9451 34.7974 47.9373 34.7974H71.8791C75.869 34.7974 79.1231 38.052 79.1231 42.0455V45.5198H79.0366Z" fill="#868686"/>
<path d="M268.323 93.794C266.373 93.794 264.768 92.2765 264.616 90.3663C264.443 88.1522 266.242 86.3285 268.454 86.3285H276.023C278.083 86.3285 279.754 88.0002 279.754 90.0624C279.754 91.0374 279.384 91.9726 278.691 92.688C277.976 93.4035 277.041 93.794 276.023 93.794H268.323Z" fill="white"/>
<path d="M24.3415 84.3743V100.741" stroke="#838383" stroke-width="4" stroke-linecap="round" stroke-linejoin="round"/>
<path d="M228.931 106.228H223.745V196.225H228.931V106.228Z" fill="#475139"/>
<path opacity="0.2" d="M226.338 113.967C225.481 113.967 224.624 113.92 223.792 113.827H223.745V106.46H228.931V113.827H228.884C228.051 113.92 227.193 113.967 226.338 113.967Z" fill="black"/>
<path d="M243.963 102.254C253.702 92.5064 253.702 76.7057 243.963 66.9606C234.227 57.2156 218.44 57.2156 208.704 66.9606C198.967 76.7057 198.967 92.5064 208.704 102.254C218.44 111.999 234.227 111.999 243.963 102.254Z" fill="white"/>
<path d="M228.885 109.843C228.051 109.934 227.193 109.981 226.338 109.981C225.481 109.981 224.624 109.934 223.792 109.843" stroke="black" stroke-width="4" stroke-linecap="round" stroke-linejoin="round"/>
<path d="M219.139 98.3021C217.91 98.3021 216.915 97.3061 216.915 96.0786V88.6856C216.915 87.4581 217.91 86.4621 219.139 86.4621C220.365 86.4621 221.36 87.4581 221.36 88.6856V96.0786C221.36 97.3061 220.365 98.3021 219.139 98.3021Z" fill="#AFC2CB"/>
<path d="M233.793 98.3021C232.566 98.3021 231.569 97.3061 231.569 96.0786V88.6856C231.569 87.4581 232.566 86.4621 233.793 86.4621C235.019 86.4621 236.014 87.4581 236.014 88.6856V96.0786C236.014 97.3061 235.019 98.3021 233.793 98.3021Z" fill="#AFC2CB"/>
<path d="M216.891 83.9838V77.3787C216.891 74.0189 219.625 71.2857 222.981 71.2857H229.926C233.283 71.2857 236.014 74.0189 236.014 77.3787V83.9838H216.891Z" fill="#475139"/>
<path d="M236.014 83.867H216.891V93.8787H236.014V83.867Z" fill="#AFC2CB"/>
<path d="M221.753 90.7503C220.62 90.7503 219.692 89.8221 219.692 88.6882C219.692 87.5519 220.62 86.626 221.753 86.626C222.888 86.626 223.813 87.5519 223.813 88.6882C223.813 89.8221 222.888 90.7503 221.753 90.7503Z" fill="#0F445D"/>
<path d="M230.968 90.7503C229.833 90.7503 228.908 89.8221 228.908 88.6882C228.908 87.5519 229.833 86.626 230.968 86.626C232.101 86.626 233.029 87.5519 233.029 88.6882C233.029 89.8221 232.101 90.7503 230.968 90.7503Z" fill="#0F445D"/>
<path d="M216.938 83.9137H235.967" stroke="#0F445D" stroke-width="4" stroke-linecap="round" stroke-linejoin="round"/>
<path d="M216.938 93.8318H221.314" stroke="#0F445D" stroke-width="4" stroke-linecap="round" stroke-linejoin="round"/>
<path d="M231.592 93.8318H235.967" stroke="#0F445D" stroke-width="4" stroke-linecap="round" stroke-linejoin="round"/>
<path d="M240.079 196.246V196.2C240.079 189.583 245.475 184.205 252.086 184.205C258.697 184.205 264.069 189.583 264.069 196.2V196.246H240.079Z" fill="#221E29"/>
<path opacity="0.2" d="M240.079 196.246V196.199C240.079 191.243 243.069 186.87 247.671 185.047L247.717 185.023L247.741 185.07C248.862 188.741 251.105 189.816 253.09 190.752C253.744 191.056 254.352 191.36 254.912 191.734C257.949 193.791 257.715 196.176 257.715 196.199V196.246H240.079Z" fill="black"/>
<path d="M238.536 187.923C239.938 186.707 241.527 185.444 243.512 183.878C253.207 176.326 262.504 170.831 265.634 170.831C266.101 170.831 266.405 170.948 266.592 171.182C266.732 171.369 266.779 171.626 266.755 171.93C266.405 174.783 258.79 182.568 248.651 190.471C247.04 191.734 245.381 192.996 243.699 194.189L243.652 194.212L238.536 187.923Z" fill="#AFC2CB"/>
<path opacity="0.2" d="M238.536 187.923C239.938 186.707 241.527 185.444 243.512 183.878C243.722 183.714 243.933 183.551 244.143 183.387C244.61 183.013 245.101 182.639 245.591 182.288L245.615 182.265H245.638C246.876 182.662 248.371 182.849 249.936 182.849C253.043 182.849 256.524 182.054 260.004 180.534L260.074 180.605C256.897 183.714 252.95 187.128 248.651 190.448C247.04 191.71 245.381 192.973 243.699 194.165L243.652 194.189L238.536 187.923Z" fill="#757575"/>
<path d="M231.832 184.86V184.813C231.832 184.743 231.832 184.696 231.855 184.626C231.855 184.579 231.855 184.509 231.855 184.462C232.837 174.198 235.243 166.155 237.345 166.155C237.368 166.155 237.392 166.155 237.415 166.155C239.494 166.342 240.382 174.549 239.471 184.813V184.86H231.832Z" fill="#AFC2CB"/>
<path opacity="0.2" d="M231.832 184.86V184.813C231.832 184.743 231.832 184.697 231.855 184.626C231.855 184.58 231.855 184.51 231.855 184.463C232.253 179.974 233.023 175.508 234.005 172.048H234.098C234.986 175.929 237.695 177.729 239.798 178.571H239.821V178.594C239.774 180.558 239.658 182.639 239.471 184.79V184.837L231.832 184.86Z" fill="#757575"/>
<path d="M214.616 196.247V196.2C214.616 186.684 222.372 178.945 231.879 178.945C241.387 178.945 249.119 186.684 249.119 196.2V196.247H214.616Z" fill="#221E29"/>
<path opacity="0.2" d="M214.616 196.247V196.2C214.616 192.178 216.018 188.274 218.587 185.211L218.657 185.117V185.258C218.727 189.373 220.76 191.243 225.922 191.921C231.085 192.599 231.435 196.153 231.435 196.2V196.247H214.616Z" fill="black"/>
<path d="M249.072 196.153C249.072 194.306 248.769 192.529 248.231 190.869" stroke="black" stroke-width="4" stroke-linecap="round" stroke-linejoin="round"/>
<path d="M246.129 169.896C243.793 174.76 240.499 185.024 239.798 189.466" stroke="#636363" stroke-width="4" stroke-linecap="round" stroke-linejoin="round"/>
<path d="M250.567 171.65C248.979 171.65 247.344 171.252 245.802 170.48C243.746 169.475 242.111 167.909 241.2 166.132C240.289 164.331 240.195 162.508 240.943 160.988C241.877 159.094 244.026 157.972 246.69 157.972C248.278 157.972 249.913 158.369 251.455 159.141C253.511 160.146 255.146 161.713 256.057 163.49C256.968 165.29 257.061 167.114 256.314 168.633C255.356 170.527 253.23 171.65 250.567 171.65Z" fill="white"/>
<path d="M248.839 165.641C248.652 165.641 248.465 165.594 248.278 165.501C248.044 165.384 247.834 165.197 247.741 164.986C247.624 164.776 247.624 164.542 247.717 164.355C247.834 164.121 248.091 163.981 248.418 163.981C248.605 163.981 248.792 164.028 248.979 164.121C249.493 164.379 249.75 164.893 249.563 165.267C249.423 165.501 249.166 165.641 248.839 165.641Z" fill="#636363"/>
<path d="M114.315 187.02C114.574 183.871 114.925 181.708 115.653 179.075C115.653 179.052 115.677 179.029 115.7 179.029C116.146 178.888 120.232 177.736 124.6 177.759C125.939 177.782 130.943 178.912 131.622 179.052C131.669 179.052 131.692 179.099 131.669 179.146C131.106 180.581 130.8 181.474 130.45 182.414C130.45 182.438 130.424 182.461 130.377 182.461L126.644 182.508C125.282 182.508 124.743 183.777 124.32 185.117L123.428 187.633C123.428 187.656 123.381 187.679 123.355 187.679L114.315 187.02Z" fill="#CF5934"/>
<path d="M136.108 186.927C135.758 184.6 135.498 182.085 135.358 179.146C135.358 179.122 135.358 179.099 135.381 179.076C135.781 178.842 139.677 176.679 143.506 176.656C147.265 176.656 150.974 178.748 151.35 178.982C151.374 178.982 151.374 179.005 151.374 179.029C151.397 180.485 151.537 181.332 151.633 182.225C151.633 182.248 151.633 182.248 151.61 182.274L147.146 188.503C147.122 188.526 147.099 188.526 147.075 188.526C146.396 188.383 137.283 187.044 136.605 187.037C136.131 186.974 136.108 186.95 136.194 187.446L136.108 186.927Z" fill="#CF5934"/>
<path d="M128.216 110.559C128.193 110.559 128.193 110.535 128.193 110.512V100.098C128.193 96.9019 129.978 92.6232 134.442 90.063C135.827 89.2634 135.827 88.6041 137.752 88.6041C142.613 88.6041 145.337 90.1799 146.276 92.5297C146.419 92.9061 146.582 93.4462 146.818 94.316C147.217 95.8451 147.664 97.9844 147.757 98.9945C147.757 99.0179 147.78 99.0413 147.804 99.0413C149.518 99.8409 149.565 100.781 147.897 101.674V101.791C148.32 106.493 146.865 109.853 141.275 109.125C141.228 109.125 141.205 109.149 141.205 109.196C141.205 109.455 141.205 110.322 141.205 110.488C141.205 110.512 141.205 110.535 141.181 110.535C140.875 110.771 137.892 112.885 134.841 112.862C131.739 112.862 128.569 110.746 128.216 110.559Z" fill="#CF5934"/>
<path opacity="0.2" d="M137.869 107.832C139.537 108.772 140.852 109.078 141.158 109.101C141.181 109.101 141.205 109.125 141.205 109.172C141.205 109.478 141.205 110.864 141.205 111.358C141.205 111.428 141.135 111.451 141.088 111.404L137.776 107.949C137.729 107.879 137.799 107.808 137.869 107.832Z" fill="#030202"/>
<path d="M151.304 172.987C151.28 170.097 151.257 166.831 151.114 162.999C150.622 149.599 147.265 138.318 147.029 137.518C147.029 137.495 147.005 137.472 146.959 137.472C142.85 137.401 127.96 137.472 124.108 137.448C124.084 137.448 124.061 137.472 124.038 137.495C120.022 147.109 121.667 156.511 120.092 165.702C119.223 170.284 116.876 174.633 115.677 178.982C115.677 179.029 115.701 179.075 115.747 179.075C116.992 179.075 130.777 179.122 131.646 179.122C131.669 179.122 131.693 179.099 131.716 179.075C132.915 175.949 134.206 172.4 135.029 169.04C135.052 168.968 135.145 168.968 135.169 169.064C135.262 170.45 135.311 171.907 135.262 173.529C135.216 175.692 135.288 177.806 135.358 179.075C135.358 179.122 135.381 179.145 135.428 179.145C136.507 179.145 150.269 179.052 151.327 179.052C151.374 179.052 151.397 179.029 151.397 178.982C151.35 177.195 151.327 175.292 151.304 172.987Z" fill="#475139"/>
<path opacity="0.2" d="M135.145 168.734L134.746 165.515L132.868 157.428L130.707 149.976C130.707 149.976 130.943 148.543 132.092 148.379C132.258 148.356 132.421 148.356 132.562 148.356C133.314 148.356 133.947 148.636 134.465 149.179C136.414 151.222 136.414 156.534 136.25 160.366C136.014 166.548 136.437 165.115 135.145 168.734Z" fill="black"/>
<path d="M130.73 150.165C132.139 156.017 134.442 161.376 135.099 168.968" stroke="black" stroke-width="4" stroke-linecap="round" stroke-linejoin="round"/>
<path d="M159.358 118.48C159.334 118.456 159.334 118.433 159.334 118.386C162.341 112.744 165.887 106.139 165.581 111.192C165.581 111.288 165.697 111.335 165.747 111.241C166.686 109.689 168.54 107.22 169.739 107.22C169.996 107.22 170.185 107.339 170.348 107.526C170.372 107.573 170.419 107.573 170.465 107.549C171.194 107.149 172.016 107.033 172.227 108.489C172.227 108.536 172.25 108.559 172.297 108.559C173.166 108.772 173.285 109.689 172.932 110.745C172.932 110.771 172.932 110.795 172.932 110.818C174.364 112.508 170.348 120.83 168.987 124.379C168.987 124.402 168.963 124.425 168.916 124.425C166.543 124.355 159.967 118.95 159.358 118.48Z" fill="#CF5934"/>
<path d="M118.567 139.775C116.593 139.775 115.091 139.024 114.079 137.519C109.97 131.407 118.214 118.833 121.267 115.847C124.813 112.391 127.56 111.945 128.123 111.898C128.147 111.898 128.17 111.875 128.17 111.828V110.488C128.17 110.441 128.193 110.418 128.242 110.418H141.135C141.182 110.418 141.205 110.441 141.205 110.488V111.828C141.205 111.851 141.228 111.898 141.252 111.898C142.027 111.991 147.194 112.744 150.222 116.13C153.112 119.396 155.859 122.712 156.422 123.392C156.447 123.439 156.517 123.415 156.541 123.392C156.845 122.828 158.113 120.43 159.452 118.173C159.475 118.15 159.522 118.127 159.547 118.15C160.297 118.643 168.235 123.955 168.917 124.402C168.94 124.425 168.964 124.449 168.94 124.474C167.013 128.798 164.126 134.252 161.049 135.756C155.389 138.695 150.458 134.11 148.93 131.736C148.907 131.69 148.837 131.69 148.813 131.76C148.556 132.583 147.194 136.908 147.029 137.402C147.029 137.425 147.005 137.448 146.959 137.448L125.516 137.542C125.493 137.542 125.493 137.542 125.493 137.542C125.166 137.755 121.783 139.775 118.567 139.775Z" fill="#AFC2CB"/>
<path d="M128.265 106.939C128.216 106.939 128.193 106.916 128.193 106.869C128.17 106.469 128.17 104.587 128.17 102.92C128.961 101.587 129.039 100.545 129.181 100.138C130.337 96.8972 131.716 94.5965 133.69 90.5329C135.075 89.7333 135.804 88.5806 137.729 88.5806C143.272 88.6975 145.783 90.2734 146.629 93.7057C146.629 93.7291 146.629 93.7291 146.629 93.7525C146.489 94.2458 144.092 94.856 142.636 94.482C142.496 94.5053 142.144 94.2458 142.12 94.4328C142.12 97.0421 140.499 98.5011 140.195 98.7583C140.172 98.7817 140.123 98.7817 140.1 98.7583C139.819 98.431 138.105 96.4553 135.827 96.4553C134.299 96.4319 132.774 97.8885 132.797 99.4644C132.657 101.11 134.699 103.79 135.168 104.236C135.192 104.26 135.192 104.307 135.168 104.33C133.477 106.61 128.735 106.892 128.265 106.939Z" fill="#010005"/>
<path d="M114.315 187.09C114.315 187.067 114.338 187.02 114.385 187.02L122.839 186.997C122.862 186.997 122.886 186.973 122.909 186.95L123.591 184.717C124.014 183.331 125.283 182.414 126.715 182.414L130.354 182.484C130.401 182.484 130.424 182.531 130.401 182.601C128.569 187.609 129.228 187.937 132.162 191.086C132.751 191.722 133.267 192.215 133.596 192.921C133.62 192.968 133.596 193.015 133.55 193.015C132.608 193.155 124.46 194.425 124.131 194.472H124.108L114.198 192.992C114.175 192.992 114.151 192.968 114.151 192.921C114.128 192.428 114.151 189.16 114.315 187.09Z" fill="#221E29"/>
<path d="M114.198 195.954C114.175 195.671 114.128 194.565 114.128 193.015C114.128 192.968 114.152 192.945 114.198 192.945C115.371 192.945 132.585 192.875 133.55 192.875C133.573 192.875 133.596 192.898 133.62 192.922C134.019 193.649 134.136 194.589 134.113 195.905C134.113 195.954 134.089 195.978 134.043 195.978C132.538 195.978 115.443 196.024 114.268 196.024C114.222 196.024 114.198 196.001 114.198 195.954Z" fill="black"/>
<path d="M137.259 192.849C136.836 191.159 136.413 189.136 136.107 187.044C136.107 186.997 136.131 186.973 136.18 186.973C137.023 186.973 144.751 186.973 145.596 186.973C145.643 186.973 145.666 186.927 145.666 186.903L145.384 185.07C145.173 183.707 146.325 182.367 147.71 182.414C147.71 182.414 151.067 182.297 151.56 182.274C151.609 182.274 151.632 182.297 151.632 182.344C151.913 185.963 153.464 187.633 155.695 189.536C158.183 191.159 158.372 192.545 158.372 192.826C158.372 192.849 158.349 192.898 158.325 192.898C157.786 192.992 153.863 194.191 147.967 194.238C144.797 194.261 137.869 193.015 137.282 192.898C137.282 192.898 137.259 192.875 137.259 192.849Z" fill="#221E29"/>
<path d="M138.198 196.001C137.988 195.554 137.518 193.768 137.283 192.992C137.259 192.945 137.306 192.898 137.353 192.898C138.834 192.898 157.34 192.898 158.349 192.898C158.372 192.898 158.395 192.922 158.419 192.945C158.771 193.768 158.912 194.755 159.005 195.929C159.005 195.978 158.982 196.001 158.935 196.001C157.314 196.001 139.28 196.024 138.268 196.024C138.245 196.024 138.222 196.001 138.198 196.001Z" fill="black"/>
<path d="M141.558 135.239L148.157 130.703C148.18 130.68 148.227 130.68 148.25 130.726L148.837 131.62C148.837 131.643 148.86 131.666 148.837 131.666L147.052 137.355C147.052 137.378 147.029 137.378 147.029 137.378L141.511 141.491C141.464 141.514 141.392 141.491 141.392 141.444L141.511 135.262C141.534 135.286 141.534 135.262 141.558 135.239Z" fill="white"/>
<path d="M136.227 126.635L142.496 112.158C142.52 112.134 142.543 112.111 142.567 112.111C143.529 112.274 145.76 112.815 147.897 114.178C147.921 114.201 147.944 114.224 147.921 114.248C147.521 115.164 142.004 127.975 141.581 128.94C141.557 128.964 141.534 128.987 141.487 128.964L136.25 126.684C136.227 126.731 136.227 126.684 136.227 126.635Z" fill="white"/>
<path d="M121.43 115.683C123.051 114.131 125.023 112.791 126.48 112.321C126.504 112.321 126.55 112.321 126.55 112.368C126.95 113.354 131.835 125.531 132.234 126.518C132.257 126.541 132.234 126.588 132.185 126.611C131.575 126.871 126.621 128.94 126.854 128.844C126.761 128.587 121.736 116.576 121.407 115.777C121.407 115.73 121.43 115.707 121.43 115.683Z" fill="white"/>
<path d="M144.987 102.73C145.456 103.2 145.972 103.273 146.489 103.153" stroke="#030202" stroke-width="4" stroke-linecap="round" stroke-linejoin="round"/>
<path d="M145.573 99.6981C145.898 99.6981 146.159 99.4363 146.159 99.1113C146.159 98.7863 145.898 98.5244 145.573 98.5244C145.248 98.5244 144.987 98.7863 144.987 99.1113C144.987 99.4363 145.248 99.6981 145.573 99.6981Z" fill="#010005"/>
<path d="M128.147 100.074C128.147 96.8781 128.17 91.4725 132.608 88.91C133.996 88.1103 135.804 87.6638 137.729 87.6638C145.973 87.6638 146.748 93.6586 146.818 94.2454C146.818 94.2688 146.795 94.2922 146.772 94.3156L139.184 97.8414C139.161 97.8414 139.138 97.8414 139.114 97.8414C138.245 97.0909 136.131 96.0785 134.629 96.7846C132.728 97.6777 132.751 99.5342 132.938 100.614C132.938 100.64 132.938 100.663 132.891 100.687L128.242 102.873C128.193 102.896 128.147 102.873 128.147 102.8V100.074Z" fill="#475139"/>
<path d="M156.494 123.462L154.826 121.442" stroke="black" stroke-width="4" stroke-linecap="round" stroke-linejoin="round"/>
<path d="M124.32 145.463C121.76 145.51 119.832 143.794 120.374 141.257L123.098 126.871C123.498 124.638 125.539 123.439 127.77 123.439L134.911 122.899H139.702C141.957 122.899 143.695 124.615 143.741 126.871L143.952 141.257C143.975 142.478 143.459 143.724 142.566 144.64C141.651 145.58 140.406 146.099 139.161 146.099H134.183L125.892 145.557L124.32 145.463Z" fill="black"/>
<path d="M119.34 146.123C116.782 146.169 114.855 143.794 115.395 141.257L118.121 126.871C118.494 124.638 120.538 122.899 122.793 122.899H134.723C136.977 122.899 138.715 124.615 138.762 126.871L138.974 141.257C138.998 142.478 138.481 143.724 137.589 144.64C136.673 145.58 135.428 146.099 134.183 146.099L119.34 146.123Z" fill="#221E29"/>
<path d="M152.712 186.34L150.457 187.703" stroke="black" stroke-width="4" stroke-linecap="round" stroke-linejoin="round"/>
<path d="M153.981 187.937L152.313 189.842" stroke="black" stroke-width="4" stroke-linecap="round" stroke-linejoin="round"/>
<path d="M129.345 187.513L127.044 188.36" stroke="black" stroke-width="4" stroke-linecap="round" stroke-linejoin="round"/>
<path d="M130.237 189.183L128.546 190.452" stroke="black" stroke-width="4" stroke-linecap="round" stroke-linejoin="round"/>
<path d="M148.86 131.62L147.568 129.621" stroke="black" stroke-width="4" stroke-linecap="round" stroke-linejoin="round"/>
<path d="M116.992 133.006H138.785" stroke="black" stroke-width="4" stroke-linecap="round" stroke-linejoin="round"/>
<path d="M127.913 91.4259C125.189 91.4259 122.958 89.1931 122.958 86.4645C122.958 83.7383 125.189 81.5055 127.913 81.5055C130.637 81.5055 132.868 83.7383 132.868 86.4645C132.868 89.1931 130.637 91.4259 127.913 91.4259Z" fill="#475139"/>
<path d="M170.418 107.573C170.418 107.573 167.695 111.522 166.216 113.967" stroke="#030202" stroke-width="4" stroke-linecap="round" stroke-linejoin="round"/>
<path d="M172.203 108.585L168.281 115.33" stroke="#030202" stroke-width="4" stroke-linecap="round" stroke-linejoin="round"/>
<path d="M172.886 110.841L170.066 116.504" stroke="#030202" stroke-width="4" stroke-linecap="round" stroke-linejoin="round"/>
<path d="M136.297 100.287L137.519 101.627" stroke="#030202" stroke-width="4" stroke-linecap="round" stroke-linejoin="round"/>
<path d="M141.204 109.125C139.866 108.982 137.446 107.596 137.446 107.596" stroke="#030202" stroke-width="4" stroke-linecap="round" stroke-linejoin="round"/>
<path d="M77.2867 60.4837C76.6326 57.1403 75.6982 51.9264 75.4179 50.1962L75.4412 51.2717C74.8806 48.3725 73.8527 42.9458 76.983 40.1401C78.9686 38.3632 81.7718 36.1654 84.7619 36.1654C86.3504 36.1654 87.9622 37.6384 89.3638 38.1995C91.3985 38.9477 92.6132 39.9063 93.5476 41.3326C94.3886 42.5951 94.996 44.2084 95.6734 46.315C95.6734 46.3384 95.6968 46.3618 95.7201 46.3618C96.0472 46.4085 97.4721 46.6189 97.6123 47.2736C97.7992 47.9984 96.9348 49.1441 96.748 49.4012C96.7246 49.4246 96.7246 49.448 96.748 49.4714C97.986 53.3526 97.9393 55.4802 96.6312 57.3273C95.6033 58.9406 92.0993 59.5719 90.0436 58.8237C89.9969 58.8003 89.9502 58.8471 89.9502 58.8938C89.9969 59.1978 90.1371 60.0862 90.1838 60.3434C90.1838 60.3902 90.1604 60.4837 90.1137 60.4837H77.2867Z" fill="#E59763"/>
<path d="M73.1519 162.482C73.1285 162.459 73.1285 162.435 73.1285 162.412C74.0629 155.071 75.7449 151.213 76.1653 143.518C76.2821 141.32 76.2588 139.146 76.1186 136.831C76.1186 136.808 76.142 136.761 76.1653 136.761C76.8428 136.621 83.6172 134.82 89.0601 134.82C90.9546 134.82 95.4631 136.691 95.977 136.855C96.0004 136.855 96.0237 136.901 96.0237 136.925C95.3229 145.438 93.5476 156.099 92.4497 162.435C92.4263 162.529 85.6495 165.337 79.9263 165.314C77.0997 165.267 73.549 162.739 73.1519 162.482Z" fill="#E59763"/>
<path opacity="0.2" d="M76.2358 140.78C76.2358 139.19 76.1891 137.998 76.119 136.829C76.119 136.782 76.1424 136.759 76.1891 136.759H86.9347L86.9581 136.852C86.9347 136.806 77.4739 140.359 76.3292 140.827C76.2825 140.85 76.2358 140.827 76.2358 140.78Z" fill="#030202"/>
<path d="M42.6861 153.224C46.5639 147.215 50.3505 143.659 53.5742 136.855C53.5742 136.831 53.5976 136.808 53.621 136.808C54.6021 136.761 61.9138 135.312 63.3388 135.312C68.805 135.288 74.5773 136.785 74.6006 136.761L74.5773 136.831C71.0966 144.664 64.4367 154.743 60.3019 161.056C60.3019 161.08 60.2786 161.08 60.2552 161.08C59.8347 161.173 54.6254 161.594 49.624 159.349C47.1712 158.251 43.1299 153.738 42.7095 153.294C42.6627 153.27 42.6627 153.247 42.6861 153.224Z" fill="#E59763"/>
<path opacity="0.2" d="M58.3859 136.855C61.0723 136.831 73.292 136.738 74.46 136.808C74.5067 136.808 74.5301 136.855 74.5067 136.901C73.8526 138.257 73.2452 139.614 72.5211 140.97C72.4977 140.993 72.4744 141.016 72.451 140.993C71.6334 140.759 60.6985 137.65 58.3625 136.972C58.2925 136.972 58.3158 136.855 58.3859 136.855Z" fill="#030202"/>
<path d="M125.577 122.403C123.918 122.403 122.073 120.041 121.209 118.802C121.162 118.732 121.045 118.779 121.068 118.872C121.302 119.925 121.956 122.029 120.928 122.192C119.76 122.38 118.218 119.714 116.233 116.768C114.808 114.617 113.126 112.209 111.397 110.222C111.374 110.198 111.374 110.151 111.421 110.128C112.192 109.59 119.807 103.462 120.765 102.971C120.788 102.948 120.835 102.971 120.835 102.995C123.545 106.153 125.507 108.772 126.628 110.526V110.549C126.745 110.946 131.816 118.405 129.221 120.673C129.198 120.673 129.198 120.696 129.198 120.72C129.128 121.421 128.754 122.286 127.656 122.286C127.352 122.286 127.002 122.216 126.651 122.099C126.628 122.099 126.628 122.099 126.605 122.099C126.301 122.239 125.951 122.426 125.577 122.403Z" fill="#E59763"/>
<path d="M109.738 113.121C101.396 105.803 96.0003 95.3959 94.9958 93.3851C94.9724 93.315 94.879 93.3384 94.879 93.4085L94.4819 96.8922C94.4819 96.9156 94.4585 96.9624 94.4118 96.9624L74.0395 97.0091C74.0161 97.0091 74.0161 97.0091 73.9928 97.0325C73.6424 97.3832 68.968 102.527 68.9446 102.41C67.1459 101.755 65.7443 100.914 64.623 99.9317C58.2224 94.2736 62.1235 83.7967 65.2537 75.3095C66.9824 70.9373 68.8278 67.3834 70.0683 66.0273C72.7547 63.0556 76.866 62.2607 77.6136 62.1438C77.6603 62.1438 77.6836 62.097 77.6603 62.0736C77.5668 61.5593 77.4267 61.0449 77.3332 60.5071C77.3332 60.4604 77.3566 60.437 77.38 60.437C78.3377 60.3201 89.2703 60.437 90.1603 60.437C90.1836 60.437 90.2303 60.4604 90.2303 60.4837C90.2771 60.8111 90.6041 62.5646 90.6508 62.8686C90.6508 62.892 90.6742 62.9154 90.6975 62.9154C91.5852 63.0323 99.3641 64.4819 103.102 74.7951L108.942 89.9715C108.942 89.9715 108.942 89.9949 108.965 89.9949C109.245 90.2755 115.602 96.8688 120.764 102.901C120.788 102.924 120.788 102.971 120.764 102.995C120.04 103.696 110.579 112.606 109.808 113.144C109.785 113.144 109.762 113.144 109.738 113.121Z" fill="#AFC2CB"/>
<path opacity="0.2" d="M68.851 102.363C67.0056 101.685 65.7441 100.89 64.6696 99.9785C64.6228 99.9552 64.6462 99.885 64.6929 99.8616C69.2014 97.5236 69.7153 92.4266 70.1148 88.7558C70.3718 86.3943 70.5586 84.4982 71.7266 84.241C71.7734 84.241 71.7967 84.2644 71.7967 84.2877L73.5721 96.8455C73.5721 96.8689 73.5721 96.8923 73.5487 96.8923C73.2217 97.2664 68.9211 102.504 68.851 102.363Z" fill="#959595"/>
<path opacity="0.2" d="M87.5884 57.9119C88.6396 58.473 89.6675 58.7068 89.9034 58.7536C89.9268 58.7536 89.9501 58.777 89.9501 58.8004L90.2071 60.3903L90.3706 61.3956C90.3706 61.4658 90.3005 61.5125 90.2538 61.4424L87.495 58.0054C87.4716 57.9587 87.5417 57.8651 87.5884 57.9119Z" fill="#030202"/>
<path d="M62.5672 83.0223C54.1109 82.882 51.7982 73.0154 58.8062 69.2043C58.8296 69.1809 58.853 69.1342 58.8296 69.1108C56.1666 65.2062 55.7694 60.5511 57.8251 56.6231C59.8341 52.7653 63.8754 50.4506 68.6175 50.4506C70.0214 50.4506 71.4931 50.661 72.9648 51.0118C73.0115 51.0118 73.0582 50.9884 73.0349 50.9416C72.9648 47.8086 72.5677 41.6805 76.7958 38.454C80.1597 35.9055 85.2522 35.2274 89.2234 36.7939C91.0712 37.5187 92.5662 39.2255 93.524 41.283C93.5473 41.3064 93.524 41.3298 93.5006 41.3532C93.2904 41.5636 92.1457 42.6157 90.0667 42.6157C89.5972 42.6157 89.1066 42.569 88.616 42.4287C88.5693 42.4053 88.5226 42.4754 88.546 42.5222C89.5738 44.5797 89.1299 47.7852 87.5648 49.1881C87.5415 49.2114 87.5181 49.2114 87.4947 49.1881C87.1677 49.001 85.0653 47.5982 83.1498 47.5748C81.9818 47.5748 81.1642 48.1125 80.697 49.1881C79.3187 52.4847 84.4813 55.2437 84.9018 55.4775C84.9251 55.4775 84.9251 55.5009 84.9251 55.5242C86.1399 65.5101 80.7203 74.5117 67.6597 70.046C67.6364 70.046 67.5896 70.046 67.5896 70.0694C67.2392 70.7007 64.8098 75.7042 62.6373 82.9522C62.6139 82.9989 62.5906 83.0223 62.5672 83.0223Z" fill="#010005"/>
<path d="M93.5011 51.2717C93.8515 51.9731 94.9027 52.09 95.44 51.903" stroke="#030202" stroke-width="4" stroke-linecap="round" stroke-linejoin="round"/>
<path d="M93.2439 47.6245C93.5663 47.6245 93.8279 47.3627 93.8279 47.04C93.8279 46.7174 93.5663 46.4555 93.2439 46.4555C92.9216 46.4555 92.6599 46.7174 92.6599 47.04C92.6599 47.3627 92.9216 47.6245 93.2439 47.6245Z" fill="#171314"/>
<path d="M87.3081 57.7455C87.3081 57.7455 89.0602 58.4002 89.9502 58.7509" stroke="#030202" stroke-width="4" stroke-linecap="round" stroke-linejoin="round"/>
<path d="M83.9914 50.8487L85.7434 51.9008" stroke="#030202" stroke-width="4" stroke-linecap="round" stroke-linejoin="round"/>
<path d="M84.4817 58.613C85.7969 58.613 86.8644 57.5445 86.8644 56.2281C86.8644 54.9118 85.7969 53.8433 84.4817 53.8433C83.1665 53.8433 82.099 54.9118 82.099 56.2281C82.099 57.5445 83.1665 58.613 84.4817 58.613Z" fill="#A3A3A3"/>
<path d="M53.6676 136.808C53.6209 136.808 53.5976 136.761 53.6209 136.714C57.5921 128.04 58.363 119.316 62.6146 110.479C65.5346 104.257 70.1388 99.3002 73.5728 96.9154C73.5728 96.9154 73.5961 96.892 73.6195 96.892C74.3203 96.892 93.3611 96.8219 94.4123 96.9388C94.4356 96.9388 94.459 96.9621 94.459 96.9855C94.6692 97.874 97.8696 114.617 96.0475 136.784C96.0475 136.831 96.0241 136.854 95.9774 136.854C94.2254 136.808 56.027 136.808 53.6676 136.808Z" fill="#AFC2CB"/>
<path opacity="0.2" d="M94.3885 96.9393C93.8512 96.9393 89.2703 96.9627 88.2892 96.9627C88.2191 96.9627 88.1958 97.0328 88.2425 97.0796C90.7444 99.1137 92.3095 102.457 93.8045 105.265C94.5988 106.715 95.4865 107.627 95.7901 107.931C95.8369 107.977 95.9069 107.931 95.9069 107.884C95.8135 106.738 95.1127 100.142 94.4353 96.986C94.4586 96.9627 94.4353 96.9393 94.3885 96.9393Z" fill="#959595"/>
<path d="M72.3814 46.4553C68.5948 46.4787 67.5903 43.5771 69.4124 40.2103C71.5405 35.9316 78.4551 31.2788 82.9869 31.3724C86.7713 31.349 87.7757 34.2482 85.9537 37.615C83.8279 41.8937 76.96 46.5722 72.3814 46.4553Z" fill="#475139"/>
<path d="M72.0769 89.7376L69.8811 90.743" stroke="#959595" stroke-width="4" stroke-linecap="round" stroke-linejoin="round"/>
<path d="M73.5953 96.8922L72.8945 91.842H94.248L94.8787 93.1747L94.4582 96.939L73.5953 96.8922Z" fill="white"/>
<path opacity="0.2" d="M88.1259 96.9624C89.3172 93.8293 89.2004 90.556 89.107 87.9608C89.0136 85.2954 88.9201 83.1888 90.2072 82.16C90.2306 82.1366 90.3007 82.1366 90.3007 82.1834C91.9359 86.2306 94.1551 91.4445 94.8559 93.1513V93.1747C94.8325 93.4085 94.4821 96.4246 94.4354 96.8688C94.4354 96.8922 94.4121 96.9156 94.3653 96.9156L88.1259 96.9624Z" fill="#959595"/>
<path d="M71.7969 84.2175L73.5723 96.8922C73.5723 96.8922 70.1384 99.4407 68.1504 101.989" stroke="#959595" stroke-width="4" stroke-linecap="round" stroke-linejoin="round"/>
<path d="M94.8791 93.1748L90.2771 82.1134" stroke="#959595" stroke-width="4" stroke-linecap="round" stroke-linejoin="round"/>
<path d="M87.9622 196.155C87.5184 195.43 86.4672 194.004 85.743 193.185C85.7196 193.162 85.7196 193.115 85.743 193.092C87.238 191.712 99.1307 192.811 99.1307 192.975C99.8081 193.7 100.509 195.22 100.602 196.085C100.602 196.131 100.579 196.155 100.532 196.155C99.5044 196.155 87.9622 196.155 87.9622 196.155Z" fill="black"/>
<path d="M85.6732 193.116C84.7621 191.993 83.2204 190.427 81.8421 189.772C81.5851 189.702 74.2968 187.598 73.7128 187.434C73.6894 187.434 73.6661 187.411 73.6661 187.387C72.7083 182.124 72.2878 177.004 72.428 171.743C72.5682 168.493 72.7784 165.197 73.1288 162.529C73.1288 162.506 73.1522 162.482 73.1989 162.482C74.3435 162.482 91.0016 162.436 92.4032 162.436C92.4499 162.436 92.4733 162.482 92.4733 162.506C92.4266 162.716 92.3331 163.277 92.263 163.698C91.7258 166.74 91.2819 169.382 90.8848 171.93C90.1139 178.407 88.7333 184.205 92.6835 187.691C93.6413 188.486 94.5056 189.141 95.44 189.866C97.1453 191.152 97.8928 191.502 99.0608 192.905C99.1075 192.952 99.0608 193.022 99.0141 193.022C97.6125 193.046 86.4207 193.163 85.7432 193.186C85.6965 193.139 85.6965 193.139 85.6732 193.116Z" fill="#475139"/>
<path d="M75.8383 196.108C75.1843 194.448 74.0163 189.819 73.6659 187.481C73.6659 187.434 73.6892 187.411 73.7359 187.411C74.39 187.504 78.6649 188.182 81.7952 189.749C81.8185 189.749 81.8419 189.772 81.8419 189.819C81.8419 190.333 81.8185 195.454 81.8185 196.085C81.8185 196.132 81.7952 196.155 81.7484 196.155C81.1411 196.155 76.399 196.155 75.9084 196.155C75.8851 196.155 75.8617 196.132 75.8383 196.108Z" fill="black"/>
<path d="M110.112 108.117C109.059 108.117 108.218 107.275 108.218 106.223C108.218 105.171 109.059 104.327 110.112 104.327C111.163 104.327 112.004 105.171 112.004 106.223C112.004 107.275 111.163 108.117 110.112 108.117Z" fill="white"/>
<path d="M90.6508 62.8897C90.6508 62.8897 91.4918 62.9599 92.5196 63.3573" stroke="#959595" stroke-width="4" stroke-linecap="round" stroke-linejoin="round"/>
<path d="M81.141 175.905C79.7861 175.928 78.5948 174.689 78.6882 173.333C78.6882 173.333 79.1788 163.394 79.2255 162.506C79.2255 162.459 79.2488 162.435 79.2956 162.435L85.8597 162.412C85.9065 162.412 85.9298 162.459 85.9298 162.482L83.5704 173.918C83.3135 175.11 82.309 175.905 81.141 175.905Z" fill="black"/>
<path d="M41.681 190.941C41.5408 190.146 41.1203 188.462 40.7699 187.387C40.7466 187.34 40.7933 187.293 40.84 187.293C41.7043 187.504 46.8436 188.533 47.1005 188.603H47.1239C47.4042 188.766 53.0597 192.414 53.4334 192.648C53.4568 192.648 53.4568 192.671 53.4568 192.671C53.8072 193.676 53.8539 195.266 53.597 196.085C53.5736 196.131 53.5502 196.131 53.5035 196.131C52.5691 195.71 42.3584 191.245 41.7043 190.964L41.681 190.941Z" fill="black"/>
<path d="M40.7234 187.247C40.1394 185.447 39.3919 183.948 38.6677 183.106C38.5042 182.943 32.851 177.752 32.4072 177.355C32.3838 177.331 32.3838 177.308 32.3838 177.284C34.276 169.031 38.1071 160.354 42.6156 153.293C42.6389 153.27 42.6623 153.247 42.6856 153.27C43.6668 153.644 58.9933 160.541 60.1847 161.056C60.2314 161.079 60.2314 161.126 60.208 161.149C58.2458 164.212 55.9331 167.652 54.2279 170.34C51.3078 175.344 47.4277 180.394 49.717 185.189C50.28 186.312 50.8406 187.294 51.3779 188.299C52.2422 189.866 53.0131 191.198 53.4103 192.531C53.4336 192.578 53.3635 192.625 53.3168 192.601C52.032 192.063 41.3541 187.528 40.7467 187.27C40.7234 187.27 40.7234 187.27 40.7234 187.247Z" fill="#475139"/>
<path d="M30.8656 186.172C30.9357 184.626 31.8 179.506 32.3607 177.401C32.384 177.355 32.4308 177.331 32.4541 177.378C36.5421 180.23 38.4343 182.779 38.6445 183.083C38.6679 183.106 38.6679 183.13 38.6445 183.153C38.4577 183.574 36.5421 187.995 36.3085 188.556C36.2852 188.58 36.2618 188.603 36.2151 188.58L30.889 186.242C30.889 186.218 30.8656 186.195 30.8656 186.172Z" fill="black"/>
<path d="M44.9515 168.748C43.1995 168.795 41.8913 166.784 42.7556 165.218C42.7556 165.218 47.1707 156.26 47.5678 155.465C47.5912 155.442 47.6145 155.419 47.6613 155.442L53.6438 158.131C53.6905 158.154 53.6905 158.201 53.6671 158.224L46.9605 167.719C46.4933 168.351 45.7457 168.748 44.9515 168.748Z" fill="black"/>
<path d="M75.6051 36.1654L76.5862 37.428" stroke="black" stroke-width="4" stroke-linecap="round" stroke-linejoin="round"/>
<path d="M129.198 120.67C129.198 120.67 126.558 115.106 124.456 111.879" stroke="#030202" stroke-width="4" stroke-linecap="round" stroke-linejoin="round"/>
<path d="M126.628 122.076C126.628 122.076 123.03 115.506 121.886 113.682" stroke="#030202" stroke-width="4" stroke-linecap="round" stroke-linejoin="round"/>
<path d="M121.092 118.776C121.092 118.776 120.671 117.327 119.526 115.503" stroke="#030202" stroke-width="4" stroke-linecap="round" stroke-linejoin="round"/>
</g>
</svg>
