<svg width="21" height="19" viewBox="0 0 21 19" fill="none" xmlns="http://www.w3.org/2000/svg">
<path d="M12.0954 19C10.8257 19 9.61366 18.7229 8.45936 18.1688C7.30506 17.6146 6.29918 16.8361 5.4417 15.8333L6.5053 14.6986C7.24735 15.5431 8.09658 16.2072 9.053 16.691C10.0094 17.1748 11.0236 17.4167 12.0954 17.4167C14.1567 17.4167 15.9087 16.6426 17.3516 15.0944C18.7945 13.5463 19.5159 11.6727 19.5159 9.47361C19.5159 7.27454 18.7945 5.40972 17.3516 3.87917C15.9087 2.34861 14.1567 1.58333 12.0954 1.58333C9.98469 1.58333 8.22026 2.36181 6.80212 3.91875C5.38398 5.47569 4.67491 7.46806 4.67491 9.89583L6.82686 7.6L7.89046 8.73472L3.9576 12.9306L0 8.70833L1.0636 7.57361L3.19081 9.84306C3.19081 8.43565 3.42167 7.1294 3.88339 5.92431C4.34511 4.71921 4.97585 3.67685 5.77562 2.79722C6.57538 1.91759 7.51943 1.23148 8.60777 0.738889C9.69611 0.246296 10.8587 0 12.0954 0C13.3322 0 14.4906 0.250695 15.5707 0.752083C16.6508 1.25347 17.5907 1.93079 18.3905 2.78403C19.1902 3.63727 19.8251 4.64005 20.2951 5.79236C20.765 6.94468 21 8.18056 21 9.5C21 10.8194 20.765 12.0553 20.2951 13.2076C19.8251 14.36 19.1902 15.3627 18.3905 16.216C17.5907 17.0692 16.6508 17.7465 15.5707 18.2479C14.4906 18.7493 13.3322 19 12.0954 19ZM15.0883 13.8014L11.2792 9.79028V4.14306H12.7633V9.13056L16.1519 12.6667L15.0883 13.8014Z" fill="#2A9E66"/>
</svg>
