<svg width="30" height="30" viewBox="0 0 30 30" fill="none" xmlns="http://www.w3.org/2000/svg">
<path d="M19.1375 18.775C18.4125 18.775 17.625 18.5375 16.8375 18.05L15.1875 17.05C15.1125 17 14.8875 17 14.8125 17.05L13.1625 18.05C11.8125 18.875 10.4875 19 9.425 18.4C8.3875 17.8125 7.8125 16.6375 7.8125 15.1V6.2875C7.8125 3.2375 9.475 1.5625 12.5 1.5625H17.5C20.525 1.5625 22.1875 3.2375 22.1875 6.2875V15.1C22.1875 16.65 21.6125 17.825 20.575 18.4C20.1375 18.65 19.65 18.775 19.1375 18.775ZM15 15.1375C15.4125 15.1375 15.825 15.2375 16.1625 15.4375L17.8125 16.4375C18.55 16.8875 19.225 17 19.65 16.7625C20.0625 16.525 20.3 15.9125 20.3 15.0875V6.2875C20.3 4.2875 19.4625 3.4375 17.4875 3.4375H12.4875C10.5125 3.4375 9.675 4.2875 9.675 6.2875V15.1C9.675 15.925 9.9125 16.5375 10.325 16.775C10.75 17.0125 11.425 16.9 12.1625 16.45L13.8125 15.45C14.175 15.2375 14.5875 15.1375 15 15.1375Z" fill="#F3F4F6"/>
<path d="M18.75 28.4375H11.25C4.4625 28.4375 1.5625 25.5125 1.5625 18.6625V14.875C1.5625 9.05001 3.6625 6.10001 8.3625 5.31251C8.8625 5.22501 9.35 5.57501 9.4375 6.08751C9.525 6.60001 9.175 7.07501 8.6625 7.16251C4.9 7.78751 3.425 9.95001 3.425 14.875V18.6625C3.425 24.425 5.5375 26.5625 11.2375 26.5625H18.7375C24.4375 26.5625 26.55 24.425 26.55 18.6625V14.875C26.55 9.87501 25.025 7.71251 21.1 7.12501C20.5875 7.05001 20.2375 6.57501 20.3125 6.06251C20.3875 5.55001 20.8625 5.20001 21.375 5.27501C26.25 6.00001 28.425 8.95001 28.425 14.875V18.6625C28.4375 25.5125 25.5375 28.4375 18.75 28.4375Z" fill="#F3F4F6"/>
</svg>
