<svg width="57" height="81" viewBox="0 0 57 81" fill="none" xmlns="http://www.w3.org/2000/svg">
<path d="M23.0663 0.21762L50.5998 6.47664C54.7387 7.41709 57.4234 11.1384 56.5927 14.7846L42.6785 75.8822C41.8487 79.5283 37.8162 81.7233 33.6773 80.782L6.14374 74.5238C2.0048 73.5833 -0.67986 69.8612 0.150802 66.215L14.065 5.11829C14.8948 1.47212 18.9273 -0.722837 23.0663 0.21762Z" fill="#43A373"/>
<path d="M23.8963 2.22587L49.0114 7.93446C52.7869 8.79218 55.208 12.305 54.4179 15.7772L41.1695 73.9504C40.3786 77.4219 36.674 79.5425 32.8992 78.684L7.78416 72.9754C4.00857 72.1176 1.58757 68.6049 2.37767 65.1326L15.626 6.95939C16.417 3.48797 20.1216 1.3673 23.8963 2.22587Z" fill="white"/>
<path d="M50.5016 29.9611L13.2004 21.367L6.15029 51.9057L43.4515 60.5006L50.5016 29.9611Z" fill="white"/>
<path d="M37.3337 37.9863L35.1907 46.0722L46.4811 47.3774L46.2268 48.4774L34.6068 47.1351L31.1633 49.2735L34.3626 55.6819L44.9237 54.1243L44.6508 55.3054L34.8865 56.7389L35.8963 58.7523L34.4817 58.4265L30.205 49.8661L24.4774 53.4118L28.4279 57.031L26.2106 56.5202L8.77851 40.524L9.06751 39.2704L23.6147 52.6225L33.9941 46.1963L36.1608 38.0074L9.22891 38.5714L9.49002 37.4418L14.8931 37.3278L15.7145 28.4458L11.9457 26.803L12.2017 25.6954L16.2435 27.4556L21.977 23.3814L23.4431 23.7191L21.1827 25.3239L27.0607 31.4749L26.252 32.2482L20.2548 25.9849L16.8451 28.407L16.0204 37.3042L42.6345 36.7521L43.6181 28.3673L44.7192 28.6214L43.7694 36.7293L48.9638 36.6221L48.7035 37.7508L37.3337 37.9863Z" fill="#BBB6AA"/>
<path d="M20.2334 48.7347L17.4879 46.2527C17.8191 45.9151 18.1546 45.5926 18.4723 45.2827C20.3475 43.4812 21.5896 42.2942 21.1156 39.4222C21.0869 39.2466 21.0607 39.0634 21.0387 38.8903L24.767 38.8127C24.7653 38.8203 24.7653 38.8203 24.7712 38.8287C25.5469 43.6205 23.049 46.0223 21.0362 47.953C20.7598 48.2189 20.4936 48.4722 20.2334 48.7347Z" fill="#43A373"/>
<path d="M36.3812 31.5962C34.2695 32.8591 31.8493 33.1917 29.7139 33.4906C27.6183 33.7827 25.8167 34.0351 25.1026 34.9992C24.8238 35.3723 24.6691 35.9118 24.6252 36.6007L20.9206 36.675C20.9772 35.0997 21.3727 33.8173 22.1298 32.8017C23.7632 30.5848 26.5324 30.2015 29.2078 29.8284C31.0803 29.5692 33.0163 29.3016 34.4875 28.4202C35.2091 27.988 35.8159 27.3911 36.2587 26.6718C36.8983 26.8272 40.0004 27.5338 40.0004 27.5338C39.1791 29.294 37.9851 30.638 36.3812 31.5962Z" fill="#43A373"/>
<path d="M14.9769 49.8102C15.2608 49.1467 15.6199 48.5236 16.0467 47.9386L18.8175 50.4425C18.1491 51.5088 17.7781 52.7819 17.9539 54.618L14.2197 53.7569C14.2147 52.3133 14.4631 51.0048 14.9769 49.8102Z" fill="#43A373"/>
<path d="M12.5285 47.9032C14.0994 48.2653 15.6669 47.2869 16.0294 45.7175C16.3911 44.1473 15.4117 42.5821 13.8408 42.2199C12.269 41.8577 10.7024 42.837 10.3398 44.4064C9.97733 45.9758 10.9576 47.5418 12.5285 47.9032Z" fill="#3C2C5B"/>
<path d="M13.1233 43.3976L13.9692 43.5926C14.0571 43.6129 14.1128 43.7024 14.0926 43.7902L13.4436 46.6023C13.4233 46.6901 13.3329 46.7458 13.2459 46.7255L12.4 46.5305C12.3121 46.5111 12.2563 46.4208 12.2766 46.3338L12.9256 43.5209C12.9535 43.4348 13.0354 43.3774 13.1233 43.3976Z" fill="#BBB6AA"/>
<path d="M14.8576 45.0024L14.6624 45.8475C14.6421 45.9345 14.5525 45.991 14.4655 45.9708L11.6498 45.3216C11.562 45.3021 11.5062 45.2118 11.5265 45.1249L11.7217 44.279C11.7419 44.192 11.8315 44.1354 11.9186 44.1557L14.7342 44.8049C14.8221 44.8252 14.8778 44.9146 14.8576 45.0024Z" fill="#BBB6AA"/>
<path d="M40.0147 51.2285C41.5856 51.5907 43.1531 50.6114 43.5156 49.042C43.8773 47.4726 42.8979 45.9066 41.327 45.5444C39.7561 45.1823 38.1886 46.1616 37.826 47.731C37.4635 49.3004 38.4437 50.8664 40.0147 51.2285Z" fill="#3C2C5B"/>
<path d="M40.8732 46.7448L39.4578 47.5165C39.3699 47.5646 39.3361 47.6802 39.3851 47.768C39.413 47.8128 39.4519 47.8449 39.5102 47.8584L42.0115 48.4341C42.1137 48.4578 42.2126 48.3961 42.2363 48.294C42.2481 48.2433 42.2379 48.1876 42.2101 48.1429L41.2594 46.8335C41.1724 46.7136 41.0042 46.6756 40.8732 46.7448Z" fill="#BBB6AA"/>
<path d="M39.0061 49.1771L39.0399 49.031C39.0568 48.9584 39.1286 48.9137 39.2013 48.9306L41.8048 49.5308C41.8784 49.5469 41.9232 49.6186 41.9063 49.6921L41.8725 49.8373C41.8556 49.9107 41.7837 49.9555 41.7111 49.9386L39.1067 49.3383C39.034 49.3215 38.9892 49.2497 39.0061 49.1771Z" fill="#BBB6AA"/>
<path d="M41.4371 48.0644L41.3416 48.0424L39.7369 47.6727L39.4006 49.1298L41.0053 49.4996L41.0999 49.5215L41.5377 49.622L41.8748 48.1648L41.4371 48.0644Z" fill="#BBB6AA"/>
<path d="M22.7542 32.8236C24.3259 33.1849 25.8926 32.2065 26.2551 30.6371C26.6176 29.0668 25.6374 27.5017 24.0665 27.1395C22.4956 26.7773 20.9281 27.7566 20.5655 29.326C20.2039 30.8954 21.1833 32.4614 22.7542 32.8236Z" fill="#3C2C5B"/>
<path d="M23.652 28.4717L22.0861 29.0314C21.994 29.0643 21.9484 29.1605 21.983 29.2458C21.9923 29.2711 22.0092 29.2973 22.0278 29.3176L23.2278 30.3762C23.2844 30.4277 23.3723 30.448 23.4466 30.4269L24.9888 29.9997C25.0792 29.9744 25.1325 29.879 25.1071 29.7886C25.0978 29.7633 25.0877 29.738 25.0623 29.7169L23.9004 28.5282C23.8387 28.4607 23.7441 28.4387 23.652 28.4717Z" fill="#BBB6AA"/>
<path d="M23.1598 30.6685L22.3164 29.929L22.0705 30.9927C22.0545 31.0653 22.0993 31.137 22.1719 31.1539L24.0538 31.5879C24.1265 31.6047 24.1983 31.56 24.2152 31.4865L24.4611 30.4228L23.3786 30.7183C23.3043 30.7403 23.224 30.7217 23.1598 30.6685Z" fill="#BBB6AA"/>
</svg>
