<svg width="14" height="15" viewBox="0 0 14 15" fill="none" xmlns="http://www.w3.org/2000/svg">
<path d="M6.6978 14.1405H2.78544C1.7222 14.1405 0.859508 13.2746 0.859508 12.2146V2.78544C0.859508 1.7222 1.72538 0.859508 2.78544 0.859508H6.76146C7.00022 0.859508 7.19122 0.668506 7.19122 0.429754C7.19122 0.191002 7.00022 0 6.76146 0H2.78544C1.24788 0 0 1.25106 0 2.78544V12.2146C0 13.7521 1.25106 15 2.78544 15H6.6978C6.93655 15 7.12755 14.809 7.12755 14.5703C7.12755 14.3315 6.93337 14.1405 6.6978 14.1405Z" fill="#F9FAFB"/>
<path d="M13.778 7.1976L11.0467 4.46628C10.878 4.29756 10.6074 4.29756 10.4387 4.46628C10.27 4.63499 10.27 4.90558 10.4387 5.0743L12.4378 7.07345H3.7186C3.47985 7.07345 3.28884 7.26445 3.28884 7.50321C3.28884 7.74196 3.47985 7.93296 3.7186 7.93296H12.4378L10.4387 9.93211C10.27 10.1008 10.27 10.3714 10.4387 10.5401C10.5214 10.6229 10.6329 10.6675 10.7411 10.6675C10.8493 10.6675 10.9607 10.6261 11.0435 10.5401L13.7748 7.80881C13.9467 7.63691 13.9467 7.36314 13.778 7.1976Z" fill="#F9FAFB"/>
</svg>
