<svg width="37" height="37" viewBox="0 0 37 37" fill="none" xmlns="http://www.w3.org/2000/svg">
<path d="M2.05556 37V24.6667H34.9444V37H30.8333V28.7778H6.16667V37H2.05556ZM3.08334 22.6111C2.22686 22.6111 1.4985 22.311 0.898282 21.7108C0.29806 21.1105 -0.00136569 20.3829 4.68235e-06 19.5278C4.68235e-06 18.6713 0.300116 17.9429 0.900337 17.3427C1.50056 16.7425 2.22823 16.4431 3.08334 16.4444C3.93982 16.4444 4.66817 16.7445 5.26839 17.3448C5.86861 17.945 6.16804 18.6727 6.16667 19.5278C6.16667 20.3842 5.86656 21.1126 5.26633 21.7128C4.66611 22.313 3.93845 22.6125 3.08334 22.6111ZM8.22222 22.6111V4.11111C8.22222 2.98056 8.62511 2.01239 9.43089 1.20661C10.2367 0.400836 11.2041 -0.00136688 12.3333 3.48991e-06H24.6667C25.7972 3.48991e-06 26.7654 0.402892 27.5712 1.20867C28.3769 2.01445 28.7791 2.98193 28.7778 4.11111V22.6111H8.22222ZM33.9166 22.6111C33.0602 22.6111 32.3318 22.311 31.7316 21.7108C31.1314 21.1105 30.8319 20.3829 30.8333 19.5278C30.8333 18.6713 31.1334 17.9429 31.7336 17.3427C32.3339 16.7425 33.0615 16.4431 33.9166 16.4444C34.7731 16.4444 35.5015 16.7445 36.1017 17.3448C36.7019 17.945 37.0013 18.6727 37 19.5278C37 20.3842 36.6999 21.1126 36.0996 21.7128C35.4994 22.313 34.7718 22.6125 33.9166 22.6111Z" fill="#787878"/>
</svg>
