<svg width="24" height="24" viewBox="0 0 24 24" fill="none" xmlns="http://www.w3.org/2000/svg">
<path d="M1 3.99999V9.99999M1 9.99999H7M1 9.99999L5.64 5.63999C7.02091 4.26142 8.81245 3.36896 10.7447 3.09711C12.6769 2.82526 14.6451 3.18873 16.3528 4.13276C18.0605 5.07679 19.4152 6.55024 20.2126 8.33109C21.0101 10.112 21.2072 12.1037 20.7742 14.0064C20.3413 15.909 19.3017 17.6193 17.8121 18.8798C16.3226 20.1402 14.4637 20.8823 12.5157 20.9945C10.5677 21.1066 8.63598 20.5826 7.01166 19.5014C5.38734 18.4202 4.15839 16.8404 3.51 15" stroke="#101828" stroke-width="2" stroke-linecap="round" stroke-linejoin="round"/>
</svg>
