<svg width="20" height="19" viewBox="0 0 20 19" fill="none" xmlns="http://www.w3.org/2000/svg">
<path d="M16.6817 5.33028V3.36288H14.7404V1.99028H16.6817V0H18.0361V1.99028H20V3.36288H18.0361V5.33028H16.6817ZM1.3544 18.4615C0.993228 18.4615 0.677201 18.3243 0.40632 18.0498C0.13544 17.7752 0 17.455 0 17.0889V5.35316C0 5.00238 0.13544 4.68592 0.40632 4.40377C0.677201 4.12163 0.993228 3.98055 1.3544 3.98055H4.67269L6.32054 1.99028H12.6411V3.36288H6.9526L5.30474 5.35316H1.3544V17.0889H16.7043V7.4807H18.0587V17.0889C18.0587 17.455 17.9195 17.7752 17.6411 18.0498C17.3627 18.3243 17.0504 18.4615 16.7043 18.4615H1.3544ZM9.02935 15.1215C10.1129 15.1215 11.0233 14.7479 11.7607 14.0006C12.4981 13.2533 12.8668 12.3229 12.8668 11.2096C12.8668 10.1115 12.4981 9.19264 11.7607 8.45296C11.0233 7.71328 10.1129 7.34344 9.02935 7.34344C7.93078 7.34344 7.01655 7.71328 6.28668 8.45296C5.55681 9.19264 5.19187 10.1115 5.19187 11.2096C5.19187 12.3229 5.55681 13.2533 6.28668 14.0006C7.01655 14.7479 7.93078 15.1215 9.02935 15.1215ZM9.02935 13.7489C8.307 13.7489 7.71257 13.5087 7.24605 13.0283C6.77953 12.5479 6.54628 11.9417 6.54628 11.2096C6.54628 10.4928 6.77953 9.89801 7.24605 9.42522C7.71257 8.95243 8.307 8.71604 9.02935 8.71604C9.73664 8.71604 10.3273 8.95243 10.8014 9.42522C11.2754 9.89801 11.5124 10.4928 11.5124 11.2096C11.5124 11.9417 11.2754 12.5479 10.8014 13.0283C10.3273 13.5087 9.73664 13.7489 9.02935 13.7489Z" fill="#2A9E66"/>
</svg>
