<svg width="20" height="20" viewBox="0 0 20 20" fill="none" xmlns="http://www.w3.org/2000/svg">
<path d="M11.1666 14.5166H9.07498C7.70832 14.5166 6.59999 13.3666 6.59999 11.95C6.59999 11.6083 6.88332 11.325 7.22498 11.325C7.56665 11.325 7.84998 11.6083 7.84998 11.95C7.84998 12.675 8.39998 13.2666 9.07498 13.2666H11.1666C11.7083 13.2666 12.1583 12.7833 12.1583 12.2C12.1583 11.475 11.9 11.3333 11.475 11.1833L8.11665 9.99997C7.46665 9.77498 6.59165 9.29164 6.59165 7.79998C6.59165 6.51665 7.59998 5.48332 8.83331 5.48332H10.925C12.2916 5.48332 13.4 6.63332 13.4 8.04998C13.4 8.39165 13.1166 8.67498 12.775 8.67498C12.4333 8.67498 12.15 8.39165 12.15 8.04998C12.15 7.32498 11.6 6.73332 10.925 6.73332H8.83331C8.29165 6.73332 7.84165 7.21665 7.84165 7.79998C7.84165 8.52498 8.09998 8.66665 8.52498 8.81664L11.8833 9.99997C12.5333 10.225 13.4083 10.7083 13.4083 12.2C13.4 13.475 12.4 14.5166 11.1666 14.5166Z" fill="#787878"/>
<path d="M9.99993 15.625C9.65826 15.625 9.37493 15.3416 9.37493 15V4.99999C9.37493 4.65832 9.65826 4.37499 9.99993 4.37499C10.3416 4.37499 10.6249 4.65832 10.6249 4.99999V15C10.6249 15.3416 10.3416 15.625 9.99993 15.625Z" fill="#787878"/>
</svg>
