<svg width="28" height="28" viewBox="0 0 28 28" fill="none" xmlns="http://www.w3.org/2000/svg">
<path d="M9.3335 6.70834C8.85516 6.70834 8.4585 6.31168 8.4585 5.83334V2.33334C8.4585 1.85501 8.85516 1.45834 9.3335 1.45834C9.81183 1.45834 10.2085 1.85501 10.2085 2.33334V5.83334C10.2085 6.31168 9.81183 6.70834 9.3335 6.70834Z" fill="#F9FAFB"/>
<path d="M18.6665 6.70834C18.1882 6.70834 17.7915 6.31168 17.7915 5.83334V2.33334C17.7915 1.85501 18.1882 1.45834 18.6665 1.45834C19.1448 1.45834 19.5415 1.85501 19.5415 2.33334V5.83334C19.5415 6.31168 19.1448 6.70834 18.6665 6.70834Z" fill="#F9FAFB"/>
<path d="M9.91667 16.9167C9.765 16.9167 9.61333 16.8817 9.47333 16.8234C9.32167 16.765 9.205 16.6833 9.08833 16.5783C8.87833 16.3567 8.75 16.065 8.75 15.75C8.75 15.5983 8.785 15.4467 8.84334 15.3067C8.90167 15.1667 8.98333 15.0384 9.08833 14.9217C9.205 14.8167 9.32167 14.735 9.47333 14.6767C9.89333 14.5017 10.4183 14.595 10.745 14.9217C10.955 15.1434 11.0833 15.4467 11.0833 15.75C11.0833 15.82 11.0717 15.9017 11.06 15.9834C11.0483 16.0534 11.025 16.1233 10.99 16.1933C10.9667 16.2633 10.9317 16.3333 10.885 16.4033C10.85 16.4617 10.7917 16.52 10.745 16.5783C10.5233 16.7883 10.22 16.9167 9.91667 16.9167Z" fill="#F9FAFB"/>
<path d="M14.0002 16.9167C13.8485 16.9167 13.6968 16.8817 13.5568 16.8234C13.4052 16.765 13.2885 16.6833 13.1718 16.5783C12.9618 16.3567 12.8335 16.065 12.8335 15.75C12.8335 15.5983 12.8685 15.4467 12.9268 15.3067C12.9852 15.1667 13.0668 15.0383 13.1718 14.9217C13.2885 14.8167 13.4052 14.735 13.5568 14.6767C13.9768 14.49 14.5018 14.595 14.8285 14.9217C15.0385 15.1433 15.1668 15.4467 15.1668 15.75C15.1668 15.82 15.1552 15.9017 15.1435 15.9834C15.1318 16.0534 15.1085 16.1233 15.0735 16.1933C15.0502 16.2633 15.0152 16.3333 14.9685 16.4033C14.9335 16.4617 14.8752 16.52 14.8285 16.5783C14.6068 16.7883 14.3035 16.9167 14.0002 16.9167Z" fill="#F9FAFB"/>
<path d="M18.0832 16.9167C17.9315 16.9167 17.7798 16.8817 17.6398 16.8234C17.4882 16.765 17.3715 16.6833 17.2548 16.5783C17.2082 16.52 17.1615 16.4617 17.1148 16.4033C17.0682 16.3333 17.0332 16.2633 17.0098 16.1933C16.9748 16.1233 16.9515 16.0534 16.9398 15.9834C16.9282 15.9017 16.9165 15.82 16.9165 15.75C16.9165 15.4467 17.0448 15.1433 17.2548 14.9217C17.3715 14.8167 17.4882 14.735 17.6398 14.6767C18.0715 14.49 18.5848 14.595 18.9115 14.9217C19.1215 15.1433 19.2498 15.4467 19.2498 15.75C19.2498 15.82 19.2382 15.9017 19.2265 15.9834C19.2148 16.0534 19.1915 16.1233 19.1565 16.1933C19.1332 16.2633 19.0982 16.3333 19.0515 16.4033C19.0165 16.4617 18.9582 16.52 18.9115 16.5783C18.6898 16.7883 18.3865 16.9167 18.0832 16.9167Z" fill="#F9FAFB"/>
<path d="M9.91667 21C9.765 21 9.61333 20.965 9.47333 20.9067C9.33333 20.8484 9.205 20.7667 9.08833 20.6617C8.87833 20.44 8.75 20.1367 8.75 19.8333C8.75 19.6817 8.785 19.53 8.84334 19.39C8.90167 19.2383 8.98333 19.11 9.08833 19.005C9.52 18.5734 10.3133 18.5734 10.745 19.005C10.955 19.2267 11.0833 19.53 11.0833 19.8333C11.0833 20.1367 10.955 20.44 10.745 20.6617C10.5233 20.8717 10.22 21 9.91667 21Z" fill="#F9FAFB"/>
<path d="M14.0002 21C13.6968 21 13.3935 20.8717 13.1718 20.6617C12.9618 20.44 12.8335 20.1367 12.8335 19.8333C12.8335 19.6817 12.8685 19.53 12.9268 19.39C12.9852 19.2383 13.0668 19.11 13.1718 19.005C13.6035 18.5734 14.3968 18.5734 14.8285 19.005C14.9335 19.11 15.0152 19.2383 15.0735 19.39C15.1318 19.53 15.1668 19.6817 15.1668 19.8333C15.1668 20.1367 15.0385 20.44 14.8285 20.6617C14.6068 20.8717 14.3035 21 14.0002 21Z" fill="#F9FAFB"/>
<path d="M18.0832 21C17.7798 21 17.4765 20.8717 17.2548 20.6617C17.1498 20.5567 17.0682 20.4284 17.0098 20.2767C16.9515 20.1367 16.9165 19.9851 16.9165 19.8334C16.9165 19.6817 16.9515 19.53 17.0098 19.39C17.0682 19.2384 17.1498 19.1101 17.2548 19.0051C17.5232 18.7367 17.9315 18.6084 18.3048 18.69C18.3865 18.7017 18.4565 18.725 18.5265 18.76C18.5965 18.7834 18.6665 18.8184 18.7365 18.8651C18.7948 18.9001 18.8532 18.9584 18.9115 19.0051C19.1215 19.2267 19.2498 19.5301 19.2498 19.8334C19.2498 20.1367 19.1215 20.44 18.9115 20.6617C18.6898 20.8717 18.3865 21 18.0832 21Z" fill="#F9FAFB"/>
<path d="M23.9168 11.4799H4.0835C3.60516 11.4799 3.2085 11.0833 3.2085 10.6049C3.2085 10.1266 3.60516 9.72995 4.0835 9.72995H23.9168C24.3952 9.72995 24.7918 10.1266 24.7918 10.6049C24.7918 11.0833 24.3952 11.4799 23.9168 11.4799Z" fill="#F9FAFB"/>
<path d="M18.6667 26.5417H9.33333C5.075 26.5417 2.625 24.0917 2.625 19.8333V9.91668C2.625 5.65834 5.075 3.20834 9.33333 3.20834H18.6667C22.925 3.20834 25.375 5.65834 25.375 9.91668V19.8333C25.375 24.0917 22.925 26.5417 18.6667 26.5417ZM9.33333 4.95834C5.99667 4.95834 4.375 6.58001 4.375 9.91668V19.8333C4.375 23.17 5.99667 24.7917 9.33333 24.7917H18.6667C22.0033 24.7917 23.625 23.17 23.625 19.8333V9.91668C23.625 6.58001 22.0033 4.95834 18.6667 4.95834H9.33333Z" fill="#F9FAFB"/>
</svg>
