<svg width="24" height="18" viewBox="0 0 24 18" fill="none" xmlns="http://www.w3.org/2000/svg">
<path fill-rule="evenodd" clip-rule="evenodd" d="M6.4269 1.70419C6.33003 1.7987 6.22599 1.90229 6.08705 2.04204C6.08705 2.04204 3.7982 4.33244 3.79055 4.33905C3.71954 4.40641 3.66045 4.46401 3.59919 4.5249C3.57104 4.55305 3.546 4.5778 3.49261 4.63032C3.4467 4.67548 3.42545 4.69645 3.39899 4.72277L1.32949 6.7946C1.28508 6.84067 1.24697 6.87947 1.19796 6.9287L1.14217 6.98479C1.07898 7.04809 1.02899 7.0996 0.95834 7.17329C0.796275 7.33321 0.631939 7.51406 0.477196 7.70372C0.333415 7.85703 0.217338 8.03424 0.134231 8.22748L0.112272 8.28594C-0.0374241 8.74937 -0.0374241 9.24817 0.112272 9.71159L0.135197 9.77229C0.218934 9.96505 0.335628 10.1416 0.479954 10.2941C0.634044 10.4835 0.79826 10.6644 0.971886 10.836C1.00841 10.8754 1.06223 10.9303 1.13412 11.0022C1.18377 11.0519 1.20513 11.0733 1.23175 11.1001C1.26613 11.1348 1.29585 11.1651 1.32344 11.1937L3.39839 13.2725C3.5012 13.3753 3.54722 13.421 3.62955 13.5013C3.69723 13.5682 3.73729 13.6072 3.81146 13.6756L6.0891 15.9565C6.25981 16.1273 6.3364 16.2035 6.43293 16.2983C6.55841 16.4239 6.64112 16.505 6.77032 16.6313C6.819 16.6826 6.83724 16.7015 6.86219 16.7247C7.15378 17.0177 7.50944 17.2767 7.89889 17.4754C8.28873 17.6717 8.70205 17.8081 9.12862 17.8818C9.52828 17.9476 9.9271 17.9828 10.3269 17.9878C10.4964 17.9916 10.6665 17.9939 10.8346 17.9945L11.2348 17.9945H18.6805C18.835 17.9945 18.9882 17.9923 19.2006 17.9877C19.598 17.9829 20.0008 17.9475 20.3992 17.8821C20.8343 17.8069 21.2505 17.6693 21.6397 17.4726C22.0341 17.2732 22.394 17.0123 22.706 16.6997C23.0167 16.3878 23.2765 16.0301 23.4767 15.6388C23.6748 15.2444 23.812 14.8274 23.8858 14.3971C23.9518 13.9938 23.9869 13.5912 23.9917 13.1878C23.9947 13.0887 23.9961 13.0014 23.9984 12.8071L24 12.6828L24.0001 12.0697V5.28228L23.9989 5.17491C23.9976 5.05516 23.997 5.00286 23.9958 4.93575C23.9947 4.87282 23.9934 4.81509 23.9918 4.75948C23.9873 4.37159 23.9525 3.97263 23.888 3.57797C23.8138 3.14595 23.6778 2.7325 23.4836 2.34562C23.2825 1.95254 23.0244 1.59745 22.7163 1.28846C22.4081 0.978056 22.051 0.718337 21.6595 0.520145C21.2732 0.324766 20.8603 0.187962 20.434 0.114105C20.0325 0.0487977 19.6336 0.0139583 19.2338 0.00872262C19.0528 0.00433858 18.8857 0.00199973 18.7251 0.00199973C18.563 0.000336839 18.4289 0 18.1279 0H11.4324C11.1336 0 10.9986 0.000338889 10.8292 0.00203305C10.6756 0.00199973 10.5091 0.00432366 10.3181 0.00885285C9.92594 0.0140027 9.5277 0.0488485 9.13367 0.112975C8.7003 0.188085 8.28703 0.324739 7.90046 0.519647C7.5081 0.719535 7.15225 0.978809 6.84371 1.28905C6.82941 1.30311 6.81895 1.31412 6.73159 1.40737C6.62322 1.51013 6.52357 1.60718 6.4269 1.70419ZM3.83565 4.30132L3.83814 4.29938C3.83513 4.30164 3.83304 4.30321 3.83046 4.30536L3.83565 4.30132ZM7.03208 15.0144L4.73007 12.7091C4.73007 12.7091 4.68415 12.6673 4.67937 12.6632C4.64385 12.6293 4.6133 12.5994 4.53698 12.524C4.48189 12.4706 4.43903 12.428 4.34145 12.3304L2.27482 10.2601C2.25058 10.2349 2.21681 10.2004 2.17852 10.1618C2.15007 10.1331 2.12709 10.1101 2.07676 10.0598C2.01347 9.99647 1.96804 9.95007 1.92568 9.90509C1.76385 9.74454 1.62685 9.59297 1.4987 9.43406L1.45478 9.38481C1.42087 9.35038 1.39248 9.311 1.37055 9.26807C1.3205 9.0917 1.32063 8.90484 1.37093 8.72853C1.39289 8.68483 1.42144 8.64469 1.45563 8.60955L1.49601 8.56407C1.62487 8.40483 1.76244 8.25285 1.90811 8.10882C1.98615 8.02777 2.03126 7.98128 2.06538 7.94671L2.11079 7.90146L2.1427 7.86948C2.19692 7.81501 2.24029 7.77086 2.28192 7.7275L4.34071 5.66657C4.36331 5.64409 4.38245 5.6252 4.43656 5.57198C4.48333 5.52597 4.51041 5.4992 4.54042 5.46919C4.58686 5.42303 4.63253 5.3784 4.67739 5.33539C4.68724 5.32715 4.69872 5.31651 4.73139 5.28622L7.03139 2.98322C7.16716 2.84665 7.267 2.74725 7.36474 2.65181C7.45872 2.55758 7.54943 2.46923 7.64536 2.37825C7.66663 2.3584 7.67933 2.34512 7.73805 2.28282L7.78447 2.23379C7.99795 2.01918 8.23901 1.84354 8.50311 1.70899C8.76979 1.57453 9.05756 1.47938 9.35459 1.42787C9.67682 1.37547 10.0094 1.34637 10.3427 1.34196C10.5309 1.33753 10.6872 1.33535 10.8358 1.33535C11.006 1.33368 11.138 1.33335 11.4324 1.33335H18.1278C18.4244 1.33335 18.5555 1.33368 18.7184 1.33532C18.874 1.33535 19.0307 1.33755 19.209 1.34183C19.5503 1.34634 19.8835 1.37544 20.2132 1.42904C20.5025 1.47919 20.7893 1.57422 21.0575 1.70987C21.3215 1.84353 21.5626 2.01883 21.7713 2.22899C21.9825 2.44089 22.1587 2.68333 22.2945 2.94852C22.4274 3.21338 22.5221 3.50142 22.5732 3.79863C22.626 4.12199 22.655 4.45433 22.6589 4.78743C22.6606 4.84901 22.6618 4.90124 22.6628 4.95887C22.6639 5.02216 22.6645 5.07258 22.6658 5.18945L22.6669 5.29048L22.6669 5.88006V12.6683L22.6653 12.7916C22.6631 12.978 22.6618 13.06 22.6588 13.1604C22.6546 13.5088 22.6253 13.8447 22.5709 14.177C22.5202 14.4724 22.4244 14.7637 22.2875 15.0362C22.1526 15.3 21.9745 15.5452 21.762 15.7586C21.5505 15.9704 21.306 16.1476 21.0382 16.2831C20.7672 16.42 20.4771 16.5159 20.1777 16.5677C19.8507 16.6213 19.5147 16.6508 19.1778 16.655C18.968 16.6595 18.8234 16.6616 18.6804 16.6616H10.8372C10.68 16.661 10.5179 16.6588 10.3499 16.6551C10.0108 16.6508 9.67875 16.6215 9.35032 16.5675C9.05854 16.517 8.7708 16.4221 8.50164 16.2865C8.24028 16.1531 7.99868 15.9772 7.78895 15.7669C7.77639 15.7546 7.75899 15.7366 7.73696 15.7134L7.73422 15.7105C7.68174 15.6552 7.66991 15.6427 7.6575 15.6308L7.64251 15.6168C7.5663 15.5452 7.49183 15.4722 7.37137 15.3517C7.27439 15.2564 7.19966 15.182 7.03208 15.0144ZM11.8127 12.5251C11.7587 12.5787 11.6939 12.6224 11.6209 12.6526C11.3974 12.7452 11.1403 12.694 10.9693 12.523C10.8567 12.4108 10.7935 12.2584 10.7935 12.0995C10.7935 11.9407 10.8567 11.7883 10.9693 11.6761V11.6774C11.0013 11.6454 11.0364 11.6175 11.0737 11.5941L13.6687 8.99586L10.969 6.29919L10.9778 6.29036C10.9241 6.23621 10.8802 6.1713 10.8499 6.09802C10.7573 5.87459 10.8085 5.61741 10.9795 5.44641C11.0918 5.33347 11.2444 5.26997 11.4036 5.26997C11.5629 5.26997 11.7155 5.33347 11.8277 5.44641H11.8251C11.8544 5.47571 11.8802 5.50755 11.9023 5.5413L14.5131 8.15044L17.1319 5.52838C17.1522 5.49901 17.1755 5.47104 17.2016 5.44489C17.3726 5.27388 17.6298 5.22272 17.8532 5.31526C18.0766 5.4078 18.2223 5.62583 18.2223 5.86767C18.2223 6.02853 18.1579 6.17885 18.049 6.28872L18.0558 6.29555L15.3589 8.99571L17.9685 11.6036C18.0007 11.6251 18.0311 11.65 18.0589 11.6778L18.0576 11.6792C18.2286 11.8502 18.2798 12.1073 18.1872 12.3308C18.0947 12.5542 17.8767 12.6999 17.6348 12.6999C17.4739 12.6999 17.3236 12.6354 17.2137 12.5265L17.2085 12.5317L14.5148 9.84093L11.8233 12.5357L11.8127 12.5251Z" fill="#090A0A"/>
</svg>
