<svg width="24" height="24" viewBox="0 0 24 24" fill="none" xmlns="http://www.w3.org/2000/svg">
<path d="M3 16.9997H21C21.55 16.9997 22 17.4497 22 17.9997C22 18.5497 21.55 18.9997 21 18.9997H3C2.45 18.9997 2 18.5497 2 17.9997C2 17.4497 2.45 16.9997 3 16.9997ZM2.5 12.5697C2.86 12.7797 3.32 12.6497 3.53 12.2897L4 11.4697L4.48 12.2997C4.69 12.6597 5.15 12.7797 5.51 12.5797C5.87 12.3697 5.99 11.9197 5.79 11.5597L5.3 10.7197H6.25C6.66 10.7197 7 10.3797 7 9.96968C7 9.55968 6.66 9.21968 6.25 9.21968H5.3L5.77 8.39968C5.98 8.03968 5.86 7.57968 5.5 7.36968C5.32574 7.27267 5.12045 7.24766 4.92799 7.29998C4.73554 7.3523 4.57117 7.4778 4.47 7.64968L4 8.46968L3.53 7.64968C3.42883 7.4778 3.26446 7.3523 3.07201 7.29998C2.87955 7.24766 2.67426 7.27267 2.5 7.36968C2.14 7.57968 2.02 8.03968 2.23 8.39968L2.7 9.21968H1.75C1.34 9.21968 1 9.55968 1 9.96968C1 10.3797 1.34 10.7197 1.75 10.7197H2.7L2.22 11.5497C2.02 11.9097 2.14 12.3697 2.5 12.5697ZM10.5 12.5697C10.86 12.7797 11.32 12.6497 11.53 12.2897L12 11.4697L12.48 12.2997C12.69 12.6597 13.15 12.7797 13.51 12.5797C13.87 12.3697 13.99 11.9197 13.79 11.5597L13.31 10.7297H14.26C14.67 10.7297 15.01 10.3897 15.01 9.97968C15.01 9.56968 14.67 9.22968 14.26 9.22968H13.3L13.77 8.40968C13.8689 8.23685 13.896 8.03211 13.8455 7.83949C13.795 7.64687 13.671 7.48176 13.5 7.37968C13.4153 7.33042 13.3217 7.29833 13.2246 7.28524C13.1275 7.27215 13.0288 7.27832 12.9341 7.30339C12.8394 7.32847 12.7505 7.37195 12.6726 7.43137C12.5947 7.49078 12.5292 7.56497 12.48 7.64968L12 8.46968L11.53 7.64968C11.4811 7.56457 11.4159 7.49 11.338 7.43028C11.2602 7.37057 11.1712 7.32689 11.0764 7.30178C10.9815 7.27666 10.8826 7.27062 10.7854 7.28399C10.6882 7.29736 10.5946 7.32989 10.51 7.37968C10.15 7.58968 10.03 8.04968 10.24 8.40968L10.71 9.22968H9.75C9.65198 9.22835 9.55468 9.24652 9.46374 9.28311C9.3728 9.31971 9.29004 9.374 9.22026 9.44285C9.15049 9.5117 9.09508 9.59372 9.05727 9.68416C9.01946 9.7746 8.99999 9.87165 9 9.96968C9 10.3797 9.34 10.7197 9.75 10.7197H10.7L10.22 11.5497C10.02 11.9097 10.14 12.3697 10.5 12.5697ZM23 9.96968C23 9.55968 22.66 9.21968 22.25 9.21968H21.3L21.77 8.39968C21.8689 8.22685 21.896 8.02211 21.8455 7.82949C21.795 7.63687 21.671 7.47176 21.5 7.36968C21.4153 7.32042 21.3217 7.28833 21.2246 7.27524C21.1275 7.26215 21.0288 7.26832 20.9341 7.29339C20.8394 7.31847 20.7505 7.36195 20.6726 7.42137C20.5947 7.48078 20.5292 7.55497 20.48 7.63968L20 8.46968L19.53 7.64968C19.4811 7.56457 19.4159 7.49 19.338 7.43028C19.2602 7.37057 19.1712 7.32689 19.0764 7.30178C18.9815 7.27666 18.8826 7.27062 18.7854 7.28399C18.6882 7.29736 18.5946 7.32989 18.51 7.37968C18.15 7.58968 18.03 8.04968 18.24 8.40968L18.71 9.22968H17.76C17.6613 9.22742 17.5631 9.24487 17.4711 9.281C17.3792 9.31714 17.2954 9.37124 17.2247 9.44014C17.1539 9.50905 17.0976 9.59137 17.059 9.68229C17.0204 9.77321 17.0004 9.87091 17 9.96968C17 10.3797 17.34 10.7197 17.75 10.7197H18.7L18.22 11.5497C18.1703 11.6348 18.1382 11.7289 18.1254 11.8266C18.1126 11.9243 18.1194 12.0235 18.1455 12.1186C18.1716 12.2136 18.2164 12.3024 18.2773 12.3799C18.3381 12.4573 18.4139 12.5219 18.5 12.5697C18.86 12.7797 19.32 12.6497 19.53 12.2897L20 11.4697L20.48 12.2997C20.69 12.6597 21.15 12.7797 21.51 12.5797C21.87 12.3697 21.99 11.9197 21.79 11.5597L21.31 10.7297H22.26C22.66 10.7197 23 10.3797 23 9.96968Z" fill="#2A9E66"/>
</svg>
