<svg width="211" height="105" viewBox="0 0 211 105" fill="none" xmlns="http://www.w3.org/2000/svg">
<path d="M115.949 94.5835H206.298V17.4656C206.298 10.6144 200.773 5.08888 193.88 5.08888H16.864C10.0128 5.08888 4.48728 10.6144 4.48728 17.4656V44.8704V49.7941V94.5835H53.0474H55.0169H72.229" fill="#2A9E66"/>
<path d="M115.949 94.5835H206.298V17.4656C206.298 10.6144 200.773 5.08888 193.88 5.08888H16.864C10.0128 5.08888 4.48727 10.6144 4.48727 17.4656V44.8704V49.7941V94.5835H53.0474H55.0169H72.229" stroke="#333333" stroke-width="0.582385" stroke-linecap="round" stroke-linejoin="round"/>
<path d="M40.8011 104.301C32.7842 104.301 26.2823 97.8032 26.2823 89.7863C26.2823 81.7694 32.7842 75.2717 40.8011 75.2717C48.8137 75.2717 55.3156 81.7694 55.3156 89.7863C55.3156 97.8032 48.8137 104.301 40.8011 104.301Z" fill="#3C3C3C" stroke="#333333" stroke-width="0.582385"/>
<path d="M35.2756 87.7323C35.0189 88.372 34.8884 89.0579 34.8884 89.8281C34.8884 93.1274 37.5439 95.7366 40.8011 95.7366C44.0542 95.7366 46.7096 93.0853 46.7096 89.8281C46.7096 86.575 44.0542 83.9196 40.8011 83.9196C39.6859 83.9196 38.7012 84.2647 37.7585 84.7318" fill="#78C7E0"/>
<path d="M35.2756 87.7323C35.0189 88.372 34.8884 89.0579 34.8884 89.8281C34.8884 93.1274 37.5439 95.7366 40.8011 95.7366C44.0542 95.7366 46.7096 93.0853 46.7096 89.8281C46.7096 86.575 44.0542 83.9196 40.8011 83.9196C39.6859 83.9196 38.7012 84.2647 37.7585 84.7318" fill="#646464"/>
<path d="M35.2756 87.7323C35.0189 88.372 34.8884 89.0579 34.8884 89.8281C34.8884 93.1274 37.5439 95.7366 40.8011 95.7366C44.0542 95.7366 46.7096 93.0853 46.7096 89.8281C46.7096 86.575 44.0542 83.9196 40.8011 83.9196C39.6859 83.9196 38.7012 84.2647 37.7585 84.7318" stroke="#333333" stroke-width="0.582385" stroke-linecap="round" stroke-linejoin="round"/>
<path d="M36.9461 85.3337C36.4327 85.7208 36.4327 85.8471 36.0456 86.3605C35.9193 86.533 35.9614 86.4026 35.8309 86.7056" stroke="#333333" stroke-width="0.582385" stroke-linecap="round" stroke-linejoin="round"/>
<path d="M169.989 104.347C161.972 104.347 155.47 97.8451 155.47 89.8283C155.47 81.8156 161.972 75.3137 169.989 75.3137C178.001 75.3137 184.503 81.8156 184.503 89.8283C184.503 97.8451 178.001 104.347 169.989 104.347Z" fill="#3C3C3C" stroke="#333333" stroke-width="0.582385"/>
<path d="M172.042 84.05C171.398 83.7933 170.759 83.9196 170.031 83.9196C166.731 83.9196 164.122 86.575 164.122 89.8281C164.122 93.0854 166.773 95.7366 170.031 95.7366C173.284 95.7366 175.939 93.1274 175.939 89.8281C175.939 88.9317 175.809 87.7744 175.51 87.0043" fill="#505050"/>
<path d="M172.042 84.05C171.398 83.7933 170.759 83.9196 170.031 83.9196C166.731 83.9196 164.122 86.575 164.122 89.8281C164.122 93.0854 166.773 95.7366 170.031 95.7366C173.284 95.7366 175.939 93.1274 175.939 89.8281C175.939 88.9317 175.809 87.7744 175.51 87.0043" stroke="#333333" stroke-width="0.582385" stroke-linecap="round" stroke-linejoin="round"/>
<path d="M174.483 85.9773C174.054 85.4597 173.97 85.4176 173.456 85.0346C173.284 84.9042 173.326 84.9042 173.069 84.7779" stroke="#333333" stroke-width="0.582385" stroke-linecap="round" stroke-linejoin="round"/>
<path d="M26.24 80.1949H0.291374" stroke="#333333" stroke-width="0.582385" stroke-linecap="round" stroke-linejoin="round"/>
<path d="M210.709 80.1949H184.76" stroke="#333333" stroke-width="0.582385" stroke-linecap="round" stroke-linejoin="round"/>
<path d="M142.155 5.04685V0.291415" stroke="#333333" stroke-width="0.582385" stroke-linecap="round" stroke-linejoin="round"/>
<path d="M45.767 5.04685V0.291415" stroke="#333333" stroke-width="0.582385" stroke-linecap="round" stroke-linejoin="round"/>
<path d="M149.604 0.291415H38.3139" stroke="#333333" stroke-width="0.582385" stroke-linecap="round" stroke-linejoin="round"/>
<path d="M13.6531 14.1662H142.155V35.2753H13.6531V14.1662Z" fill="white" stroke="#333333" stroke-width="0.582385" stroke-linecap="round" stroke-linejoin="round"/>
<path d="M204.413 14.1663H151.232V35.2753H206.34V17.0364C206.34 17.0364 206.168 14.8943 205.911 14.1242" fill="white"/>
<path d="M204.413 14.1663H151.232V35.2753H206.34V17.0364C206.34 17.0364 206.168 14.8943 205.911 14.1242" stroke="#333333" stroke-width="0.582385" stroke-linecap="round" stroke-linejoin="round"/>
<path d="M151.232 35.322V55.2737" stroke="#333333" stroke-width="0.582385" stroke-linecap="round" stroke-linejoin="round"/>
<path d="M199.531 25.6845C200.903 25.6845 201.972 26.7577 201.972 28.1254V35.2754" stroke="#333333" stroke-width="0.582385" stroke-linecap="round"/>
<path d="M115.263 22.2169C115.907 22.2169 116.505 22.604 116.677 23.2437L120.659 35.3217H117.49L113.807 24.1864C113.509 23.1595 114.237 22.2169 115.263 22.2169Z" fill="#646464" stroke="#333333" stroke-width="0.582385" stroke-linecap="round" stroke-linejoin="round"/>
<path d="M109.995 35.3217V18.8755" stroke="#333333" stroke-width="0.582385" stroke-linecap="round" stroke-linejoin="round"/>
<path d="M77.8807 35.3216V14.1662" stroke="#333333" stroke-width="0.582385" stroke-linecap="round" stroke-linejoin="round"/>
<path d="M45.767 35.3217V22.8608" stroke="#333333" stroke-width="0.582385" stroke-linecap="round" stroke-linejoin="round"/>
<path d="M45.767 19.7759V14.1662" stroke="#333333" stroke-width="0.582385" stroke-linecap="round" stroke-linejoin="round"/>
<path d="M83.1496 22.2169C83.7893 22.2169 84.3911 22.604 84.5594 23.2437L88.5447 35.3217H85.3758L81.6935 24.1864C81.3905 23.1595 82.1186 22.2169 83.1496 22.2169Z" fill="#646464" stroke="#333333" stroke-width="0.582385" stroke-linecap="round" stroke-linejoin="round"/>
<path d="M51.0316 22.2169C51.6755 22.2169 52.231 22.604 52.4456 23.2437L56.4267 35.3217H53.3041L49.6218 24.1864C49.2767 23.1595 50.0048 22.2169 51.0316 22.2169Z" fill="#646464" stroke="#333333" stroke-width="0.582385" stroke-linecap="round" stroke-linejoin="round"/>
<path d="M18.9177 22.2169C19.5616 22.2169 20.1171 22.604 20.3317 23.2437L24.3128 35.3217H21.186L17.5037 24.1864C17.1629 23.1595 17.8909 22.2169 18.9177 22.2169Z" fill="#646464" stroke="#333333" stroke-width="0.582385" stroke-linecap="round" stroke-linejoin="round"/>
<path d="M198.635 33.3942C199.148 33.3942 199.531 33.007 199.531 32.4936V18.8754C199.531 18.362 199.148 17.979 198.635 17.979C198.122 17.979 197.734 18.362 197.734 18.8754V32.4936C197.734 33.007 198.122 33.3942 198.635 33.3942Z" fill="#646464" stroke="#333333" stroke-width="0.582385" stroke-linecap="round" stroke-linejoin="round"/>
<path d="M189.814 14.1662V44.6094" stroke="#333333" stroke-width="0.582385" stroke-linecap="round" stroke-linejoin="round"/>
</svg>
