<svg width="25" height="24" viewBox="0 0 25 24" fill="none" xmlns="http://www.w3.org/2000/svg">
<path d="M12.5 11.5702C10.7812 11.5702 9.375 11.0303 8.28125 9.95041C7.1875 8.87052 6.64062 7.48209 6.64062 5.78512C6.64062 4.08815 7.1875 2.69972 8.28125 1.61984C9.375 0.539945 10.7812 0 12.5 0C14.2188 0 15.625 0.539945 16.7188 1.61984C17.8125 2.69972 18.3594 4.08815 18.3594 5.78512C18.3594 7.48209 17.8125 8.87052 16.7188 9.95041C15.625 11.0303 14.2188 11.5702 12.5 11.5702ZM0 23.9504V20.3251C0 19.348 0.247396 18.5124 0.742187 17.8182C1.23698 17.124 1.875 16.5969 2.65625 16.2369C4.40104 15.4656 6.07422 14.8871 7.67578 14.5014C9.27734 14.1157 10.8854 13.9229 12.5 13.9229C14.1146 13.9229 15.7161 14.1221 17.3047 14.5207C18.8932 14.9192 20.5599 15.4913 22.3047 16.2369C23.112 16.5969 23.763 17.124 24.2578 17.8182C24.7526 18.5124 25 19.348 25 20.3251V23.9504H0ZM2.34375 21.6364H22.6562V20.3251C22.6562 19.9137 22.5326 19.5216 22.2852 19.1488C22.0378 18.7759 21.7318 18.4995 21.3672 18.3196C19.7005 17.5225 18.1771 16.9761 16.7969 16.6804C15.4167 16.3848 13.9844 16.2369 12.5 16.2369C11.0156 16.2369 9.57031 16.3848 8.16406 16.6804C6.75781 16.9761 5.23438 17.5225 3.59375 18.3196C3.22917 18.4995 2.92969 18.7759 2.69531 19.1488C2.46094 19.5216 2.34375 19.9137 2.34375 20.3251V21.6364ZM12.5 9.2562C13.5156 9.2562 14.3555 8.92837 15.0195 8.27273C15.6836 7.61708 16.0156 6.78788 16.0156 5.78512C16.0156 4.78237 15.6836 3.95317 15.0195 3.29752C14.3555 2.64187 13.5156 2.31405 12.5 2.31405C11.4844 2.31405 10.6445 2.64187 9.98047 3.29752C9.31641 3.95317 8.98438 4.78237 8.98438 5.78512C8.98438 6.78788 9.31641 7.61708 9.98047 8.27273C10.6445 8.92837 11.4844 9.2562 12.5 9.2562Z" fill="#F9FAFB"/>
</svg>
