<svg width="103" height="18" viewBox="0 0 103 18" fill="none" xmlns="http://www.w3.org/2000/svg">
<path d="M14.5403 1.72778H0.872416C0.436208 1.72778 0.0363507 2.08778 0.0363507 2.55578V4.06778C0.0363507 4.53578 0.436208 4.93178 0.872416 4.93178H14.5403C15.0128 4.93178 15.3763 4.53578 15.4127 4.06778V2.59178C15.4127 2.08778 15.0128 1.72778 14.5403 1.72778ZM14.5403 10.2238H0.872416C0.654312 10.2238 0.436208 10.3318 0.254455 10.4758C0.109052 10.6198 0 10.8358 0 11.0878V12.5998C0 13.0678 0.399857 13.4638 0.836065 13.4638H14.5039C14.9765 13.4638 15.34 13.1038 15.3763 12.5998V11.0878C15.4127 10.5838 15.0128 10.2238 14.5403 10.2238ZM8.57876 14.4358H0.872416C0.654312 14.4358 0.436208 14.5078 0.290805 14.6878C0.145403 14.8318 0.0363507 15.0478 0.0363507 15.2998V16.8118C0.0363507 17.2798 0.436208 17.6758 0.872416 17.6758H8.54241C9.01497 17.6758 9.37847 17.2798 9.37847 16.8118V15.2638C9.41482 14.8318 9.05132 14.4358 8.57876 14.4358ZM15.4127 5.97578H0.872416C0.654312 5.97578 0.436208 6.04778 0.290805 6.22778C0.145403 6.37178 0.0363507 6.58778 0.0363507 6.83978V8.35178C0.0363507 8.81978 0.436208 9.21578 0.872416 9.21578H15.3763C15.8489 9.21578 16.2124 8.81978 16.2124 8.35178V6.83978C16.2488 6.33578 15.8852 5.97578 15.4127 5.97578Z" fill="#00C3F7"/>
<path d="M31.2978 5.148C30.8616 4.716 30.389 4.392 29.8074 4.14C29.2622 3.888 28.6442 3.78 28.0262 3.78C27.4446 3.78 26.863 3.888 26.3177 4.14C25.9542 4.32 25.6271 4.536 25.3726 4.824V4.572C25.3726 4.428 25.2999 4.32 25.2272 4.212C25.1182 4.104 25.0091 4.032 24.8637 4.032H22.9371C22.7917 4.032 22.6463 4.104 22.5736 4.212C22.4646 4.32 22.4282 4.428 22.4282 4.572V17.172C22.4282 17.316 22.5009 17.424 22.5736 17.532C22.6827 17.64 22.7917 17.676 22.9371 17.676H24.8637C25.0091 17.676 25.1182 17.64 25.2272 17.532C25.3363 17.424 25.3726 17.316 25.3726 17.172V12.852C25.6634 13.14 25.9906 13.392 26.3904 13.5C26.8994 13.68 27.4446 13.788 27.9535 13.788C28.5715 13.788 29.1894 13.68 29.7347 13.428C30.3163 13.212 30.8252 12.852 31.2251 12.42C31.6613 11.952 32.0248 11.412 32.2429 10.836C32.4974 10.188 32.6428 9.468 32.6064 8.784C32.6064 8.064 32.4974 7.38 32.2429 6.696C32.0975 6.156 31.734 5.616 31.2978 5.148ZM29.5893 9.72C29.4803 9.972 29.3349 10.224 29.1531 10.44C28.7532 10.872 28.208 11.088 27.6264 11.088C27.3356 11.088 27.0448 11.016 26.7903 10.908C26.5358 10.8 26.2814 10.62 26.0996 10.44C25.9179 10.224 25.7361 9.972 25.6271 9.72C25.409 9.144 25.409 8.532 25.6271 7.956C25.7361 7.704 25.8815 7.452 26.0996 7.236C26.3177 7.02 26.5358 6.876 26.7903 6.732C27.0448 6.624 27.3356 6.552 27.6264 6.552C27.9172 6.552 28.208 6.624 28.4988 6.732C28.7532 6.84 28.9713 7.02 29.1894 7.2C29.3712 7.416 29.5166 7.632 29.6257 7.92C29.8074 8.496 29.8074 9.144 29.5893 9.72ZM43.1118 4.068H41.1852C41.0398 4.068 40.9307 4.14 40.8217 4.212C40.7126 4.32 40.6763 4.464 40.6763 4.608V4.824C40.4218 4.536 40.131 4.32 39.8038 4.176C39.2949 3.924 38.7133 3.816 38.1317 3.816C36.8958 3.816 35.6962 4.32 34.8238 5.184C34.3876 5.652 34.0241 6.192 33.7696 6.768C33.4788 7.416 33.3698 8.136 33.3698 8.856C33.3698 9.576 33.4788 10.296 33.7696 10.944C34.0241 11.52 34.3876 12.06 34.8238 12.528C35.6962 13.392 36.8594 13.896 38.0954 13.896C38.677 13.896 39.2586 13.788 39.7675 13.536C40.0947 13.356 40.4218 13.14 40.6399 12.888V13.14C40.6399 13.284 40.7126 13.392 40.7853 13.5C40.8944 13.572 41.0034 13.644 41.1488 13.644H43.0754C43.2208 13.644 43.3299 13.572 43.4389 13.5C43.548 13.392 43.5843 13.284 43.5843 13.14V4.608C43.5843 4.464 43.548 4.356 43.4389 4.248C43.3662 4.104 43.2572 4.068 43.1118 4.068ZM40.4945 9.684C40.3855 9.936 40.2401 10.188 40.0583 10.404C39.8765 10.584 39.6221 10.764 39.3676 10.908C38.8224 11.16 38.2044 11.16 37.6592 10.908C37.4047 10.8 37.1502 10.62 36.9685 10.404C36.7867 10.188 36.605 9.936 36.5323 9.684C36.3142 9.108 36.3142 8.496 36.5323 7.92C36.6413 7.668 36.7867 7.416 36.9685 7.2C37.1502 6.984 37.4047 6.84 37.6592 6.696C38.2044 6.444 38.8224 6.444 39.3676 6.696C39.6221 6.804 39.8402 6.984 40.0583 7.164C40.2401 7.38 40.3855 7.596 40.4945 7.884C40.749 8.496 40.749 9.144 40.4945 9.684ZM62.2686 8.568C61.9778 8.316 61.687 8.136 61.3234 7.992C60.9599 7.848 60.5964 7.74 60.1966 7.668L58.7425 7.38C58.379 7.308 58.0882 7.2 57.9428 7.092C57.8338 7.02 57.7611 6.876 57.7611 6.732C57.7611 6.588 57.8338 6.444 58.0519 6.336C58.3063 6.192 58.5971 6.12 58.8516 6.156C59.2151 6.156 59.615 6.228 59.9421 6.372C60.2693 6.516 60.5964 6.696 60.8872 6.876C61.3234 7.128 61.687 7.092 61.9414 6.804L62.6321 6.012C62.7775 5.868 62.8502 5.688 62.8502 5.508C62.8502 5.328 62.7411 5.112 62.5957 5.004C62.3049 4.752 61.8324 4.464 61.178 4.212C60.5601 3.96 59.7604 3.816 58.8153 3.816C58.2336 3.816 57.6884 3.888 57.1431 4.068C56.6706 4.212 56.2344 4.428 55.8708 4.716C55.5073 4.968 55.2529 5.328 55.0348 5.724C54.853 6.12 54.744 6.516 54.744 6.948C54.744 7.74 54.9984 8.388 55.471 8.856C55.9435 9.324 56.5615 9.648 57.3612 9.792L58.888 10.116C59.2151 10.188 59.5423 10.26 59.8694 10.404C60.0512 10.476 60.1602 10.62 60.1602 10.836C60.1602 11.016 60.0875 11.16 59.8694 11.304C59.6877 11.448 59.3605 11.52 58.9607 11.52C58.5608 11.52 58.1246 11.448 57.7611 11.268C57.3976 11.088 57.0704 10.872 56.7796 10.62C56.6342 10.512 56.4888 10.44 56.3434 10.368C56.1616 10.332 55.9435 10.368 55.7254 10.548L54.8894 11.196C54.6713 11.376 54.5259 11.664 54.5986 11.916C54.6349 12.204 54.8894 12.456 55.2892 12.78C56.3434 13.5 57.6157 13.86 58.888 13.824C59.4696 13.824 60.0875 13.752 60.6328 13.572C61.1417 13.428 61.5779 13.212 61.9778 12.888C62.3413 12.6 62.6684 12.24 62.8502 11.844C63.0683 11.448 63.141 11.016 63.141 10.548C63.141 10.152 63.0683 9.756 62.8865 9.36C62.7411 9.108 62.523 8.82 62.2686 8.568ZM70.6292 10.872C70.5565 10.728 70.3748 10.62 70.193 10.584C70.0113 10.584 69.8295 10.656 69.6841 10.728C69.466 10.872 69.1752 10.98 68.8844 10.98C68.8117 10.98 68.7026 10.98 68.5936 10.944C68.4845 10.944 68.4118 10.872 68.3391 10.8C68.2664 10.728 68.1937 10.62 68.121 10.512C68.0483 10.368 68.012 10.188 68.0483 10.008V6.552H70.5565C70.7019 6.552 70.8473 6.48 70.9564 6.372C71.0654 6.264 71.1381 6.156 71.1381 6.012V4.536C71.1381 4.392 71.0654 4.248 70.9564 4.176C70.8473 4.068 70.7383 4.032 70.5929 4.032H68.0847V1.692C68.0847 1.548 68.0483 1.404 67.9393 1.332C67.8302 1.224 67.7212 1.188 67.5758 1.188H65.6492C65.5038 1.188 65.3584 1.224 65.2857 1.332C65.1766 1.44 65.1403 1.584 65.1403 1.692V4.068H64.0498C63.9043 4.068 63.7589 4.14 63.6862 4.248C63.5772 4.356 63.5408 4.464 63.5408 4.608V6.084C63.5408 6.228 63.5772 6.336 63.6862 6.444C63.7589 6.552 63.9043 6.624 64.0498 6.624H65.1403V10.728C65.1403 11.232 65.213 11.7 65.4311 12.132C65.6128 12.492 65.8673 12.816 66.1581 13.068C66.4489 13.32 66.8124 13.5 67.2123 13.608C67.6121 13.716 68.012 13.788 68.4118 13.788C68.9571 13.788 69.466 13.716 69.9749 13.536C70.4475 13.392 70.8837 13.104 71.2108 12.78C71.4289 12.564 71.4653 12.204 71.2835 11.952L70.6292 10.872ZM81.1709 4.068H79.2443C79.0989 4.068 78.9899 4.14 78.8808 4.212C78.7718 4.32 78.7354 4.464 78.7354 4.608V4.824C78.481 4.536 78.1902 4.32 77.863 4.176C77.3541 3.924 76.7725 3.816 76.1909 3.816C74.9549 3.816 73.7917 4.32 72.9193 5.184C72.4831 5.652 72.1196 6.192 71.8651 6.768C71.5743 7.416 71.4653 8.136 71.4653 8.82C71.4653 9.54 71.5743 10.224 71.8651 10.908C72.1196 11.484 72.4831 12.024 72.9193 12.492C73.7917 13.356 74.9549 13.86 76.1909 13.86C76.7725 13.86 77.3541 13.752 77.863 13.5C78.1902 13.32 78.5173 13.104 78.7354 12.852V13.104C78.7354 13.248 78.7718 13.356 78.8808 13.464C78.9899 13.572 79.0989 13.608 79.2443 13.608H81.1709C81.4617 13.608 81.6798 13.392 81.6798 13.104V4.608C81.6798 4.464 81.6435 4.356 81.5344 4.248C81.4254 4.104 81.3163 4.068 81.1709 4.068ZM78.5537 9.684C78.4446 9.936 78.2992 10.188 78.1175 10.404C77.8994 10.584 77.6812 10.764 77.4268 10.908C77.1723 11.016 76.8452 11.088 76.5544 11.088C76.2636 11.088 75.9728 11.016 75.7183 10.908C75.4639 10.8 75.2094 10.62 75.0277 10.404C74.8459 10.188 74.6641 9.936 74.5914 9.684C74.3733 9.108 74.3733 8.496 74.5914 7.92C74.7005 7.668 74.8459 7.416 75.0277 7.2C75.2458 6.984 75.4639 6.84 75.7183 6.696C75.9728 6.588 76.2636 6.516 76.5544 6.516C76.8452 6.516 77.136 6.588 77.4268 6.696C77.6812 6.804 77.8994 6.984 78.1175 7.164C78.2992 7.38 78.481 7.596 78.5537 7.884C78.8081 8.496 78.8081 9.144 78.5537 9.684ZM91.7126 10.728L90.6221 9.9C90.404 9.72 90.2222 9.684 90.0405 9.756C89.8951 9.828 89.7497 9.936 89.6406 10.044C89.3862 10.332 89.1317 10.584 88.8046 10.8C88.4774 10.98 88.1139 11.088 87.714 11.052C87.2778 11.052 86.878 10.944 86.5145 10.692C86.151 10.44 85.8965 10.08 85.7511 9.684C85.6421 9.396 85.6057 9.108 85.6057 8.82C85.6057 8.532 85.6421 8.208 85.7511 7.92C85.8602 7.668 86.0056 7.416 86.1873 7.2C86.4054 6.984 86.6235 6.84 86.878 6.732C87.1324 6.624 87.4596 6.552 87.7504 6.552C88.1139 6.552 88.5138 6.624 88.8046 6.804C89.1317 7.02 89.3862 7.272 89.6406 7.56C89.7497 7.668 89.8951 7.776 90.0405 7.848C90.2222 7.92 90.404 7.884 90.6221 7.704L91.7126 6.876C91.858 6.768 91.9671 6.66 92.0034 6.516C92.0761 6.336 92.0398 6.156 91.9671 6.012C91.5309 5.364 90.9492 4.824 90.2586 4.428C89.5316 4.032 88.6592 3.816 87.6777 3.816C86.987 3.816 86.2964 3.96 85.6784 4.212C85.0604 4.464 84.5152 4.824 84.0426 5.292C83.5701 5.76 83.2066 6.3 82.9521 6.876C82.4432 8.136 82.4432 9.576 82.9521 10.836C83.2066 11.448 83.5701 11.988 84.0426 12.42C85.0241 13.356 86.2964 13.86 87.6777 13.86C88.6592 13.86 89.5316 13.644 90.2586 13.248C90.9492 12.852 91.5309 12.312 91.9671 11.664C92.0761 11.52 92.0761 11.34 92.0034 11.16C91.9307 10.98 91.8217 10.836 91.7126 10.728ZM101.927 12.708L98.91 8.28L101.491 4.896C101.6 4.752 101.636 4.536 101.6 4.356C101.564 4.212 101.418 4.068 101.127 4.068H99.0918C98.9827 4.068 98.8737 4.104 98.7646 4.14C98.6192 4.212 98.5465 4.284 98.4738 4.428L96.4018 7.308H95.8929V0.504C95.8929 0.36 95.8566 0.252 95.7475 0.144C95.6385 0.036 95.5294 0 95.384 0H93.4574C93.312 0 93.203 0.036 93.0939 0.144C92.9849 0.252 92.9485 0.36 92.9485 0.504V13.032C92.9485 13.176 93.0212 13.32 93.0939 13.392C93.203 13.5 93.312 13.536 93.4574 13.536H95.384C95.5294 13.536 95.6385 13.464 95.7475 13.392C95.8566 13.284 95.8929 13.176 95.8929 13.032V9.72H96.4382L98.6919 13.176C98.8373 13.428 99.0918 13.572 99.3463 13.572H101.491C101.818 13.572 101.964 13.428 102 13.284C102.073 13.104 102.036 12.888 101.927 12.708ZM54.017 4.068H51.8723C51.7269 4.068 51.5451 4.104 51.4361 4.248C51.327 4.356 51.2543 4.464 51.2543 4.608L49.6549 10.44H49.255L47.5465 4.572C47.5102 4.464 47.4738 4.32 47.3648 4.212C47.2557 4.104 47.1103 4.032 46.9649 4.032H44.7475C44.4567 4.032 44.275 4.14 44.2023 4.32C44.1296 4.5 44.1296 4.68 44.2023 4.824L46.9286 13.068C46.9649 13.176 47.0376 13.32 47.1467 13.392C47.2557 13.5 47.4011 13.536 47.5465 13.536H48.7098L48.6007 13.788L48.3463 14.544C48.2736 14.76 48.1282 14.976 47.91 15.156C47.7283 15.3 47.5102 15.372 47.2557 15.372C47.074 15.372 46.8559 15.336 46.6741 15.264C46.4924 15.192 46.3106 15.084 46.1652 14.976C46.0198 14.868 45.8381 14.832 45.6927 14.832H45.6563C45.4382 14.832 45.2564 14.94 45.1837 15.12L44.4931 16.128C44.2023 16.56 44.384 16.848 44.5658 16.992C44.9293 17.316 45.3655 17.568 45.8381 17.748C46.347 17.928 46.8922 18 47.4738 18C48.4553 18 49.2914 17.748 49.9093 17.208C50.5636 16.632 51.0362 15.876 51.2907 15.048L54.4532 4.86C54.5259 4.68 54.5259 4.5 54.4532 4.32C54.4532 4.176 54.3078 4.068 54.017 4.068Z" fill="#011B33"/>
</svg>
