<svg width="72" height="72" viewBox="0 0 72 72" fill="none" xmlns="http://www.w3.org/2000/svg">
<path d="M32.5904 65.1809C14.6072 65.1809 0 50.5737 0 32.5904C0 14.6072 14.6072 0 32.5904 0C50.5737 0 65.1809 14.6072 65.1809 32.5904C65.1809 50.5737 50.5737 65.1809 32.5904 65.1809ZM32.5904 5.01391C17.3816 5.01391 5.01391 17.3816 5.01391 32.5904C5.01391 47.7993 17.3816 60.167 32.5904 60.167C47.7993 60.167 60.167 47.7993 60.167 32.5904C60.167 17.3816 47.7993 5.01391 32.5904 5.01391Z" fill="#2A9E66"/>
<path d="M63.2087 72C62.9413 72 62.6739 71.9665 62.4399 71.9331C60.8689 71.7326 58.0277 70.6629 56.4232 65.883C55.5876 63.376 55.8884 60.8691 57.2589 58.9638C58.6294 57.0585 60.9358 55.9889 63.5764 55.9889C66.9859 55.9889 69.66 57.2925 70.8633 59.5989C72.0667 61.9053 71.7324 64.8468 69.8271 67.688C67.4539 71.2646 64.88 72 63.2087 72ZM61.2032 64.312C61.7714 66.0501 62.5736 66.9192 63.1085 66.986C63.6433 67.0529 64.6461 66.4178 65.6823 64.9136C66.6516 63.4763 66.7185 62.4401 66.4845 61.9721C66.2505 61.5042 65.3146 61.0028 63.5764 61.0028C62.5402 61.0028 61.7714 61.337 61.3369 61.9053C60.9358 62.4735 60.8689 63.3426 61.2032 64.312Z" fill="#2A9E66"/>
</svg>
