<svg width="30" height="30" viewBox="0 0 30 30" fill="none" xmlns="http://www.w3.org/2000/svg">
<path d="M21.125 28.4375H8.87501C6.22501 28.4375 4.0625 26.275 4.0625 23.625V6.37501C4.0625 3.72501 6.22501 1.5625 8.87501 1.5625H21.125C23.775 1.5625 25.9375 3.72501 25.9375 6.37501V23.625C25.9375 26.275 23.775 28.4375 21.125 28.4375ZM8.87501 3.4375C7.26251 3.4375 5.9375 4.75001 5.9375 6.37501V23.625C5.9375 25.2375 7.25001 26.5625 8.87501 26.5625H21.125C22.7375 26.5625 24.0625 25.25 24.0625 23.625V6.37501C24.0625 4.76251 22.75 3.4375 21.125 3.4375H8.87501Z" fill="#F3F4F6"/>
<path d="M23.125 17.1875H6.875C5.325 17.1875 4.0625 15.925 4.0625 14.375V11.875C4.0625 10.325 5.325 9.0625 6.875 9.0625H23.125C24.675 9.0625 25.9375 10.325 25.9375 11.875V14.375C25.9375 15.925 24.675 17.1875 23.125 17.1875ZM6.875 10.9375C6.3625 10.9375 5.9375 11.3625 5.9375 11.875V14.375C5.9375 14.8875 6.3625 15.3125 6.875 15.3125H23.125C23.6375 15.3125 24.0625 14.8875 24.0625 14.375V11.875C24.0625 11.3625 23.6375 10.9375 23.125 10.9375H6.875Z" fill="#F3F4F6"/>
<path d="M10 23.4374C9.5875 23.4374 9.18749 23.2749 8.89999 22.9749C8.82499 22.9124 8.76251 22.8249 8.70001 22.7374C8.65001 22.6624 8.60001 22.5624 8.56251 22.4749C8.51251 22.3749 8.48751 22.2748 8.46251 22.1748C8.45001 22.0748 8.4375 21.9749 8.4375 21.8749C8.4375 21.7749 8.45001 21.6749 8.46251 21.5749C8.48751 21.4749 8.51251 21.3748 8.56251 21.2748C8.60001 21.1873 8.65001 21.0874 8.70001 21.0124C8.76251 20.9249 8.82499 20.8374 8.89999 20.7749C9.47499 20.1874 10.5125 20.1874 11.1 20.7749C11.175 20.8374 11.2375 20.9249 11.3 21.0124C11.35 21.0874 11.4 21.1873 11.4375 21.2748C11.4875 21.3748 11.5125 21.4749 11.5375 21.5749C11.55 21.6749 11.5625 21.7749 11.5625 21.8749C11.5625 21.9749 11.55 22.0748 11.5375 22.1748C11.5125 22.2748 11.4875 22.3749 11.4375 22.4749C11.4 22.5624 11.35 22.6624 11.3 22.7374C11.2375 22.8249 11.175 22.9124 11.1 22.9749C10.8125 23.2749 10.4125 23.4374 10 23.4374Z" fill="#F3F4F6"/>
<path d="M20 23.4374C19.5875 23.4374 19.1875 23.2749 18.9 22.9749C18.6 22.6874 18.4375 22.2874 18.4375 21.8749C18.4375 21.4624 18.6 21.0624 18.9 20.7749C19.475 20.1874 20.525 20.1874 21.1 20.7749C21.4 21.0624 21.5625 21.4624 21.5625 21.8749C21.5625 22.2874 21.4 22.6874 21.1 22.9749C20.8125 23.2749 20.4125 23.4374 20 23.4374Z" fill="#F3F4F6"/>
<path d="M18.125 7.1875H11.875C11.3625 7.1875 10.9375 6.7625 10.9375 6.25C10.9375 5.7375 11.3625 5.3125 11.875 5.3125H18.125C18.6375 5.3125 19.0625 5.7375 19.0625 6.25C19.0625 6.7625 18.6375 7.1875 18.125 7.1875Z" fill="#F3F4F6"/>
</svg>
