<svg width="281" height="281" viewBox="0 0 281 281" fill="none" xmlns="http://www.w3.org/2000/svg">
<path d="M4.96855 276.031V225.977H0V278.515C0 279.896 1.10411 281 2.48426 281H55.0222V276.031H4.96855Z" fill="#2A9E66"/>
<path d="M276.031 276.031H225.977V281H278.515C279.895 281 281 279.896 281 278.515V225.977H276.031V276.031Z" fill="#2A9E66"/>
<path d="M4.96855 4.96855H55.0222V0H2.48426C1.10411 0 0 1.10414 0 2.48429V55.0222H4.96855V4.96855Z" fill="#2A9E66"/>
<path d="M276.031 4.96855V55.0222H281V2.48429C281 1.10414 279.895 0 278.515 0H225.977V4.96855H276.031Z" fill="#2A9E66"/>
<path d="M145.72 254.688V253.768C146.64 253.768 147.652 253.768 148.572 253.676V254.596C147.56 254.596 146.64 254.688 145.72 254.688ZM142.776 254.688C141.855 254.688 140.843 254.688 139.923 254.596V253.676C140.843 253.676 141.855 253.768 142.776 253.768V254.688ZM151.425 254.412L151.333 253.492C152.253 253.4 153.265 253.4 154.185 253.308L154.277 254.228C153.357 254.32 152.345 254.412 151.425 254.412ZM137.071 254.412C136.151 254.32 135.139 254.32 134.219 254.228L134.311 253.308C135.231 253.4 136.243 253.492 137.163 253.492L137.071 254.412ZM157.129 253.952L157.037 253.032C157.957 252.94 158.969 252.848 159.89 252.664L159.982 253.584C159.061 253.768 158.141 253.86 157.129 253.952ZM131.366 253.952C130.446 253.86 129.434 253.768 128.514 253.584L128.606 252.664C129.526 252.756 130.446 252.94 131.458 253.032L131.366 253.952ZM162.834 253.216L162.65 252.296C163.57 252.112 164.49 252.02 165.502 251.836L165.686 252.756C164.766 252.94 163.846 253.032 162.834 253.216ZM125.662 253.216C124.742 253.032 123.729 252.94 122.809 252.756L122.993 251.836C123.913 252.02 124.834 252.204 125.846 252.296L125.662 253.216ZM168.538 252.204L168.354 251.284C169.275 251.1 170.195 250.916 171.115 250.64L171.299 251.56C170.379 251.836 169.459 252.02 168.538 252.204ZM119.957 252.112C119.037 251.928 118.117 251.744 117.197 251.468L117.381 250.548C118.301 250.732 119.221 251.008 120.141 251.192L119.957 252.112ZM174.151 250.916L173.875 249.996C174.795 249.72 175.715 249.536 176.635 249.26L176.911 250.18C175.991 250.364 175.071 250.64 174.151 250.916ZM114.436 250.824C113.516 250.548 112.596 250.364 111.676 250.088L111.952 249.168C112.872 249.444 113.792 249.72 114.712 249.904L114.436 250.824ZM179.672 249.352L179.396 248.432C180.316 248.156 181.236 247.879 182.156 247.511L182.432 248.432C181.512 248.708 180.592 248.984 179.672 249.352ZM108.916 249.26C107.996 248.984 107.076 248.708 106.155 248.34L106.432 247.419C107.352 247.695 108.272 248.064 109.1 248.34L108.916 249.26ZM185.1 247.419L184.732 246.499C185.652 246.131 186.48 245.855 187.401 245.487L187.769 246.407C186.941 246.775 186.02 247.143 185.1 247.419ZM103.395 247.327C102.475 246.959 101.555 246.683 100.727 246.315L101.095 245.395C102.015 245.763 102.843 246.131 103.763 246.407L103.395 247.327ZM190.437 245.303L190.069 244.383C190.989 244.015 191.817 243.647 192.645 243.279L193.013 244.107C192.185 244.567 191.357 244.935 190.437 245.303ZM98.0586 245.211C97.1385 244.843 96.3104 244.475 95.4823 244.015L95.8503 243.187C96.6784 243.555 97.5985 243.923 98.4266 244.291L98.0586 245.211ZM195.682 242.911L195.221 242.083C196.05 241.623 196.97 241.255 197.798 240.795L198.258 241.623C197.43 242.083 196.602 242.543 195.682 242.911ZM92.906 242.911C92.0779 242.451 91.1578 242.083 90.3297 241.623L90.7898 240.795C91.6179 241.255 92.4459 241.623 93.366 242.083L92.906 242.911ZM200.834 240.335L200.374 239.507C201.202 239.046 202.03 238.586 202.858 238.126L203.318 238.954C202.49 239.415 201.662 239.875 200.834 240.335ZM87.7534 240.243C86.9253 239.783 86.0972 239.322 85.2691 238.862L85.7292 238.034C86.5573 238.494 87.3854 238.954 88.2135 239.415L87.7534 240.243ZM205.803 237.482L205.343 236.654C206.171 236.194 206.999 235.642 207.735 235.182L208.287 236.01C207.459 236.47 206.631 236.93 205.803 237.482ZM82.8769 237.39C82.0488 236.93 81.2207 236.378 80.4846 235.826L81.0367 234.998C81.8648 235.55 82.6008 236.01 83.4289 236.47L82.8769 237.39ZM210.679 234.354L210.127 233.526C210.955 232.974 211.691 232.422 212.427 231.87L212.98 232.606C212.243 233.25 211.415 233.802 210.679 234.354ZM78.0003 234.262C77.1722 233.71 76.4362 233.158 75.6081 232.606L76.1601 231.87C76.8962 232.422 77.7243 232.974 78.4604 233.526L78.0003 234.262ZM215.372 230.95L214.82 230.213C215.556 229.661 216.292 229.017 217.12 228.465L217.672 229.201C216.844 229.845 216.108 230.398 215.372 230.95ZM73.3078 230.858C72.5717 230.306 71.7436 229.661 71.0075 229.109L71.5596 228.373C72.2957 228.925 73.0318 229.569 73.7679 230.121L73.3078 230.858ZM219.88 227.361L219.236 226.625C219.972 225.981 220.708 225.429 221.444 224.785L222.088 225.521C221.352 226.165 220.616 226.809 219.88 227.361ZM68.8913 227.361C68.1552 226.717 67.4191 226.165 66.6831 225.521L67.3271 224.785C68.0632 225.429 68.7993 225.981 69.5354 226.625L68.8913 227.361ZM224.205 223.589L223.561 222.853C224.297 222.209 224.941 221.565 225.677 220.92L226.321 221.565C225.585 222.301 224.849 222.945 224.205 223.589ZM64.5668 223.589C63.8307 222.945 63.1867 222.301 62.4506 221.657L63.0947 221.012C63.7387 221.657 64.4748 222.301 65.2109 222.945L64.5668 223.589ZM228.345 219.632L227.701 218.988C228.345 218.344 228.989 217.608 229.725 216.964L230.461 217.608C229.633 218.252 228.989 218.988 228.345 219.632ZM60.4264 219.54C59.7823 218.896 59.0462 218.16 58.4021 217.516L59.1382 216.872C59.7823 217.608 60.4263 218.252 61.1624 218.896L60.4264 219.54ZM232.302 215.492L231.566 214.848C232.21 214.112 232.854 213.468 233.406 212.732L234.142 213.376C233.498 214.02 232.854 214.756 232.302 215.492ZM56.4699 215.4C55.8258 214.664 55.1818 213.928 54.5377 213.192L55.2738 212.548C55.9178 213.284 56.5619 214.02 57.114 214.664L56.4699 215.4ZM235.982 211.075L235.246 210.431C235.89 209.695 236.442 208.959 236.994 208.223L237.73 208.775C237.178 209.603 236.626 210.339 235.982 211.075ZM52.6975 210.983C52.0534 210.247 51.5013 209.511 50.9493 208.683L51.6854 208.131C52.2374 208.867 52.8815 209.603 53.4336 210.339L52.6975 210.983ZM239.478 206.567L238.742 206.015C239.294 205.279 239.847 204.451 240.399 203.715L241.135 204.267C240.675 205.003 240.031 205.739 239.478 206.567ZM49.2011 206.475C48.649 205.739 48.097 204.911 47.5449 204.175L48.281 203.622C48.833 204.359 49.3851 205.187 49.9372 205.923L49.2011 206.475ZM242.791 201.874L241.963 201.322C242.515 200.494 242.975 199.758 243.527 198.93L244.355 199.482C243.803 200.218 243.343 201.046 242.791 201.874ZM45.8887 201.69C45.3366 200.862 44.8766 200.126 44.3246 199.298L45.1526 198.838C45.7047 199.666 46.1648 200.402 46.7168 201.23L45.8887 201.69ZM245.827 196.998L244.999 196.538C245.459 195.71 245.919 194.882 246.471 194.053L247.299 194.514C246.839 195.342 246.379 196.17 245.827 196.998ZM42.8524 196.814C42.3923 195.986 41.8403 195.158 41.3802 194.329L42.2083 193.869C42.6683 194.698 43.1284 195.526 43.6805 196.354L42.8524 196.814ZM248.68 192.029L247.851 191.569C248.311 190.741 248.772 189.913 249.14 189.085L249.968 189.545C249.6 190.281 249.14 191.109 248.68 192.029ZM40.0001 191.845C39.54 191.017 39.08 190.097 38.7119 189.269L39.54 188.809C40.0001 189.637 40.3681 190.465 40.8281 191.385L40.0001 191.845ZM251.256 186.877L250.428 186.509C250.796 185.68 251.256 184.76 251.624 183.932L252.452 184.3C252.084 185.128 251.624 185.956 251.256 186.877ZM37.4238 186.693C37.0557 185.865 36.5957 184.944 36.2276 184.024L37.0557 183.656C37.4238 184.484 37.7918 185.404 38.2519 186.233L37.4238 186.693ZM253.556 181.632L252.636 181.264C253.004 180.344 253.372 179.516 253.648 178.596L254.568 178.964C254.292 179.884 253.924 180.712 253.556 181.632ZM35.1235 181.356C34.7555 180.436 34.3874 179.608 34.0194 178.688L34.9395 178.32C35.3075 179.24 35.6756 180.068 35.9516 180.988L35.1235 181.356ZM255.58 176.295L254.66 176.019C254.936 175.099 255.304 174.271 255.58 173.351L256.5 173.627C256.224 174.455 255.948 175.375 255.58 176.295ZM33.0993 176.019C32.8232 175.099 32.4552 174.179 32.1792 173.259L33.0993 172.983C33.3753 173.903 33.7434 174.823 34.0194 175.651L33.0993 176.019ZM257.42 170.775L256.5 170.499C256.776 169.579 257.052 168.659 257.328 167.738L258.249 168.014C257.973 168.935 257.697 169.855 257.42 170.775ZM31.2591 170.499C30.983 169.579 30.707 168.659 30.431 167.738L31.3511 167.462C31.6271 168.383 31.9031 169.303 32.1792 170.223L31.2591 170.499ZM258.985 165.254L258.065 164.978C258.249 164.058 258.525 163.138 258.709 162.218L259.629 162.402C259.353 163.414 259.169 164.334 258.985 165.254ZM29.7869 164.978C29.6029 164.058 29.3269 163.138 29.1428 162.218L30.0629 162.034C30.247 162.954 30.523 163.874 30.707 164.794L29.7869 164.978ZM260.181 159.642L259.261 159.458C259.445 158.537 259.629 157.617 259.813 156.697L260.733 156.881C260.549 157.801 260.365 158.721 260.181 159.642ZM28.4988 159.366C28.3147 158.445 28.1307 157.525 27.9467 156.513L28.8668 156.329C29.0508 157.249 29.2348 158.169 29.4189 159.09L28.4988 159.366ZM261.193 153.937L260.273 153.845C260.457 152.925 260.549 152.005 260.641 150.993L261.561 151.085C261.469 152.097 261.285 153.017 261.193 153.937ZM27.5787 153.753C27.4866 152.833 27.3026 151.821 27.2106 150.901L28.1307 150.809C28.2227 151.729 28.4068 152.741 28.4988 153.661L27.5787 153.753ZM261.837 148.232L260.917 148.14C261.009 147.22 261.101 146.208 261.193 145.288L262.113 145.38C262.021 146.392 261.929 147.312 261.837 148.232ZM26.8426 148.048C26.7506 147.128 26.6585 146.116 26.5665 145.196L27.4866 145.104C27.5787 146.024 27.6707 147.036 27.7627 147.956L26.8426 148.048ZM262.297 142.528L261.377 142.436C261.469 141.516 261.469 140.503 261.469 139.583H262.389C262.389 140.595 262.297 141.608 262.297 142.528ZM26.4746 142.252C26.4746 141.331 26.3825 140.319 26.3825 139.399H27.3026C27.3026 140.319 27.3947 141.331 27.3947 142.252H26.4746ZM262.481 136.823H261.561V136.639C261.561 135.719 261.561 134.707 261.561 133.787H262.481C262.481 134.707 262.481 135.719 262.481 136.639V136.823ZM27.3026 136.547H26.3825C26.3825 135.627 26.3825 134.615 26.3825 133.695H27.3026C27.3026 134.615 27.3026 135.535 27.3026 136.547ZM261.377 130.934C261.377 130.014 261.285 129.002 261.193 128.082L262.113 127.99C262.205 128.91 262.205 129.922 262.297 130.842L261.377 130.934ZM27.3947 130.842L26.4746 130.75C26.5666 129.83 26.5665 128.818 26.6586 127.898L27.5787 127.99C27.5787 128.91 27.4867 129.83 27.3947 130.842ZM260.917 125.23C260.825 124.31 260.733 123.297 260.641 122.377L261.561 122.285C261.653 123.205 261.745 124.218 261.837 125.138L260.917 125.23ZM27.8547 125.138L26.9346 125.046C27.0266 124.126 27.1186 123.113 27.2106 122.193L28.1307 122.285C28.0387 123.205 27.9467 124.218 27.8547 125.138ZM260.273 119.525C260.181 118.605 259.997 117.685 259.813 116.673L260.733 116.489C260.917 117.409 261.009 118.421 261.193 119.341L260.273 119.525ZM28.4988 119.433L27.5787 119.249C27.7627 118.329 27.8547 117.317 28.0387 116.397L28.9588 116.581C28.8668 117.593 28.6828 118.513 28.4988 119.433ZM259.261 113.912C259.077 112.992 258.893 112.072 258.709 111.152L259.629 110.968C259.813 111.888 259.997 112.808 260.181 113.82L259.261 113.912ZM29.5109 113.82L28.5908 113.636C28.7748 112.716 28.9588 111.796 29.1428 110.784L30.0629 110.968C29.8789 111.98 29.6949 112.9 29.5109 113.82ZM258.065 108.392C257.881 107.472 257.604 106.552 257.328 105.631L258.249 105.355C258.525 106.276 258.709 107.196 258.985 108.116L258.065 108.392ZM30.707 108.3L29.7869 108.116C30.0629 107.196 30.247 106.276 30.523 105.355L31.4431 105.631C31.1671 106.46 30.983 107.38 30.707 108.3ZM256.592 102.871C256.316 101.951 256.04 101.031 255.764 100.111L256.684 99.8348C256.96 100.755 257.236 101.675 257.512 102.595L256.592 102.871ZM32.2712 102.779L31.3511 102.503C31.6271 101.583 31.9031 100.663 32.1792 99.7428L33.0993 100.019C32.8232 100.939 32.5472 101.859 32.2712 102.779ZM254.752 97.4426C254.476 96.5225 254.108 95.6024 253.74 94.7743L254.66 94.4062C255.028 95.3264 255.304 96.2465 255.672 97.0745L254.752 97.4426ZM34.0194 97.3506L33.0993 97.0745C33.3753 96.1544 33.7434 95.2343 34.1114 94.4062L35.0315 94.7743C34.6635 95.6024 34.3874 96.5225 34.0194 97.3506ZM252.728 92.106C252.36 91.1859 251.992 90.3578 251.624 89.4377L252.452 89.0696C252.82 89.9897 253.188 90.8179 253.556 91.7379L252.728 92.106ZM36.0436 92.014L35.1235 91.6459C35.4916 90.7258 35.8596 89.8977 36.2276 88.9776L37.0557 89.3457C36.7797 90.2658 36.4117 91.1859 36.0436 92.014ZM250.428 86.8614C250.06 86.0333 249.6 85.1132 249.14 84.2851L249.968 83.8251C250.428 84.6532 250.796 85.5732 251.256 86.4013L250.428 86.8614ZM38.3439 86.8614L37.5158 86.4934C37.8838 85.6653 38.3439 84.7452 38.8039 83.9171L39.632 84.3771C39.172 85.1132 38.8039 86.0333 38.3439 86.8614ZM40.9202 81.8008L40.0921 81.3408C40.5521 80.5127 41.0122 79.6846 41.4722 78.8565L42.3003 79.3166C41.8403 80.0526 41.3802 80.8807 40.9202 81.8008ZM247.851 81.7088C247.391 80.8807 246.931 80.0526 246.471 79.2245L247.299 78.7645C247.759 79.5926 248.219 80.4207 248.68 81.2488L247.851 81.7088ZM43.6805 76.8323L42.8524 76.3722C43.3124 75.5441 43.8645 74.716 44.3246 73.8879L45.1526 74.44C44.6926 75.1761 44.1405 76.0042 43.6805 76.8323ZM245.091 76.7403C244.631 75.9122 244.079 75.0841 243.619 74.348L244.447 73.7959C244.999 74.624 245.459 75.4521 245.919 76.2802L245.091 76.7403ZM46.7168 71.9557L45.8887 71.4037C46.4408 70.5756 46.9928 69.8395 47.5449 69.0114L48.281 69.5635C47.8209 70.3915 47.2689 71.2196 46.7168 71.9557ZM242.055 71.9557C241.503 71.1276 240.951 70.3915 240.491 69.5635L241.227 69.0114C241.779 69.8395 242.331 70.5756 242.883 71.4037L242.055 71.9557ZM49.9372 67.3552L49.2011 66.8031C49.7531 66.0671 50.3052 65.239 50.9493 64.5029L51.6854 65.055C51.1333 65.791 50.5813 66.5271 49.9372 67.3552ZM238.742 67.2632C238.19 66.5271 237.638 65.699 236.994 64.9629L237.73 64.4109C238.282 65.147 238.926 65.975 239.478 66.7111L238.742 67.2632ZM53.4336 62.8467L52.6975 62.2026C53.3416 61.4665 53.8936 60.7305 54.5377 59.9944L55.2738 60.6384C54.6297 61.3745 54.0776 62.1106 53.4336 62.8467ZM235.246 62.7547C234.602 62.0186 234.05 61.2825 233.406 60.5464L234.142 59.9024C234.786 60.6385 235.338 61.3745 235.982 62.1106L235.246 62.7547ZM57.206 58.5222L56.4699 57.8781C57.114 57.1421 57.758 56.498 58.4021 55.7619L59.1382 56.406C58.4021 57.05 57.7581 57.7861 57.206 58.5222ZM231.566 58.4302C230.921 57.6941 230.277 57.0501 229.633 56.314L230.369 55.6699C231.013 56.406 231.658 57.05 232.302 57.7861L231.566 58.4302ZM61.0704 54.2897L60.4264 53.6457C61.0704 53.0016 61.8065 52.2655 62.4506 51.6214L63.0947 52.2655C62.4506 53.0016 61.7145 53.6457 61.0704 54.2897ZM227.609 54.2897C226.965 53.6457 226.229 52.9096 225.585 52.2655L226.229 51.6214C226.965 52.2655 227.609 53.0016 228.253 53.6457L227.609 54.2897ZM65.2109 50.3333L64.5668 49.5972C65.3029 48.9531 65.947 48.3091 66.6831 47.665L67.3271 48.4011C66.591 49.1372 65.855 49.6892 65.2109 50.3333ZM223.561 50.3333C222.825 49.6892 222.18 49.0452 221.444 48.4011L222.088 47.665C222.825 48.3091 223.561 48.9531 224.205 49.5972L223.561 50.3333ZM69.4434 46.6529L68.7993 45.9168C69.5354 45.2727 70.2715 44.7207 71.0075 44.0766L71.5596 44.8127C70.9155 45.3647 70.1794 46.0088 69.4434 46.6529ZM219.236 46.5609C218.5 45.9168 217.764 45.3647 217.028 44.7207L217.58 43.9846C218.316 44.5366 219.052 45.1807 219.788 45.8248L219.236 46.5609ZM73.9519 43.0645L73.3998 42.3284C74.1359 41.7763 74.964 41.2243 75.7001 40.5802L76.2521 41.3163C75.424 41.9603 74.6879 42.5124 73.9519 43.0645ZM214.82 43.0645C214.084 42.5124 213.256 41.9604 212.519 41.4083L213.071 40.6722C213.808 41.2243 214.636 41.7763 215.372 42.3284L214.82 43.0645ZM78.5524 39.7521L78.0003 38.924C78.8284 38.3719 79.5645 37.8199 80.3926 37.3598L80.9446 38.1879C80.1166 38.648 79.3805 39.2001 78.5524 39.7521ZM210.127 39.7521C209.299 39.2001 208.563 38.74 207.735 38.1879L208.287 37.3598C209.115 37.9119 209.851 38.3719 210.679 38.924L210.127 39.7521ZM83.3369 36.6237L82.8769 35.7957C83.705 35.3356 84.5331 34.7835 85.3612 34.3235L85.8212 35.1516C84.9931 35.7037 84.165 36.1637 83.3369 36.6237ZM205.343 36.6237C204.515 36.1637 203.686 35.6117 202.858 35.1516L203.318 34.3235C204.147 34.7835 204.975 35.3356 205.803 35.7957L205.343 36.6237ZM88.3055 33.7714L87.8454 32.9433C88.6735 32.4833 89.5016 32.0232 90.4217 31.5632L90.8818 32.3913C89.9617 32.8513 89.1336 33.3114 88.3055 33.7714ZM200.466 33.7714C199.638 33.3114 198.81 32.8513 197.982 32.4833L198.442 31.6552C199.27 32.1152 200.098 32.5753 201.018 33.0353L200.466 33.7714ZM195.406 31.1951C194.577 30.8271 193.657 30.3671 192.829 29.999L193.197 29.1709C194.025 29.539 194.945 29.999 195.774 30.3671L195.406 31.1951ZM93.366 31.1951L92.906 30.3671C93.7341 29.907 94.6542 29.539 95.4823 29.1709L95.8503 29.999C95.1143 30.3671 94.2862 30.7351 93.366 31.1951ZM190.253 28.8029C189.425 28.4348 188.505 28.0668 187.585 27.6988L187.953 26.7787C188.873 27.1467 189.701 27.5147 190.621 27.8828L190.253 28.8029ZM98.6106 28.8029L98.2426 27.8828C99.1627 27.5147 99.9908 27.1467 100.911 26.7787L101.279 27.6988C100.359 28.0668 99.4387 28.4348 98.6106 28.8029ZM184.916 26.6866C183.996 26.3186 183.168 26.0426 182.248 25.7665L182.524 24.8464C183.444 25.1225 184.364 25.4905 185.192 25.7665L184.916 26.6866ZM103.947 26.6866L103.579 25.7665C104.499 25.3985 105.419 25.1225 106.34 24.8464L106.616 25.7665C105.695 26.0426 104.775 26.4106 103.947 26.6866ZM179.488 24.8464C178.568 24.5704 177.648 24.2944 176.727 24.0183L177.003 23.0982C177.924 23.3743 178.844 23.6503 179.764 23.9263L179.488 24.8464ZM109.376 24.8464L109.1 23.9263C110.02 23.6503 110.94 23.3743 111.86 23.0982L112.136 24.0183C111.124 24.2944 110.204 24.5704 109.376 24.8464ZM174.059 23.2822C173.139 23.0062 172.219 22.8222 171.299 22.6382L171.483 21.7181C172.403 21.9021 173.323 22.1781 174.243 22.4542L174.059 23.2822ZM114.804 23.2822L114.528 22.3621C115.449 22.0861 116.369 21.9021 117.289 21.7181L117.473 22.6382C116.645 22.8222 115.725 23.0062 114.804 23.2822ZM168.538 21.9941C167.618 21.8101 166.698 21.6261 165.778 21.442L165.962 20.5219C166.882 20.706 167.802 20.89 168.815 21.074L168.538 21.9941ZM120.325 21.9941L120.141 21.074C121.061 20.89 121.981 20.706 122.993 20.5219L123.177 21.442C122.257 21.6261 121.337 21.8101 120.325 21.9941ZM162.926 20.982C162.006 20.798 161.086 20.706 160.074 20.6139L160.166 19.6938C161.086 19.7859 162.098 19.9699 163.018 20.1539L162.926 20.982ZM125.938 20.982L125.754 20.0619C126.674 19.8779 127.686 19.7859 128.606 19.6938L128.698 20.6139C127.87 20.706 126.95 20.798 125.938 20.982ZM157.221 20.2459C156.301 20.1539 155.289 20.0619 154.369 19.9699L154.461 19.0498C155.381 19.1418 156.393 19.2338 157.313 19.3258L157.221 20.2459ZM131.642 20.1539L131.55 19.2338C132.47 19.1418 133.483 19.0498 134.403 18.9578L134.495 19.8779C133.483 19.9699 132.562 20.0619 131.642 20.1539ZM151.517 19.6938C150.596 19.6018 149.584 19.6018 148.664 19.6018V18.6817C149.584 18.6817 150.596 18.7737 151.517 18.8658V19.6938ZM137.347 19.6938L137.255 18.7737C138.175 18.6817 139.187 18.6817 140.107 18.6817V19.6018C139.187 19.6018 138.267 19.6938 137.347 19.6938ZM145.904 19.5098C144.984 19.5098 143.972 19.5098 143.052 19.5098V18.5897C143.972 18.5897 144.984 18.5897 145.904 18.5897V19.5098Z" fill="#2A9E66"/>
<path d="M144.432 265.267C73.4002 265.267 15.7097 207.576 15.7097 136.636C15.7097 65.6965 73.4002 7.91398 144.432 7.91398C215.372 7.91398 273.155 65.6045 273.155 136.636C273.063 207.576 215.372 265.267 144.432 265.267ZM144.432 12.8825C76.2525 12.8825 20.7703 68.3648 20.7703 136.544C20.7703 204.724 76.2525 260.206 144.432 260.206C212.612 260.206 268.094 204.724 268.094 136.544C268.094 68.3648 212.612 12.8825 144.432 12.8825Z" fill="#2A9E66"/>
<path d="M207.091 262.137H143.052C142.96 262.137 142.868 262.045 142.868 261.953V254.224C142.868 254.132 142.96 254.04 143.052 254.04C143.144 254.04 143.236 254.132 143.236 254.224V261.769H207.091C207.183 261.769 207.275 261.861 207.275 261.953C207.275 262.045 207.183 262.137 207.091 262.137Z" fill="#2A9E66"/>
<path d="M142.96 254.87C143.316 254.87 143.604 254.581 143.604 254.226C143.604 253.87 143.316 253.582 142.96 253.582C142.604 253.582 142.316 253.87 142.316 254.226C142.316 254.581 142.604 254.87 142.96 254.87Z" fill="#2A9E66"/>
</svg>
