<svg width="307" height="100" viewBox="0 0 307 100" fill="none" xmlns="http://www.w3.org/2000/svg">
<g opacity="0.7">
<g opacity="0.15">
<path d="M135.806 86.9285V86.9072C135.806 85.053 137.311 83.5361 139.163 83.5361C141.016 83.5361 142.53 85.053 142.53 86.9072V86.9285H135.806Z" fill="#EFDCD7"/>
<path d="M3.39185 79.6315V79.6091C3.39185 77.7667 4.89561 76.2498 6.7482 76.2392C8.60079 76.2392 10.1152 77.7549 10.1152 79.6091V79.6315H3.39185Z" fill="#EFDCD7"/>
<path d="M87.53 90.7347V90.7135C87.53 89.1318 88.8157 87.8449 90.396 87.8449C91.9764 87.8449 93.2621 89.1318 93.2621 90.7135V90.7347H87.53Z" fill="#EFDCD7"/>
<path d="M135.592 17.2378V17.226C135.477 16.9135 135.418 16.5773 135.418 16.2187C135.418 14.5627 136.772 13.2086 138.427 13.2086C138.797 13.2086 139.144 13.277 139.479 13.3937C140.358 11.1821 142.534 9.71123 144.894 9.71123C147.023 9.71123 148.978 10.8695 150.008 12.745C150.412 12.6058 150.817 12.5362 151.199 12.5362C153.224 12.5362 154.878 14.1923 154.878 16.2187C154.878 16.5667 154.831 16.9135 154.739 17.226V17.2378H135.592Z" fill="white"/>
<path d="M0.0235695 10.4177L0.0117856 10.4059C7.19119e-07 10.3823 0 10.3481 0 10.3127C0 7.90411 1.95512 5.94726 4.3616 5.94726C4.77761 5.94726 5.18301 6.00506 5.55305 6.12183C6.58306 4.62736 8.26005 3.73563 10.0655 3.73563C13.073 3.73563 15.5255 6.19142 15.5255 9.2016C15.5255 9.59556 15.4795 10.0001 15.3982 10.3941V10.4177H0.0235695Z" fill="white"/>
<path d="M108.222 69.3685V47.1603H143.594L144.678 62.7537H134.163L122.303 69.3685H108.222Z" fill="#221E29" fill-opacity="0.68"/>
<path d="M67.2258 47.1874H35.0153V62.7808H67.2258V47.1874Z" fill="#221E29" fill-opacity="0.68"/>
<path d="M146.176 51.8085C148.454 51.8085 150.301 49.9602 150.301 47.6801C150.301 45.4001 148.454 43.5518 146.176 43.5518C143.898 43.5518 142.052 45.4001 142.052 47.6801C142.052 49.9602 143.898 51.8085 146.176 51.8085Z" fill="white"/>
<path d="M12.3671 50.8226C14.6451 50.8226 16.4918 48.9743 16.4918 46.6943C16.4918 44.4142 14.6451 42.5659 12.3671 42.5659C10.089 42.5659 8.24233 44.4142 8.24233 46.6943C8.24233 48.9743 10.089 50.8226 12.3671 50.8226Z" fill="white"/>
<path d="M146.79 44.9428C146.8 41.4596 144.317 38.5037 140.881 37.9116L118.967 34.1347L115.826 14.1817L16.5249 14.1711L12.3012 34.3317V62.7927H37.7071V62.7703C38.3636 59.8026 40.0264 57.1203 42.3893 55.1929C44.7852 53.2432 47.8162 52.1698 50.9239 52.1698C54.0198 52.1698 57.0509 53.2432 59.4574 55.1929C61.8203 57.1203 63.4843 59.8026 64.1407 62.7703V62.7927H79.4906L86.406 69.4063H115.279V65.7274C115.279 58.2479 121.352 52.1698 128.825 52.1698C131.921 52.1698 134.952 53.2432 137.358 55.1929C138.168 55.8499 138.89 56.6048 139.524 57.427H146.79V44.9428Z" fill="white"/>
<path d="M146.789 51.7649V44.9424C146.789 44.4718 146.746 44 146.657 43.5518" stroke="#838383" stroke-width="2.08297" stroke-linecap="round" stroke-linejoin="round"/>
<path d="M142.041 62.7929V62.7705C141.263 59.6388 139.48 56.7478 136.832 54.7874L136.778 54.7438H148.168C149.349 54.7438 150.301 55.7074 150.301 56.8905V60.6461C150.301 61.8292 149.349 62.7811 148.168 62.7811H142.041V62.7929Z" fill="#221E29" fill-opacity="0.68"/>
<path d="M10.3754 62.781C9.19456 62.781 8.24233 61.8291 8.24233 60.646V56.8904C8.24233 55.7073 9.19456 54.7543 10.3754 54.7543H18.428C19.0079 54.7543 19.5441 54.9843 19.9495 55.39C20.3431 55.7946 20.5623 56.3207 20.5623 56.8786V62.781H10.3754Z" fill="#221E29" fill-opacity="0.68"/>
<path d="M41.5136 5.51904C40.6061 5.51904 39.8731 4.78537 39.8731 3.87713V1.64309C39.8731 0.733669 40.6061 0 41.5136 0H53.9207C54.8293 0 55.5624 0.733669 55.5624 1.64309V3.87713C55.5624 4.78537 54.8293 5.51904 53.9207 5.51904H41.5136Z" fill="#221E29" fill-opacity="0.68"/>
<path d="M87.2368 5.51904C86.3294 5.51904 85.5964 4.78537 85.5964 3.87713V1.64309C85.5964 0.733669 86.3294 0 87.2368 0H99.644C100.553 0 101.286 0.733669 101.286 1.64309V3.87713C101.286 4.78537 100.553 5.51904 99.644 5.51904H87.2368Z" fill="#221E29" fill-opacity="0.68"/>
<path d="M122.369 32.7216C121.46 32.7216 120.727 31.9879 120.727 31.0785V22.6024C120.727 21.6941 121.46 20.9604 122.369 20.9604H124.601C125.508 20.9604 126.241 21.6941 126.241 22.6024V31.0785C126.241 31.9879 125.508 32.7216 124.601 32.7216H122.369Z" fill="#221E29" fill-opacity="0.68"/>
<path d="M128.835 76.0422C134.527 76.0422 139.141 71.4244 139.141 65.7272C139.141 60.0301 134.527 55.411 128.835 55.411C123.143 55.411 118.528 60.0301 118.528 65.7272C118.528 71.4244 123.143 76.0422 128.835 76.0422Z" fill="#CECDCE"/>
<path d="M128.835 68.7057C130.478 68.7057 131.811 67.3716 131.811 65.7274C131.811 64.0819 130.478 62.749 128.835 62.749C127.191 62.749 125.859 64.0819 125.859 65.7274C125.859 67.3716 127.191 68.7057 128.835 68.7057Z" fill="#221E29" fill-opacity="0.68"/>
<path d="M50.9344 76.0422C56.6265 76.0422 61.2403 71.4244 61.2403 65.7272C61.2403 60.0301 56.6265 55.411 50.9344 55.411C45.2423 55.411 40.6273 60.0301 40.6273 65.7272C40.6273 71.4244 45.2423 76.0422 50.9344 76.0422Z" fill="#CECDCE"/>
<path d="M50.9343 68.7057C52.5771 68.7057 53.91 67.3716 53.91 65.7274C53.91 64.0819 52.5771 62.749 50.9343 62.749C49.2903 62.749 47.9586 64.0819 47.9586 65.7274C47.9586 67.3716 49.2903 68.7057 50.9343 68.7057Z" fill="#221E29" fill-opacity="0.68"/>
<path d="M89.1083 65.398V21.2114C89.1083 19.1968 90.7381 17.5549 92.751 17.5549H108.135C110.148 17.5549 111.788 19.1968 111.788 21.2114V65.398H89.1083Z" fill="#CECDCE"/>
<path opacity="0.2" d="M111.745 22.9642C111.745 20.9708 110.125 19.3501 108.135 19.3501H92.751C90.7711 19.3501 89.1519 20.9708 89.1519 22.9642H89.1083V21.2114C89.1083 19.1968 90.7381 17.5549 92.751 17.5549H108.135C110.148 17.5549 111.788 19.1968 111.788 21.2114V22.9642H111.745Z" fill="#868686"/>
<path d="M69.9058 30.8046C67.8929 30.8046 66.2513 29.1627 66.2513 27.1469V21.2114C66.2513 19.1968 67.8929 17.5549 69.9058 17.5549H81.9853C83.9982 17.5549 85.6398 19.1968 85.6398 21.2114V27.1469C85.6398 29.1627 83.9982 30.8046 81.9853 30.8046H69.9058Z" fill="#CECDCE"/>
<path opacity="0.2" d="M85.5962 22.9642C85.5962 20.9708 83.977 19.3501 81.9853 19.3501H69.9058C67.9153 19.3501 66.2961 20.9708 66.2961 22.9642H66.2513V21.2114C66.2513 19.1968 67.8929 17.5549 69.9058 17.5549H81.9853C83.9982 17.5549 85.6398 19.1968 85.6398 21.2114V22.9642H85.5962Z" fill="#868686"/>
<path d="M47.0394 30.8046C45.0265 30.8046 43.3849 29.1627 43.3849 27.1469V21.2114C43.3955 19.1968 45.0371 17.5549 47.0394 17.5549H59.1178C61.1318 17.5549 62.7723 19.1968 62.7723 21.2114V27.1469C62.7723 29.1627 61.1318 30.8046 59.1178 30.8046H47.0394Z" fill="#CECDCE"/>
<path d="M24.1839 30.8046C22.1698 30.8046 20.5294 29.1627 20.5294 27.1469V21.2114C20.5294 19.1968 22.1698 17.5549 24.1839 17.5549H36.2622C38.2751 17.5549 39.9167 19.1968 39.9167 21.2114V27.1469C39.9167 29.1627 38.2751 30.8046 36.2622 30.8046H24.1839Z" fill="#CECDCE"/>
<path d="M111.788 39.5875H89.1083V43.3549H111.788V39.5875Z" fill="#221E29" fill-opacity="0.68"/>
<path d="M111.788 62.749H89.1083V69.4063H111.788V62.749Z" fill="#221E29" fill-opacity="0.68"/>
<path d="M89.1295 44.7562H12.3012V48.5237H89.1295V44.7562Z" fill="#221E29" fill-opacity="0.68"/>
<path opacity="0.2" d="M135.366 48.8623C134.327 48.8623 133.484 48.0202 133.484 46.9798C133.484 45.9395 134.327 45.0961 135.366 45.0961H139.251C140.29 45.0961 141.133 45.9395 141.133 46.9798C141.133 47.4717 140.946 47.9435 140.596 48.3044C140.236 48.6654 139.764 48.8623 139.251 48.8623H135.366Z" fill="#838383"/>
<path d="M89.1295 34.3318H12.3012V38.098H89.1295V34.3318Z" fill="#221E29" fill-opacity="0.68"/>
<path d="M16.5353 14.2041L17.4109 10.0427C18.2535 6.00158 21.8526 3.0669 25.988 3.0669H117.97C119.141 3.0669 120.224 3.59297 120.969 4.50121C121.702 5.41063 121.986 6.59253 121.745 7.73196L120.344 14.2253L16.5353 14.2041Z" fill="white"/>
<path opacity="0.2" d="M16.5353 14.2041L17.4109 10.0097L17.4321 10.0203C17.4545 10.0309 19.161 10.5794 24.6103 11.1267C29.6425 11.6304 38.9867 12.2331 54.9058 12.2331C67.6194 12.2331 86.6461 11.838 105.038 9.96608C116.034 8.84906 121.658 7.70963 121.712 7.69901L121.745 7.6884L120.333 14.2148L16.5353 14.2041Z" fill="#838383"/>
<path d="M19.2046 53.21C18.177 53.3421 17.3014 52.4657 17.4322 51.436C17.5206 50.7353 18.0886 50.1656 18.7898 50.0783C19.8175 49.9474 20.6931 50.8226 20.5623 51.8523C20.4739 52.553 19.9058 53.1227 19.2046 53.21Z" fill="white"/>
<path d="M16.5579 14.1924L115.815 14.2042" stroke="#838383" stroke-width="2.08297" stroke-linecap="round" stroke-linejoin="round"/>
<path d="M114.753 16.9417H120.683C122.226 16.9417 123.485 18.2002 123.485 19.7442V33.9482C123.485 35.4922 122.226 36.7508 120.683 36.7508H114.753" stroke="#221E29" stroke-opacity="0.68" stroke-width="2.08297" stroke-linecap="round" stroke-linejoin="round"/>
<path d="M100.443 17.5762V69.3294" stroke="#868686" stroke-width="2.08297" stroke-linecap="round" stroke-linejoin="round"/>
<path opacity="0.2" d="M62.7287 22.9642C62.7287 20.9708 61.1094 19.3501 59.1178 19.3501H47.0394C45.0477 19.3501 43.4285 20.9708 43.4285 22.9642H43.3849V21.2114C43.3849 19.1968 45.0265 17.5549 47.0394 17.5549H59.1178C61.1318 17.5549 62.7723 19.1968 62.7723 21.2114V22.9642H62.7287Z" fill="#868686"/>
<path opacity="0.2" d="M39.8731 22.9642C39.8731 20.9708 38.2539 19.3501 36.2622 19.3501H24.1839C22.1922 19.3501 20.573 20.9708 20.573 22.9642H20.5294V21.2114C20.5294 19.1968 22.1698 17.5549 24.1839 17.5549H36.2622C38.2751 17.5549 39.9167 19.1968 39.9167 21.2114V22.9642H39.8731Z" fill="#868686"/>
<path d="M135.366 47.318C134.382 47.318 133.573 46.5525 133.496 45.5888C133.409 44.4718 134.316 43.5518 135.432 43.5518H139.251C140.29 43.5518 141.133 44.3951 141.133 45.4355C141.133 45.9273 140.946 46.3992 140.596 46.7601C140.236 47.121 139.764 47.318 139.251 47.318H135.366Z" fill="white"/>
<path d="M12.2799 42.5659V50.8226" stroke="#838383" stroke-width="2.08297" stroke-linecap="round" stroke-linejoin="round"/>
<path d="M115.493 53.5911H112.877V98.9938H115.493V53.5911Z" fill="#475139"/>
<path opacity="0.2" d="M114.185 57.4952C113.753 57.4952 113.32 57.4717 112.901 57.4245H112.877V53.7078H115.493V57.4245H115.47C115.049 57.4717 114.616 57.4952 114.185 57.4952Z" fill="black"/>
<path d="M123.077 51.5859C127.99 46.6685 127.99 38.6972 123.077 33.7809C118.165 28.8646 110.201 28.8646 105.289 33.7809C100.377 38.6972 100.377 46.6685 105.289 51.5859C110.201 56.5022 118.165 56.5022 123.077 51.5859Z" fill="white"/>
<path d="M115.47 55.4144C115.049 55.4604 114.617 55.484 114.185 55.484C113.753 55.484 113.32 55.4604 112.901 55.4144" stroke="black" stroke-width="2.08297" stroke-linecap="round" stroke-linejoin="round"/>
<path d="M110.553 49.5924C109.933 49.5924 109.431 49.0899 109.431 48.4707V44.741C109.431 44.1217 109.933 43.6192 110.553 43.6192C111.172 43.6192 111.674 44.1217 111.674 44.741V48.4707C111.674 49.0899 111.172 49.5924 110.553 49.5924Z" fill="#AFC2CB"/>
<path d="M117.946 49.5924C117.327 49.5924 116.824 49.0899 116.824 48.4707V44.741C116.824 44.1217 117.327 43.6192 117.946 43.6192C118.564 43.6192 119.066 44.1217 119.066 44.741V48.4707C119.066 49.0899 118.564 49.5924 117.946 49.5924Z" fill="#AFC2CB"/>
<path d="M109.419 42.3689V39.0367C109.419 37.3418 110.798 35.9629 112.492 35.9629H115.995C117.689 35.9629 119.067 37.3418 119.067 39.0367V42.3689H109.419Z" fill="#475139"/>
<path d="M119.067 42.3101H109.419V47.3609H119.067V42.3101Z" fill="#AFC2CB"/>
<path d="M111.872 45.7826C111.3 45.7826 110.832 45.3143 110.832 44.7422C110.832 44.169 111.3 43.7019 111.872 43.7019C112.445 43.7019 112.911 44.169 112.911 44.7422C112.911 45.3143 112.445 45.7826 111.872 45.7826Z" fill="#0F445D"/>
<path d="M116.521 45.7826C115.948 45.7826 115.482 45.3143 115.482 44.7422C115.482 44.169 115.948 43.7019 116.521 43.7019C117.093 43.7019 117.561 44.169 117.561 44.7422C117.561 45.3143 117.093 45.7826 116.521 45.7826Z" fill="#0F445D"/>
<path d="M109.443 42.3336H119.043" stroke="#0F445D" stroke-width="2.08297" stroke-linecap="round" stroke-linejoin="round"/>
<path d="M109.443 47.3373H111.65" stroke="#0F445D" stroke-width="2.08297" stroke-linecap="round" stroke-linejoin="round"/>
<path d="M116.836 47.3373H119.043" stroke="#0F445D" stroke-width="2.08297" stroke-linecap="round" stroke-linejoin="round"/>
<path d="M121.117 99.0043V98.9807C121.117 95.6426 123.84 92.9297 127.175 92.9297C130.51 92.9297 133.22 95.6426 133.22 98.9807V99.0043H121.117Z" fill="#221E29" fill-opacity="0.68"/>
<path opacity="0.2" d="M121.117 99.0042V98.9806C121.117 96.48 122.626 94.2743 124.947 93.3543L124.971 93.3425L124.983 93.366C125.548 95.2179 126.68 95.7605 127.682 96.2323C128.011 96.3857 128.318 96.539 128.601 96.7277C130.133 97.7657 130.015 98.9688 130.015 98.9806V99.0042H121.117Z" fill="black"/>
<path d="M120.339 94.8051C121.046 94.1917 121.848 93.5548 122.85 92.7645C127.74 88.9546 132.431 86.1827 134.01 86.1827C134.246 86.1827 134.399 86.2417 134.493 86.3596C134.564 86.454 134.587 86.5837 134.576 86.7371C134.399 88.1761 130.557 92.104 125.442 96.0908C124.629 96.7277 123.792 97.3647 122.944 97.9662L122.92 97.978L120.339 94.8051Z" fill="#AFC2CB"/>
<path opacity="0.2" d="M120.339 94.8051C121.046 94.1918 121.848 93.5548 122.85 92.7645C122.956 92.682 123.062 92.5994 123.168 92.5168C123.403 92.3281 123.651 92.1394 123.898 91.9625L123.91 91.9507H123.922C124.547 92.1512 125.301 92.2455 126.09 92.2455C127.658 92.2455 129.414 91.8445 131.17 91.0778L131.205 91.1132C129.602 92.682 127.611 94.4041 125.442 96.079C124.629 96.716 123.792 97.3529 122.944 97.9545L122.92 97.9663L120.339 94.8051Z" fill="#757575"/>
<path d="M116.957 93.2599V93.2363C116.957 93.201 116.957 93.1774 116.969 93.142C116.969 93.1184 116.969 93.083 116.969 93.0594C117.464 87.8813 118.678 83.8237 119.738 83.8237C119.75 83.8237 119.762 83.8237 119.774 83.8237C120.822 83.918 121.27 88.0582 120.811 93.2363V93.2599H116.957Z" fill="#AFC2CB"/>
<path opacity="0.2" d="M116.957 93.26V93.2364C116.957 93.201 116.957 93.1775 116.969 93.1421C116.969 93.1185 116.969 93.0831 116.969 93.0595C117.169 90.7948 117.558 88.5419 118.053 86.7962H118.1C118.548 88.7542 119.915 89.6624 120.976 90.0871H120.987V90.0989C120.964 91.0897 120.905 92.1395 120.811 93.2246V93.2482L116.957 93.26Z" fill="#757575"/>
<path d="M108.272 99.0046V98.981C108.272 94.1803 112.184 90.2761 116.981 90.2761C121.777 90.2761 125.678 94.1803 125.678 98.981V99.0046H108.272Z" fill="#221E29" fill-opacity="0.68"/>
<path opacity="0.2" d="M108.272 99.0045V98.9809C108.272 96.9521 108.979 94.9823 110.275 93.4371L110.31 93.3899V93.4607C110.346 95.5367 111.371 96.4803 113.976 96.8223C116.58 97.1644 116.757 98.9573 116.757 98.9809V99.0045H108.272Z" fill="black"/>
<path d="M125.654 98.957C125.654 98.0252 125.501 97.1287 125.23 96.2913" stroke="black" stroke-width="2.08297" stroke-linecap="round" stroke-linejoin="round"/>
<path d="M124.169 85.711C122.991 88.1645 121.329 93.3426 120.976 95.5837" stroke="#636363" stroke-width="2.08297" stroke-linecap="round" stroke-linejoin="round"/>
<path d="M126.409 86.5954C125.607 86.5954 124.782 86.3948 124.005 86.0056C122.968 85.4984 122.143 84.7081 121.683 83.8117C121.223 82.9034 121.176 81.9834 121.553 81.2167C122.025 80.2613 123.109 79.6951 124.452 79.6951C125.254 79.6951 126.079 79.8956 126.857 80.2849C127.894 80.7921 128.719 81.5823 129.178 82.4788C129.638 83.387 129.685 84.3071 129.308 85.0738C128.825 86.0292 127.752 86.5954 126.409 86.5954Z" fill="white"/>
<path d="M125.537 83.5642C125.442 83.5642 125.348 83.5407 125.254 83.4935C125.136 83.4345 125.03 83.3401 124.983 83.234C124.924 83.1278 124.924 83.0099 124.971 82.9155C125.03 82.7976 125.159 82.7268 125.324 82.7268C125.419 82.7268 125.513 82.7504 125.607 82.7976C125.867 82.9273 125.996 83.1868 125.902 83.3755C125.831 83.4935 125.702 83.5642 125.537 83.5642Z" fill="#636363"/>
<path d="M57.6707 94.3498C57.8015 92.761 57.9783 91.6699 58.3459 90.3417C58.3459 90.33 58.3577 90.3182 58.3695 90.3182C58.5946 90.2474 60.6558 89.6659 62.8596 89.6777C63.5348 89.6895 66.0592 90.2592 66.4021 90.3299C66.4257 90.3299 66.4375 90.3535 66.4257 90.3771C66.1417 91.1014 65.9873 91.5519 65.8105 92.0261C65.8105 92.0379 65.7976 92.0497 65.774 92.0497L63.8908 92.0733C63.2037 92.0733 62.9315 92.7138 62.7182 93.3897L62.268 94.6588C62.268 94.6706 62.2444 94.6824 62.2314 94.6824L57.6707 94.3498Z" fill="#CF5934"/>
<path d="M68.665 94.3027C68.4882 93.129 68.3574 91.8599 68.2867 90.3772C68.2867 90.3654 68.2867 90.3536 68.2985 90.3418C68.5 90.2239 70.4657 89.1328 72.3973 89.121C74.2935 89.121 76.1649 90.1767 76.3547 90.2946C76.3665 90.2946 76.3665 90.3064 76.3665 90.3182C76.3782 91.0531 76.4489 91.4801 76.4973 91.9306C76.4973 91.9424 76.4973 91.9424 76.4855 91.9554L74.2334 95.0977C74.2216 95.1095 74.2098 95.1095 74.198 95.1095C73.8551 95.0375 69.2578 94.3617 68.916 94.3581C68.6768 94.3263 68.665 94.3145 68.7086 94.5645L68.665 94.3027Z" fill="#CF5934"/>
<path d="M64.6839 55.7756C64.6721 55.7756 64.6721 55.7638 64.6721 55.752V50.4983C64.6721 48.8859 65.5725 46.7274 67.8246 45.4358C68.5234 45.0324 68.5234 44.6997 69.4945 44.6997C71.9469 44.6997 73.3211 45.4947 73.7948 46.6802C73.8667 46.8701 73.9492 47.1426 74.0682 47.5813C74.2697 48.3528 74.4948 49.432 74.542 49.9416C74.542 49.9534 74.5538 49.9652 74.5655 49.9652C75.4306 50.3686 75.4541 50.8428 74.6127 51.2933V51.3523C74.826 53.7244 74.0918 55.4193 71.2717 55.0525C71.2481 55.0525 71.2363 55.0643 71.2363 55.0879C71.2363 55.2188 71.2363 55.6564 71.2363 55.7402C71.2363 55.752 71.2363 55.7638 71.2245 55.7638C71.0701 55.8829 69.5652 56.9492 68.0261 56.9374C66.4611 56.9374 64.8618 55.8699 64.6839 55.7756Z" fill="#CF5934"/>
<path opacity="0.2" d="M69.5535 54.4001C70.395 54.8743 71.0585 55.0288 71.2128 55.0406C71.2246 55.0406 71.2364 55.0524 71.2364 55.076C71.2364 55.2305 71.2364 55.9299 71.2364 56.1788C71.2364 56.2142 71.2011 56.226 71.1775 56.2024L69.5064 54.4591C69.4828 54.4237 69.5182 54.3883 69.5535 54.4001Z" fill="#030202"/>
<path d="M76.331 87.2702C76.3193 85.8123 76.3075 84.1645 76.2356 82.2312C75.9869 75.4713 74.2934 69.7801 74.1744 69.3767C74.1744 69.3649 74.1626 69.3531 74.1391 69.3531C72.0661 69.3177 64.5544 69.3531 62.611 69.3413C62.5993 69.3413 62.5875 69.3531 62.5757 69.3649C60.5499 74.2151 61.3795 78.958 60.5852 83.5948C60.1468 85.9067 58.9624 88.1006 58.3579 90.2945C58.3579 90.3181 58.3696 90.3417 58.3932 90.3417C59.0214 90.3417 65.9756 90.3653 66.414 90.3653C66.4258 90.3653 66.4376 90.3535 66.4494 90.3417C67.054 88.7647 67.7057 86.9742 68.1205 85.2792C68.1323 85.2426 68.1794 85.2426 68.1912 85.291C68.2383 85.9904 68.2631 86.7253 68.2383 87.5439C68.2148 88.6349 68.2513 89.7012 68.2867 90.3417C68.2867 90.3653 68.2984 90.3771 68.322 90.3771C68.8665 90.3771 75.809 90.3299 76.3428 90.3299C76.3664 90.3299 76.3782 90.3181 76.3782 90.2945C76.3546 89.3934 76.3428 88.4332 76.331 87.2702Z" fill="#475139"/>
<path opacity="0.2" d="M68.1795 85.1248L67.978 83.5006L67.0305 79.4206L65.9404 75.6614C65.9404 75.6614 66.0594 74.9384 66.6392 74.8558C66.7229 74.844 66.8054 74.844 66.8761 74.844C67.2556 74.844 67.575 74.9855 67.8366 75.2592C68.8194 76.2901 68.8194 78.97 68.7369 80.9033C68.6179 84.022 68.8312 83.2989 68.1795 85.1248Z" fill="black"/>
<path d="M65.9519 75.7568C66.6625 78.7091 67.8245 81.4126 68.1557 85.2426" stroke="black" stroke-width="2.08297" stroke-linecap="round" stroke-linejoin="round"/>
<path d="M80.3944 59.7718C80.3827 59.76 80.3827 59.7482 80.3827 59.7246C81.8994 56.8784 83.6883 53.5462 83.5339 56.0952C83.5339 56.1435 83.5929 56.1671 83.6176 56.12C84.0914 55.3367 85.0271 54.0912 85.6317 54.0912C85.7613 54.0912 85.8568 54.1513 85.9392 54.2457C85.951 54.2693 85.9746 54.2693 85.9982 54.2575C86.3659 54.0558 86.7807 53.9968 86.8868 54.7316C86.8868 54.7552 86.8985 54.767 86.9221 54.767C87.3605 54.8744 87.4206 55.3367 87.2427 55.8699C87.2427 55.8829 87.2427 55.8947 87.2427 55.9065C87.9651 56.7593 85.9393 60.9572 85.2522 62.7478C85.2522 62.7596 85.2404 62.7713 85.2168 62.7713C84.0195 62.736 80.702 60.0089 80.3944 59.7718Z" fill="#CF5934"/>
<path d="M59.8157 70.5149C58.8199 70.5149 58.0621 70.1363 57.5518 69.3767C55.4788 66.2934 59.6377 59.9498 61.178 58.4436C62.967 56.7002 64.3529 56.4749 64.6369 56.4513C64.6487 56.4513 64.6605 56.4395 64.6605 56.4159V55.7401C64.6605 55.7165 64.6723 55.7047 64.697 55.7047H71.2011C71.2247 55.7047 71.2365 55.7165 71.2365 55.7401V56.4159C71.2365 56.4277 71.2482 56.4513 71.26 56.4513C71.6513 56.4985 74.2581 56.8783 75.7854 58.5863C77.2432 60.2341 78.6291 61.9067 78.9132 62.2499C78.9261 62.2735 78.9615 62.2617 78.9733 62.2499C79.1265 61.9656 79.7664 60.7554 80.4417 59.6172C80.4535 59.6054 80.477 59.5936 80.49 59.6054C80.8683 59.8543 84.8728 62.5342 85.2169 62.7595C85.2287 62.7713 85.2405 62.7831 85.2287 62.796C84.2564 64.977 82.7998 67.7288 81.2478 68.4873C78.3923 69.97 75.9045 67.6569 75.1337 66.4597C75.1219 66.4361 75.0866 66.4361 75.0748 66.4715C74.9452 66.8867 74.2581 69.0688 74.1744 69.3177C74.1744 69.3295 74.1627 69.3413 74.1391 69.3413L63.3217 69.3885C63.3099 69.3885 63.3099 69.3885 63.3099 69.3885C63.1449 69.4958 61.4385 70.5149 59.8157 70.5149Z" fill="#AFC2CB"/>
<path d="M64.7086 53.9497C64.6838 53.9497 64.672 53.9379 64.672 53.9143C64.6603 53.7126 64.6603 52.7631 64.6603 51.9221C65.0598 51.2498 65.0987 50.7237 65.1705 50.5184C65.7539 48.8836 66.4492 47.7229 67.445 45.6729C68.1439 45.2695 68.5116 44.688 69.4826 44.688C72.2792 44.747 73.5461 45.542 73.9727 47.2735C73.9727 47.2853 73.9727 47.2853 73.9727 47.2971C73.902 47.546 72.6929 47.8539 71.9587 47.6652C71.8879 47.6769 71.71 47.546 71.6982 47.6404C71.6982 48.9567 70.8803 49.6928 70.7271 49.8225C70.7153 49.8343 70.6906 49.8343 70.6788 49.8225C70.5374 49.6574 69.6724 48.6607 68.5234 48.6607C67.7526 48.6489 66.9831 49.3837 66.9948 50.1787C66.9241 51.0091 67.9541 52.3609 68.191 52.5862C68.2028 52.598 68.2028 52.6216 68.191 52.6334C67.3378 53.7834 64.9455 53.9261 64.7086 53.9497Z" fill="#010005"/>
<path d="M57.6707 94.3851C57.6707 94.3733 57.6825 94.3497 57.7061 94.3497L61.971 94.3379C61.9828 94.3379 61.9946 94.3261 62.0064 94.3143L62.3505 93.1879C62.5638 92.4884 63.2037 92.026 63.9262 92.026L65.7623 92.0614C65.7858 92.0614 65.7976 92.085 65.7858 92.1204C64.8619 94.6469 65.1942 94.8121 66.6744 96.4009C66.9714 96.7217 67.2318 96.9706 67.398 97.3268C67.4098 97.3504 67.398 97.374 67.3744 97.374C66.8995 97.4448 62.7889 98.0853 62.6227 98.1089H62.611L57.6118 97.3622C57.6 97.3622 57.5882 97.3504 57.5882 97.3268C57.5764 97.078 57.5882 95.429 57.6707 94.3851Z" fill="#221E29" fill-opacity="0.68"/>
<path d="M57.6119 98.857C57.6001 98.7143 57.5765 98.1563 57.5765 97.3743C57.5765 97.3507 57.5883 97.3389 57.6119 97.3389C58.2035 97.3389 66.8878 97.3035 67.3745 97.3035C67.3863 97.3035 67.3981 97.3153 67.4099 97.3271C67.6114 97.694 67.6703 98.1681 67.6585 98.8322C67.6585 98.857 67.6467 98.8688 67.6232 98.8688C66.8642 98.8688 58.24 98.8924 57.6472 98.8924C57.6237 98.8924 57.6119 98.8806 57.6119 98.857Z" fill="black"/>
<path d="M69.2457 97.2904C69.0324 96.4376 68.8191 95.4173 68.6647 94.3616C68.6647 94.338 68.6765 94.3262 68.7013 94.3262C69.1267 94.3262 73.0251 94.3262 73.4518 94.3262C73.4753 94.3262 73.4871 94.3026 73.4871 94.2908L73.3445 93.3661C73.2384 92.6784 73.8194 92.0025 74.5183 92.0261C74.5183 92.0261 76.2118 91.9671 76.4604 91.9554C76.4852 91.9554 76.497 91.9671 76.497 91.9907C76.6384 93.8167 77.4209 94.6588 78.5464 95.619C79.8015 96.4376 79.8969 97.137 79.8969 97.2786C79.8969 97.2904 79.8851 97.3151 79.8734 97.3151C79.6011 97.3623 77.6224 97.9674 74.6479 97.991C73.0487 98.0028 69.5533 97.3741 69.2575 97.3151C69.2575 97.3151 69.2457 97.3034 69.2457 97.2904Z" fill="#221E29" fill-opacity="0.68"/>
<path d="M69.7197 98.8805C69.6136 98.6552 69.3768 97.7541 69.2577 97.3625C69.246 97.3389 69.2695 97.3153 69.2931 97.3153C70.0403 97.3153 79.3763 97.3153 79.8854 97.3153C79.8972 97.3153 79.909 97.3271 79.9207 97.3389C80.0987 97.7541 80.1694 98.2518 80.2165 98.844C80.2165 98.8687 80.2048 98.8805 80.1812 98.8805C79.3633 98.8805 70.2654 98.8923 69.7551 98.8923C69.7433 98.8923 69.7315 98.8805 69.7197 98.8805Z" fill="black"/>
<path d="M71.4143 68.2266L74.7435 65.9384C74.7553 65.9266 74.7789 65.9266 74.7907 65.9501L75.0865 66.4007C75.0865 66.4125 75.0983 66.4243 75.0865 66.4243L74.1861 69.2941C74.1861 69.3059 74.1743 69.3059 74.1743 69.3059L71.3907 71.3807C71.3672 71.3925 71.3306 71.3807 71.3306 71.3571L71.3907 68.2384C71.4025 68.2502 71.4025 68.2384 71.4143 68.2266Z" fill="white"/>
<path d="M68.7248 63.886L71.8878 56.5823C71.8996 56.5706 71.9114 56.5588 71.9232 56.5588C72.4087 56.6413 73.5342 56.9138 74.6125 57.6015C74.6243 57.6133 74.6361 57.6251 74.6243 57.6369C74.4228 58.0992 71.6392 64.5619 71.4259 65.049C71.4141 65.0608 71.4023 65.0726 71.3787 65.0608L68.7365 63.9108C68.7248 63.9344 68.7248 63.9108 68.7248 63.886Z" fill="white"/>
<path d="M61.2604 58.361C62.0783 57.5778 63.0729 56.902 63.8083 56.6649C63.8201 56.6649 63.8436 56.6649 63.8436 56.6885C64.0452 57.1862 66.5094 63.3292 66.7109 63.827C66.7227 63.8388 66.7109 63.8624 66.6862 63.8742C66.3786 64.0051 63.879 65.049 63.9968 65.0006C63.9497 64.8709 61.4148 58.8116 61.2486 58.4082C61.2486 58.3846 61.2604 58.3728 61.2604 58.361Z" fill="white"/>
<path d="M73.1442 51.8263C73.381 52.0633 73.6415 52.0999 73.9019 52.0397" stroke="#030202" stroke-width="2.08297" stroke-linecap="round" stroke-linejoin="round"/>
<path d="M73.44 50.2968C73.6038 50.2968 73.7358 50.1647 73.7358 50.0007C73.7358 49.8367 73.6038 49.7046 73.44 49.7046C73.2762 49.7046 73.1442 49.8367 73.1442 50.0007C73.1442 50.1647 73.2762 50.2968 73.44 50.2968Z" fill="#010005"/>
<path d="M64.6486 50.4864C64.6486 48.8739 64.6604 46.1469 66.8996 44.8541C67.5996 44.4507 68.5117 44.2254 69.4828 44.2254C73.6417 44.2254 74.033 47.2497 74.0683 47.5458C74.0683 47.5576 74.0565 47.5694 74.0448 47.5812L70.217 49.3599C70.2052 49.3599 70.1934 49.3599 70.1817 49.3599C69.7433 48.9813 68.6767 48.4705 67.919 48.8268C66.9597 49.2773 66.9714 50.2139 67.0657 50.7588C67.0657 50.7718 67.0657 50.7836 67.0422 50.7954L64.697 51.8983C64.6722 51.9101 64.6486 51.8983 64.6486 51.8617V50.4864Z" fill="#475139"/>
<path d="M78.9495 62.2854L78.1081 61.2663" stroke="black" stroke-width="2.08297" stroke-linecap="round" stroke-linejoin="round"/>
<path d="M62.7181 73.3848C61.4265 73.4084 60.4542 72.5426 60.7276 71.2628L62.1018 64.0051C62.3033 62.8786 63.3333 62.2735 64.4588 62.2735L68.0614 62.0011H70.4785C71.6157 62.0011 72.4925 62.8669 72.5161 64.0051L72.6222 71.2628C72.6339 71.8785 72.3735 72.5072 71.9233 72.9696C71.4613 73.4437 70.8332 73.7056 70.2051 73.7056H67.6937L63.5112 73.4319L62.7181 73.3848Z" fill="black"/>
<path d="M60.2059 73.7174C58.9155 73.741 57.9432 72.5426 58.2154 71.2628L59.5907 64.0051C59.7793 62.8786 60.8105 62.0011 61.9477 62.0011H67.9663C69.1035 62.0011 69.9803 62.8669 70.0039 64.0051L70.1111 71.2628C70.1229 71.8785 69.8625 72.5072 69.4123 72.9696C68.9503 73.4437 68.3222 73.7056 67.694 73.7056L60.2059 73.7174Z" fill="#221E29" fill-opacity="0.68"/>
<path d="M77.0417 94.0066L75.9044 94.6942" stroke="black" stroke-width="2.08297" stroke-linecap="round" stroke-linejoin="round"/>
<path d="M77.6815 94.812L76.8401 95.7733" stroke="black" stroke-width="2.08297" stroke-linecap="round" stroke-linejoin="round"/>
<path d="M65.2531 94.5985L64.0923 95.0255" stroke="black" stroke-width="2.08297" stroke-linecap="round" stroke-linejoin="round"/>
<path d="M65.7033 95.4409L64.8501 96.0813" stroke="black" stroke-width="2.08297" stroke-linecap="round" stroke-linejoin="round"/>
<path d="M75.0983 66.4007L74.4465 65.3922" stroke="black" stroke-width="2.08297" stroke-linecap="round" stroke-linejoin="round"/>
<path d="M59.0213 67.1003H70.0155" stroke="black" stroke-width="2.08297" stroke-linecap="round" stroke-linejoin="round"/>
<path d="M64.5309 46.1234C63.1567 46.1234 62.0313 44.9969 62.0313 43.6204C62.0313 42.2451 63.1567 41.1186 64.5309 41.1186C65.905 41.1186 67.0304 42.2451 67.0304 43.6204C67.0304 44.9969 65.905 46.1234 64.5309 46.1234Z" fill="#475139"/>
<path d="M85.9745 54.2694C85.9745 54.2694 84.6003 56.2616 83.8543 57.4954" stroke="#030202" stroke-width="2.08297" stroke-linecap="round" stroke-linejoin="round"/>
<path d="M86.8749 54.7799L84.8962 58.1829" stroke="#030202" stroke-width="2.08297" stroke-linecap="round" stroke-linejoin="round"/>
<path d="M87.2191 55.9181L85.7966 58.775" stroke="#030202" stroke-width="2.08297" stroke-linecap="round" stroke-linejoin="round"/>
<path d="M68.7605 50.5939L69.3768 51.2698" stroke="#030202" stroke-width="2.08297" stroke-linecap="round" stroke-linejoin="round"/>
<path d="M71.2363 55.0526C70.561 54.9806 69.3401 54.2811 69.3401 54.2811" stroke="#030202" stroke-width="2.08297" stroke-linecap="round" stroke-linejoin="round"/>
<path d="M38.9903 30.5135C38.6603 28.8267 38.1889 26.1964 38.0475 25.3235L38.0593 25.8661C37.7765 24.4035 37.2579 21.6658 38.8371 20.2504C39.8388 19.3539 41.253 18.2451 42.7615 18.2451C43.5629 18.2451 44.376 18.9883 45.0831 19.2713C46.1096 19.6488 46.7224 20.1324 47.1938 20.8519C47.6181 21.4889 47.9245 22.3027 48.2662 23.3655C48.2662 23.3773 48.278 23.3891 48.2898 23.3891C48.4548 23.4127 49.1737 23.5188 49.2444 23.8491C49.3387 24.2148 48.9026 24.7927 48.8083 24.9225C48.7965 24.9343 48.7965 24.9461 48.8083 24.9579C49.4329 26.9159 49.4094 27.9893 48.7494 28.9211C48.2309 29.735 46.4631 30.0535 45.4261 29.676C45.4025 29.6642 45.3789 29.6878 45.3789 29.7114C45.4025 29.8647 45.4732 30.313 45.4968 30.4427C45.4968 30.4663 45.485 30.5135 45.4614 30.5135H38.9903Z" fill="#E59763"/>
<path d="M36.9043 81.9706C36.8925 81.9588 36.8925 81.947 36.8925 81.9352C37.3639 78.2315 38.2124 76.2853 38.4246 72.4034C38.4835 71.2947 38.4717 70.1977 38.401 69.03C38.401 69.0182 38.4128 68.9946 38.4246 68.9946C38.7663 68.9238 42.1839 68.0156 44.9298 68.0156C45.8856 68.0156 48.1601 68.9592 48.4193 69.0417C48.4311 69.0417 48.4429 69.0653 48.4429 69.0771C48.0894 73.3718 47.1937 78.7505 46.6398 81.947C46.628 81.9942 43.2092 83.4108 40.3219 83.399C38.896 83.3754 37.1046 82.1004 36.9043 81.9706Z" fill="#E59763"/>
<path opacity="0.2" d="M38.4601 71.0221C38.4601 70.2201 38.4365 69.6185 38.4011 69.0287C38.4011 69.0052 38.4129 68.9933 38.4365 68.9933H43.8576L43.8693 69.0405C43.8576 69.0169 39.0847 70.8098 38.5072 71.0457C38.4836 71.0575 38.4601 71.0457 38.4601 71.0221Z" fill="#030202"/>
<path d="M21.5346 77.2998C23.4909 74.2684 25.4012 72.4743 27.0275 69.0419C27.0275 69.0301 27.0393 69.0183 27.0511 69.0183C27.5461 68.9947 31.2348 68.2634 31.9536 68.2634C34.7113 68.2516 37.6234 69.0065 37.6351 68.9947L37.6234 69.0301C35.8674 72.9815 32.5075 78.0665 30.4216 81.2512C30.4216 81.263 30.4098 81.263 30.398 81.263C30.1859 81.3102 27.5579 81.5225 25.0347 80.3902C23.7973 79.8358 21.7585 77.5593 21.5464 77.3352C21.5228 77.3234 21.5228 77.3116 21.5346 77.2998Z" fill="#E59763"/>
<path opacity="0.2" d="M29.4551 69.0416C30.8104 69.0298 36.9751 68.9826 37.5643 69.018C37.5879 69.018 37.5997 69.0416 37.5879 69.0652C37.2579 69.7493 36.9515 70.4335 36.5862 71.1176C36.5744 71.1294 36.5626 71.1412 36.5508 71.1294C36.1383 71.0114 30.6218 69.4427 29.4433 69.1006C29.408 69.1006 29.4198 69.0416 29.4551 69.0416Z" fill="#030202"/>
<path d="M63.3522 61.7511C62.5155 61.7511 61.5845 60.5598 61.1484 59.9346C61.1249 59.8992 61.0659 59.9228 61.0777 59.97C61.1956 60.5008 61.5255 61.5624 61.007 61.645C60.4178 61.7393 59.64 60.3947 58.6382 58.9084C57.9194 57.8233 57.0708 56.6083 56.1988 55.6057C56.187 55.5939 56.187 55.5704 56.2105 55.5586C56.5994 55.2873 60.4413 52.1957 60.9245 51.948C60.9363 51.9362 60.9599 51.948 60.9599 51.9598C62.3269 53.5534 63.3168 54.8744 63.8825 55.7591V55.7709C63.9414 55.9714 66.5 59.7341 65.1906 60.8783C65.1789 60.8783 65.1789 60.8901 65.1789 60.9019C65.1435 61.2557 64.9549 61.6921 64.4011 61.6921C64.2479 61.6921 64.0711 61.6568 63.8943 61.5978C63.8825 61.5978 63.8825 61.5978 63.8707 61.5978C63.7175 61.6686 63.5408 61.7629 63.3522 61.7511Z" fill="#E59763"/>
<path d="M55.3619 57.0682C51.1535 53.3763 48.4312 48.1262 47.9244 47.1118C47.9126 47.0764 47.8655 47.0882 47.8655 47.1236L47.6652 48.8811C47.6652 48.8929 47.6534 48.9165 47.6298 48.9165L37.3522 48.9401C37.3404 48.9401 37.3404 48.9401 37.3286 48.9519C37.1518 49.1288 34.7937 51.7238 34.7819 51.6648C33.8744 51.3345 33.1674 50.9099 32.6017 50.4145C29.3726 47.56 31.3407 42.2745 32.9199 37.9928C33.792 35.7871 34.723 33.9942 35.3487 33.3101C36.704 31.8109 38.7782 31.4098 39.1553 31.3509C39.1788 31.3509 39.1906 31.3273 39.1788 31.3155C39.1317 31.056 39.061 30.7965 39.0138 30.5252C39.0138 30.5016 39.0256 30.4898 39.0374 30.4898C39.5206 30.4308 45.0359 30.4898 45.485 30.4898C45.4967 30.4898 45.5203 30.5016 45.5203 30.5134C45.5439 30.6785 45.7089 31.5632 45.7324 31.7165C45.7324 31.7283 45.7442 31.7401 45.756 31.7401C46.2038 31.7991 50.1282 32.5304 52.0138 37.7333L54.96 45.3897C54.96 45.3897 54.96 45.4015 54.9718 45.4015C55.1132 45.543 58.3199 48.8693 60.9244 51.9125C60.9362 51.9243 60.9362 51.9479 60.9244 51.9597C60.559 52.3135 55.7861 56.8087 55.3972 57.08C55.3855 57.08 55.3737 57.08 55.3619 57.0682Z" fill="#AFC2CB"/>
<path opacity="0.2" d="M34.7347 51.6412C33.8037 51.2992 33.1673 50.8981 32.6252 50.4381C32.6016 50.4263 32.6134 50.3909 32.637 50.3791C34.9115 49.1996 35.1707 46.6282 35.3723 44.7763C35.5019 43.585 35.5962 42.6284 36.1854 42.4987C36.209 42.4987 36.2208 42.5105 36.2208 42.5222L37.1164 48.8575C37.1164 48.8693 37.1164 48.8811 37.1047 48.8811C36.9397 49.0698 34.7701 51.712 34.7347 51.6412Z" fill="#959595"/>
<path opacity="0.2" d="M44.1876 29.2159C44.7179 29.499 45.2364 29.617 45.3555 29.6406C45.3673 29.6406 45.379 29.6524 45.379 29.6642L45.5087 30.4662L45.5912 30.9734C45.5912 31.0088 45.5558 31.0324 45.5322 30.997L44.1404 29.2631C44.1287 29.2395 44.164 29.1923 44.1876 29.2159Z" fill="#030202"/>
<path d="M31.5646 41.8841C27.2985 41.8133 26.1318 36.8356 29.6672 34.913C29.679 34.9012 29.6908 34.8776 29.679 34.8658C28.3355 32.896 28.1352 30.5476 29.1723 28.5659C30.1858 26.6197 32.2246 25.452 34.6169 25.452C35.3252 25.452 36.0676 25.5581 36.8101 25.7351C36.8337 25.7351 36.8572 25.7233 36.8454 25.6997C36.8101 24.1191 36.6097 21.0275 38.7428 19.3998C40.4398 18.1141 43.009 17.772 45.0124 18.5623C45.9446 18.928 46.6988 19.789 47.182 20.827C47.1938 20.8388 47.182 20.8506 47.1702 20.8624C47.0641 20.9686 46.4867 21.4993 45.4378 21.4993C45.2009 21.4993 44.9535 21.4758 44.706 21.405C44.6824 21.3932 44.6588 21.4286 44.6706 21.4522C45.1892 22.4902 44.9652 24.1073 44.1757 24.815C44.1639 24.8268 44.1521 24.8268 44.1403 24.815C43.9753 24.7207 42.9147 24.0129 41.9483 24.0011C41.3591 24.0011 40.9466 24.2724 40.7109 24.815C40.0156 26.4782 42.62 27.87 42.8322 27.988C42.844 27.988 42.844 27.9998 42.844 28.0116C43.4568 33.0493 40.7227 37.5906 34.1337 35.3376C34.1219 35.3376 34.0984 35.3376 34.0984 35.3494C33.9216 35.6679 32.696 38.1921 31.6 41.8487C31.5882 41.8723 31.5764 41.8841 31.5646 41.8841Z" fill="#010005"/>
<path d="M47.1702 25.8661C47.3469 26.2199 47.8772 26.2789 48.1483 26.1845" stroke="#030202" stroke-width="2.08297" stroke-linecap="round" stroke-linejoin="round"/>
<path d="M47.0404 24.0261C47.2031 24.0261 47.3351 23.894 47.3351 23.7312C47.3351 23.5685 47.2031 23.4364 47.0404 23.4364C46.8778 23.4364 46.7458 23.5685 46.7458 23.7312C46.7458 23.894 46.8778 24.0261 47.0404 24.0261Z" fill="#171314"/>
<path d="M44.046 29.132C44.046 29.132 44.9299 29.4623 45.3789 29.6392" stroke="#030202" stroke-width="2.08297" stroke-linecap="round" stroke-linejoin="round"/>
<path d="M42.3729 25.6526L43.2567 26.1834" stroke="#030202" stroke-width="2.08297" stroke-linecap="round" stroke-linejoin="round"/>
<path d="M42.62 29.5697C43.2835 29.5697 43.822 29.0306 43.822 28.3666C43.822 27.7025 43.2835 27.1634 42.62 27.1634C41.9565 27.1634 41.4179 27.7025 41.4179 28.3666C41.4179 29.0306 41.9565 29.5697 42.62 29.5697Z" fill="#A3A3A3"/>
<path d="M27.0746 69.0179C27.0511 69.0179 27.0393 68.9943 27.0511 68.9707C29.0545 64.5946 29.4434 60.1938 31.5883 55.7352C33.0614 52.5964 35.3842 50.0958 37.1166 48.8927C37.1166 48.8927 37.1283 48.8809 37.1401 48.8809C37.4937 48.8809 47.0996 48.8455 47.6299 48.9045C47.6417 48.9045 47.6535 48.9163 47.6535 48.9281C47.7595 49.3763 49.374 57.8229 48.4548 69.0061C48.4548 69.0297 48.443 69.0415 48.4195 69.0415C47.5356 69.0179 28.2649 69.0179 27.0746 69.0179Z" fill="#AFC2CB"/>
<path opacity="0.2" d="M47.6181 48.9048C47.3471 48.9048 45.036 48.9166 44.5411 48.9166C44.5057 48.9166 44.4939 48.952 44.5175 48.9756C45.7797 50.0018 46.5692 51.6885 47.3235 53.1052C47.7242 53.8365 48.172 54.2965 48.3252 54.4498C48.3488 54.4734 48.3841 54.4498 48.3841 54.4262C48.337 53.8483 47.9834 50.5208 47.6417 48.9284C47.6535 48.9166 47.6417 48.9048 47.6181 48.9048Z" fill="#959595"/>
<path d="M36.5155 23.4363C34.6052 23.4481 34.0984 21.9843 35.0176 20.2858C36.0912 18.1272 39.5796 15.78 41.8659 15.8271C43.775 15.8154 44.2818 17.278 43.3625 18.9765C42.2901 21.135 38.8254 23.4953 36.5155 23.4363Z" fill="#475139"/>
<path d="M36.3622 45.2717L35.2544 45.7788" stroke="#959595" stroke-width="2.08297" stroke-linecap="round" stroke-linejoin="round"/>
<path d="M37.1281 48.8811L36.7745 46.3333H47.5471L47.8653 47.0057L47.6532 48.9047L37.1281 48.8811Z" fill="white"/>
<path opacity="0.2" d="M44.4587 48.9165C45.0597 47.3359 45.0008 45.6846 44.9536 44.3753C44.9065 43.0307 44.8593 41.9679 45.5087 41.4489C45.5205 41.4371 45.5558 41.4371 45.5558 41.4607C46.3808 43.5025 47.5003 46.1328 47.8539 46.9939V47.0057C47.8421 47.1236 47.6653 48.6452 47.6418 48.8693C47.6418 48.8811 47.63 48.8929 47.6064 48.8929L44.4587 48.9165Z" fill="#959595"/>
<path d="M36.2209 42.4869L37.1165 48.8812C37.1165 48.8812 35.3842 50.1669 34.3813 51.4526" stroke="#959595" stroke-width="2.08297" stroke-linecap="round" stroke-linejoin="round"/>
<path d="M47.8655 47.0056L45.5439 41.4253" stroke="#959595" stroke-width="2.08297" stroke-linecap="round" stroke-linejoin="round"/>
<path d="M44.376 98.958C44.1521 98.5924 43.6218 97.8729 43.2564 97.46C43.2446 97.4483 43.2446 97.4247 43.2564 97.4129C44.0107 96.7169 50.0104 97.2713 50.0104 97.3539C50.3521 97.7195 50.7057 98.4862 50.7528 98.9227C50.7528 98.9462 50.741 98.958 50.7175 98.958C50.1989 98.958 44.376 98.958 44.376 98.958Z" fill="black"/>
<path d="M43.2212 97.4249C42.7616 96.8587 41.9838 96.0684 41.2885 95.7381C41.1588 95.7028 37.4819 94.6412 37.1873 94.5586C37.1755 94.5586 37.1638 94.5468 37.1638 94.535C36.6806 91.8799 36.4684 89.2967 36.5392 86.6428C36.6099 85.0032 36.7159 83.3401 36.8927 81.9942C36.8927 81.9824 36.9045 81.9706 36.9281 81.9706C37.5055 81.9706 45.9093 81.947 46.6164 81.947C46.64 81.947 46.6518 81.9706 46.6518 81.9824C46.6282 82.0886 46.5811 82.3717 46.5457 82.584C46.2747 84.1186 46.0508 85.4514 45.8504 86.7371C45.4615 90.0044 44.765 92.9297 46.7579 94.6884C47.241 95.0894 47.6771 95.4197 48.1485 95.7853C49.0088 96.4341 49.3859 96.611 49.9751 97.3187C49.9987 97.3423 49.9751 97.3777 49.9516 97.3777C49.2445 97.3895 43.5983 97.4485 43.2566 97.4603C43.233 97.4367 43.233 97.4367 43.2212 97.4249Z" fill="#475139"/>
<path d="M38.2595 98.9348C37.9296 98.0973 37.3403 95.7618 37.1636 94.5823C37.1636 94.5587 37.1753 94.5469 37.1989 94.5469C37.5289 94.5941 39.6855 94.9362 41.2647 95.7265C41.2765 95.7265 41.2883 95.7383 41.2883 95.7618C41.2883 96.0213 41.2765 98.6045 41.2765 98.923C41.2765 98.9466 41.2647 98.9584 41.2411 98.9584C40.9347 98.9584 38.5424 98.9584 38.2949 98.9584C38.2831 98.9584 38.2713 98.9466 38.2595 98.9348Z" fill="black"/>
<path d="M55.5505 54.5439C55.019 54.5439 54.5947 54.1193 54.5947 53.5885C54.5947 53.0577 55.019 52.6319 55.5505 52.6319C56.0808 52.6319 56.5051 53.0577 56.5051 53.5885C56.5051 54.1193 56.0808 54.5439 55.5505 54.5439Z" fill="white"/>
<path d="M45.7324 31.7272C45.7324 31.7272 46.1567 31.7626 46.6752 31.9631" stroke="#959595" stroke-width="2.08297" stroke-linecap="round" stroke-linejoin="round"/>
<path d="M40.9347 88.7424C40.2512 88.7542 39.6502 88.129 39.6973 87.4449C39.6973 87.4449 39.9448 82.4307 39.9684 81.9825C39.9684 81.9589 39.9802 81.9471 40.0037 81.9471L43.3153 81.9353C43.3389 81.9353 43.3507 81.9589 43.3507 81.9707L42.1604 87.7398C42.0307 88.3414 41.524 88.7424 40.9347 88.7424Z" fill="black"/>
<path d="M21.0277 96.3276C20.957 95.9265 20.7449 95.0773 20.5681 94.5347C20.5563 94.5111 20.5799 94.4875 20.6034 94.4875C21.0395 94.5937 23.6322 95.1127 23.7618 95.148H23.7736C23.915 95.2306 26.7681 97.0707 26.9567 97.1886C26.9685 97.1886 26.9685 97.2004 26.9685 97.2004C27.1452 97.7076 27.1688 98.5097 27.0392 98.9226C27.0274 98.9461 27.0156 98.9461 26.992 98.9461C26.5206 98.7338 21.3695 96.4809 21.0395 96.3394L21.0277 96.3276Z" fill="black"/>
<path d="M20.5443 94.4643C20.2497 93.5561 19.8726 92.8 19.5072 92.3754C19.4248 92.2928 16.5728 89.6742 16.3489 89.4737C16.3371 89.4619 16.3371 89.4501 16.3371 89.4383C17.2917 85.2746 19.2244 80.8973 21.4989 77.3351C21.5107 77.3233 21.5225 77.3115 21.5343 77.3233C22.0292 77.5121 29.7613 80.9917 30.3623 81.2512C30.3859 81.263 30.3859 81.2866 30.3741 81.2984C29.3842 82.8436 28.2175 84.5786 27.3572 85.9351C25.8841 88.4593 23.9266 91.0071 25.0815 93.4263C25.3655 93.9925 25.6484 94.4879 25.9194 94.9951C26.3555 95.7854 26.7444 96.4577 26.9447 97.1301C26.9565 97.1537 26.9211 97.1773 26.8976 97.1655C26.2494 96.8942 20.8625 94.6059 20.5561 94.4761C20.5443 94.4761 20.5443 94.4761 20.5443 94.4643Z" fill="#475139"/>
<path d="M15.5713 93.9217C15.6067 93.142 16.0427 90.5588 16.3255 89.4972C16.3373 89.4737 16.3609 89.4619 16.3727 89.4855C18.435 90.9245 19.3896 92.2102 19.4957 92.3635C19.5075 92.3753 19.5075 92.3871 19.4957 92.3989C19.4014 92.6112 18.435 94.8417 18.3172 95.1248C18.3054 95.1366 18.2936 95.1484 18.27 95.1366L15.5831 93.9571C15.5831 93.9453 15.5713 93.9335 15.5713 93.9217Z" fill="black"/>
<path d="M22.6777 85.1317C21.7938 85.1553 21.1339 84.1409 21.5699 83.3506C21.5699 83.3506 23.7973 78.8318 23.9976 78.4308C24.0094 78.419 24.0212 78.4072 24.0448 78.419L27.0629 79.7755C27.0864 79.7872 27.0864 79.8108 27.0747 79.8226L23.6912 84.6127C23.4555 84.9312 23.0784 85.1317 22.6777 85.1317Z" fill="black"/>
<path d="M38.142 18.2451L38.6369 18.8821" stroke="black" stroke-width="2.08297" stroke-linecap="round" stroke-linejoin="round"/>
<path d="M65.1789 60.8769C65.1789 60.8769 63.8472 58.0696 62.7866 56.4419" stroke="#030202" stroke-width="2.08297" stroke-linecap="round" stroke-linejoin="round"/>
<path d="M63.8823 61.586C63.8823 61.586 62.0674 58.2715 61.4899 57.3515" stroke="#030202" stroke-width="2.08297" stroke-linecap="round" stroke-linejoin="round"/>
<path d="M61.0894 59.9214C61.0894 59.9214 60.8772 59.1901 60.2998 58.2701" stroke="#030202" stroke-width="2.08297" stroke-linecap="round" stroke-linejoin="round"/>
</g>
<g opacity="0.15">
<path d="M287.692 86.9285V86.9072C287.692 85.053 289.197 83.5361 291.049 83.5361C292.902 83.5361 294.416 85.053 294.416 86.9072V86.9285H287.692Z" fill="#EFDCD7"/>
<path d="M155.278 79.6315V79.6091C155.278 77.7667 156.782 76.2498 158.634 76.2392C160.487 76.2392 162.001 77.7549 162.001 79.6091V79.6315H155.278Z" fill="#EFDCD7"/>
<path d="M239.416 90.7347V90.7135C239.416 89.1318 240.702 87.8449 242.282 87.8449C243.862 87.8449 245.148 89.1318 245.148 90.7135V90.7347H239.416Z" fill="#EFDCD7"/>
<path d="M287.478 17.2378V17.226C287.363 16.9135 287.304 16.5773 287.304 16.2187C287.304 14.5627 288.658 13.2086 290.313 13.2086C290.683 13.2086 291.03 13.277 291.365 13.3937C292.244 11.1821 294.42 9.71123 296.78 9.71123C298.909 9.71123 300.864 10.8695 301.894 12.745C302.298 12.6058 302.703 12.5362 303.085 12.5362C305.11 12.5362 306.764 14.1923 306.764 16.2187C306.764 16.5667 306.717 16.9135 306.625 17.226V17.2378H287.478Z" fill="white"/>
<path d="M151.909 10.4177L151.898 10.4059C151.886 10.3823 151.886 10.3481 151.886 10.3127C151.886 7.90411 153.841 5.94726 156.248 5.94726C156.664 5.94726 157.069 6.00506 157.439 6.12183C158.469 4.62736 160.146 3.73563 161.951 3.73563C164.959 3.73563 167.411 6.19142 167.411 9.2016C167.411 9.59556 167.365 10.0001 167.284 10.3941V10.4177H151.909Z" fill="white"/>
<path d="M260.108 69.3685V47.1603H295.48L296.563 62.7537H286.049L274.189 69.3685H260.108Z" fill="#221E29" fill-opacity="0.68"/>
<path d="M219.112 47.1874H186.901V62.7808H219.112V47.1874Z" fill="#221E29" fill-opacity="0.68"/>
<path d="M298.062 51.8085C300.34 51.8085 302.187 49.9602 302.187 47.6801C302.187 45.4001 300.34 43.5518 298.062 43.5518C295.784 43.5518 293.938 45.4001 293.938 47.6801C293.938 49.9602 295.784 51.8085 298.062 51.8085Z" fill="white"/>
<path d="M164.253 50.8226C166.531 50.8226 168.378 48.9743 168.378 46.6943C168.378 44.4142 166.531 42.5659 164.253 42.5659C161.975 42.5659 160.128 44.4142 160.128 46.6943C160.128 48.9743 161.975 50.8226 164.253 50.8226Z" fill="white"/>
<path d="M298.675 44.9428C298.686 41.4596 296.203 38.5037 292.767 37.9116L270.852 34.1347L267.712 14.1817L168.411 14.1711L164.187 34.3317V62.7927H189.593V62.7703C190.249 59.8026 191.912 57.1203 194.275 55.1929C196.671 53.2432 199.702 52.1698 202.81 52.1698C205.906 52.1698 208.937 53.2432 211.343 55.1929C213.706 57.1203 215.37 59.8026 216.027 62.7703V62.7927H231.376L238.292 69.4063H267.165V65.7274C267.165 58.2479 273.238 52.1698 280.711 52.1698C283.806 52.1698 286.837 53.2432 289.244 55.1929C290.054 55.8499 290.776 56.6048 291.41 57.427H298.675V44.9428Z" fill="white"/>
<path d="M298.675 51.7649V44.9424C298.675 44.4718 298.632 44 298.543 43.5518" stroke="#838383" stroke-width="2.08297" stroke-linecap="round" stroke-linejoin="round"/>
<path d="M293.927 62.7929V62.7705C293.149 59.6388 291.366 56.7478 288.718 54.7874L288.664 54.7438H300.054C301.235 54.7438 302.187 55.7074 302.187 56.8905V60.6461C302.187 61.8292 301.235 62.7811 300.054 62.7811H293.927V62.7929Z" fill="#221E29" fill-opacity="0.68"/>
<path d="M162.261 62.781C161.08 62.781 160.128 61.8291 160.128 60.646V56.8904C160.128 55.7073 161.08 54.7543 162.261 54.7543H170.314C170.894 54.7543 171.43 54.9843 171.835 55.39C172.229 55.7946 172.448 56.3207 172.448 56.8786V62.781H162.261Z" fill="#221E29" fill-opacity="0.68"/>
<path d="M193.399 5.51904C192.492 5.51904 191.759 4.78537 191.759 3.87713V1.64309C191.759 0.733669 192.492 0 193.399 0H205.807C206.715 0 207.448 0.733669 207.448 1.64309V3.87713C207.448 4.78537 206.715 5.51904 205.807 5.51904H193.399Z" fill="#221E29" fill-opacity="0.68"/>
<path d="M239.123 5.51904C238.215 5.51904 237.482 4.78537 237.482 3.87713V1.64309C237.482 0.733669 238.215 0 239.123 0H251.53C252.439 0 253.172 0.733669 253.172 1.64309V3.87713C253.172 4.78537 252.439 5.51904 251.53 5.51904H239.123Z" fill="#221E29" fill-opacity="0.68"/>
<path d="M274.255 32.7216C273.346 32.7216 272.613 31.9879 272.613 31.0785V22.6024C272.613 21.6941 273.346 20.9604 274.255 20.9604H276.487C277.394 20.9604 278.127 21.6941 278.127 22.6024V31.0785C278.127 31.9879 277.394 32.7216 276.487 32.7216H274.255Z" fill="#221E29" fill-opacity="0.68"/>
<path d="M280.721 76.0422C286.413 76.0422 291.027 71.4244 291.027 65.7272C291.027 60.0301 286.413 55.411 280.721 55.411C275.029 55.411 270.414 60.0301 270.414 65.7272C270.414 71.4244 275.029 76.0422 280.721 76.0422Z" fill="#CECDCE"/>
<path d="M280.721 68.7057C282.364 68.7057 283.697 67.3716 283.697 65.7274C283.697 64.0819 282.364 62.749 280.721 62.749C279.077 62.749 277.745 64.0819 277.745 65.7274C277.745 67.3716 279.077 68.7057 280.721 68.7057Z" fill="#221E29" fill-opacity="0.68"/>
<path d="M202.82 76.0422C208.512 76.0422 213.126 71.4244 213.126 65.7272C213.126 60.0301 208.512 55.411 202.82 55.411C197.128 55.411 192.513 60.0301 192.513 65.7272C192.513 71.4244 197.128 76.0422 202.82 76.0422Z" fill="#CECDCE"/>
<path d="M202.82 68.7057C204.463 68.7057 205.796 67.3716 205.796 65.7274C205.796 64.0819 204.463 62.749 202.82 62.749C201.176 62.749 199.844 64.0819 199.844 65.7274C199.844 67.3716 201.176 68.7057 202.82 68.7057Z" fill="#221E29" fill-opacity="0.68"/>
<path d="M240.994 65.398V21.2114C240.994 19.1968 242.624 17.5549 244.637 17.5549H260.021C262.034 17.5549 263.674 19.1968 263.674 21.2114V65.398H240.994Z" fill="#CECDCE"/>
<path opacity="0.2" d="M263.631 22.9642C263.631 20.9708 262.011 19.3501 260.021 19.3501H244.637C242.657 19.3501 241.038 20.9708 241.038 22.9642H240.994V21.2114C240.994 19.1968 242.624 17.5549 244.637 17.5549H260.021C262.034 17.5549 263.674 19.1968 263.674 21.2114V22.9642H263.631Z" fill="#868686"/>
<path d="M221.792 30.8046C219.779 30.8046 218.137 29.1627 218.137 27.1469V21.2114C218.137 19.1968 219.779 17.5549 221.792 17.5549H233.871C235.884 17.5549 237.526 19.1968 237.526 21.2114V27.1469C237.526 29.1627 235.884 30.8046 233.871 30.8046H221.792Z" fill="#CECDCE"/>
<path opacity="0.2" d="M237.482 22.9642C237.482 20.9708 235.863 19.3501 233.871 19.3501H221.792C219.801 19.3501 218.182 20.9708 218.182 22.9642H218.137V21.2114C218.137 19.1968 219.779 17.5549 221.792 17.5549H233.871C235.884 17.5549 237.526 19.1968 237.526 21.2114V22.9642H237.482Z" fill="#868686"/>
<path d="M198.925 30.8046C196.912 30.8046 195.271 29.1627 195.271 27.1469V21.2114C195.281 19.1968 196.923 17.5549 198.925 17.5549H211.004C213.018 17.5549 214.658 19.1968 214.658 21.2114V27.1469C214.658 29.1627 213.018 30.8046 211.004 30.8046H198.925Z" fill="#CECDCE"/>
<path d="M176.07 30.8046C174.056 30.8046 172.415 29.1627 172.415 27.1469V21.2114C172.415 19.1968 174.056 17.5549 176.07 17.5549H188.148C190.161 17.5549 191.803 19.1968 191.803 21.2114V27.1469C191.803 29.1627 190.161 30.8046 188.148 30.8046H176.07Z" fill="#CECDCE"/>
<path d="M263.674 39.5875H240.994V43.3549H263.674V39.5875Z" fill="#221E29" fill-opacity="0.68"/>
<path d="M263.674 62.749H240.994V69.4063H263.674V62.749Z" fill="#221E29" fill-opacity="0.68"/>
<path d="M241.015 44.7562H164.187V48.5237H241.015V44.7562Z" fill="#221E29" fill-opacity="0.68"/>
<path opacity="0.2" d="M287.252 48.8623C286.213 48.8623 285.37 48.0202 285.37 46.9798C285.37 45.9395 286.213 45.0961 287.252 45.0961H291.136C292.176 45.0961 293.018 45.9395 293.018 46.9798C293.018 47.4717 292.832 47.9435 292.482 48.3044C292.122 48.6654 291.65 48.8623 291.136 48.8623H287.252Z" fill="#838383"/>
<path d="M241.015 34.3318H164.187V38.098H241.015V34.3318Z" fill="#221E29" fill-opacity="0.68"/>
<path d="M168.421 14.2041L169.297 10.0427C170.139 6.00158 173.739 3.0669 177.874 3.0669H269.856C271.027 3.0669 272.11 3.59297 272.854 4.50121C273.587 5.41063 273.871 6.59253 273.631 7.73196L272.23 14.2253L168.421 14.2041Z" fill="white"/>
<path opacity="0.2" d="M168.421 14.2041L169.297 10.0097L169.318 10.0203C169.34 10.0309 171.047 10.5794 176.496 11.1267C181.528 11.6304 190.873 12.2331 206.792 12.2331C219.505 12.2331 238.532 11.838 256.924 9.96608C267.92 8.84906 273.544 7.70963 273.598 7.69901L273.631 7.6884L272.219 14.2148L168.421 14.2041Z" fill="#838383"/>
<path d="M171.091 53.21C170.063 53.3421 169.187 52.4657 169.318 51.436C169.406 50.7353 169.975 50.1656 170.676 50.0783C171.703 49.9474 172.579 50.8226 172.448 51.8523C172.36 52.553 171.792 53.1227 171.091 53.21Z" fill="white"/>
<path d="M168.444 14.1924L267.701 14.2042" stroke="#838383" stroke-width="2.08297" stroke-linecap="round" stroke-linejoin="round"/>
<path d="M266.639 16.9417H272.569C274.112 16.9417 275.371 18.2002 275.371 19.7442V33.9482C275.371 35.4922 274.112 36.7508 272.569 36.7508H266.639" stroke="#221E29" stroke-opacity="0.68" stroke-width="2.08297" stroke-linecap="round" stroke-linejoin="round"/>
<path d="M252.329 17.5762V69.3294" stroke="#868686" stroke-width="2.08297" stroke-linecap="round" stroke-linejoin="round"/>
<path opacity="0.2" d="M214.615 22.9642C214.615 20.9708 212.995 19.3501 211.004 19.3501H198.925C196.934 19.3501 195.314 20.9708 195.314 22.9642H195.271V21.2114C195.271 19.1968 196.912 17.5549 198.925 17.5549H211.004C213.018 17.5549 214.658 19.1968 214.658 21.2114V22.9642H214.615Z" fill="#868686"/>
<path opacity="0.2" d="M191.759 22.9642C191.759 20.9708 190.14 19.3501 188.148 19.3501H176.07C174.078 19.3501 172.459 20.9708 172.459 22.9642H172.415V21.2114C172.415 19.1968 174.056 17.5549 176.07 17.5549H188.148C190.161 17.5549 191.803 19.1968 191.803 21.2114V22.9642H191.759Z" fill="#868686"/>
<path d="M287.252 47.318C286.268 47.318 285.459 46.5525 285.382 45.5888C285.295 44.4718 286.202 43.5518 287.318 43.5518H291.137C292.176 43.5518 293.019 44.3951 293.019 45.4355C293.019 45.9273 292.832 46.3992 292.482 46.7601C292.122 47.121 291.65 47.318 291.137 47.318H287.252Z" fill="white"/>
<path d="M164.166 42.5659V50.8226" stroke="#838383" stroke-width="2.08297" stroke-linecap="round" stroke-linejoin="round"/>
<path d="M267.379 53.5911H264.763V98.9938H267.379V53.5911Z" fill="#475139"/>
<path opacity="0.2" d="M266.071 57.4952C265.639 57.4952 265.206 57.4717 264.787 57.4245H264.763V53.7078H267.379V57.4245H267.356C266.935 57.4717 266.502 57.4952 266.071 57.4952Z" fill="black"/>
<path d="M274.963 51.5859C279.876 46.6685 279.876 38.6972 274.963 33.7809C270.051 28.8646 262.087 28.8646 257.175 33.7809C252.263 38.6972 252.263 46.6685 257.175 51.5859C262.087 56.5022 270.051 56.5022 274.963 51.5859Z" fill="white"/>
<path d="M267.356 55.4144C266.935 55.4604 266.503 55.484 266.071 55.484C265.639 55.484 265.206 55.4604 264.787 55.4144" stroke="black" stroke-width="2.08297" stroke-linecap="round" stroke-linejoin="round"/>
<path d="M262.439 49.5924C261.819 49.5924 261.317 49.0899 261.317 48.4707V44.741C261.317 44.1217 261.819 43.6192 262.439 43.6192C263.058 43.6192 263.56 44.1217 263.56 44.741V48.4707C263.56 49.0899 263.058 49.5924 262.439 49.5924Z" fill="#AFC2CB"/>
<path d="M269.832 49.5924C269.213 49.5924 268.71 49.0899 268.71 48.4707V44.741C268.71 44.1217 269.213 43.6192 269.832 43.6192C270.45 43.6192 270.952 44.1217 270.952 44.741V48.4707C270.952 49.0899 270.45 49.5924 269.832 49.5924Z" fill="#AFC2CB"/>
<path d="M261.305 42.3689V39.0367C261.305 37.3418 262.684 35.9629 264.378 35.9629H267.881C269.575 35.9629 270.952 37.3418 270.952 39.0367V42.3689H261.305Z" fill="#475139"/>
<path d="M270.952 42.3101H261.305V47.3609H270.952V42.3101Z" fill="#AFC2CB"/>
<path d="M263.758 45.7826C263.186 45.7826 262.718 45.3143 262.718 44.7422C262.718 44.169 263.186 43.7019 263.758 43.7019C264.331 43.7019 264.797 44.169 264.797 44.7422C264.797 45.3143 264.331 45.7826 263.758 45.7826Z" fill="#0F445D"/>
<path d="M268.407 45.7826C267.834 45.7826 267.368 45.3143 267.368 44.7422C267.368 44.169 267.834 43.7019 268.407 43.7019C268.979 43.7019 269.446 44.169 269.446 44.7422C269.446 45.3143 268.979 45.7826 268.407 45.7826Z" fill="#0F445D"/>
<path d="M261.329 42.3336H270.929" stroke="#0F445D" stroke-width="2.08297" stroke-linecap="round" stroke-linejoin="round"/>
<path d="M261.329 47.3373H263.536" stroke="#0F445D" stroke-width="2.08297" stroke-linecap="round" stroke-linejoin="round"/>
<path d="M268.722 47.3373H270.929" stroke="#0F445D" stroke-width="2.08297" stroke-linecap="round" stroke-linejoin="round"/>
<path d="M273.003 99.0043V98.9807C273.003 95.6426 275.726 92.9297 279.061 92.9297C282.396 92.9297 285.106 95.6426 285.106 98.9807V99.0043H273.003Z" fill="#221E29" fill-opacity="0.68"/>
<path opacity="0.2" d="M273.003 99.0042V98.9806C273.003 96.48 274.512 94.2743 276.833 93.3543L276.857 93.3425L276.869 93.366C277.434 95.2179 278.566 95.7605 279.567 96.2323C279.897 96.3857 280.204 96.539 280.487 96.7277C282.019 97.7657 281.901 98.9688 281.901 98.9806V99.0042H273.003Z" fill="black"/>
<path d="M272.225 94.8051C272.932 94.1917 273.734 93.5548 274.735 92.7645C279.626 88.9546 284.317 86.1827 285.896 86.1827C286.131 86.1827 286.285 86.2417 286.379 86.3596C286.45 86.454 286.473 86.5837 286.461 86.7371C286.285 88.1761 282.443 92.104 277.328 96.0908C276.515 96.7277 275.678 97.3647 274.83 97.9662L274.806 97.978L272.225 94.8051Z" fill="#AFC2CB"/>
<path opacity="0.2" d="M272.225 94.8051C272.932 94.1918 273.734 93.5548 274.735 92.7645C274.842 92.682 274.948 92.5994 275.054 92.5168C275.289 92.3281 275.537 92.1394 275.784 91.9625L275.796 91.9507H275.808C276.433 92.1512 277.187 92.2455 277.976 92.2455C279.544 92.2455 281.3 91.8445 283.056 91.0778L283.091 91.1132C281.488 92.682 279.497 94.4041 277.328 96.079C276.515 96.716 275.678 97.3529 274.83 97.9545L274.806 97.9663L272.225 94.8051Z" fill="#757575"/>
<path d="M268.843 93.2599V93.2363C268.843 93.201 268.843 93.1774 268.855 93.142C268.855 93.1184 268.855 93.083 268.855 93.0594C269.35 87.8813 270.563 83.8237 271.624 83.8237C271.636 83.8237 271.648 83.8237 271.659 83.8237C272.708 83.918 273.156 88.0582 272.697 93.2363V93.2599H268.843Z" fill="#AFC2CB"/>
<path opacity="0.2" d="M268.843 93.26V93.2364C268.843 93.201 268.843 93.1775 268.855 93.1421C268.855 93.1185 268.855 93.0831 268.855 93.0595C269.055 90.7948 269.444 88.5419 269.939 86.7962H269.986C270.434 88.7542 271.801 89.6624 272.862 90.0871H272.873V90.0989C272.85 91.0897 272.791 92.1395 272.697 93.2246V93.2482L268.843 93.26Z" fill="#757575"/>
<path d="M260.158 99.0046V98.981C260.158 94.1803 264.07 90.2761 268.867 90.2761C273.663 90.2761 277.564 94.1803 277.564 98.981V99.0046H260.158Z" fill="#221E29" fill-opacity="0.68"/>
<path opacity="0.2" d="M260.158 99.0045V98.9809C260.158 96.9521 260.865 94.9823 262.161 93.4371L262.196 93.3899V93.4607C262.232 95.5367 263.257 96.4803 265.861 96.8223C268.466 97.1644 268.643 98.9573 268.643 98.9809V99.0045H260.158Z" fill="black"/>
<path d="M277.54 98.957C277.54 98.0252 277.387 97.1287 277.116 96.2913" stroke="black" stroke-width="2.08297" stroke-linecap="round" stroke-linejoin="round"/>
<path d="M276.055 85.711C274.877 88.1645 273.215 93.3426 272.862 95.5837" stroke="#636363" stroke-width="2.08297" stroke-linecap="round" stroke-linejoin="round"/>
<path d="M278.295 86.5954C277.493 86.5954 276.668 86.3948 275.891 86.0056C274.853 85.4984 274.029 84.7081 273.569 83.8117C273.109 82.9034 273.062 81.9834 273.439 81.2167C273.911 80.2613 274.995 79.6951 276.338 79.6951C277.14 79.6951 277.965 79.8956 278.743 80.2849C279.78 80.7921 280.605 81.5823 281.064 82.4788C281.524 83.387 281.571 84.3071 281.194 85.0738C280.711 86.0292 279.638 86.5954 278.295 86.5954Z" fill="white"/>
<path d="M277.423 83.5642C277.328 83.5642 277.234 83.5407 277.14 83.4935C277.022 83.4345 276.916 83.3401 276.869 83.234C276.81 83.1278 276.81 83.0099 276.857 82.9155C276.916 82.7976 277.045 82.7268 277.21 82.7268C277.305 82.7268 277.399 82.7504 277.493 82.7976C277.752 82.9273 277.882 83.1868 277.788 83.3755C277.717 83.4935 277.587 83.5642 277.423 83.5642Z" fill="#636363"/>
<path d="M209.557 94.3498C209.687 92.761 209.864 91.6699 210.232 90.3417C210.232 90.33 210.244 90.3182 210.255 90.3182C210.481 90.2474 212.542 89.6659 214.745 89.6777C215.421 89.6895 217.945 90.2592 218.288 90.3299C218.312 90.3299 218.323 90.3535 218.312 90.3771C218.028 91.1014 217.873 91.5519 217.696 92.0261C217.696 92.0379 217.683 92.0497 217.66 92.0497L215.777 92.0733C215.09 92.0733 214.817 92.7138 214.604 93.3897L214.154 94.6588C214.154 94.6706 214.13 94.6824 214.117 94.6824L209.557 94.3498Z" fill="#CF5934"/>
<path d="M220.551 94.3027C220.374 93.129 220.243 91.8599 220.173 90.3772C220.173 90.3654 220.173 90.3536 220.184 90.3418C220.386 90.2239 222.352 89.1328 224.283 89.121C226.179 89.121 228.051 90.1767 228.241 90.2946C228.252 90.2946 228.252 90.3064 228.252 90.3182C228.264 91.0531 228.335 91.4801 228.383 91.9306C228.383 91.9424 228.383 91.9424 228.371 91.9554L226.119 95.0977C226.108 95.1095 226.096 95.1095 226.084 95.1095C225.741 95.0375 221.144 94.3617 220.802 94.3581C220.563 94.3263 220.551 94.3145 220.595 94.5645L220.551 94.3027Z" fill="#CF5934"/>
<path d="M216.57 55.7756C216.558 55.7756 216.558 55.7638 216.558 55.752V50.4983C216.558 48.8859 217.458 46.7274 219.71 45.4358C220.409 45.0324 220.409 44.6997 221.38 44.6997C223.833 44.6997 225.207 45.4947 225.681 46.6802C225.753 46.8701 225.835 47.1426 225.954 47.5813C226.156 48.3528 226.381 49.432 226.428 49.9416C226.428 49.9534 226.44 49.9652 226.451 49.9652C227.316 50.3686 227.34 50.8428 226.499 51.2933V51.3523C226.712 53.7244 225.978 55.4193 223.158 55.0525C223.134 55.0525 223.122 55.0643 223.122 55.0879C223.122 55.2188 223.122 55.6564 223.122 55.7402C223.122 55.752 223.122 55.7638 223.11 55.7638C222.956 55.8829 221.451 56.9492 219.912 56.9374C218.347 56.9374 216.748 55.8699 216.57 55.7756Z" fill="#CF5934"/>
<path opacity="0.2" d="M221.439 54.4001C222.281 54.8743 222.944 55.0288 223.099 55.0406C223.111 55.0406 223.122 55.0524 223.122 55.076C223.122 55.2305 223.122 55.9299 223.122 56.1788C223.122 56.2142 223.087 56.226 223.063 56.2024L221.392 54.4591C221.369 54.4237 221.404 54.3883 221.439 54.4001Z" fill="#030202"/>
<path d="M228.217 87.2702C228.205 85.8123 228.193 84.1645 228.122 82.2312C227.873 75.4713 226.179 69.7801 226.06 69.3767C226.06 69.3649 226.049 69.3531 226.025 69.3531C223.952 69.3177 216.44 69.3531 214.497 69.3413C214.485 69.3413 214.473 69.3531 214.462 69.3649C212.436 74.2151 213.265 78.958 212.471 83.5948C212.033 85.9067 210.848 88.1006 210.244 90.2945C210.244 90.3181 210.256 90.3417 210.279 90.3417C210.907 90.3417 217.862 90.3653 218.3 90.3653C218.312 90.3653 218.324 90.3535 218.335 90.3417C218.94 88.7647 219.592 86.9742 220.006 85.2792C220.018 85.2426 220.065 85.2426 220.077 85.291C220.124 85.9904 220.149 86.7253 220.124 87.5439C220.101 88.6349 220.137 89.7012 220.173 90.3417C220.173 90.3653 220.184 90.3771 220.208 90.3771C220.752 90.3771 227.695 90.3299 228.229 90.3299C228.252 90.3299 228.264 90.3181 228.264 90.2945C228.241 89.3934 228.229 88.4332 228.217 87.2702Z" fill="#475139"/>
<path opacity="0.2" d="M220.065 85.1248L219.864 83.5006L218.916 79.4206L217.826 75.6614C217.826 75.6614 217.945 74.9384 218.525 74.8558C218.609 74.844 218.691 74.844 218.762 74.844C219.141 74.844 219.461 74.9855 219.722 75.2592C220.705 76.2901 220.705 78.97 220.623 80.9033C220.504 84.022 220.717 83.2989 220.065 85.1248Z" fill="black"/>
<path d="M217.838 75.7568C218.548 78.7091 219.71 81.4126 220.042 85.2426" stroke="black" stroke-width="2.08297" stroke-linecap="round" stroke-linejoin="round"/>
<path d="M232.28 59.7718C232.269 59.76 232.269 59.7482 232.269 59.7246C233.785 56.8784 235.574 53.5462 235.42 56.0952C235.42 56.1435 235.479 56.1671 235.504 56.12C235.977 55.3367 236.913 54.0912 237.518 54.0912C237.647 54.0912 237.743 54.1513 237.825 54.2457C237.837 54.2693 237.861 54.2693 237.884 54.2575C238.252 54.0558 238.667 53.9968 238.773 54.7316C238.773 54.7552 238.784 54.767 238.808 54.767C239.246 54.8744 239.307 55.3367 239.129 55.8699C239.129 55.8829 239.129 55.8947 239.129 55.9065C239.851 56.7593 237.825 60.9572 237.138 62.7478C237.138 62.7596 237.126 62.7713 237.103 62.7713C235.905 62.736 232.588 60.0089 232.28 59.7718Z" fill="#CF5934"/>
<path d="M211.702 70.5149C210.706 70.5149 209.948 70.1363 209.438 69.3767C207.365 66.2934 211.524 59.9498 213.064 58.4436C214.853 56.7002 216.239 56.4749 216.523 56.4513C216.535 56.4513 216.546 56.4395 216.546 56.4159V55.7401C216.546 55.7165 216.558 55.7047 216.583 55.7047H223.087C223.111 55.7047 223.122 55.7165 223.122 55.7401V56.4159C223.122 56.4277 223.134 56.4513 223.146 56.4513C223.537 56.4985 226.144 56.8783 227.671 58.5863C229.129 60.2341 230.515 61.9067 230.799 62.2499C230.812 62.2735 230.847 62.2617 230.859 62.2499C231.012 61.9656 231.652 60.7554 232.328 59.6172C232.339 59.6054 232.363 59.5936 232.376 59.6054C232.754 59.8543 236.759 62.5342 237.103 62.7595C237.115 62.7713 237.126 62.7831 237.115 62.796C236.142 64.977 234.686 67.7288 233.134 68.4873C230.278 69.97 227.79 67.6569 227.02 66.4597C227.008 66.4361 226.973 66.4361 226.961 66.4715C226.831 66.8867 226.144 69.0688 226.06 69.3177C226.06 69.3295 226.049 69.3413 226.025 69.3413L215.208 69.3885C215.196 69.3885 215.196 69.3885 215.196 69.3885C215.031 69.4958 213.324 70.5149 211.702 70.5149Z" fill="#AFC2CB"/>
<path d="M216.594 53.9497C216.57 53.9497 216.558 53.9379 216.558 53.9143C216.546 53.7126 216.546 52.7631 216.546 51.9221C216.946 51.2498 216.985 50.7237 217.056 50.5184C217.64 48.8836 218.335 47.7229 219.331 45.6729C220.03 45.2695 220.397 44.688 221.369 44.688C224.165 44.747 225.432 45.542 225.859 47.2735C225.859 47.2853 225.859 47.2853 225.859 47.2971C225.788 47.546 224.579 47.8539 223.845 47.6652C223.774 47.6769 223.596 47.546 223.584 47.6404C223.584 48.9567 222.766 49.6928 222.613 49.8225C222.601 49.8343 222.577 49.8343 222.565 49.8225C222.423 49.6574 221.558 48.6607 220.409 48.6607C219.639 48.6489 218.869 49.3837 218.881 50.1787C218.81 51.0091 219.84 52.3609 220.077 52.5862C220.089 52.598 220.089 52.6216 220.077 52.6334C219.224 53.7834 216.831 53.9261 216.594 53.9497Z" fill="#010005"/>
<path d="M209.557 94.3851C209.557 94.3733 209.568 94.3497 209.592 94.3497L213.857 94.3379C213.869 94.3379 213.881 94.3261 213.892 94.3143L214.236 93.1879C214.45 92.4884 215.09 92.026 215.812 92.026L217.648 92.0614C217.672 92.0614 217.684 92.085 217.672 92.1204C216.748 94.6469 217.08 94.8121 218.56 96.4009C218.857 96.7217 219.118 96.9706 219.284 97.3268C219.296 97.3504 219.284 97.374 219.26 97.374C218.785 97.4448 214.675 98.0853 214.509 98.1089H214.497L209.498 97.3622C209.486 97.3622 209.474 97.3504 209.474 97.3268C209.462 97.078 209.474 95.429 209.557 94.3851Z" fill="#221E29" fill-opacity="0.68"/>
<path d="M209.498 98.857C209.486 98.7143 209.462 98.1563 209.462 97.3743C209.462 97.3507 209.474 97.3389 209.498 97.3389C210.089 97.3389 218.774 97.3035 219.26 97.3035C219.272 97.3035 219.284 97.3153 219.296 97.3271C219.497 97.694 219.556 98.1681 219.544 98.8322C219.544 98.857 219.533 98.8688 219.509 98.8688C218.75 98.8688 210.126 98.8924 209.533 98.8924C209.51 98.8924 209.498 98.8806 209.498 98.857Z" fill="black"/>
<path d="M221.132 97.2904C220.918 96.4376 220.705 95.4173 220.551 94.3616C220.551 94.338 220.562 94.3262 220.587 94.3262C221.013 94.3262 224.911 94.3262 225.338 94.3262C225.361 94.3262 225.373 94.3026 225.373 94.2908L225.23 93.3661C225.124 92.6784 225.705 92.0025 226.404 92.0261C226.404 92.0261 228.098 91.9671 228.346 91.9554C228.371 91.9554 228.383 91.9671 228.383 91.9907C228.524 93.8167 229.307 94.6588 230.432 95.619C231.687 96.4376 231.783 97.137 231.783 97.2786C231.783 97.2904 231.771 97.3151 231.759 97.3151C231.487 97.3623 229.508 97.9674 226.534 97.991C224.935 98.0028 221.439 97.3741 221.143 97.3151C221.143 97.3151 221.132 97.3034 221.132 97.2904Z" fill="#221E29" fill-opacity="0.68"/>
<path d="M221.606 98.8805C221.5 98.6552 221.263 97.7541 221.144 97.3625C221.132 97.3389 221.155 97.3153 221.179 97.3153C221.926 97.3153 231.262 97.3153 231.771 97.3153C231.783 97.3153 231.795 97.3271 231.807 97.3389C231.985 97.7541 232.055 98.2518 232.102 98.844C232.102 98.8687 232.091 98.8805 232.067 98.8805C231.249 98.8805 222.151 98.8923 221.641 98.8923C221.629 98.8923 221.617 98.8805 221.606 98.8805Z" fill="black"/>
<path d="M223.3 68.2266L226.629 65.9384C226.641 65.9266 226.665 65.9266 226.677 65.9501L226.972 66.4007C226.972 66.4125 226.984 66.4243 226.972 66.4243L226.072 69.2941C226.072 69.3059 226.06 69.3059 226.06 69.3059L223.277 71.3807C223.253 71.3925 223.217 71.3807 223.217 71.3571L223.277 68.2384C223.288 68.2502 223.288 68.2384 223.3 68.2266Z" fill="white"/>
<path d="M220.611 63.886L223.774 56.5823C223.786 56.5706 223.797 56.5588 223.809 56.5588C224.295 56.6413 225.42 56.9138 226.498 57.6015C226.51 57.6133 226.522 57.6251 226.51 57.6369C226.309 58.0992 223.525 64.5619 223.312 65.049C223.3 65.0608 223.288 65.0726 223.265 65.0608L220.622 63.9108C220.611 63.9344 220.611 63.9108 220.611 63.886Z" fill="white"/>
<path d="M213.146 58.361C213.964 57.5778 214.959 56.902 215.694 56.6649C215.706 56.6649 215.73 56.6649 215.73 56.6885C215.931 57.1862 218.395 63.3292 218.597 63.827C218.609 63.8388 218.597 63.8624 218.572 63.8742C218.264 64.0051 215.765 65.049 215.883 65.0006C215.836 64.8709 213.301 58.8116 213.135 58.4082C213.135 58.3846 213.146 58.3728 213.146 58.361Z" fill="white"/>
<path d="M225.03 51.8263C225.267 52.0633 225.527 52.0999 225.788 52.0397" stroke="#030202" stroke-width="2.08297" stroke-linecap="round" stroke-linejoin="round"/>
<path d="M225.326 50.2968C225.49 50.2968 225.622 50.1647 225.622 50.0007C225.622 49.8367 225.49 49.7046 225.326 49.7046C225.162 49.7046 225.03 49.8367 225.03 50.0007C225.03 50.1647 225.162 50.2968 225.326 50.2968Z" fill="#010005"/>
<path d="M216.535 50.4864C216.535 48.8739 216.546 46.1469 218.785 44.8541C219.485 44.4507 220.398 44.2254 221.369 44.2254C225.528 44.2254 225.919 47.2497 225.954 47.5458C225.954 47.5576 225.942 47.5694 225.931 47.5812L222.103 49.3599C222.091 49.3599 222.079 49.3599 222.068 49.3599C221.629 48.9813 220.563 48.4705 219.805 48.8268C218.846 49.2773 218.857 50.2139 218.952 50.7588C218.952 50.7718 218.952 50.7836 218.928 50.7954L216.583 51.8983C216.558 51.9101 216.535 51.8983 216.535 51.8617V50.4864Z" fill="#475139"/>
<path d="M230.835 62.2854L229.994 61.2663" stroke="black" stroke-width="2.08297" stroke-linecap="round" stroke-linejoin="round"/>
<path d="M214.604 73.3848C213.312 73.4084 212.34 72.5426 212.614 71.2628L213.988 64.0051C214.189 62.8786 215.219 62.2735 216.345 62.2735L219.947 62.0011H222.364C223.502 62.0011 224.378 62.8669 224.402 64.0051L224.508 71.2628C224.52 71.8785 224.259 72.5072 223.809 72.9696C223.347 73.4437 222.719 73.7056 222.091 73.7056H219.58L215.397 73.4319L214.604 73.3848Z" fill="black"/>
<path d="M212.092 73.7174C210.801 73.741 209.829 72.5426 210.101 71.2628L211.477 64.0051C211.665 62.8786 212.696 62.0011 213.834 62.0011H219.852C220.989 62.0011 221.866 62.8669 221.89 64.0051L221.997 71.2628C222.009 71.8785 221.748 72.5072 221.298 72.9696C220.836 73.4437 220.208 73.7056 219.58 73.7056L212.092 73.7174Z" fill="#221E29" fill-opacity="0.68"/>
<path d="M228.928 94.0066L227.79 94.6942" stroke="black" stroke-width="2.08297" stroke-linecap="round" stroke-linejoin="round"/>
<path d="M229.567 94.812L228.726 95.7733" stroke="black" stroke-width="2.08297" stroke-linecap="round" stroke-linejoin="round"/>
<path d="M217.139 94.5985L215.978 95.0255" stroke="black" stroke-width="2.08297" stroke-linecap="round" stroke-linejoin="round"/>
<path d="M217.589 95.4409L216.736 96.0813" stroke="black" stroke-width="2.08297" stroke-linecap="round" stroke-linejoin="round"/>
<path d="M226.984 66.4007L226.332 65.3922" stroke="black" stroke-width="2.08297" stroke-linecap="round" stroke-linejoin="round"/>
<path d="M210.907 67.1003H221.901" stroke="black" stroke-width="2.08297" stroke-linecap="round" stroke-linejoin="round"/>
<path d="M216.417 46.1234C215.043 46.1234 213.917 44.9969 213.917 43.6204C213.917 42.2451 215.043 41.1186 216.417 41.1186C217.791 41.1186 218.916 42.2451 218.916 43.6204C218.916 44.9969 217.791 46.1234 216.417 46.1234Z" fill="#475139"/>
<path d="M237.86 54.2694C237.86 54.2694 236.486 56.2616 235.74 57.4954" stroke="#030202" stroke-width="2.08297" stroke-linecap="round" stroke-linejoin="round"/>
<path d="M238.761 54.7799L236.782 58.1829" stroke="#030202" stroke-width="2.08297" stroke-linecap="round" stroke-linejoin="round"/>
<path d="M239.105 55.9181L237.683 58.775" stroke="#030202" stroke-width="2.08297" stroke-linecap="round" stroke-linejoin="round"/>
<path d="M220.646 50.5939L221.263 51.2698" stroke="#030202" stroke-width="2.08297" stroke-linecap="round" stroke-linejoin="round"/>
<path d="M223.122 55.0526C222.447 54.9806 221.226 54.2811 221.226 54.2811" stroke="#030202" stroke-width="2.08297" stroke-linecap="round" stroke-linejoin="round"/>
<path d="M190.876 30.5135C190.546 28.8267 190.075 26.1964 189.933 25.3235L189.945 25.8661C189.662 24.4035 189.144 21.6658 190.723 20.2504C191.725 19.3539 193.139 18.2451 194.647 18.2451C195.449 18.2451 196.262 18.9883 196.969 19.2713C197.996 19.6488 198.608 20.1324 199.08 20.8519C199.504 21.4889 199.81 22.3027 200.152 23.3655C200.152 23.3773 200.164 23.3891 200.176 23.3891C200.341 23.4127 201.06 23.5188 201.13 23.8491C201.225 24.2148 200.789 24.7927 200.694 24.9225C200.682 24.9343 200.682 24.9461 200.694 24.9579C201.319 26.9159 201.295 27.9893 200.635 28.9211C200.117 29.735 198.349 30.0535 197.312 29.676C197.288 29.6642 197.265 29.6878 197.265 29.7114C197.288 29.8647 197.359 30.313 197.383 30.4427C197.383 30.4663 197.371 30.5135 197.347 30.5135H190.876Z" fill="#E59763"/>
<path d="M188.79 81.9706C188.778 81.9588 188.778 81.947 188.778 81.9352C189.25 78.2315 190.098 76.2853 190.31 72.4034C190.369 71.2947 190.358 70.1977 190.287 69.03C190.287 69.0182 190.299 68.9946 190.31 68.9946C190.652 68.9238 194.07 68.0156 196.816 68.0156C197.771 68.0156 200.046 68.9592 200.305 69.0417C200.317 69.0417 200.329 69.0653 200.329 69.0771C199.975 73.3718 199.08 78.7505 198.526 81.947C198.514 81.9942 195.095 83.4108 192.208 83.399C190.782 83.3754 188.991 82.1004 188.79 81.9706Z" fill="#E59763"/>
<path opacity="0.2" d="M190.346 71.0221C190.346 70.2201 190.322 69.6185 190.287 69.0287C190.287 69.0052 190.299 68.9933 190.322 68.9933H195.743L195.755 69.0405C195.743 69.0169 190.971 70.8098 190.393 71.0457C190.37 71.0575 190.346 71.0457 190.346 71.0221Z" fill="#030202"/>
<path d="M173.421 77.2998C175.377 74.2684 177.287 72.4743 178.913 69.0419C178.913 69.0301 178.925 69.0183 178.937 69.0183C179.432 68.9947 183.121 68.2634 183.84 68.2634C186.597 68.2516 189.509 69.0065 189.521 68.9947L189.509 69.0301C187.753 72.9815 184.393 78.0665 182.308 81.2512C182.308 81.263 182.296 81.263 182.284 81.263C182.072 81.3102 179.444 81.5225 176.921 80.3902C175.683 79.8358 173.644 77.5593 173.432 77.3352C173.409 77.3234 173.409 77.3116 173.421 77.2998Z" fill="#E59763"/>
<path opacity="0.2" d="M181.341 69.0416C182.696 69.0298 188.861 68.9826 189.45 69.018C189.474 69.018 189.486 69.0416 189.474 69.0652C189.144 69.7493 188.837 70.4335 188.472 71.1176C188.46 71.1294 188.449 71.1412 188.437 71.1294C188.024 71.0114 182.508 69.4427 181.329 69.1006C181.294 69.1006 181.306 69.0416 181.341 69.0416Z" fill="#030202"/>
<path d="M215.238 61.7511C214.401 61.7511 213.47 60.5598 213.034 59.9346C213.011 59.8992 212.952 59.9228 212.964 59.97C213.081 60.5008 213.411 61.5624 212.893 61.645C212.304 61.7393 211.526 60.3947 210.524 58.9084C209.805 57.8233 208.957 56.6083 208.085 55.6057C208.073 55.5939 208.073 55.5704 208.096 55.5586C208.485 55.2873 212.327 52.1957 212.81 51.948C212.822 51.9362 212.846 51.948 212.846 51.9598C214.213 53.5534 215.203 54.8744 215.768 55.7591V55.7709C215.827 55.9714 218.386 59.7341 217.077 60.8783C217.065 60.8783 217.065 60.8901 217.065 60.9019C217.029 61.2557 216.841 61.6921 216.287 61.6921C216.134 61.6921 215.957 61.6568 215.78 61.5978C215.768 61.5978 215.768 61.5978 215.757 61.5978C215.603 61.6686 215.427 61.7629 215.238 61.7511Z" fill="#E59763"/>
<path d="M207.248 57.0682C203.039 53.3763 200.317 48.1262 199.81 47.1118C199.799 47.0764 199.751 47.0882 199.751 47.1236L199.551 48.8811C199.551 48.8929 199.539 48.9165 199.516 48.9165L189.238 48.9401C189.226 48.9401 189.226 48.9401 189.215 48.9519C189.038 49.1288 186.68 51.7238 186.668 51.6648C185.76 51.3345 185.053 50.9099 184.488 50.4145C181.259 47.56 183.227 42.2745 184.806 37.9928C185.678 35.7871 186.609 33.9942 187.235 33.3101C188.59 31.8109 190.664 31.4098 191.041 31.3509C191.065 31.3509 191.077 31.3273 191.065 31.3155C191.018 31.056 190.947 30.7965 190.9 30.5252C190.9 30.5016 190.912 30.4898 190.923 30.4898C191.407 30.4308 196.922 30.4898 197.371 30.4898C197.383 30.4898 197.406 30.5016 197.406 30.5134C197.43 30.6785 197.595 31.5632 197.618 31.7165C197.618 31.7283 197.63 31.7401 197.642 31.7401C198.09 31.7991 202.014 32.5304 203.9 37.7333L206.846 45.3897C206.846 45.3897 206.846 45.4015 206.858 45.4015C206.999 45.543 210.206 48.8693 212.81 51.9125C212.822 51.9243 212.822 51.9479 212.81 51.9597C212.445 52.3135 207.672 56.8087 207.283 57.08C207.271 57.08 207.26 57.08 207.248 57.0682Z" fill="#AFC2CB"/>
<path opacity="0.2" d="M186.621 51.6412C185.69 51.2992 185.053 50.8981 184.511 50.4381C184.488 50.4263 184.499 50.3909 184.523 50.3791C186.797 49.1996 187.057 46.6282 187.258 44.7763C187.388 43.585 187.482 42.6284 188.071 42.4987C188.095 42.4987 188.107 42.5105 188.107 42.5222L189.002 48.8575C189.002 48.8693 189.002 48.8811 188.991 48.8811C188.826 49.0698 186.656 51.712 186.621 51.6412Z" fill="#959595"/>
<path opacity="0.2" d="M196.073 29.2159C196.604 29.499 197.122 29.617 197.241 29.6406C197.253 29.6406 197.265 29.6524 197.265 29.6642L197.395 30.4662L197.477 30.9734C197.477 31.0088 197.442 31.0324 197.418 30.997L196.026 29.2631C196.015 29.2395 196.05 29.1923 196.073 29.2159Z" fill="#030202"/>
<path d="M183.451 41.8841C179.184 41.8133 178.018 36.8356 181.553 34.913C181.565 34.9012 181.577 34.8776 181.565 34.8658C180.221 32.896 180.021 30.5476 181.058 28.5659C182.072 26.6197 184.11 25.452 186.503 25.452C187.211 25.452 187.954 25.5581 188.696 25.7351C188.72 25.7351 188.743 25.7233 188.731 25.6997C188.696 24.1191 188.496 21.0275 190.629 19.3998C192.326 18.1141 194.895 17.772 196.898 18.5623C197.83 18.928 198.585 19.789 199.068 20.827C199.08 20.8388 199.068 20.8506 199.056 20.8624C198.95 20.9686 198.373 21.4993 197.324 21.4993C197.087 21.4993 196.839 21.4758 196.592 21.405C196.568 21.3932 196.545 21.4286 196.557 21.4522C197.075 22.4902 196.851 24.1073 196.062 24.815C196.05 24.8268 196.038 24.8268 196.026 24.815C195.861 24.7207 194.801 24.0129 193.834 24.0011C193.245 24.0011 192.833 24.2724 192.597 24.815C191.901 26.4782 194.506 27.87 194.718 27.988C194.73 27.988 194.73 27.9998 194.73 28.0116C195.343 33.0493 192.609 37.5906 186.02 35.3376C186.008 35.3376 185.984 35.3376 185.984 35.3494C185.808 35.6679 184.582 38.1921 183.486 41.8487C183.474 41.8723 183.462 41.8841 183.451 41.8841Z" fill="#010005"/>
<path d="M199.056 25.8661C199.233 26.2199 199.763 26.2789 200.034 26.1845" stroke="#030202" stroke-width="2.08297" stroke-linecap="round" stroke-linejoin="round"/>
<path d="M198.926 24.0261C199.089 24.0261 199.221 23.894 199.221 23.7312C199.221 23.5685 199.089 23.4364 198.926 23.4364C198.764 23.4364 198.632 23.5685 198.632 23.7312C198.632 23.894 198.764 24.0261 198.926 24.0261Z" fill="#171314"/>
<path d="M195.932 29.132C195.932 29.132 196.816 29.4623 197.265 29.6392" stroke="#030202" stroke-width="2.08297" stroke-linecap="round" stroke-linejoin="round"/>
<path d="M194.259 25.6526L195.143 26.1834" stroke="#030202" stroke-width="2.08297" stroke-linecap="round" stroke-linejoin="round"/>
<path d="M194.506 29.5697C195.169 29.5697 195.708 29.0306 195.708 28.3666C195.708 27.7025 195.169 27.1634 194.506 27.1634C193.842 27.1634 193.304 27.7025 193.304 28.3666C193.304 29.0306 193.842 29.5697 194.506 29.5697Z" fill="#A3A3A3"/>
<path d="M178.961 69.0179C178.937 69.0179 178.925 68.9943 178.937 68.9707C180.94 64.5946 181.329 60.1938 183.474 55.7352C184.947 52.5964 187.27 50.0958 189.002 48.8927C189.002 48.8927 189.014 48.8809 189.026 48.8809C189.38 48.8809 198.985 48.8455 199.516 48.9045C199.528 48.9045 199.539 48.9163 199.539 48.9281C199.645 49.3763 201.26 57.8229 200.341 69.0061C200.341 69.0297 200.329 69.0415 200.305 69.0415C199.422 69.0179 180.151 69.0179 178.961 69.0179Z" fill="#AFC2CB"/>
<path opacity="0.2" d="M199.504 48.9048C199.233 48.9048 196.922 48.9166 196.427 48.9166C196.392 48.9166 196.38 48.952 196.403 48.9756C197.666 50.0018 198.455 51.6885 199.209 53.1052C199.61 53.8365 200.058 54.2965 200.211 54.4498C200.235 54.4734 200.27 54.4498 200.27 54.4262C200.223 53.8483 199.869 50.5208 199.528 48.9284C199.539 48.9166 199.528 48.9048 199.504 48.9048Z" fill="#959595"/>
<path d="M188.401 23.4363C186.491 23.4481 185.984 21.9843 186.904 20.2858C187.977 18.1272 191.465 15.78 193.752 15.8271C195.661 15.8154 196.168 17.278 195.248 18.9765C194.176 21.135 190.711 23.4953 188.401 23.4363Z" fill="#475139"/>
<path d="M188.248 45.2717L187.14 45.7788" stroke="#959595" stroke-width="2.08297" stroke-linecap="round" stroke-linejoin="round"/>
<path d="M189.014 48.8811L188.66 46.3333H199.433L199.751 47.0057L199.539 48.9047L189.014 48.8811Z" fill="white"/>
<path opacity="0.2" d="M196.345 48.9165C196.946 47.3359 196.887 45.6846 196.84 44.3753C196.792 43.0307 196.745 41.9679 197.395 41.4489C197.406 41.4371 197.442 41.4371 197.442 41.4607C198.267 43.5025 199.386 46.1328 199.74 46.9939V47.0057C199.728 47.1236 199.551 48.6452 199.528 48.8693C199.528 48.8811 199.516 48.8929 199.492 48.8929L196.345 48.9165Z" fill="#959595"/>
<path d="M188.107 42.4869L189.002 48.8812C189.002 48.8812 187.27 50.1669 186.267 51.4526" stroke="#959595" stroke-width="2.08297" stroke-linecap="round" stroke-linejoin="round"/>
<path d="M199.751 47.0056L197.43 41.4253" stroke="#959595" stroke-width="2.08297" stroke-linecap="round" stroke-linejoin="round"/>
<path d="M196.262 98.958C196.038 98.5924 195.508 97.8729 195.142 97.46C195.131 97.4483 195.131 97.4247 195.142 97.4129C195.897 96.7169 201.896 97.2713 201.896 97.3539C202.238 97.7195 202.592 98.4862 202.639 98.9227C202.639 98.9462 202.627 98.958 202.603 98.958C202.085 98.958 196.262 98.958 196.262 98.958Z" fill="black"/>
<path d="M195.107 97.4249C194.648 96.8587 193.87 96.0684 193.174 95.7381C193.045 95.7028 189.368 94.6412 189.073 94.5586C189.061 94.5586 189.05 94.5468 189.05 94.535C188.566 91.8799 188.354 89.2967 188.425 86.6428C188.496 85.0032 188.602 83.3401 188.779 81.9942C188.779 81.9824 188.79 81.9706 188.814 81.9706C189.391 81.9706 197.795 81.947 198.502 81.947C198.526 81.947 198.538 81.9706 198.538 81.9824C198.514 82.0886 198.467 82.3717 198.432 82.584C198.161 84.1186 197.937 85.4514 197.736 86.7371C197.347 90.0044 196.651 92.9297 198.644 94.6884C199.127 95.0894 199.563 95.4197 200.034 95.7853C200.895 96.4341 201.272 96.611 201.861 97.3187C201.885 97.3423 201.861 97.3777 201.837 97.3777C201.13 97.3895 195.484 97.4485 195.142 97.4603C195.119 97.4367 195.119 97.4367 195.107 97.4249Z" fill="#475139"/>
<path d="M190.145 98.9348C189.815 98.0973 189.226 95.7618 189.049 94.5823C189.049 94.5587 189.061 94.5469 189.085 94.5469C189.415 94.5941 191.571 94.9362 193.151 95.7265C193.162 95.7265 193.174 95.7383 193.174 95.7618C193.174 96.0213 193.162 98.6045 193.162 98.923C193.162 98.9466 193.151 98.9584 193.127 98.9584C192.821 98.9584 190.428 98.9584 190.181 98.9584C190.169 98.9584 190.157 98.9466 190.145 98.9348Z" fill="black"/>
<path d="M207.436 54.5439C206.905 54.5439 206.481 54.1193 206.481 53.5885C206.481 53.0577 206.905 52.6319 207.436 52.6319C207.967 52.6319 208.391 53.0577 208.391 53.5885C208.391 54.1193 207.967 54.5439 207.436 54.5439Z" fill="white"/>
<path d="M197.618 31.7272C197.618 31.7272 198.043 31.7626 198.561 31.9631" stroke="#959595" stroke-width="2.08297" stroke-linecap="round" stroke-linejoin="round"/>
<path d="M192.821 88.7424C192.137 88.7542 191.536 88.129 191.583 87.4449C191.583 87.4449 191.831 82.4307 191.854 81.9825C191.854 81.9589 191.866 81.9471 191.89 81.9471L195.201 81.9353C195.225 81.9353 195.237 81.9589 195.237 81.9707L194.046 87.7398C193.917 88.3414 193.41 88.7424 192.821 88.7424Z" fill="black"/>
<path d="M172.914 96.3276C172.843 95.9265 172.631 95.0773 172.454 94.5347C172.442 94.5111 172.466 94.4875 172.489 94.4875C172.925 94.5937 175.518 95.1127 175.648 95.148H175.659C175.801 95.2306 178.654 97.0707 178.843 97.1886C178.854 97.1886 178.854 97.2004 178.854 97.2004C179.031 97.7076 179.055 98.5097 178.925 98.9226C178.913 98.9461 178.902 98.9461 178.878 98.9461C178.407 98.7338 173.255 96.4809 172.925 96.3394L172.914 96.3276Z" fill="black"/>
<path d="M172.43 94.4643C172.136 93.5561 171.758 92.8 171.393 92.3754C171.311 92.2928 168.459 89.6742 168.235 89.4737C168.223 89.4619 168.223 89.4501 168.223 89.4383C169.178 85.2746 171.11 80.8973 173.385 77.3351C173.397 77.3233 173.408 77.3115 173.42 77.3233C173.915 77.5121 181.647 80.9917 182.248 81.2512C182.272 81.263 182.272 81.2866 182.26 81.2984C181.27 82.8436 180.103 84.5786 179.243 85.9351C177.77 88.4593 175.813 91.0071 176.967 93.4263C177.251 93.9925 177.534 94.4879 177.805 94.9951C178.241 95.7854 178.63 96.4577 178.831 97.1301C178.842 97.1537 178.807 97.1773 178.783 97.1655C178.135 96.8942 172.748 94.6059 172.442 94.4761C172.43 94.4761 172.43 94.4761 172.43 94.4643Z" fill="#475139"/>
<path d="M167.457 93.9217C167.493 93.142 167.929 90.5588 168.211 89.4972C168.223 89.4737 168.247 89.4619 168.259 89.4855C170.321 90.9245 171.276 92.2102 171.382 92.3635C171.393 92.3753 171.393 92.3871 171.382 92.3989C171.287 92.6112 170.321 94.8417 170.203 95.1248C170.191 95.1366 170.18 95.1484 170.156 95.1366L167.469 93.9571C167.469 93.9453 167.457 93.9335 167.457 93.9217Z" fill="black"/>
<path d="M174.564 85.1317C173.68 85.1553 173.02 84.1409 173.456 83.3506C173.456 83.3506 175.683 78.8318 175.884 78.4308C175.895 78.419 175.907 78.4072 175.931 78.419L178.949 79.7755C178.972 79.7872 178.972 79.8108 178.961 79.8226L175.577 84.6127C175.341 84.9312 174.964 85.1317 174.564 85.1317Z" fill="black"/>
<path d="M190.028 18.2451L190.523 18.8821" stroke="black" stroke-width="2.08297" stroke-linecap="round" stroke-linejoin="round"/>
<path d="M217.065 60.8769C217.065 60.8769 215.733 58.0696 214.672 56.4419" stroke="#030202" stroke-width="2.08297" stroke-linecap="round" stroke-linejoin="round"/>
<path d="M215.768 61.586C215.768 61.586 213.953 58.2715 213.376 57.3515" stroke="#030202" stroke-width="2.08297" stroke-linecap="round" stroke-linejoin="round"/>
<path d="M212.975 59.9214C212.975 59.9214 212.763 59.1901 212.186 58.2701" stroke="#030202" stroke-width="2.08297" stroke-linecap="round" stroke-linejoin="round"/>
</g>
</g>
</svg>
