<svg width="83" height="83" viewBox="0 0 83 83" fill="none" xmlns="http://www.w3.org/2000/svg">
<path d="M53.0814 83H29.9186C8.95628 83 0 74.0437 0 53.0814V29.9186C0 8.95628 8.95628 0 29.9186 0H53.0814C74.0437 0 83 8.95628 83 29.9186V53.0814C83 74.0437 74.0437 83 53.0814 83ZM29.9186 5.7907C12.1219 5.7907 5.7907 12.1219 5.7907 29.9186V53.0814C5.7907 70.8781 12.1219 77.2093 29.9186 77.2093H53.0814C70.8781 77.2093 77.2093 70.8781 77.2093 53.0814V29.9186C77.2093 12.1219 70.8781 5.7907 53.0814 5.7907H29.9186Z" fill="#2A9E66"/>
<path d="M55.9768 32.814H27.0233C25.4405 32.814 24.1279 31.5014 24.1279 29.9187C24.1279 28.3359 25.4405 27.0233 27.0233 27.0233H55.9768C57.5596 27.0233 58.8721 28.3359 58.8721 29.9187C58.8721 31.5014 57.5596 32.814 55.9768 32.814Z" fill="#2A9E66"/>
<path d="M55.9768 55.9767H27.0233C25.4405 55.9767 24.1279 54.6641 24.1279 53.0813C24.1279 51.4985 25.4405 50.186 27.0233 50.186H55.9768C57.5596 50.186 58.8721 51.4985 58.8721 53.0813C58.8721 54.6641 57.5596 55.9767 55.9768 55.9767Z" fill="#2A9E66"/>
</svg>
