<svg width="24" height="24" viewBox="0 0 24 24" fill="none" xmlns="http://www.w3.org/2000/svg">
<path d="M14.5 2.00019C15.0829 2.00012 15.6552 2.15684 16.1567 2.45392C16.6583 2.75101 17.0707 3.17752 17.3507 3.68877C17.6308 4.20002 17.7682 4.77719 17.7485 5.35979C17.7289 5.94239 17.5529 6.50898 17.239 7.00019H19.75C20.44 7.00019 21 7.56019 21 8.25019V11.7502C21.0001 12.0384 20.9006 12.3177 20.7183 12.5409C20.5361 12.7641 20.2823 12.9176 20 12.9752V18.7502C20.0001 19.5803 19.6824 20.379 19.1123 20.9824C18.5422 21.5858 17.7628 21.9482 16.934 21.9952L16.75 22.0002H7.25C6.41986 22.0002 5.62117 21.6826 5.01777 21.1125C4.41437 20.5424 4.052 19.763 4.005 18.9342L4 18.7502V12.9752C3.43 12.8592 3 12.3552 3 11.7502V8.25019C3 7.56019 3.56 7.00019 4.25 7.00019H6.761C6.31242 6.30324 6.14707 5.46125 6.29875 4.64642C6.45044 3.83159 6.90771 3.1055 7.57704 2.61667C8.24636 2.12783 9.07716 1.91319 9.8995 2.01664C10.7219 2.12008 11.4736 2.53381 12.001 3.17319C12.3055 2.8057 12.6873 2.50999 13.1193 2.30722C13.5513 2.10444 14.0228 1.9996 14.5 2.00019ZM11.25 12.9992H5.5V18.7502C5.50002 19.1894 5.66517 19.6125 5.96268 19.9356C6.26019 20.2587 6.6683 20.458 7.106 20.4942L7.25 20.5002H11.25V12.9992ZM18.5 12.9992H12.75V20.5002H16.75C17.1893 20.5002 17.6126 20.3349 17.9357 20.0371C18.2588 19.7394 18.4581 19.3311 18.494 18.8932L18.5 18.7502V12.9992ZM11.25 8.50019H4.5V11.5002L11.25 11.4992V8.50019ZM19.5 11.5002V8.50019H12.75V11.4992L19.5 11.5002ZM14.5 3.50019C14.0359 3.50019 13.5908 3.68456 13.2626 4.01275C12.9344 4.34094 12.75 4.78606 12.75 5.25019V6.99919H14.524L14.644 6.99419C15.094 6.95683 15.5121 6.747 15.811 6.40856C16.1098 6.07012 16.2663 5.62926 16.2477 5.17813C16.2291 4.72699 16.0369 4.3005 15.7112 3.9878C15.3855 3.6751 14.9515 3.50039 14.5 3.50019ZM9.5 3.50019C9.04848 3.50039 8.61452 3.6751 8.28881 3.9878C7.96311 4.3005 7.77086 4.72699 7.75227 5.17813C7.73368 5.62926 7.89017 6.07012 8.18904 6.40856C8.48792 6.747 8.90603 6.95683 9.356 6.99419L9.476 6.99919H11.25V5.25019L11.244 5.10619C11.2079 4.66849 11.0085 4.26038 10.6854 3.96287C10.3623 3.66536 9.93919 3.50021 9.5 3.50019Z" fill="#2A9E66"/>
</svg>
