<svg width="30" height="30" viewBox="0 0 30 30" fill="none" xmlns="http://www.w3.org/2000/svg">
<path d="M16.75 21.7751H13.6125C11.5625 21.7751 9.89995 20.0501 9.89995 17.9251C9.89995 17.4126 10.325 16.9876 10.8375 16.9876C11.35 16.9876 11.775 17.4126 11.775 17.9251C11.775 19.0126 12.6 19.9001 13.6125 19.9001H16.75C17.5624 19.9001 18.2375 19.1751 18.2375 18.3001C18.2375 17.2126 17.85 17.0001 17.2125 16.7751L12.175 15.0001C11.2 14.6626 9.88745 13.9376 9.88745 11.7001C9.88745 9.7751 11.4 8.2251 13.25 8.2251H16.3875C18.4375 8.2251 20.0999 9.9501 20.0999 12.0751C20.0999 12.5876 19.675 13.0126 19.1625 13.0126C18.65 13.0126 18.225 12.5876 18.225 12.0751C18.225 10.9876 17.4 10.1001 16.3875 10.1001H13.25C12.4375 10.1001 11.7625 10.8251 11.7625 11.7001C11.7625 12.7876 12.15 13.0001 12.7875 13.2251L17.825 15.0001C18.8 15.3376 20.1125 16.0626 20.1125 18.3001C20.1 20.2126 18.5999 21.7751 16.75 21.7751Z" fill="#F3F4F6"/>
<path d="M15 23.4375C14.4875 23.4375 14.0625 23.0125 14.0625 22.5V7.5C14.0625 6.9875 14.4875 6.5625 15 6.5625C15.5125 6.5625 15.9375 6.9875 15.9375 7.5V22.5C15.9375 23.0125 15.5125 23.4375 15 23.4375Z" fill="#F3F4F6"/>
</svg>
