<svg width="28" height="28" viewBox="0 0 28 28" fill="none" xmlns="http://www.w3.org/2000/svg">
<path d="M14.0235 23.9517C11.3052 23.9517 8.58684 23.5201 6.00851 22.6567C5.02851 22.3184 4.28184 21.6301 3.95517 20.7317C3.61684 19.8334 3.73351 18.8417 4.27017 17.9551L5.61184 15.7267C5.89184 15.2601 6.14851 14.3267 6.14851 13.7784V10.4067C6.14851 6.06674 9.68351 2.53174 14.0235 2.53174C18.3635 2.53174 21.8985 6.06674 21.8985 10.4067V13.7784C21.8985 14.3151 22.1552 15.2601 22.4352 15.7384L23.7652 17.9551C24.2668 18.7951 24.3602 19.8101 24.0218 20.7317C23.6835 21.6534 22.9485 22.3534 22.0268 22.6567C19.4602 23.5201 16.7418 23.9517 14.0235 23.9517ZM14.0235 4.28174C10.6518 4.28174 7.89851 7.02341 7.89851 10.4067V13.7784C7.89851 14.6301 7.54851 15.8901 7.11684 16.6251L5.77517 18.8534C5.51851 19.2851 5.44851 19.7401 5.60017 20.1251C5.74017 20.5217 6.09017 20.8251 6.56851 20.9884C11.4452 22.6217 16.6135 22.6217 21.4902 20.9884C21.9102 20.8484 22.2368 20.5334 22.3885 20.1134C22.5402 19.6934 22.5052 19.2384 22.2718 18.8534L20.9302 16.6251C20.4868 15.8667 20.1485 14.6184 20.1485 13.7667V10.4067C20.1485 7.02341 17.4068 4.28174 14.0235 4.28174Z" fill="white"/>
<path d="M16.1934 4.59671C16.1117 4.59671 16.0301 4.58504 15.9484 4.56171C15.6101 4.46838 15.2834 4.39838 14.9684 4.35171C13.9767 4.22338 13.0201 4.29338 12.1217 4.56171C11.7951 4.66671 11.4451 4.56171 11.2234 4.31671C11.0017 4.07171 10.9317 3.72171 11.0601 3.40671C11.5384 2.18171 12.7051 1.37671 14.0351 1.37671C15.3651 1.37671 16.5317 2.17004 17.0101 3.40671C17.1267 3.72171 17.0684 4.07171 16.8467 4.31671C16.6717 4.50338 16.4267 4.59671 16.1934 4.59671Z" fill="white"/>
<path d="M14.0234 26.6116C12.8684 26.6116 11.7484 26.1449 10.9318 25.3282C10.1151 24.5116 9.64844 23.3916 9.64844 22.2366H11.3984C11.3984 22.9249 11.6784 23.6016 12.1684 24.0916C12.6584 24.5816 13.3351 24.8616 14.0234 24.8616C15.4701 24.8616 16.6484 23.6832 16.6484 22.2366H18.3984C18.3984 24.6516 16.4384 26.6116 14.0234 26.6116Z" fill="white"/>
</svg>
