<svg width="24" height="24" viewBox="0 0 24 24" fill="none" xmlns="http://www.w3.org/2000/svg">
<path d="M18 10.75C17.59 10.75 17.25 10.41 17.25 10V8C17.25 4.85 16.36 2.75 12 2.75C7.64 2.75 6.75 4.85 6.75 8V10C6.75 10.41 6.41 10.75 6 10.75C5.59 10.75 5.25 10.41 5.25 10V8C5.25 5.1 5.95 1.25 12 1.25C18.05 1.25 18.75 5.1 18.75 8V10C18.75 10.41 18.41 10.75 18 10.75Z" fill="#2A9E66"/>
<path d="M17 22.75H7C2.59 22.75 1.25 21.41 1.25 17V15C1.25 10.59 2.59 9.25 7 9.25H17C21.41 9.25 22.75 10.59 22.75 15V17C22.75 21.41 21.41 22.75 17 22.75ZM7 10.75C3.42 10.75 2.75 11.43 2.75 15V17C2.75 20.57 3.42 21.25 7 21.25H17C20.58 21.25 21.25 20.57 21.25 17V15C21.25 11.43 20.58 10.75 17 10.75H7Z" fill="#2A9E66"/>
<path d="M8 17.0001C7.87 17.0001 7.74 16.9701 7.62 16.9201C7.49 16.8701 7.39001 16.8001 7.29001 16.7101C7.11001 16.5201 7 16.2701 7 16.0001C7 15.8701 7.02999 15.7401 7.07999 15.6201C7.12999 15.4901 7.20001 15.3901 7.29001 15.2901C7.39001 15.2001 7.49 15.1301 7.62 15.0801C7.98 14.9201 8.42999 15.0101 8.70999 15.2901C8.79999 15.3901 8.87001 15.5001 8.92001 15.6201C8.97001 15.7401 9 15.8701 9 16.0001C9 16.2601 8.88999 16.5201 8.70999 16.7101C8.51999 16.8901 8.26 17.0001 8 17.0001Z" fill="#2A9E66"/>
<path d="M12 17.0002C11.74 17.0002 11.48 16.8901 11.29 16.7101C11.11 16.5201 11 16.2702 11 16.0002C11 15.8702 11.02 15.7402 11.08 15.6202C11.13 15.5002 11.2 15.3902 11.29 15.2902C11.52 15.0602 11.87 14.9501 12.19 15.0201C12.26 15.0301 12.32 15.0501 12.38 15.0801C12.44 15.1001 12.5 15.1302 12.56 15.1702C12.61 15.2002 12.66 15.2502 12.71 15.2902C12.8 15.3902 12.87 15.5002 12.92 15.6202C12.97 15.7402 13 15.8702 13 16.0002C13 16.2702 12.89 16.5201 12.71 16.7101C12.66 16.7501 12.61 16.7901 12.56 16.8301C12.5 16.8701 12.44 16.9002 12.38 16.9202C12.32 16.9502 12.26 16.9702 12.19 16.9802C12.13 16.9902 12.06 17.0002 12 17.0002Z" fill="#2A9E66"/>
<path d="M16 17.0002C15.73 17.0002 15.48 16.8901 15.29 16.7101C15.2 16.6101 15.13 16.5002 15.08 16.3802C15.03 16.2602 15 16.1302 15 16.0002C15 15.7402 15.11 15.4802 15.29 15.2902C15.34 15.2502 15.39 15.2102 15.44 15.1702C15.5 15.1302 15.56 15.1001 15.62 15.0801C15.68 15.0501 15.74 15.0301 15.8 15.0201C16.13 14.9501 16.47 15.0602 16.71 15.2902C16.89 15.4802 17 15.7302 17 16.0002C17 16.1302 16.97 16.2602 16.92 16.3802C16.87 16.5102 16.8 16.6101 16.71 16.7101C16.52 16.8901 16.26 17.0002 16 17.0002Z" fill="#2A9E66"/>
</svg>
